# Exported by Open CASCADE Technology [dev.opencascade.org]
#  Vertices: 146
#     Faces: 140
mtllib occ-cylinder.mtl
g Cylinder
usemtl mat_1
v 2.000000 -0.000000 0.000000
v 1.969615 0.347296 0.000000
v 1.879385 0.684040 0.000000
v 1.732051 1.000000 0.000000
v 1.532089 1.285575 0.000000
v 1.285575 1.532089 0.000000
v 1.000000 1.732051 0.000000
v 0.684040 1.879385 0.000000
v 0.347296 1.969615 0.000000
v 0.000000 2.000000 0.000000
v -0.347296 1.969615 0.000000
v -0.684040 1.879385 0.000000
v -1.000000 1.732051 0.000000
v -1.285575 1.532089 0.000000
v -1.532089 1.285575 0.000000
v -1.732051 1.000000 0.000000
v -1.879385 0.684040 0.000000
v -1.969615 0.347296 0.000000
v -2.000000 0.000000 0.000000
v -1.969615 -0.347296 0.000000
v -1.879385 -0.684040 0.000000
v -1.732051 -1.000000 0.000000
v -1.532089 -1.285575 0.000000
v -1.285575 -1.532089 0.000000
v -1.000000 -1.732051 0.000000
v -0.684040 -1.879385 0.000000
v -0.347296 -1.969615 0.000000
v -0.000000 -2.000000 0.000000
v 0.347296 -1.969615 0.000000
v 0.684040 -1.879385 0.000000
v 1.000000 -1.732051 0.000000
v 1.285575 -1.532089 0.000000
v 1.532089 -1.285575 0.000000
v 1.732051 -1.000000 0.000000
v 1.879385 -0.684040 0.000000
v 1.969615 -0.347296 0.000000
v 2.000000 -0.000000 0.000000
v 2.000000 -0.000000 10.000000
v 2.000000 -0.000000 10.000000
v 1.969615 0.347296 10.000000
v 1.879385 0.684040 10.000000
v 1.732051 1.000000 10.000000
v 1.532089 1.285575 10.000000
v 1.285575 1.532089 10.000000
v 1.000000 1.732051 10.000000
v 0.684040 1.879385 10.000000
v 0.347296 1.969615 10.000000
v 0.000000 2.000000 10.000000
v -0.347296 1.969615 10.000000
v -0.684040 1.879385 10.000000
v -1.000000 1.732051 10.000000
v -1.285575 1.532089 10.000000
v -1.532089 1.285575 10.000000
v -1.732051 1.000000 10.000000
v -1.879385 0.684040 10.000000
v -1.969615 0.347296 10.000000
v -2.000000 0.000000 10.000000
v -1.969615 -0.347296 10.000000
v -1.879385 -0.684040 10.000000
v -1.732051 -1.000000 10.000000
v -1.532089 -1.285575 10.000000
v -1.285575 -1.532089 10.000000
v -1.000000 -1.732051 10.000000
v -0.684040 -1.879385 10.000000
v -0.347296 -1.969615 10.000000
v -0.000000 -2.000000 10.000000
v 0.347296 -1.969615 10.000000
v 0.684040 -1.879385 10.000000
v 1.000000 -1.732051 10.000000
v 1.285575 -1.532089 10.000000
v 1.532089 -1.285575 10.000000
v 1.732051 -1.000000 10.000000
v 1.879385 -0.684040 10.000000
v 1.969615 -0.347296 10.000000
vn 1.000000 0.000000 -0.000000
vn 0.984808 0.173648 -0.000000
vn 0.939693 0.342020 -0.000000
vn 0.866025 0.500000 -0.000000
vn 0.766044 0.642788 -0.000000
vn 0.642788 0.766044 -0.000000
vn 0.500000 0.866025 -0.000000
vn 0.342020 0.939693 -0.000000
vn 0.173648 0.984808 -0.000000
vn -0.000000 1.000000 0.000000
vn -0.173648 0.984808 0.000000
vn -0.342020 0.939693 0.000000
vn -0.500000 0.866025 0.000000
vn -0.642788 0.766044 0.000000
vn -0.766044 0.642788 0.000000
vn -0.866025 0.500000 0.000000
vn -0.939693 0.342020 0.000000
vn -0.984808 0.173648 0.000000
vn -1.000000 0.000000 0.000000
vn -0.984808 -0.173648 0.000000
vn -0.939693 -0.342020 0.000000
vn -0.866025 -0.500000 0.000000
vn -0.766044 -0.642788 0.000000
vn -0.642788 -0.766044 0.000000
vn -0.500000 -0.866025 0.000000
vn -0.342020 -0.939693 0.000000
vn -0.173648 -0.984808 0.000000
vn -0.000000 -1.000000 0.000000
vn 0.173648 -0.984808 0.000000
vn 0.342020 -0.939693 0.000000
vn 0.500000 -0.866025 0.000000
vn 0.642788 -0.766044 0.000000
vn 0.766044 -0.642788 0.000000
vn 0.866025 -0.500000 0.000000
vn 0.939693 -0.342020 0.000000
vn 0.984808 -0.173648 0.000000
vn 1.000000 0.000000 -0.000000
vn 1.000000 0.000000 -0.000000
vn 1.000000 0.000000 -0.000000
vn 0.984808 0.173648 -0.000000
vn 0.939693 0.342020 -0.000000
vn 0.866025 0.500000 -0.000000
vn 0.766044 0.642788 -0.000000
vn 0.642788 0.766044 -0.000000
vn 0.500000 0.866025 -0.000000
vn 0.342020 0.939693 -0.000000
vn 0.173648 0.984808 -0.000000
vn -0.000000 1.000000 0.000000
vn -0.173648 0.984808 0.000000
vn -0.342020 0.939693 0.000000
vn -0.500000 0.866025 0.000000
vn -0.642788 0.766044 0.000000
vn -0.766044 0.642788 0.000000
vn -0.866025 0.500000 0.000000
vn -0.939693 0.342020 0.000000
vn -0.984808 0.173648 0.000000
vn -1.000000 0.000000 0.000000
vn -0.984808 -0.173648 0.000000
vn -0.939693 -0.342020 0.000000
vn -0.866025 -0.500000 0.000000
vn -0.766044 -0.642788 0.000000
vn -0.642788 -0.766044 0.000000
vn -0.500000 -0.866025 0.000000
vn -0.342020 -0.939693 0.000000
vn -0.173648 -0.984808 0.000000
vn -0.000000 -1.000000 0.000000
vn 0.173648 -0.984808 0.000000
vn 0.342020 -0.939693 0.000000
vn 0.500000 -0.866025 0.000000
vn 0.642788 -0.766044 0.000000
vn 0.766044 -0.642788 0.000000
vn 0.866025 -0.500000 0.000000
vn 0.939693 -0.342020 0.000000
vn 0.984808 -0.173648 0.000000
vt 6.283185 0.000000
vt 6.108653 0.000000
vt 5.934119 0.000000
vt 5.759586 0.000000
vt 5.585053 0.000000
vt 5.410521 0.000000
vt 5.235988 0.000000
vt 5.061455 0.000000
vt 4.886922 0.000000
vt 4.712389 0.000000
vt 4.537856 0.000000
vt 4.363323 0.000000
vt 4.188790 0.000000
vt 4.014257 0.000000
vt 3.839724 0.000000
vt 3.665191 0.000000
vt 3.490659 0.000000
vt 3.316126 0.000000
vt 3.141593 0.000000
vt 2.967060 0.000000
vt 2.792527 0.000000
vt 2.617994 0.000000
vt 2.443461 0.000000
vt 2.268928 0.000000
vt 2.094395 0.000000
vt 1.919862 0.000000
vt 1.745329 0.000000
vt 1.570796 0.000000
vt 1.396263 0.000000
vt 1.221730 0.000000
vt 1.047198 0.000000
vt 0.872665 0.000000
vt 0.698132 0.000000
vt 0.523599 0.000000
vt 0.349066 0.000000
vt 0.174533 0.000000
vt -0.000000 0.000000
vt 0.000000 -10.000000
vt 6.283185 -10.000000
vt 6.108653 -10.000000
vt 5.934119 -10.000000
vt 5.759586 -10.000000
vt 5.585053 -10.000000
vt 5.410521 -10.000000
vt 5.235988 -10.000000
vt 5.061455 -10.000000
vt 4.886922 -10.000000
vt 4.712389 -10.000000
vt 4.537856 -10.000000
vt 4.363323 -10.000000
vt 4.188790 -10.000000
vt 4.014257 -10.000000
vt 3.839724 -10.000000
vt 3.665191 -10.000000
vt 3.490659 -10.000000
vt 3.316126 -10.000000
vt 3.141593 -10.000000
vt 2.967060 -10.000000
vt 2.792527 -10.000000
vt 2.617994 -10.000000
vt 2.443461 -10.000000
vt 2.268928 -10.000000
vt 2.094395 -10.000000
vt 1.919862 -10.000000
vt 1.745329 -10.000000
vt 1.570796 -10.000000
vt 1.396263 -10.000000
vt 1.221730 -10.000000
vt 1.047198 -10.000000
vt 0.872665 -10.000000
vt 0.698132 -10.000000
vt 0.523599 -10.000000
vt 0.349066 -10.000000
vt 0.174533 -10.000000
f 36/36/36 37/37/37 38/38/38
f 36/36/36 38/38/38 74/74/74
f 35/35/35 74/74/74 73/73/73
f 35/35/35 36/36/36 74/74/74
f 34/34/34 73/73/73 72/72/72
f 34/34/34 35/35/35 73/73/73
f 33/33/33 72/72/72 71/71/71
f 33/33/33 34/34/34 72/72/72
f 32/32/32 71/71/71 70/70/70
f 32/32/32 33/33/33 71/71/71
f 31/31/31 32/32/32 70/70/70
f 31/31/31 70/70/70 69/69/69
f 30/30/30 31/31/31 69/69/69
f 30/30/30 68/68/68 67/67/67
f 30/30/30 69/69/69 68/68/68
f 29/29/29 30/30/30 67/67/67
f 29/29/29 67/67/67 66/66/66
f 28/28/28 29/29/29 66/66/66
f 27/27/27 28/28/28 66/66/66
f 27/27/27 66/66/66 65/65/65
f 26/26/26 27/27/27 65/65/65
f 26/26/26 65/65/65 64/64/64
f 25/25/25 26/26/26 64/64/64
f 25/25/25 64/64/64 63/63/63
f 24/24/24 25/25/25 63/63/63
f 24/24/24 63/63/63 62/62/62
f 23/23/23 24/24/24 62/62/62
f 23/23/23 61/61/61 60/60/60
f 23/23/23 62/62/62 61/61/61
f 22/22/22 23/23/23 60/60/60
f 21/21/21 22/22/22 60/60/60
f 21/21/21 60/60/60 59/59/59
f 20/20/20 21/21/21 59/59/59
f 20/20/20 59/59/59 58/58/58
f 19/19/19 20/20/20 58/58/58
f 19/19/19 58/58/58 57/57/57
f 18/18/18 57/57/57 56/56/56
f 18/18/18 19/19/19 57/57/57
f 17/17/17 56/56/56 55/55/55
f 17/17/17 18/18/18 56/56/56
f 16/16/16 17/17/17 55/55/55
f 16/16/16 55/55/55 54/54/54
f 15/15/15 54/54/54 53/53/53
f 15/15/15 16/16/16 54/54/54
f 14/14/14 52/52/52 51/51/51
f 14/14/14 53/53/53 52/52/52
f 14/14/14 15/15/15 53/53/53
f 13/13/13 51/51/51 50/50/50
f 13/13/13 14/14/14 51/51/51
f 12/12/12 13/13/13 50/50/50
f 11/11/11 50/50/50 49/49/49
f 11/11/11 12/12/12 50/50/50
f 10/10/10 49/49/49 48/48/48
f 10/10/10 11/11/11 49/49/49
f 9/9/9 48/48/48 47/47/47
f 9/9/9 10/10/10 48/48/48
f 8/8/8 47/47/47 46/46/46
f 8/8/8 9/9/9 47/47/47
f 7/7/7 46/46/46 45/45/45
f 7/7/7 8/8/8 46/46/46
f 6/6/6 45/45/45 44/44/44
f 6/6/6 7/7/7 45/45/45
f 5/5/5 6/6/6 44/44/44
f 5/5/5 44/44/44 43/43/43
f 4/4/4 5/5/5 43/43/43
f 4/4/4 43/43/43 42/42/42
f 3/3/3 4/4/4 42/42/42
f 3/3/3 42/42/42 41/41/41
f 2/2/2 3/3/3 41/41/41
f 2/2/2 41/41/41 40/40/40
f 1/1/1 2/2/2 40/40/40
f 1/1/1 40/40/40 39/39/39
v 2.000000 -0.000000 0.000000
v 1.969615 0.347296 0.000000
v 1.879385 0.684040 0.000000
v 1.732051 1.000000 0.000000
v 1.532089 1.285575 0.000000
v 1.285575 1.532089 0.000000
v 1.000000 1.732051 0.000000
v 0.684040 1.879385 0.000000
v 0.347296 1.969615 0.000000
v 0.000000 2.000000 0.000000
v -0.347296 1.969615 0.000000
v -0.684040 1.879385 0.000000
v -1.000000 1.732051 0.000000
v -1.285575 1.532089 0.000000
v -1.532089 1.285575 0.000000
v -1.732051 1.000000 0.000000
v -1.879385 0.684040 0.000000
v -1.969615 0.347296 0.000000
v -2.000000 0.000000 0.000000
v -1.969615 -0.347296 0.000000
v -1.879385 -0.684040 0.000000
v -1.732051 -1.000000 0.000000
v -1.532089 -1.285575 0.000000
v -1.285575 -1.532089 0.000000
v -1.000000 -1.732051 0.000000
v -0.684040 -1.879385 0.000000
v -0.347296 -1.969615 0.000000
v -0.000000 -2.000000 0.000000
v 0.347296 -1.969615 0.000000
v 0.684040 -1.879385 0.000000
v 1.000000 -1.732051 0.000000
v 1.285575 -1.532089 0.000000
v 1.532089 -1.285575 0.000000
v 1.732051 -1.000000 0.000000
v 1.879385 -0.684040 0.000000
v 1.969615 -0.347296 0.000000
vn -0.000000 -0.000000 -1.000000
vn -0.000000 -0.000000 -1.000000
vn -0.000000 -0.000000 -1.000000
vn -0.000000 -0.000000 -1.000000
vn -0.000000 -0.000000 -1.000000
vn -0.000000 -0.000000 -1.000000
vn -0.000000 -0.000000 -1.000000
vn -0.000000 -0.000000 -1.000000
vn -0.000000 -0.000000 -1.000000
vn -0.000000 -0.000000 -1.000000
vn -0.000000 -0.000000 -1.000000
vn -0.000000 -0.000000 -1.000000
vn -0.000000 -0.000000 -1.000000
vn -0.000000 -0.000000 -1.000000
vn -0.000000 -0.000000 -1.000000
vn -0.000000 -0.000000 -1.000000
vn -0.000000 -0.000000 -1.000000
vn -0.000000 -0.000000 -1.000000
vn -0.000000 -0.000000 -1.000000
vn -0.000000 -0.000000 -1.000000
vn -0.000000 -0.000000 -1.000000
vn -0.000000 -0.000000 -1.000000
vn -0.000000 -0.000000 -1.000000
vn -0.000000 -0.000000 -1.000000
vn -0.000000 -0.000000 -1.000000
vn -0.000000 -0.000000 -1.000000
vn -0.000000 -0.000000 -1.000000
vn -0.000000 -0.000000 -1.000000
vn -0.000000 -0.000000 -1.000000
vn -0.000000 -0.000000 -1.000000
vn -0.000000 -0.000000 -1.000000
vn -0.000000 -0.000000 -1.000000
vn -0.000000 -0.000000 -1.000000
vn -0.000000 -0.000000 -1.000000
vn -0.000000 -0.000000 -1.000000
vn -0.000000 -0.000000 -1.000000
vt 2.000000 -0.000000
vt 1.969615 0.347296
vt 1.879385 0.684040
vt 1.732051 1.000000
vt 1.532089 1.285575
vt 1.285575 1.532089
vt 1.000000 1.732051
vt 0.684040 1.879385
vt 0.347296 1.969615
vt 0.000000 2.000000
vt -0.347296 1.969615
vt -0.684040 1.879385
vt -1.000000 1.732051
vt -1.285575 1.532089
vt -1.532089 1.285575
vt -1.732051 1.000000
vt -1.879385 0.684040
vt -1.969615 0.347296
vt -2.000000 0.000000
vt -1.969615 -0.347296
vt -1.879385 -0.684040
vt -1.732051 -1.000000
vt -1.532089 -1.285575
vt -1.285575 -1.532089
vt -1.000000 -1.732051
vt -0.684040 -1.879385
vt -0.347296 -1.969615
vt -0.000000 -2.000000
vt 0.347296 -1.969615
vt 0.684040 -1.879385
vt 1.000000 -1.732051
vt 1.285575 -1.532089
vt 1.532089 -1.285575
vt 1.732051 -1.000000
vt 1.879385 -0.684040
vt 1.969615 -0.347296
f 95/95/95 97/97/97 96/96/96
f 101/101/101 100/100/100 99/99/99
f 91/91/91 93/93/93 92/92/92
f 91/91/91 94/94/94 93/93/93
f 91/91/91 95/95/95 94/94/94
f 91/91/91 98/98/98 97/97/97
f 91/91/91 99/99/99 98/98/98
f 91/91/91 97/97/97 95/95/95
f 89/89/89 91/91/91 90/90/90
f 107/107/107 103/103/103 102/102/102
f 107/107/107 104/104/104 103/103/103
f 107/107/107 105/105/105 104/104/104
f 107/107/107 106/106/106 105/105/105
f 87/87/87 89/89/89 88/88/88
f 109/109/109 102/102/102 101/101/101
f 109/109/109 108/108/108 107/107/107
f 109/109/109 107/107/107 102/102/102
f 75/75/75 110/110/110 109/109/109
f 82/82/82 84/84/84 83/83/83
f 82/82/82 85/85/85 84/84/84
f 77/77/77 76/76/76 75/75/75
f 81/81/81 85/85/85 82/82/82
f 79/79/79 78/78/78 77/77/77
f 79/79/79 77/77/77 75/75/75
f 80/80/80 85/85/85 81/81/81
f 80/80/80 79/79/79 75/75/75
f 80/80/80 86/86/86 85/85/85
f 80/80/80 87/87/87 86/86/86
f 80/80/80 101/101/101 99/99/99
f 80/80/80 91/91/91 89/89/89
f 80/80/80 99/99/99 91/91/91
f 80/80/80 89/89/89 87/87/87
f 80/80/80 109/109/109 101/101/101
f 80/80/80 75/75/75 109/109/109
v 2.000000 -0.000000 10.000000
v 1.969615 0.347296 10.000000
v 1.879385 0.684040 10.000000
v 1.732051 1.000000 10.000000
v 1.532089 1.285575 10.000000
v 1.285575 1.532089 10.000000
v 1.000000 1.732051 10.000000
v 0.684040 1.879385 10.000000
v 0.347296 1.969615 10.000000
v 0.000000 2.000000 10.000000
v -0.347296 1.969615 10.000000
v -0.684040 1.879385 10.000000
v -1.000000 1.732051 10.000000
v -1.285575 1.532089 10.000000
v -1.532089 1.285575 10.000000
v -1.732051 1.000000 10.000000
v -1.879385 0.684040 10.000000
v -1.969615 0.347296 10.000000
v -2.000000 0.000000 10.000000
v -1.969615 -0.347296 10.000000
v -1.879385 -0.684040 10.000000
v -1.732051 -1.000000 10.000000
v -1.532089 -1.285575 10.000000
v -1.285575 -1.532089 10.000000
v -1.000000 -1.732051 10.000000
v -0.684040 -1.879385 10.000000
v -0.347296 -1.969615 10.000000
v -0.000000 -2.000000 10.000000
v 0.347296 -1.969615 10.000000
v 0.684040 -1.879385 10.000000
v 1.000000 -1.732051 10.000000
v 1.285575 -1.532089 10.000000
v 1.532089 -1.285575 10.000000
v 1.732051 -1.000000 10.000000
v 1.879385 -0.684040 10.000000
v 1.969615 -0.347296 10.000000
vn 0.000000 0.000000 1.000000
vn 0.000000 0.000000 1.000000
vn 0.000000 0.000000 1.000000
vn 0.000000 0.000000 1.000000
vn 0.000000 0.000000 1.000000
vn 0.000000 0.000000 1.000000
vn 0.000000 0.000000 1.000000
vn 0.000000 0.000000 1.000000
vn 0.000000 0.000000 1.000000
vn 0.000000 0.000000 1.000000
vn 0.000000 0.000000 1.000000
vn 0.000000 0.000000 1.000000
vn 0.000000 0.000000 1.000000
vn 0.000000 0.000000 1.000000
vn 0.000000 0.000000 1.000000
vn 0.000000 0.000000 1.000000
vn 0.000000 0.000000 1.000000
vn 0.000000 0.000000 1.000000
vn 0.000000 0.000000 1.000000
vn 0.000000 0.000000 1.000000
vn 0.000000 0.000000 1.000000
vn 0.000000 0.000000 1.000000
vn 0.000000 0.000000 1.000000
vn 0.000000 0.000000 1.000000
vn 0.000000 0.000000 1.000000
vn 0.000000 0.000000 1.000000
vn 0.000000 0.000000 1.000000
vn 0.000000 0.000000 1.000000
vn 0.000000 0.000000 1.000000
vn 0.000000 0.000000 1.000000
vn 0.000000 0.000000 1.000000
vn 0.000000 0.000000 1.000000
vn 0.000000 0.000000 1.000000
vn 0.000000 0.000000 1.000000
vn 0.000000 0.000000 1.000000
vn 0.000000 0.000000 1.000000
vt 2.000000 -0.000000
vt 1.969615 0.347296
vt 1.879385 0.684040
vt 1.732051 1.000000
vt 1.532089 1.285575
vt 1.285575 1.532089
vt 1.000000 1.732051
vt 0.684040 1.879385
vt 0.347296 1.969615
vt 0.000000 2.000000
vt -0.347296 1.969615
vt -0.684040 1.879385
vt -1.000000 1.732051
vt -1.285575 1.532089
vt -1.532089 1.285575
vt -1.732051 1.000000
vt -1.879385 0.684040
vt -1.969615 0.347296
vt -2.000000 0.000000
vt -1.969615 -0.347296
vt -1.879385 -0.684040
vt -1.732051 -1.000000
vt -1.532089 -1.285575
vt -1.285575 -1.532089
vt -1.000000 -1.732051
vt -0.684040 -1.879385
vt -0.347296 -1.969615
vt -0.000000 -2.000000
vt 0.347296 -1.969615
vt 0.684040 -1.879385
vt 1.000000 -1.732051
vt 1.285575 -1.532089
vt 1.532089 -1.285575
vt 1.732051 -1.000000
vt 1.879385 -0.684040
vt 1.969615 -0.347296
f 131/131/131 132/132/132 133/133/133
f 137/137/137 135/135/135 136/136/136
f 127/127/127 128/128/128 129/129/129
f 127/127/127 129/129/129 130/130/130
f 127/127/127 130/130/130 131/131/131
f 127/127/127 133/133/133 134/134/134
f 127/127/127 134/134/134 135/135/135
f 127/127/127 131/131/131 133/133/133
f 125/125/125 126/126/126 127/127/127
f 143/143/143 138/138/138 139/139/139
f 143/143/143 139/139/139 140/140/140
f 143/143/143 140/140/140 141/141/141
f 143/143/143 141/141/141 142/142/142
f 123/123/123 124/124/124 125/125/125
f 145/145/145 137/137/137 138/138/138
f 145/145/145 143/143/143 144/144/144
f 145/145/145 138/138/138 143/143/143
f 111/111/111 145/145/145 146/146/146
f 118/118/118 119/119/119 120/120/120
f 118/118/118 120/120/120 121/121/121
f 113/113/113 111/111/111 112/112/112
f 117/117/117 118/118/118 121/121/121
f 115/115/115 113/113/113 114/114/114
f 115/115/115 111/111/111 113/113/113
f 116/116/116 117/117/117 121/121/121
f 116/116/116 111/111/111 115/115/115
f 116/116/116 121/121/121 122/122/122
f 116/116/116 122/122/122 123/123/123
f 116/116/116 135/135/135 137/137/137
f 116/116/116 125/125/125 127/127/127
f 116/116/116 127/127/127 135/135/135
f 116/116/116 123/123/123 125/125/125
f 116/116/116 137/137/137 145/145/145
f 116/116/116 145/145/145 111/111/111
