# Exported by Open CASCADE Technology [dev.opencascade.org]
#  Vertices: 712
#     Faces: 892
g COMPOUND
v 12.000000 10.000000 10.000000
v 11.969616 10.000000 10.347297
v 11.879385 10.000000 10.684040
v 11.732051 10.000000 11.000000
v 11.532089 10.000000 11.285575
v 11.285575 10.000000 11.532089
v 11.000000 10.000000 11.732051
v 10.684040 10.000000 11.879385
v 10.347297 10.000000 11.969616
v 10.000000 10.000000 12.000000
v 10.000000 0.000000 12.000000
v 12.000000 0.000000 10.000000
v 11.969616 0.000000 10.347297
v 11.879385 0.000000 10.684040
v 11.732051 0.000000 11.000000
v 11.532089 0.000000 11.285575
v 11.285575 0.000000 11.532089
v 11.000000 0.000000 11.732051
v 10.684040 0.000000 11.879385
v 10.347297 0.000000 11.969616
vn 1.000000 -0.000000 0.000000
vn 0.984808 -0.000000 0.173648
vn 0.939693 -0.000000 0.342020
vn 0.866025 -0.000000 0.500000
vn 0.766044 -0.000000 0.642788
vn 0.642788 -0.000000 0.766044
vn 0.500000 -0.000000 0.866025
vn 0.342020 -0.000000 0.939693
vn 0.173648 -0.000000 0.984808
vn 0.000000 -0.000000 1.000000
vn -0.000000 0.000000 1.000000
vn 1.000000 -0.000000 0.000000
vn 0.984808 -0.000000 0.173648
vn 0.939693 -0.000000 0.342020
vn 0.866025 -0.000000 0.500000
vn 0.766044 -0.000000 0.642788
vn 0.642788 -0.000000 0.766044
vn 0.500000 -0.000000 0.866025
vn 0.342020 -0.000000 0.939693
vn 0.173648 -0.000000 0.984808
vt 4.712389 10.000000
vt 4.537856 10.000000
vt 4.363323 10.000000
vt 4.188790 10.000000
vt 4.014257 10.000000
vt 3.839724 10.000000
vt 3.665191 10.000000
vt 3.490659 10.000000
vt 3.316126 10.000000
vt 3.141593 10.000000
vt 3.141593 0.000000
vt 4.712389 0.000000
vt 4.537856 0.000000
vt 4.363323 0.000000
vt 4.188790 0.000000
vt 4.014257 0.000000
vt 3.839724 0.000000
vt 3.665191 0.000000
vt 3.490659 0.000000
vt 3.316126 0.000000
f 10/10/10 11/11/11 20/20/20
f 9/9/9 10/10/10 20/20/20
f 8/8/8 19/19/19 18/18/18
f 8/8/8 20/20/20 19/19/19
f 8/8/8 9/9/9 20/20/20
f 7/7/7 8/8/8 18/18/18
f 6/6/6 17/17/17 16/16/16
f 6/6/6 18/18/18 17/17/17
f 6/6/6 7/7/7 18/18/18
f 5/5/5 6/6/6 16/16/16
f 4/4/4 16/16/16 15/15/15
f 4/4/4 5/5/5 16/16/16
f 3/3/3 15/15/15 14/14/14
f 3/3/3 4/4/4 15/15/15
f 2/2/2 13/13/13 12/12/12
f 2/2/2 14/14/14 13/13/13
f 2/2/2 3/3/3 14/14/14
f 1/1/1 2/2/2 12/12/12
v 0.000000 0.000000 12.000000
v 0.000000 10.000000 12.000000
v 10.000000 0.000000 12.000000
v 10.000000 10.000000 12.000000
vn 0.000000 0.000000 1.000000
vn 0.000000 0.000000 1.000000
vn 0.000000 0.000000 1.000000
vn 0.000000 0.000000 1.000000
vt 0.000000 0.000000
vt 0.000000 10.000000
vt 10.000000 0.000000
vt 10.000000 10.000000
f 24/24/24 22/22/22 21/21/21
f 24/24/24 21/21/21 23/23/23
v 10.000000 -2.000000 10.000000
v 10.000000 -1.969615 10.347297
v 10.000000 -1.879385 10.684040
v 10.000000 -1.732051 11.000000
v 10.000000 -1.532089 11.285575
v 10.000000 -1.285575 11.532089
v 10.000000 -1.000000 11.732051
v 10.000000 -0.684040 11.879385
v 10.000000 -0.347296 11.969616
v 10.000000 0.000000 12.000000
v 0.000000 0.000000 12.000000
v 0.000000 -2.000000 10.000000
v 0.000000 -1.969615 10.347297
v 0.000000 -1.879385 10.684040
v 0.000000 -1.732051 11.000000
v 0.000000 -1.532089 11.285575
v 0.000000 -1.285575 11.532089
v 0.000000 -1.000000 11.732051
v 0.000000 -0.684040 11.879385
v 0.000000 -0.347296 11.969616
vn 0.000000 -1.000000 0.000000
vn 0.000000 -0.984808 0.173648
vn 0.000000 -0.939693 0.342020
vn 0.000000 -0.866025 0.500000
vn 0.000000 -0.766044 0.642788
vn 0.000000 -0.642788 0.766044
vn 0.000000 -0.500000 0.866025
vn 0.000000 -0.342020 0.939693
vn 0.000000 -0.173648 0.984808
vn 0.000000 -0.000000 1.000000
vn -0.000000 0.000000 1.000000
vn 0.000000 -1.000000 0.000000
vn 0.000000 -0.984808 0.173648
vn 0.000000 -0.939693 0.342020
vn 0.000000 -0.866025 0.500000
vn 0.000000 -0.766044 0.642788
vn 0.000000 -0.642788 0.766044
vn 0.000000 -0.500000 0.866025
vn 0.000000 -0.342020 0.939693
vn 0.000000 -0.173648 0.984808
vt 4.712389 10.000000
vt 4.537856 10.000000
vt 4.363323 10.000000
vt 4.188790 10.000000
vt 4.014257 10.000000
vt 3.839724 10.000000
vt 3.665191 10.000000
vt 3.490659 10.000000
vt 3.316126 10.000000
vt 3.141593 10.000000
vt 3.141593 0.000000
vt 4.712389 0.000000
vt 4.537856 0.000000
vt 4.363323 0.000000
vt 4.188790 0.000000
vt 4.014257 0.000000
vt 3.839724 0.000000
vt 3.665191 0.000000
vt 3.490659 0.000000
vt 3.316126 0.000000
f 34/34/34 35/35/35 44/44/44
f 33/33/33 34/34/34 44/44/44
f 32/32/32 43/43/43 42/42/42
f 32/32/32 44/44/44 43/43/43
f 32/32/32 33/33/33 44/44/44
f 31/31/31 32/32/32 42/42/42
f 30/30/30 41/41/41 40/40/40
f 30/30/30 42/42/42 41/41/41
f 30/30/30 31/31/31 42/42/42
f 29/29/29 30/30/30 40/40/40
f 28/28/28 40/40/40 39/39/39
f 28/28/28 29/29/29 40/40/40
f 27/27/27 39/39/39 38/38/38
f 27/27/27 28/28/28 39/39/39
f 26/26/26 37/37/37 36/36/36
f 26/26/26 38/38/38 37/37/37
f 26/26/26 27/27/27 38/38/38
f 25/25/25 26/26/26 36/36/36
v 0.000000 -2.000000 0.000000
v 10.000000 -2.000000 0.000000
v 0.000000 -2.000000 10.000000
v 10.000000 -2.000000 10.000000
vn 0.000000 -1.000000 -0.000000
vn 0.000000 -1.000000 -0.000000
vn 0.000000 -1.000000 -0.000000
vn 0.000000 -1.000000 -0.000000
vt 0.000000 0.000000
vt 0.000000 10.000000
vt 10.000000 0.000000
vt 10.000000 10.000000
f 48/48/48 45/45/45 46/46/46
f 48/48/48 47/47/47 45/45/45
v -2.000000 0.000000 0.000000
v -2.000000 0.000000 10.000000
v -1.969615 -0.347296 0.000000
v -1.879385 -0.684040 0.000000
v -1.732051 -1.000000 0.000000
v -1.532089 -1.285575 0.000000
v -1.285575 -1.532089 0.000000
v -1.000000 -1.732051 0.000000
v -0.684040 -1.879385 0.000000
v -0.347296 -1.969615 0.000000
v 0.000000 -2.000000 0.000000
v 0.000000 -2.000000 10.000000
v -1.969615 -0.347296 10.000000
v -1.879385 -0.684040 10.000000
v -1.732051 -1.000000 10.000000
v -1.532089 -1.285575 10.000000
v -1.285575 -1.532089 10.000000
v -1.000000 -1.732051 10.000000
v -0.684040 -1.879385 10.000000
v -0.347296 -1.969615 10.000000
vn -1.000000 -0.000000 0.000000
vn -1.000000 -0.000000 0.000000
vn -0.984808 -0.173648 0.000000
vn -0.939693 -0.342020 0.000000
vn -0.866025 -0.500000 0.000000
vn -0.766044 -0.642788 0.000000
vn -0.642788 -0.766044 0.000000
vn -0.500000 -0.866025 0.000000
vn -0.342020 -0.939693 0.000000
vn -0.173648 -0.984808 0.000000
vn 0.000000 -1.000000 0.000000
vn -0.000000 -1.000000 0.000000
vn -0.984808 -0.173648 0.000000
vn -0.939693 -0.342020 0.000000
vn -0.866025 -0.500000 0.000000
vn -0.766044 -0.642788 0.000000
vn -0.642788 -0.766044 0.000000
vn -0.500000 -0.866025 0.000000
vn -0.342020 -0.939693 0.000000
vn -0.173648 -0.984808 0.000000
vt 1.570796 0.000000
vt 1.570796 10.000000
vt 1.745329 0.000000
vt 1.919862 0.000000
vt 2.094395 0.000000
vt 2.268928 0.000000
vt 2.443461 0.000000
vt 2.617994 0.000000
vt 2.792527 0.000000
vt 2.967060 0.000000
vt 3.141593 0.000000
vt 3.141593 10.000000
vt 1.745329 10.000000
vt 1.919862 10.000000
vt 2.094395 10.000000
vt 2.268928 10.000000
vt 2.443461 10.000000
vt 2.617994 10.000000
vt 2.792527 10.000000
vt 2.967060 10.000000
f 61/61/61 50/50/50 49/49/49
f 61/61/61 49/49/49 51/51/51
f 62/62/62 51/51/51 52/52/52
f 62/62/62 61/61/61 51/51/51
f 63/63/63 52/52/52 53/53/53
f 63/63/63 62/62/62 52/52/52
f 64/64/64 53/53/53 54/54/54
f 64/64/64 54/54/54 55/55/55
f 64/64/64 63/63/63 53/53/53
f 65/65/65 64/64/64 55/55/55
f 66/66/66 55/55/55 56/56/56
f 66/66/66 56/56/56 57/57/57
f 66/66/66 65/65/65 55/55/55
f 67/67/67 57/57/57 58/58/58
f 67/67/67 66/66/66 57/57/57
f 68/68/68 67/67/67 58/58/58
f 60/60/60 58/58/58 59/59/59
f 60/60/60 68/68/68 58/58/58
v -2.000000 0.000000 0.000000
v -2.000000 0.000000 10.000000
v -2.000000 10.000000 0.000000
v -2.000000 10.000000 10.000000
vn -1.000000 -0.000000 0.000000
vn -1.000000 -0.000000 0.000000
vn -1.000000 -0.000000 0.000000
vn -1.000000 -0.000000 0.000000
vt 0.000000 0.000000
vt 10.000000 0.000000
vt 0.000000 -10.000000
vt 10.000000 -10.000000
f 70/70/70 71/71/71 69/69/69
f 70/70/70 72/72/72 71/71/71
v 0.000000 -2.000000 0.000000
v 10.000000 -2.000000 0.000000
v 0.000000 -1.969615 -0.347296
v 0.000000 -1.879385 -0.684040
v 0.000000 -1.732051 -1.000000
v 0.000000 -1.532089 -1.285575
v 0.000000 -1.285575 -1.532089
v 0.000000 -1.000000 -1.732051
v 0.000000 -0.684040 -1.879385
v 0.000000 -0.347296 -1.969615
v 0.000000 0.000000 -2.000000
v 10.000000 0.000000 -2.000000
v 10.000000 -1.969615 -0.347296
v 10.000000 -1.879385 -0.684040
v 10.000000 -1.732051 -1.000000
v 10.000000 -1.532089 -1.285575
v 10.000000 -1.285575 -1.532089
v 10.000000 -1.000000 -1.732051
v 10.000000 -0.684040 -1.879385
v 10.000000 -0.347296 -1.969615
vn 0.000000 -1.000000 -0.000000
vn 0.000000 -1.000000 -0.000000
vn 0.000000 -0.984808 -0.173648
vn 0.000000 -0.939693 -0.342020
vn 0.000000 -0.866025 -0.500000
vn 0.000000 -0.766044 -0.642788
vn 0.000000 -0.642788 -0.766044
vn 0.000000 -0.500000 -0.866025
vn 0.000000 -0.342020 -0.939693
vn 0.000000 -0.173648 -0.984808
vn 0.000000 0.000000 -1.000000
vn 0.000000 -0.000000 -1.000000
vn 0.000000 -0.984808 -0.173648
vn 0.000000 -0.939693 -0.342020
vn 0.000000 -0.866025 -0.500000
vn 0.000000 -0.766044 -0.642788
vn 0.000000 -0.642788 -0.766044
vn 0.000000 -0.500000 -0.866025
vn 0.000000 -0.342020 -0.939693
vn 0.000000 -0.173648 -0.984808
vt 1.570796 0.000000
vt 1.570796 10.000000
vt 1.745329 0.000000
vt 1.919862 0.000000
vt 2.094395 0.000000
vt 2.268928 0.000000
vt 2.443461 0.000000
vt 2.617994 0.000000
vt 2.792527 0.000000
vt 2.967060 0.000000
vt 3.141593 0.000000
vt 3.141593 10.000000
vt 1.745329 10.000000
vt 1.919862 10.000000
vt 2.094395 10.000000
vt 2.268928 10.000000
vt 2.443461 10.000000
vt 2.617994 10.000000
vt 2.792527 10.000000
vt 2.967060 10.000000
f 85/85/85 74/74/74 73/73/73
f 85/85/85 73/73/73 75/75/75
f 86/86/86 75/75/75 76/76/76
f 86/86/86 85/85/85 75/75/75
f 87/87/87 76/76/76 77/77/77
f 87/87/87 86/86/86 76/76/76
f 88/88/88 77/77/77 78/78/78
f 88/88/88 78/78/78 79/79/79
f 88/88/88 87/87/87 77/77/77
f 89/89/89 88/88/88 79/79/79
f 90/90/90 79/79/79 80/80/80
f 90/90/90 80/80/80 81/81/81
f 90/90/90 89/89/89 79/79/79
f 91/91/91 81/81/81 82/82/82
f 91/91/91 90/90/90 81/81/81
f 92/92/92 91/91/91 82/82/82
f 84/84/84 82/82/82 83/83/83
f 84/84/84 92/92/92 82/82/82
v 0.000000 0.000000 -2.000000
v 0.000000 10.000000 -2.000000
v 10.000000 0.000000 -2.000000
v 10.000000 10.000000 -2.000000
vn -0.000000 -0.000000 -1.000000
vn -0.000000 -0.000000 -1.000000
vn -0.000000 -0.000000 -1.000000
vn -0.000000 -0.000000 -1.000000
vt 0.000000 0.000000
vt 0.000000 10.000000
vt 10.000000 0.000000
vt 10.000000 10.000000
f 96/96/96 93/93/93 94/94/94
f 96/96/96 95/95/95 93/93/93
v -2.000000 0.000000 10.000000
v -1.969615 -0.347296 10.000000
v -1.879385 -0.684040 10.000000
v -1.732051 -1.000000 10.000000
v -1.532089 -1.285575 10.000000
v -1.285575 -1.532089 10.000000
v -1.000000 -1.732051 10.000000
v -0.684040 -1.879385 10.000000
v -0.347296 -1.969615 10.000000
v 0.000000 -2.000000 10.000000
v 0.000000 -1.969615 10.347297
v 0.000000 -1.879385 10.684040
v 0.000000 -1.732051 11.000000
v 0.000000 -1.532089 11.285575
v 0.000000 -1.285575 11.532089
v 0.000000 -1.000000 11.732051
v 0.000000 -0.684040 11.879385
v 0.000000 -0.347296 11.969616
v 0.000000 0.000000 12.000000
v -1.969615 0.000000 10.347297
v -1.879385 0.000000 10.684040
v -1.732051 0.000000 11.000000
v -1.532089 0.000000 11.285575
v -1.285575 0.000000 11.532089
v -1.000000 0.000000 11.732051
v -0.684040 0.000000 11.879385
v -0.347296 0.000000 11.969616
v -0.189606 -0.437513 11.942327
v -0.559311 -0.377845 11.882659
v -0.420068 -0.834300 11.768470
v -0.900969 -0.261502 11.766315
v -0.222521 -1.238143 11.554827
v -0.819071 -0.735575 11.669745
v -1.197449 -0.094317 11.599132
v -0.656405 -1.168118 11.484801
v -1.177003 -0.576545 11.510715
v -0.442244 -1.528429 11.211745
v -1.057374 -1.031578 11.348261
v -1.475915 -0.365182 11.299352
v -0.211363 -1.793544 10.859374
v -0.862311 -1.424492 11.107809
v -1.405321 -0.835371 11.152054
v -1.700819 -0.112086 11.046256
v -0.623490 -1.727030 10.792860
v -1.239139 -1.257066 10.940383
v -1.682800 -0.589334 10.906017
v -0.376828 -1.919833 10.415019
v -1.004352 -1.597337 10.663167
v -1.553831 -1.034545 10.717862
v -1.875897 -0.305807 10.622490
v -0.734760 -1.831271 10.326457
v -1.334853 -1.410968 10.476798
v -1.790608 -0.768088 10.451405
v -1.055848 -1.688610 10.183796
v -1.598418 -1.177270 10.243099
v -1.937595 -0.471055 10.154371
vn -1.000000 -0.000000 0.000000
vn -0.984808 -0.173648 0.000000
vn -0.939693 -0.342020 -0.000000
vn -0.866025 -0.500000 0.000000
vn -0.766044 -0.642788 0.000000
vn -0.642788 -0.766044 0.000000
vn -0.500000 -0.866025 0.000000
vn -0.342020 -0.939693 0.000000
vn -0.173648 -0.984808 0.000000
vn 0.000000 -1.000000 0.000000
vn 0.000000 -0.984808 0.173648
vn 0.000000 -0.939693 0.342020
vn 0.000000 -0.866025 0.500000
vn 0.000000 -0.766044 0.642788
vn 0.000000 -0.642788 0.766044
vn 0.000000 -0.500000 0.866025
vn 0.000000 -0.342020 0.939693
vn 0.000000 -0.173648 0.984808
vn 0.000000 -0.000000 1.000000
vn -0.984808 -0.000000 0.173648
vn -0.939693 0.000000 0.342020
vn -0.866025 -0.000000 0.500000
vn -0.766044 -0.000000 0.642788
vn -0.642788 -0.000000 0.766044
vn -0.500000 -0.000000 0.866025
vn -0.342020 -0.000000 0.939693
vn -0.173648 -0.000000 0.984808
vn -0.094803 -0.218756 0.971163
vn -0.279655 -0.188923 0.941329
vn -0.210034 -0.417150 0.884235
vn -0.450484 -0.130751 0.883158
vn -0.111260 -0.619072 0.777413
vn -0.409536 -0.367788 0.834873
vn -0.598724 -0.047159 0.799566
vn -0.328202 -0.584059 0.742401
vn -0.588502 -0.288272 0.755357
vn -0.221122 -0.764214 0.605873
vn -0.528687 -0.515789 0.674131
vn -0.737958 -0.182591 0.649676
vn -0.105681 -0.896772 0.429687
vn -0.431156 -0.712246 0.553905
vn -0.702661 -0.417685 0.576027
vn -0.850410 -0.056043 0.523128
vn -0.311745 -0.863515 0.396430
vn -0.619569 -0.628533 0.470191
vn -0.841400 -0.294667 0.453009
vn -0.188414 -0.959917 0.207510
vn -0.502176 -0.798669 0.331583
vn -0.776915 -0.517273 0.358931
vn -0.937948 -0.152903 0.311245
vn -0.367380 -0.915636 0.163229
vn -0.667426 -0.705484 0.238399
vn -0.895304 -0.384044 0.225702
vn -0.527924 -0.844305 0.091898
vn -0.799209 -0.588635 0.121550
vn -0.968798 -0.235528 0.077186
vt 4.096909 0.000000
vt 3.972867 0.123098
vt 3.845010 0.244267
vt 3.709313 0.361367
vt 3.561406 0.471833
vt 3.396670 0.572429
vt 3.210832 0.659058
vt 3.001476 0.726775
vt 2.770493 0.770319
vt 2.526113 0.785398
vt 2.526113 0.610865
vt 2.526113 0.436332
vt 2.526113 0.261799
vt 2.526113 0.087266
vt 2.526113 -0.087266
vt 2.526113 -0.261799
vt 2.526113 -0.436332
vt 2.526113 -0.610865
vt 2.526113 -0.785398
vt 3.972867 -0.123098
vt 3.845010 -0.244267
vt 3.709313 -0.361367
vt 3.561406 -0.471833
vt 3.396670 -0.572429
vt 3.210832 -0.659058
vt 3.001476 -0.726775
vt 2.770493 -0.770319
vt 2.638313 -0.560999
vt 2.862712 -0.560999
vt 2.750512 -0.336599
vt 3.087112 -0.560999
vt 2.638313 -0.112200
vt 2.974912 -0.336599
vt 3.311511 -0.560999
vt 2.862712 -0.112200
vt 3.199311 -0.336599
vt 2.750512 0.112200
vt 3.087112 -0.112200
vt 3.423711 -0.336599
vt 2.638313 0.336599
vt 2.974912 0.112200
vt 3.311511 -0.112200
vt 3.648110 -0.336599
vt 2.862712 0.336599
vt 3.199311 0.112200
vt 3.535911 -0.112200
vt 2.750512 0.560999
vt 3.087112 0.336599
vt 3.423711 0.112200
vt 3.760310 -0.112200
vt 2.974912 0.560999
vt 3.311511 0.336599
vt 3.648110 0.112200
vt 3.199311 0.560999
vt 3.535911 0.336599
vt 3.872510 0.112200
f 123/123/123 114/114/114 115/115/115
f 105/105/105 106/106/106 107/107/107
f 124/124/124 113/113/113 114/114/114
f 124/124/124 114/114/114 123/123/123
f 125/125/125 123/123/123 122/122/122
f 125/125/125 124/124/124 123/123/123
f 126/126/126 112/112/112 113/113/113
f 126/126/126 124/124/124 125/125/125
f 126/126/126 113/113/113 124/124/124
f 127/127/127 122/122/122 121/121/121
f 127/127/127 125/125/125 122/122/122
f 128/128/128 110/110/110 111/111/111
f 128/128/128 111/111/111 112/112/112
f 128/128/128 112/112/112 126/126/126
f 129/129/129 126/126/126 125/125/125
f 129/129/129 125/125/125 127/127/127
f 130/130/130 121/121/121 120/120/120
f 130/130/130 127/127/127 121/121/121
f 131/131/131 126/126/126 129/129/129
f 131/131/131 128/128/128 126/126/126
f 132/132/132 127/127/127 130/130/130
f 132/132/132 129/129/129 127/127/127
f 133/133/133 109/109/109 110/110/110
f 133/133/133 128/128/128 131/131/131
f 133/133/133 110/110/110 128/128/128
f 134/134/134 131/131/131 129/129/129
f 134/134/134 129/129/129 132/132/132
f 135/135/135 120/120/120 119/119/119
f 135/135/135 132/132/132 130/130/130
f 135/135/135 130/130/130 120/120/120
f 136/136/136 108/108/108 109/109/109
f 136/136/136 109/109/109 133/133/133
f 137/137/137 133/133/133 131/131/131
f 137/137/137 131/131/131 134/134/134
f 138/138/138 134/134/134 132/132/132
f 138/138/138 132/132/132 135/135/135
f 139/139/139 118/118/118 117/117/117
f 139/139/139 119/119/119 118/118/118
f 139/139/139 135/135/135 119/119/119
f 140/140/140 133/133/133 137/137/137
f 140/140/140 136/136/136 133/133/133
f 141/141/141 134/134/134 138/138/138
f 141/141/141 137/137/137 134/134/134
f 142/142/142 138/138/138 135/135/135
f 142/142/142 135/135/135 139/139/139
f 143/143/143 136/136/136 140/140/140
f 143/143/143 104/104/104 105/105/105
f 143/143/143 107/107/107 108/108/108
f 143/143/143 105/105/105 107/107/107
f 143/143/143 108/108/108 136/136/136
f 144/144/144 140/140/140 137/137/137
f 144/144/144 137/137/137 141/141/141
f 145/145/145 141/141/141 138/138/138
f 145/145/145 138/138/138 142/142/142
f 146/146/146 142/142/142 139/139/139
f 146/146/146 117/117/117 116/116/116
f 146/146/146 139/139/139 117/117/117
f 147/147/147 140/140/140 144/144/144
f 147/147/147 103/103/103 104/104/104
f 147/147/147 143/143/143 140/140/140
f 147/147/147 104/104/104 143/143/143
f 148/148/148 101/101/101 102/102/102
f 148/148/148 144/144/144 141/141/141
f 148/148/148 141/141/141 145/145/145
f 149/149/149 99/99/99 100/100/100
f 149/149/149 145/145/145 142/142/142
f 149/149/149 142/142/142 146/146/146
f 150/150/150 102/102/102 103/103/103
f 150/150/150 147/147/147 144/144/144
f 150/150/150 103/103/103 147/147/147
f 150/150/150 144/144/144 148/148/148
f 150/150/150 148/148/148 102/102/102
f 151/151/151 100/100/100 101/101/101
f 151/151/151 101/101/101 148/148/148
f 151/151/151 148/148/148 145/145/145
f 151/151/151 145/145/145 149/149/149
f 151/151/151 149/149/149 100/100/100
f 152/152/152 97/97/97 98/98/98
f 152/152/152 98/98/98 99/99/99
f 152/152/152 116/116/116 97/97/97
f 152/152/152 146/146/146 116/116/116
f 152/152/152 149/149/149 146/146/146
f 152/152/152 99/99/99 149/149/149
v -2.000000 0.000000 0.000000
v -1.969615 -0.347296 0.000000
v -1.879385 -0.684040 0.000000
v -1.732051 -1.000000 0.000000
v -1.532089 -1.285575 0.000000
v -1.285575 -1.532089 0.000000
v -1.000000 -1.732051 0.000000
v -0.684040 -1.879385 0.000000
v -0.347296 -1.969615 0.000000
v 0.000000 -2.000000 0.000000
v -1.969615 0.000000 -0.347296
v -1.879385 0.000000 -0.684040
v -1.732051 0.000000 -1.000000
v -1.532089 0.000000 -1.285575
v -1.285575 0.000000 -1.532089
v -1.000000 0.000000 -1.732051
v -0.684040 0.000000 -1.879385
v -0.347296 0.000000 -1.969615
v 0.000000 0.000000 -2.000000
v 0.000000 -1.969615 -0.347296
v 0.000000 -1.879385 -0.684040
v 0.000000 -1.732051 -1.000000
v 0.000000 -1.532089 -1.285575
v 0.000000 -1.285575 -1.532089
v 0.000000 -1.000000 -1.732051
v 0.000000 -0.684040 -1.879385
v 0.000000 -0.347296 -1.969615
v -0.189606 -1.942327 -0.437513
v -0.559311 -1.882659 -0.377845
v -0.420068 -1.768470 -0.834300
v -0.900969 -1.766316 -0.261502
v -0.222521 -1.554827 -1.238143
v -0.819071 -1.669746 -0.735575
v -1.197449 -1.599131 -0.094317
v -0.656405 -1.484801 -1.168118
v -1.177003 -1.510715 -0.576545
v -0.442244 -1.211745 -1.528429
v -1.057374 -1.348261 -1.031578
v -1.475915 -1.299352 -0.365182
v -0.211363 -0.859374 -1.793544
v -0.862311 -1.107809 -1.424492
v -1.405321 -1.152054 -0.835371
v -1.700819 -1.046256 -0.112086
v -0.623490 -0.792860 -1.727030
v -1.239139 -0.940383 -1.257066
v -1.682800 -0.906018 -0.589334
v -0.376828 -0.415019 -1.919833
v -1.004352 -0.663167 -1.597337
v -1.553831 -0.717862 -1.034545
v -1.875897 -0.622490 -0.305807
v -0.734760 -0.326457 -1.831271
v -1.334853 -0.476798 -1.410968
v -1.790608 -0.451404 -0.768088
v -1.055848 -0.183796 -1.688610
v -1.598418 -0.243099 -1.177270
v -1.937595 -0.154372 -0.471055
vn -1.000000 -0.000000 -0.000000
vn -0.984808 -0.173648 -0.000000
vn -0.939693 -0.342020 0.000000
vn -0.866025 -0.500000 -0.000000
vn -0.766044 -0.642788 -0.000000
vn -0.642788 -0.766044 -0.000000
vn -0.500000 -0.866025 -0.000000
vn -0.342020 -0.939693 -0.000000
vn -0.173648 -0.984808 -0.000000
vn 0.000000 -1.000000 -0.000000
vn -0.984808 -0.000000 -0.173648
vn -0.939693 0.000000 -0.342020
vn -0.866025 -0.000000 -0.500000
vn -0.766044 -0.000000 -0.642788
vn -0.642788 -0.000000 -0.766044
vn -0.500000 -0.000000 -0.866025
vn -0.342020 -0.000000 -0.939693
vn -0.173648 -0.000000 -0.984808
vn 0.000000 0.000000 -1.000000
vn 0.000000 -0.984808 -0.173648
vn 0.000000 -0.939693 -0.342020
vn 0.000000 -0.866025 -0.500000
vn 0.000000 -0.766044 -0.642788
vn 0.000000 -0.642788 -0.766044
vn 0.000000 -0.500000 -0.866025
vn 0.000000 -0.342020 -0.939693
vn 0.000000 -0.173648 -0.984808
vn -0.094803 -0.971163 -0.218756
vn -0.279655 -0.941329 -0.188923
vn -0.210034 -0.884235 -0.417150
vn -0.450484 -0.883158 -0.130751
vn -0.111260 -0.777413 -0.619072
vn -0.409536 -0.834873 -0.367788
vn -0.598724 -0.799566 -0.047159
vn -0.328202 -0.742401 -0.584059
vn -0.588502 -0.755357 -0.288272
vn -0.221122 -0.605873 -0.764214
vn -0.528687 -0.674131 -0.515789
vn -0.737958 -0.649676 -0.182591
vn -0.105681 -0.429687 -0.896772
vn -0.431156 -0.553905 -0.712246
vn -0.702661 -0.576027 -0.417685
vn -0.850410 -0.523128 -0.056043
vn -0.311745 -0.396430 -0.863515
vn -0.619569 -0.470191 -0.628533
vn -0.841400 -0.453009 -0.294667
vn -0.188414 -0.207510 -0.959917
vn -0.502176 -0.331583 -0.798669
vn -0.776915 -0.358931 -0.517273
vn -0.937948 -0.311245 -0.152903
vn -0.367380 -0.163229 -0.915636
vn -0.667426 -0.238399 -0.705484
vn -0.895304 -0.225702 -0.384044
vn -0.527924 -0.091898 -0.844305
vn -0.799209 -0.121550 -0.588635
vn -0.968798 -0.077186 -0.235528
vt 4.096909 -0.000000
vt 3.972867 -0.123098
vt 3.845010 -0.244267
vt 3.709313 -0.361367
vt 3.561406 -0.471833
vt 3.396670 -0.572429
vt 3.210832 -0.659058
vt 3.001476 -0.726775
vt 2.770493 -0.770319
vt 2.526113 -0.785398
vt 3.972867 0.123098
vt 3.845010 0.244267
vt 3.709313 0.361367
vt 3.561406 0.471833
vt 3.396670 0.572429
vt 3.210832 0.659058
vt 3.001476 0.726775
vt 2.770493 0.770319
vt 2.526113 0.785398
vt 2.526113 -0.610865
vt 2.526113 -0.436332
vt 2.526113 -0.261799
vt 2.526113 -0.087266
vt 2.526113 0.087266
vt 2.526113 0.261799
vt 2.526113 0.436332
vt 2.526113 0.610865
vt 2.638313 -0.560999
vt 2.862712 -0.560999
vt 2.750512 -0.336599
vt 3.087112 -0.560999
vt 2.638313 -0.112200
vt 2.974912 -0.336599
vt 3.311511 -0.560999
vt 2.862712 -0.112200
vt 3.199311 -0.336599
vt 2.750512 0.112200
vt 3.087112 -0.112200
vt 3.423711 -0.336599
vt 2.638313 0.336599
vt 2.974912 0.112200
vt 3.311511 -0.112200
vt 3.648110 -0.336599
vt 2.862712 0.336599
vt 3.199311 0.112200
vt 3.535911 -0.112200
vt 2.750512 0.560999
vt 3.087112 0.336599
vt 3.423711 0.112200
vt 3.760310 -0.112200
vt 2.974912 0.560999
vt 3.311511 0.336599
vt 3.648110 0.112200
vt 3.199311 0.560999
vt 3.535911 0.336599
vt 3.872510 0.112200
f 161/161/161 172/172/172 162/162/162
f 170/170/170 171/171/171 179/179/179
f 180/180/180 173/173/173 172/172/172
f 180/180/180 172/172/172 161/161/161
f 181/181/181 161/161/161 160/160/160
f 181/181/181 180/180/180 161/161/161
f 182/182/182 174/174/174 173/173/173
f 182/182/182 173/173/173 180/180/180
f 182/182/182 180/180/180 181/181/181
f 183/183/183 160/160/160 159/159/159
f 183/183/183 181/181/181 160/160/160
f 184/184/184 175/175/175 174/174/174
f 184/184/184 176/176/176 175/175/175
f 184/184/184 174/174/174 182/182/182
f 185/185/185 182/182/182 181/181/181
f 185/185/185 181/181/181 183/183/183
f 186/186/186 159/159/159 158/158/158
f 186/186/186 183/183/183 159/159/159
f 187/187/187 184/184/184 182/182/182
f 187/187/187 182/182/182 185/185/185
f 188/188/188 185/185/185 183/183/183
f 188/188/188 183/183/183 186/186/186
f 189/189/189 177/177/177 176/176/176
f 189/189/189 176/176/176 184/184/184
f 189/189/189 184/184/184 187/187/187
f 190/190/190 187/187/187 185/185/185
f 190/190/190 185/185/185 188/188/188
f 191/191/191 158/158/158 157/157/157
f 191/191/191 188/188/188 186/186/186
f 191/191/191 186/186/186 158/158/158
f 192/192/192 178/178/178 177/177/177
f 192/192/192 177/177/177 189/189/189
f 193/193/193 189/189/189 187/187/187
f 193/193/193 187/187/187 190/190/190
f 194/194/194 190/190/190 188/188/188
f 194/194/194 188/188/188 191/191/191
f 195/195/195 156/156/156 155/155/155
f 195/195/195 157/157/157 156/156/156
f 195/195/195 191/191/191 157/157/157
f 196/196/196 192/192/192 189/189/189
f 196/196/196 189/189/189 193/193/193
f 197/197/197 193/193/193 190/190/190
f 197/197/197 190/190/190 194/194/194
f 198/198/198 194/194/194 191/191/191
f 198/198/198 191/191/191 195/195/195
f 199/199/199 192/192/192 196/196/196
f 199/199/199 169/169/169 170/170/170
f 199/199/199 179/179/179 178/178/178
f 199/199/199 178/178/178 192/192/192
f 199/199/199 170/170/170 179/179/179
f 200/200/200 193/193/193 197/197/197
f 200/200/200 196/196/196 193/193/193
f 201/201/201 197/197/197 194/194/194
f 201/201/201 194/194/194 198/198/198
f 202/202/202 155/155/155 154/154/154
f 202/202/202 198/198/198 195/195/195
f 202/202/202 195/195/195 155/155/155
f 203/203/203 196/196/196 200/200/200
f 203/203/203 168/168/168 169/169/169
f 203/203/203 169/169/169 199/199/199
f 203/203/203 199/199/199 196/196/196
f 204/204/204 197/197/197 201/201/201
f 204/204/204 166/166/166 167/167/167
f 204/204/204 200/200/200 197/197/197
f 205/205/205 164/164/164 165/165/165
f 205/205/205 201/201/201 198/198/198
f 205/205/205 198/198/198 202/202/202
f 206/206/206 203/203/203 200/200/200
f 206/206/206 167/167/167 168/168/168
f 206/206/206 168/168/168 203/203/203
f 206/206/206 204/204/204 167/167/167
f 206/206/206 200/200/200 204/204/204
f 207/207/207 165/165/165 166/166/166
f 207/207/207 204/204/204 201/201/201
f 207/207/207 201/201/201 205/205/205
f 207/207/207 166/166/166 204/204/204
f 207/207/207 205/205/205 165/165/165
f 208/208/208 154/154/154 153/153/153
f 208/208/208 153/153/153 163/163/163
f 208/208/208 163/163/163 164/164/164
f 208/208/208 164/164/164 205/205/205
f 208/208/208 205/205/205 202/202/202
f 208/208/208 202/202/202 154/154/154
v 12.000000 0.000000 0.000000
v 11.969616 -0.347296 0.000000
v 11.879385 -0.684040 0.000000
v 11.732051 -1.000000 0.000000
v 11.532089 -1.285575 0.000000
v 11.285575 -1.532089 0.000000
v 11.000000 -1.732051 0.000000
v 10.684040 -1.879385 0.000000
v 10.347297 -1.969615 0.000000
v 10.000000 -2.000000 0.000000
v 10.000000 -1.969615 -0.347296
v 10.000000 -1.879385 -0.684040
v 10.000000 -1.732051 -1.000000
v 10.000000 -1.532089 -1.285575
v 10.000000 -1.285575 -1.532089
v 10.000000 -1.000000 -1.732051
v 10.000000 -0.684040 -1.879385
v 10.000000 -0.347296 -1.969615
v 10.000000 0.000000 -2.000000
v 11.969616 0.000000 -0.347296
v 11.879385 0.000000 -0.684040
v 11.732051 0.000000 -1.000000
v 11.532089 0.000000 -1.285575
v 11.285575 0.000000 -1.532089
v 11.000000 0.000000 -1.732051
v 10.684040 0.000000 -1.879385
v 10.347297 0.000000 -1.969615
v 10.189606 -0.437513 -1.942327
v 10.559311 -0.377845 -1.882659
v 10.420068 -0.834300 -1.768470
v 10.900969 -0.261502 -1.766316
v 10.222521 -1.238143 -1.554827
v 10.819071 -0.735575 -1.669746
v 11.197449 -0.094317 -1.599131
v 10.656404 -1.168118 -1.484801
v 11.177003 -0.576545 -1.510715
v 10.442244 -1.528429 -1.211745
v 11.057374 -1.031578 -1.348261
v 11.475915 -0.365182 -1.299352
v 10.211363 -1.793544 -0.859374
v 10.862311 -1.424492 -1.107809
v 11.405321 -0.835371 -1.152054
v 11.700819 -0.112086 -1.046256
v 10.623489 -1.727030 -0.792860
v 11.239139 -1.257066 -0.940383
v 11.682800 -0.589334 -0.906018
v 10.376828 -1.919833 -0.415019
v 11.004353 -1.597337 -0.663167
v 11.553831 -1.034545 -0.717862
v 11.875896 -0.305807 -0.622490
v 10.734759 -1.831271 -0.326457
v 11.334852 -1.410968 -0.476798
v 11.790607 -0.768088 -0.451404
v 11.055848 -1.688610 -0.183796
v 11.598417 -1.177270 -0.243099
v 11.937595 -0.471055 -0.154372
vn 1.000000 -0.000000 -0.000000
vn 0.984808 -0.173648 -0.000000
vn 0.939693 -0.342020 0.000000
vn 0.866025 -0.500000 -0.000000
vn 0.766044 -0.642788 -0.000000
vn 0.642788 -0.766044 -0.000000
vn 0.500000 -0.866025 -0.000000
vn 0.342020 -0.939693 -0.000000
vn 0.173648 -0.984808 -0.000000
vn -0.000000 -1.000000 -0.000000
vn -0.000000 -0.984808 -0.173648
vn -0.000000 -0.939693 -0.342020
vn -0.000000 -0.866025 -0.500000
vn -0.000000 -0.766044 -0.642788
vn -0.000000 -0.642788 -0.766044
vn -0.000000 -0.500000 -0.866025
vn -0.000000 -0.342020 -0.939693
vn -0.000000 -0.173648 -0.984808
vn -0.000000 -0.000000 -1.000000
vn 0.984808 -0.000000 -0.173648
vn 0.939693 0.000000 -0.342020
vn 0.866025 -0.000000 -0.500000
vn 0.766044 -0.000000 -0.642788
vn 0.642788 -0.000000 -0.766044
vn 0.500000 -0.000000 -0.866025
vn 0.342020 -0.000000 -0.939693
vn 0.173648 -0.000000 -0.984808
vn 0.094803 -0.218756 -0.971163
vn 0.279655 -0.188923 -0.941329
vn 0.210034 -0.417150 -0.884235
vn 0.450484 -0.130751 -0.883158
vn 0.111260 -0.619072 -0.777413
vn 0.409536 -0.367788 -0.834873
vn 0.598724 -0.047159 -0.799566
vn 0.328202 -0.584059 -0.742401
vn 0.588502 -0.288272 -0.755357
vn 0.221122 -0.764214 -0.605873
vn 0.528687 -0.515789 -0.674131
vn 0.737958 -0.182591 -0.649676
vn 0.105681 -0.896772 -0.429687
vn 0.431156 -0.712246 -0.553905
vn 0.702661 -0.417685 -0.576027
vn 0.850410 -0.056043 -0.523128
vn 0.311745 -0.863515 -0.396430
vn 0.619569 -0.628533 -0.470191
vn 0.841400 -0.294667 -0.453009
vn 0.188414 -0.959917 -0.207510
vn 0.502176 -0.798669 -0.331583
vn 0.776915 -0.517273 -0.358931
vn 0.937948 -0.152903 -0.311245
vn 0.367380 -0.915636 -0.163229
vn 0.667426 -0.705484 -0.238399
vn 0.895304 -0.384044 -0.225702
vn 0.527924 -0.844305 -0.091898
vn 0.799209 -0.588635 -0.121550
vn 0.968798 -0.235528 -0.077186
vt 4.096909 0.000000
vt 3.972867 0.123098
vt 3.845010 0.244267
vt 3.709313 0.361367
vt 3.561406 0.471833
vt 3.396670 0.572429
vt 3.210832 0.659058
vt 3.001476 0.726775
vt 2.770493 0.770319
vt 2.526113 0.785398
vt 2.526113 0.610865
vt 2.526113 0.436332
vt 2.526113 0.261799
vt 2.526113 0.087266
vt 2.526113 -0.087266
vt 2.526113 -0.261799
vt 2.526113 -0.436332
vt 2.526113 -0.610865
vt 2.526113 -0.785398
vt 3.972867 -0.123098
vt 3.845010 -0.244267
vt 3.709313 -0.361367
vt 3.561406 -0.471833
vt 3.396670 -0.572429
vt 3.210832 -0.659058
vt 3.001476 -0.726775
vt 2.770493 -0.770319
vt 2.638313 -0.560999
vt 2.862712 -0.560999
vt 2.750512 -0.336599
vt 3.087112 -0.560999
vt 2.638313 -0.112200
vt 2.974912 -0.336599
vt 3.311511 -0.560999
vt 2.862712 -0.112200
vt 3.199311 -0.336599
vt 2.750512 0.112200
vt 3.087112 -0.112200
vt 3.423711 -0.336599
vt 2.638313 0.336599
vt 2.974912 0.112200
vt 3.311511 -0.112200
vt 3.648110 -0.336599
vt 2.862712 0.336599
vt 3.199311 0.112200
vt 3.535911 -0.112200
vt 2.750512 0.560999
vt 3.087112 0.336599
vt 3.423711 0.112200
vt 3.760310 -0.112200
vt 2.974912 0.560999
vt 3.311511 0.336599
vt 3.648110 0.112200
vt 3.199311 0.560999
vt 3.535911 0.336599
vt 3.872510 0.112200
f 235/235/235 226/226/226 227/227/227
f 217/217/217 218/218/218 219/219/219
f 236/236/236 225/225/225 226/226/226
f 236/236/236 226/226/226 235/235/235
f 237/237/237 235/235/235 234/234/234
f 237/237/237 236/236/236 235/235/235
f 238/238/238 224/224/224 225/225/225
f 238/238/238 236/236/236 237/237/237
f 238/238/238 225/225/225 236/236/236
f 239/239/239 234/234/234 233/233/233
f 239/239/239 237/237/237 234/234/234
f 240/240/240 222/222/222 223/223/223
f 240/240/240 223/223/223 224/224/224
f 240/240/240 224/224/224 238/238/238
f 241/241/241 238/238/238 237/237/237
f 241/241/241 237/237/237 239/239/239
f 242/242/242 233/233/233 232/232/232
f 242/242/242 239/239/239 233/233/233
f 243/243/243 238/238/238 241/241/241
f 243/243/243 240/240/240 238/238/238
f 244/244/244 239/239/239 242/242/242
f 244/244/244 241/241/241 239/239/239
f 245/245/245 221/221/221 222/222/222
f 245/245/245 240/240/240 243/243/243
f 245/245/245 222/222/222 240/240/240
f 246/246/246 243/243/243 241/241/241
f 246/246/246 241/241/241 244/244/244
f 247/247/247 232/232/232 231/231/231
f 247/247/247 244/244/244 242/242/242
f 247/247/247 242/242/242 232/232/232
f 248/248/248 220/220/220 221/221/221
f 248/248/248 221/221/221 245/245/245
f 249/249/249 245/245/245 243/243/243
f 249/249/249 243/243/243 246/246/246
f 250/250/250 246/246/246 244/244/244
f 250/250/250 244/244/244 247/247/247
f 251/251/251 230/230/230 229/229/229
f 251/251/251 231/231/231 230/230/230
f 251/251/251 247/247/247 231/231/231
f 252/252/252 245/245/245 249/249/249
f 252/252/252 248/248/248 245/245/245
f 253/253/253 246/246/246 250/250/250
f 253/253/253 249/249/249 246/246/246
f 254/254/254 250/250/250 247/247/247
f 254/254/254 247/247/247 251/251/251
f 255/255/255 248/248/248 252/252/252
f 255/255/255 216/216/216 217/217/217
f 255/255/255 219/219/219 220/220/220
f 255/255/255 217/217/217 219/219/219
f 255/255/255 220/220/220 248/248/248
f 256/256/256 252/252/252 249/249/249
f 256/256/256 249/249/249 253/253/253
f 257/257/257 253/253/253 250/250/250
f 257/257/257 250/250/250 254/254/254
f 258/258/258 254/254/254 251/251/251
f 258/258/258 229/229/229 228/228/228
f 258/258/258 251/251/251 229/229/229
f 259/259/259 252/252/252 256/256/256
f 259/259/259 215/215/215 216/216/216
f 259/259/259 255/255/255 252/252/252
f 259/259/259 216/216/216 255/255/255
f 260/260/260 213/213/213 214/214/214
f 260/260/260 256/256/256 253/253/253
f 260/260/260 253/253/253 257/257/257
f 261/261/261 211/211/211 212/212/212
f 261/261/261 257/257/257 254/254/254
f 261/261/261 254/254/254 258/258/258
f 262/262/262 214/214/214 215/215/215
f 262/262/262 259/259/259 256/256/256
f 262/262/262 215/215/215 259/259/259
f 262/262/262 256/256/256 260/260/260
f 262/262/262 260/260/260 214/214/214
f 263/263/263 212/212/212 213/213/213
f 263/263/263 213/213/213 260/260/260
f 263/263/263 260/260/260 257/257/257
f 263/263/263 257/257/257 261/261/261
f 263/263/263 261/261/261 212/212/212
f 264/264/264 209/209/209 210/210/210
f 264/264/264 210/210/210 211/211/211
f 264/264/264 228/228/228 209/209/209
f 264/264/264 258/258/258 228/228/228
f 264/264/264 261/261/261 258/258/258
f 264/264/264 211/211/211 261/261/261
v 10.000000 12.000000 0.000000
v 10.000000 11.969616 -0.347296
v 10.000000 11.879385 -0.684040
v 10.000000 11.732051 -1.000000
v 10.000000 11.532089 -1.285575
v 10.000000 11.285575 -1.532089
v 10.000000 11.000000 -1.732051
v 10.000000 10.684040 -1.879385
v 10.000000 10.347297 -1.969615
v 10.000000 10.000000 -2.000000
v 0.000000 10.000000 -2.000000
v 0.000000 12.000000 0.000000
v 0.000000 11.969616 -0.347296
v 0.000000 11.879385 -0.684040
v 0.000000 11.732051 -1.000000
v 0.000000 11.532089 -1.285575
v 0.000000 11.285575 -1.532089
v 0.000000 11.000000 -1.732051
v 0.000000 10.684040 -1.879385
v 0.000000 10.347297 -1.969615
vn 0.000000 1.000000 -0.000000
vn 0.000000 0.984808 -0.173648
vn 0.000000 0.939693 -0.342020
vn 0.000000 0.866025 -0.500000
vn 0.000000 0.766044 -0.642788
vn 0.000000 0.642788 -0.766044
vn 0.000000 0.500000 -0.866025
vn 0.000000 0.342020 -0.939693
vn 0.000000 0.173648 -0.984808
vn 0.000000 0.000000 -1.000000
vn 0.000000 -0.000000 -1.000000
vn 0.000000 1.000000 -0.000000
vn 0.000000 0.984808 -0.173648
vn 0.000000 0.939693 -0.342020
vn 0.000000 0.866025 -0.500000
vn 0.000000 0.766044 -0.642788
vn 0.000000 0.642788 -0.766044
vn 0.000000 0.500000 -0.866025
vn 0.000000 0.342020 -0.939693
vn 0.000000 0.173648 -0.984808
vt 4.712389 10.000000
vt 4.537856 10.000000
vt 4.363323 10.000000
vt 4.188790 10.000000
vt 4.014257 10.000000
vt 3.839724 10.000000
vt 3.665191 10.000000
vt 3.490659 10.000000
vt 3.316126 10.000000
vt 3.141593 10.000000
vt 3.141593 0.000000
vt 4.712389 0.000000
vt 4.537856 0.000000
vt 4.363323 0.000000
vt 4.188790 0.000000
vt 4.014257 0.000000
vt 3.839724 0.000000
vt 3.665191 0.000000
vt 3.490659 0.000000
vt 3.316126 0.000000
f 274/274/274 275/275/275 284/284/284
f 273/273/273 274/274/274 284/284/284
f 272/272/272 283/283/283 282/282/282
f 272/272/272 284/284/284 283/283/283
f 272/272/272 273/273/273 284/284/284
f 271/271/271 272/272/272 282/282/282
f 270/270/270 281/281/281 280/280/280
f 270/270/270 282/282/282 281/281/281
f 270/270/270 271/271/271 282/282/282
f 269/269/269 270/270/270 280/280/280
f 268/268/268 280/280/280 279/279/279
f 268/268/268 269/269/269 280/280/280
f 267/267/267 279/279/279 278/278/278
f 267/267/267 268/268/268 279/279/279
f 266/266/266 277/277/277 276/276/276
f 266/266/266 278/278/278 277/277/277
f 266/266/266 267/267/267 278/278/278
f 265/265/265 266/266/266 276/276/276
v -2.000000 10.000000 0.000000
v -1.969615 10.347297 0.000000
v -1.879385 10.684040 0.000000
v -1.732051 11.000000 0.000000
v -1.532089 11.285575 0.000000
v -1.285575 11.532089 0.000000
v -1.000000 11.732051 0.000000
v -0.684040 11.879385 0.000000
v -0.347296 11.969616 0.000000
v 0.000000 12.000000 0.000000
v 0.000000 11.969616 -0.347296
v 0.000000 11.879385 -0.684040
v 0.000000 11.732051 -1.000000
v 0.000000 11.532089 -1.285575
v 0.000000 11.285575 -1.532089
v 0.000000 11.000000 -1.732051
v 0.000000 10.684040 -1.879385
v 0.000000 10.347297 -1.969615
v 0.000000 10.000000 -2.000000
v -1.969615 10.000000 -0.347296
v -1.879385 10.000000 -0.684040
v -1.732051 10.000000 -1.000000
v -1.532089 10.000000 -1.285575
v -1.285575 10.000000 -1.532089
v -1.000000 10.000000 -1.732051
v -0.684040 10.000000 -1.879385
v -0.347296 10.000000 -1.969615
v -0.189606 10.437512 -1.942327
v -0.559311 10.377845 -1.882659
v -0.420068 10.834300 -1.768470
v -0.900969 10.261502 -1.766316
v -0.222521 11.238143 -1.554827
v -0.819071 10.735576 -1.669746
v -1.197449 10.094317 -1.599131
v -0.656405 11.168118 -1.484801
v -1.177003 10.576545 -1.510715
v -0.442244 11.528429 -1.211745
v -1.057374 11.031578 -1.348261
v -1.475915 10.365182 -1.299352
v -0.211363 11.793545 -0.859374
v -0.862311 11.424493 -1.107809
v -1.405321 10.835370 -1.152054
v -1.700819 10.112085 -1.046256
v -0.623490 11.727030 -0.792860
v -1.239139 11.257066 -0.940383
v -1.682800 10.589334 -0.906018
v -0.376828 11.919833 -0.415019
v -1.004352 11.597337 -0.663167
v -1.553831 11.034545 -0.717862
v -1.875897 10.305806 -0.622490
v -0.734760 11.831271 -0.326457
v -1.334853 11.410969 -0.476798
v -1.790608 10.768087 -0.451404
v -1.055848 11.688610 -0.183796
v -1.598418 11.177270 -0.243099
v -1.937595 10.471055 -0.154372
vn -1.000000 0.000000 -0.000000
vn -0.984808 0.173648 -0.000000
vn -0.939693 0.342020 0.000000
vn -0.866025 0.500000 -0.000000
vn -0.766044 0.642788 -0.000000
vn -0.642788 0.766044 -0.000000
vn -0.500000 0.866025 -0.000000
vn -0.342020 0.939693 -0.000000
vn -0.173648 0.984808 -0.000000
vn 0.000000 1.000000 -0.000000
vn 0.000000 0.984808 -0.173648
vn 0.000000 0.939693 -0.342020
vn 0.000000 0.866025 -0.500000
vn 0.000000 0.766044 -0.642788
vn 0.000000 0.642788 -0.766044
vn 0.000000 0.500000 -0.866025
vn 0.000000 0.342020 -0.939693
vn 0.000000 0.173648 -0.984808
vn 0.000000 0.000000 -1.000000
vn -0.984808 0.000000 -0.173648
vn -0.939693 -0.000000 -0.342020
vn -0.866025 0.000000 -0.500000
vn -0.766044 0.000000 -0.642788
vn -0.642788 0.000000 -0.766044
vn -0.500000 0.000000 -0.866025
vn -0.342020 0.000000 -0.939693
vn -0.173648 0.000000 -0.984808
vn -0.094803 0.218756 -0.971163
vn -0.279655 0.188923 -0.941329
vn -0.210034 0.417150 -0.884235
vn -0.450484 0.130751 -0.883158
vn -0.111260 0.619072 -0.777413
vn -0.409536 0.367788 -0.834873
vn -0.598724 0.047159 -0.799566
vn -0.328202 0.584059 -0.742401
vn -0.588502 0.288272 -0.755357
vn -0.221122 0.764214 -0.605873
vn -0.528687 0.515789 -0.674131
vn -0.737958 0.182591 -0.649676
vn -0.105681 0.896772 -0.429687
vn -0.431156 0.712246 -0.553905
vn -0.702661 0.417685 -0.576027
vn -0.850410 0.056043 -0.523128
vn -0.311745 0.863515 -0.396430
vn -0.619569 0.628533 -0.470191
vn -0.841400 0.294667 -0.453009
vn -0.188414 0.959917 -0.207510
vn -0.502176 0.798669 -0.331583
vn -0.776915 0.517273 -0.358931
vn -0.937948 0.152903 -0.311245
vn -0.367380 0.915636 -0.163229
vn -0.667426 0.705484 -0.238399
vn -0.895304 0.384044 -0.225702
vn -0.527924 0.844305 -0.091898
vn -0.799209 0.588635 -0.121550
vn -0.968798 0.235528 -0.077186
vt 4.096909 0.000000
vt 3.972867 0.123098
vt 3.845010 0.244267
vt 3.709313 0.361367
vt 3.561406 0.471833
vt 3.396670 0.572429
vt 3.210832 0.659058
vt 3.001476 0.726775
vt 2.770493 0.770319
vt 2.526113 0.785398
vt 2.526113 0.610865
vt 2.526113 0.436332
vt 2.526113 0.261799
vt 2.526113 0.087266
vt 2.526113 -0.087266
vt 2.526113 -0.261799
vt 2.526113 -0.436332
vt 2.526113 -0.610865
vt 2.526113 -0.785398
vt 3.972867 -0.123098
vt 3.845010 -0.244267
vt 3.709313 -0.361367
vt 3.561406 -0.471833
vt 3.396670 -0.572429
vt 3.210832 -0.659058
vt 3.001476 -0.726775
vt 2.770493 -0.770319
vt 2.638313 -0.560999
vt 2.862712 -0.560999
vt 2.750512 -0.336599
vt 3.087112 -0.560999
vt 2.638313 -0.112200
vt 2.974912 -0.336599
vt 3.311511 -0.560999
vt 2.862712 -0.112200
vt 3.199311 -0.336599
vt 2.750512 0.112200
vt 3.087112 -0.112200
vt 3.423711 -0.336599
vt 2.638313 0.336599
vt 2.974912 0.112200
vt 3.311511 -0.112200
vt 3.648110 -0.336599
vt 2.862712 0.336599
vt 3.199311 0.112200
vt 3.535911 -0.112200
vt 2.750512 0.560999
vt 3.087112 0.336599
vt 3.423711 0.112200
vt 3.760310 -0.112200
vt 2.974912 0.560999
vt 3.311511 0.336599
vt 3.648110 0.112200
vt 3.199311 0.560999
vt 3.535911 0.336599
vt 3.872510 0.112200
f 311/311/311 302/302/302 303/303/303
f 293/293/293 294/294/294 295/295/295
f 312/312/312 301/301/301 302/302/302
f 312/312/312 302/302/302 311/311/311
f 313/313/313 311/311/311 310/310/310
f 313/313/313 312/312/312 311/311/311
f 314/314/314 300/300/300 301/301/301
f 314/314/314 312/312/312 313/313/313
f 314/314/314 301/301/301 312/312/312
f 315/315/315 310/310/310 309/309/309
f 315/315/315 313/313/313 310/310/310
f 316/316/316 298/298/298 299/299/299
f 316/316/316 299/299/299 300/300/300
f 316/316/316 300/300/300 314/314/314
f 317/317/317 314/314/314 313/313/313
f 317/317/317 313/313/313 315/315/315
f 318/318/318 309/309/309 308/308/308
f 318/318/318 315/315/315 309/309/309
f 319/319/319 314/314/314 317/317/317
f 319/319/319 316/316/316 314/314/314
f 320/320/320 315/315/315 318/318/318
f 320/320/320 317/317/317 315/315/315
f 321/321/321 297/297/297 298/298/298
f 321/321/321 316/316/316 319/319/319
f 321/321/321 298/298/298 316/316/316
f 322/322/322 319/319/319 317/317/317
f 322/322/322 317/317/317 320/320/320
f 323/323/323 308/308/308 307/307/307
f 323/323/323 320/320/320 318/318/318
f 323/323/323 318/318/318 308/308/308
f 324/324/324 296/296/296 297/297/297
f 324/324/324 297/297/297 321/321/321
f 325/325/325 321/321/321 319/319/319
f 325/325/325 319/319/319 322/322/322
f 326/326/326 322/322/322 320/320/320
f 326/326/326 320/320/320 323/323/323
f 327/327/327 306/306/306 305/305/305
f 327/327/327 307/307/307 306/306/306
f 327/327/327 323/323/323 307/307/307
f 328/328/328 321/321/321 325/325/325
f 328/328/328 324/324/324 321/321/321
f 329/329/329 322/322/322 326/326/326
f 329/329/329 325/325/325 322/322/322
f 330/330/330 326/326/326 323/323/323
f 330/330/330 323/323/323 327/327/327
f 331/331/331 324/324/324 328/328/328
f 331/331/331 292/292/292 293/293/293
f 331/331/331 295/295/295 296/296/296
f 331/331/331 293/293/293 295/295/295
f 331/331/331 296/296/296 324/324/324
f 332/332/332 328/328/328 325/325/325
f 332/332/332 325/325/325 329/329/329
f 333/333/333 329/329/329 326/326/326
f 333/333/333 326/326/326 330/330/330
f 334/334/334 330/330/330 327/327/327
f 334/334/334 305/305/305 304/304/304
f 334/334/334 327/327/327 305/305/305
f 335/335/335 328/328/328 332/332/332
f 335/335/335 291/291/291 292/292/292
f 335/335/335 331/331/331 328/328/328
f 335/335/335 292/292/292 331/331/331
f 336/336/336 289/289/289 290/290/290
f 336/336/336 332/332/332 329/329/329
f 336/336/336 329/329/329 333/333/333
f 337/337/337 287/287/287 288/288/288
f 337/337/337 333/333/333 330/330/330
f 337/337/337 330/330/330 334/334/334
f 338/338/338 290/290/290 291/291/291
f 338/338/338 335/335/335 332/332/332
f 338/338/338 291/291/291 335/335/335
f 338/338/338 332/332/332 336/336/336
f 338/338/338 336/336/336 290/290/290
f 339/339/339 288/288/288 289/289/289
f 339/339/339 289/289/289 336/336/336
f 339/339/339 336/336/336 333/333/333
f 339/339/339 333/333/333 337/337/337
f 339/339/339 337/337/337 288/288/288
f 340/340/340 285/285/285 286/286/286
f 340/340/340 286/286/286 287/287/287
f 340/340/340 304/304/304 285/285/285
f 340/340/340 334/334/334 304/304/304
f 340/340/340 337/337/337 334/334/334
f 340/340/340 287/287/287 337/337/337
v -2.000000 10.000000 10.000000
v -1.969615 10.347297 10.000000
v -1.879385 10.684040 10.000000
v -1.732051 11.000000 10.000000
v -1.532089 11.285575 10.000000
v -1.285575 11.532089 10.000000
v -1.000000 11.732051 10.000000
v -0.684040 11.879385 10.000000
v -0.347296 11.969616 10.000000
v 0.000000 12.000000 10.000000
v 0.000000 12.000000 0.000000
v -2.000000 10.000000 0.000000
v -1.969615 10.347297 0.000000
v -1.879385 10.684040 0.000000
v -1.732051 11.000000 0.000000
v -1.532089 11.285575 0.000000
v -1.285575 11.532089 0.000000
v -1.000000 11.732051 0.000000
v -0.684040 11.879385 0.000000
v -0.347296 11.969616 0.000000
vn -1.000000 0.000000 0.000000
vn -0.984808 0.173648 0.000000
vn -0.939693 0.342020 0.000000
vn -0.866025 0.500000 0.000000
vn -0.766044 0.642788 0.000000
vn -0.642788 0.766044 0.000000
vn -0.500000 0.866025 0.000000
vn -0.342020 0.939693 0.000000
vn -0.173648 0.984808 0.000000
vn -0.000000 1.000000 0.000000
vn 0.000000 1.000000 -0.000000
vn -1.000000 0.000000 0.000000
vn -0.984808 0.173648 0.000000
vn -0.939693 0.342020 0.000000
vn -0.866025 0.500000 0.000000
vn -0.766044 0.642788 0.000000
vn -0.642788 0.766044 0.000000
vn -0.500000 0.866025 0.000000
vn -0.342020 0.939693 0.000000
vn -0.173648 0.984808 0.000000
vt 4.712389 10.000000
vt 4.537856 10.000000
vt 4.363323 10.000000
vt 4.188790 10.000000
vt 4.014257 10.000000
vt 3.839724 10.000000
vt 3.665191 10.000000
vt 3.490659 10.000000
vt 3.316126 10.000000
vt 3.141593 10.000000
vt 3.141593 0.000000
vt 4.712389 0.000000
vt 4.537856 0.000000
vt 4.363323 0.000000
vt 4.188790 0.000000
vt 4.014257 0.000000
vt 3.839724 0.000000
vt 3.665191 0.000000
vt 3.490659 0.000000
vt 3.316126 0.000000
f 350/350/350 351/351/351 360/360/360
f 349/349/349 350/350/350 360/360/360
f 348/348/348 359/359/359 358/358/358
f 348/348/348 360/360/360 359/359/359
f 348/348/348 349/349/349 360/360/360
f 347/347/347 348/348/348 358/358/358
f 346/346/346 357/357/357 356/356/356
f 346/346/346 358/358/358 357/357/357
f 346/346/346 347/347/347 358/358/358
f 345/345/345 346/346/346 356/356/356
f 344/344/344 356/356/356 355/355/355
f 344/344/344 345/345/345 356/356/356
f 343/343/343 355/355/355 354/354/354
f 343/343/343 344/344/344 355/355/355
f 342/342/342 353/353/353 352/352/352
f 342/342/342 354/354/354 353/353/353
f 342/342/342 343/343/343 354/354/354
f 341/341/341 342/342/342 352/352/352
v -2.000000 10.000000 10.000000
v -1.969615 10.000000 10.347297
v -1.879385 10.000000 10.684040
v -1.732051 10.000000 11.000000
v -1.532089 10.000000 11.285575
v -1.285575 10.000000 11.532089
v -1.000000 10.000000 11.732051
v -0.684040 10.000000 11.879385
v -0.347296 10.000000 11.969616
v 0.000000 10.000000 12.000000
v 0.000000 12.000000 10.000000
v 0.000000 11.969616 10.347297
v 0.000000 11.879385 10.684040
v 0.000000 11.732051 11.000000
v 0.000000 11.532089 11.285575
v 0.000000 11.285575 11.532089
v 0.000000 11.000000 11.732051
v 0.000000 10.684040 11.879385
v 0.000000 10.347297 11.969616
v -1.969615 10.347297 10.000000
v -1.879385 10.684040 10.000000
v -1.732051 11.000000 10.000000
v -1.532089 11.285575 10.000000
v -1.285575 11.532089 10.000000
v -1.000000 11.732051 10.000000
v -0.684040 11.879385 10.000000
v -0.347296 11.969616 10.000000
v -0.189606 11.942327 10.437512
v -0.559311 11.882659 10.377845
v -0.420068 11.768470 10.834300
v -0.900969 11.766315 10.261502
v -0.222521 11.554827 11.238143
v -0.819071 11.669745 10.735576
v -1.197449 11.599132 10.094317
v -0.656405 11.484801 11.168118
v -1.177003 11.510715 10.576545
v -0.442244 11.211745 11.528429
v -1.057374 11.348261 11.031578
v -1.475915 11.299352 10.365182
v -0.211363 10.859374 11.793545
v -0.862311 11.107809 11.424493
v -1.405321 11.152054 10.835370
v -1.700819 11.046256 10.112085
v -0.623490 10.792860 11.727030
v -1.239139 10.940383 11.257066
v -1.682800 10.906017 10.589334
v -0.376828 10.415019 11.919833
v -1.004352 10.663167 11.597337
v -1.553831 10.717862 11.034545
v -1.875897 10.622490 10.305806
v -0.734760 10.326457 11.831271
v -1.334853 10.476798 11.410969
v -1.790608 10.451405 10.768087
v -1.055848 10.183796 11.688610
v -1.598418 10.243099 11.177270
v -1.937595 10.154371 10.471055
vn -1.000000 0.000000 0.000000
vn -0.984808 0.000000 0.173648
vn -0.939693 -0.000000 0.342020
vn -0.866025 0.000000 0.500000
vn -0.766044 0.000000 0.642788
vn -0.642788 0.000000 0.766044
vn -0.500000 0.000000 0.866025
vn -0.342020 0.000000 0.939693
vn -0.173648 0.000000 0.984808
vn 0.000000 -0.000000 1.000000
vn 0.000000 1.000000 0.000000
vn 0.000000 0.984808 0.173648
vn 0.000000 0.939693 0.342020
vn 0.000000 0.866025 0.500000
vn 0.000000 0.766044 0.642788
vn 0.000000 0.642788 0.766044
vn 0.000000 0.500000 0.866025
vn 0.000000 0.342020 0.939693
vn 0.000000 0.173648 0.984808
vn -0.984808 0.173648 0.000000
vn -0.939693 0.342020 -0.000000
vn -0.866025 0.500000 0.000000
vn -0.766044 0.642788 0.000000
vn -0.642788 0.766044 0.000000
vn -0.500000 0.866025 0.000000
vn -0.342020 0.939693 0.000000
vn -0.173648 0.984808 0.000000
vn -0.094803 0.971163 0.218756
vn -0.279655 0.941329 0.188923
vn -0.210034 0.884235 0.417150
vn -0.450484 0.883158 0.130751
vn -0.111260 0.777413 0.619072
vn -0.409536 0.834873 0.367788
vn -0.598724 0.799566 0.047159
vn -0.328202 0.742401 0.584059
vn -0.588502 0.755357 0.288272
vn -0.221122 0.605873 0.764214
vn -0.528687 0.674131 0.515789
vn -0.737958 0.649676 0.182591
vn -0.105681 0.429687 0.896772
vn -0.431156 0.553905 0.712246
vn -0.702661 0.576027 0.417685
vn -0.850410 0.523128 0.056043
vn -0.311745 0.396430 0.863515
vn -0.619569 0.470191 0.628533
vn -0.841400 0.453009 0.294667
vn -0.188414 0.207510 0.959917
vn -0.502176 0.331583 0.798669
vn -0.776915 0.358931 0.517273
vn -0.937948 0.311245 0.152903
vn -0.367380 0.163229 0.915636
vn -0.667426 0.238399 0.705484
vn -0.895304 0.225702 0.384044
vn -0.527924 0.091898 0.844305
vn -0.799209 0.121550 0.588635
vn -0.968798 0.077186 0.235528
vt 4.096909 0.000000
vt 3.972867 0.123098
vt 3.845010 0.244267
vt 3.709313 0.361367
vt 3.561406 0.471833
vt 3.396670 0.572429
vt 3.210832 0.659058
vt 3.001476 0.726775
vt 2.770493 0.770319
vt 2.526113 0.785398
vt 2.526113 -0.785398
vt 2.526113 -0.610865
vt 2.526113 -0.436332
vt 2.526113 -0.261799
vt 2.526113 -0.087266
vt 2.526113 0.087266
vt 2.526113 0.261799
vt 2.526113 0.436332
vt 2.526113 0.610865
vt 3.972867 -0.123098
vt 3.845010 -0.244267
vt 3.709313 -0.361367
vt 3.561406 -0.471833
vt 3.396670 -0.572429
vt 3.210832 -0.659058
vt 3.001476 -0.726775
vt 2.770493 -0.770319
vt 2.638313 -0.560999
vt 2.862712 -0.560999
vt 2.750512 -0.336599
vt 3.087112 -0.560999
vt 2.638313 -0.112200
vt 2.974912 -0.336599
vt 3.311511 -0.560999
vt 2.862712 -0.112200
vt 3.199311 -0.336599
vt 2.750512 0.112200
vt 3.087112 -0.112200
vt 3.423711 -0.336599
vt 2.638313 0.336599
vt 2.974912 0.112200
vt 3.311511 -0.112200
vt 3.648110 -0.336599
vt 2.862712 0.336599
vt 3.199311 0.112200
vt 3.535911 -0.112200
vt 2.750512 0.560999
vt 3.087112 0.336599
vt 3.423711 0.112200
vt 3.760310 -0.112200
vt 2.974912 0.560999
vt 3.311511 0.336599
vt 3.648110 0.112200
vt 3.199311 0.560999
vt 3.535911 0.336599
vt 3.872510 0.112200
f 387/387/387 372/372/372 371/371/371
f 369/369/369 370/370/370 379/379/379
f 388/388/388 373/373/373 372/372/372
f 388/388/388 372/372/372 387/387/387
f 389/389/389 387/387/387 386/386/386
f 389/389/389 388/388/388 387/387/387
f 390/390/390 374/374/374 373/373/373
f 390/390/390 388/388/388 389/389/389
f 390/390/390 373/373/373 388/388/388
f 391/391/391 386/386/386 385/385/385
f 391/391/391 389/389/389 386/386/386
f 392/392/392 375/375/375 374/374/374
f 392/392/392 376/376/376 375/375/375
f 392/392/392 374/374/374 390/390/390
f 393/393/393 390/390/390 389/389/389
f 393/393/393 389/389/389 391/391/391
f 394/394/394 385/385/385 384/384/384
f 394/394/394 391/391/391 385/385/385
f 395/395/395 390/390/390 393/393/393
f 395/395/395 392/392/392 390/390/390
f 396/396/396 391/391/391 394/394/394
f 396/396/396 393/393/393 391/391/391
f 397/397/397 377/377/377 376/376/376
f 397/397/397 392/392/392 395/395/395
f 397/397/397 376/376/376 392/392/392
f 398/398/398 395/395/395 393/393/393
f 398/398/398 393/393/393 396/396/396
f 399/399/399 384/384/384 383/383/383
f 399/399/399 396/396/396 394/394/394
f 399/399/399 394/394/394 384/384/384
f 400/400/400 378/378/378 377/377/377
f 400/400/400 377/377/377 397/397/397
f 401/401/401 397/397/397 395/395/395
f 401/401/401 395/395/395 398/398/398
f 402/402/402 398/398/398 396/396/396
f 402/402/402 396/396/396 399/399/399
f 403/403/403 382/382/382 381/381/381
f 403/403/403 383/383/383 382/382/382
f 403/403/403 399/399/399 383/383/383
f 404/404/404 397/397/397 401/401/401
f 404/404/404 400/400/400 397/397/397
f 405/405/405 398/398/398 402/402/402
f 405/405/405 401/401/401 398/398/398
f 406/406/406 402/402/402 399/399/399
f 406/406/406 399/399/399 403/403/403
f 407/407/407 368/368/368 369/369/369
f 407/407/407 379/379/379 378/378/378
f 407/407/407 378/378/378 400/400/400
f 407/407/407 369/369/369 379/379/379
f 407/407/407 400/400/400 404/404/404
f 408/408/408 404/404/404 401/401/401
f 408/408/408 401/401/401 405/405/405
f 409/409/409 405/405/405 402/402/402
f 409/409/409 402/402/402 406/406/406
f 410/410/410 406/406/406 403/403/403
f 410/410/410 381/381/381 380/380/380
f 410/410/410 403/403/403 381/381/381
f 411/411/411 404/404/404 408/408/408
f 411/411/411 367/367/367 368/368/368
f 411/411/411 407/407/407 404/404/404
f 411/411/411 368/368/368 407/407/407
f 412/412/412 365/365/365 366/366/366
f 412/412/412 408/408/408 405/405/405
f 412/412/412 405/405/405 409/409/409
f 413/413/413 363/363/363 364/364/364
f 413/413/413 409/409/409 406/406/406
f 413/413/413 406/406/406 410/410/410
f 414/414/414 366/366/366 367/367/367
f 414/414/414 411/411/411 408/408/408
f 414/414/414 367/367/367 411/411/411
f 414/414/414 408/408/408 412/412/412
f 414/414/414 412/412/412 366/366/366
f 415/415/415 364/364/364 365/365/365
f 415/415/415 365/365/365 412/412/412
f 415/415/415 412/412/412 409/409/409
f 415/415/415 409/409/409 413/413/413
f 415/415/415 413/413/413 364/364/364
f 416/416/416 361/361/361 362/362/362
f 416/416/416 362/362/362 363/363/363
f 416/416/416 380/380/380 361/361/361
f 416/416/416 410/410/410 380/380/380
f 416/416/416 413/413/413 410/410/410
f 416/416/416 363/363/363 413/413/413
v -2.000000 10.000000 0.000000
v -1.969615 10.000000 -0.347296
v -1.879385 10.000000 -0.684040
v -1.732051 10.000000 -1.000000
v -1.532089 10.000000 -1.285575
v -1.285575 10.000000 -1.532089
v -1.000000 10.000000 -1.732051
v -0.684040 10.000000 -1.879385
v -0.347296 10.000000 -1.969615
v 0.000000 10.000000 -2.000000
v 0.000000 0.000000 -2.000000
v -2.000000 0.000000 0.000000
v -1.969615 0.000000 -0.347296
v -1.879385 0.000000 -0.684040
v -1.732051 0.000000 -1.000000
v -1.532089 0.000000 -1.285575
v -1.285575 0.000000 -1.532089
v -1.000000 0.000000 -1.732051
v -0.684040 0.000000 -1.879385
v -0.347296 0.000000 -1.969615
vn -1.000000 0.000000 -0.000000
vn -0.984808 0.000000 -0.173648
vn -0.939693 0.000000 -0.342020
vn -0.866025 0.000000 -0.500000
vn -0.766044 0.000000 -0.642788
vn -0.642788 0.000000 -0.766044
vn -0.500000 0.000000 -0.866025
vn -0.342020 0.000000 -0.939693
vn -0.173648 0.000000 -0.984808
vn -0.000000 0.000000 -1.000000
vn 0.000000 0.000000 -1.000000
vn -1.000000 0.000000 -0.000000
vn -0.984808 0.000000 -0.173648
vn -0.939693 0.000000 -0.342020
vn -0.866025 0.000000 -0.500000
vn -0.766044 0.000000 -0.642788
vn -0.642788 0.000000 -0.766044
vn -0.500000 0.000000 -0.866025
vn -0.342020 0.000000 -0.939693
vn -0.173648 0.000000 -0.984808
vt 4.712389 10.000000
vt 4.537856 10.000000
vt 4.363323 10.000000
vt 4.188790 10.000000
vt 4.014257 10.000000
vt 3.839724 10.000000
vt 3.665191 10.000000
vt 3.490659 10.000000
vt 3.316126 10.000000
vt 3.141593 10.000000
vt 3.141593 0.000000
vt 4.712389 0.000000
vt 4.537856 0.000000
vt 4.363323 0.000000
vt 4.188790 0.000000
vt 4.014257 0.000000
vt 3.839724 0.000000
vt 3.665191 0.000000
vt 3.490659 0.000000
vt 3.316126 0.000000
f 426/426/426 427/427/427 436/436/436
f 425/425/425 426/426/426 436/436/436
f 424/424/424 435/435/435 434/434/434
f 424/424/424 436/436/436 435/435/435
f 424/424/424 425/425/425 436/436/436
f 423/423/423 424/424/424 434/434/434
f 422/422/422 433/433/433 432/432/432
f 422/422/422 434/434/434 433/433/433
f 422/422/422 423/423/423 434/434/434
f 421/421/421 422/422/422 432/432/432
f 420/420/420 432/432/432 431/431/431
f 420/420/420 421/421/421 432/432/432
f 419/419/419 431/431/431 430/430/430
f 419/419/419 420/420/420 431/431/431
f 418/418/418 429/429/429 428/428/428
f 418/418/418 430/430/430 429/429/429
f 418/418/418 419/419/419 430/430/430
f 417/417/417 418/418/418 428/428/428
v 12.000000 0.000000 0.000000
v 12.000000 10.000000 0.000000
v 11.969616 0.000000 -0.347296
v 11.879385 0.000000 -0.684040
v 11.732051 0.000000 -1.000000
v 11.532089 0.000000 -1.285575
v 11.285575 0.000000 -1.532089
v 11.000000 0.000000 -1.732051
v 10.684040 0.000000 -1.879385
v 10.347297 0.000000 -1.969615
v 10.000000 0.000000 -2.000000
v 10.000000 10.000000 -2.000000
v 11.969616 10.000000 -0.347296
v 11.879385 10.000000 -0.684040
v 11.732051 10.000000 -1.000000
v 11.532089 10.000000 -1.285575
v 11.285575 10.000000 -1.532089
v 11.000000 10.000000 -1.732051
v 10.684040 10.000000 -1.879385
v 10.347297 10.000000 -1.969615
vn 1.000000 0.000000 -0.000000
vn 1.000000 0.000000 -0.000000
vn 0.984808 0.000000 -0.173648
vn 0.939693 0.000000 -0.342020
vn 0.866025 0.000000 -0.500000
vn 0.766044 0.000000 -0.642788
vn 0.642788 0.000000 -0.766044
vn 0.500000 0.000000 -0.866025
vn 0.342020 0.000000 -0.939693
vn 0.173648 0.000000 -0.984808
vn -0.000000 0.000000 -1.000000
vn 0.000000 0.000000 -1.000000
vn 0.984808 0.000000 -0.173648
vn 0.939693 0.000000 -0.342020
vn 0.866025 0.000000 -0.500000
vn 0.766044 0.000000 -0.642788
vn 0.642788 0.000000 -0.766044
vn 0.500000 0.000000 -0.866025
vn 0.342020 0.000000 -0.939693
vn 0.173648 0.000000 -0.984808
vt 1.570796 0.000000
vt 1.570796 10.000000
vt 1.745329 0.000000
vt 1.919862 0.000000
vt 2.094395 0.000000
vt 2.268928 0.000000
vt 2.443461 0.000000
vt 2.617994 0.000000
vt 2.792527 0.000000
vt 2.967060 0.000000
vt 3.141593 0.000000
vt 3.141593 10.000000
vt 1.745329 10.000000
vt 1.919862 10.000000
vt 2.094395 10.000000
vt 2.268928 10.000000
vt 2.443461 10.000000
vt 2.617994 10.000000
vt 2.792527 10.000000
vt 2.967060 10.000000
f 449/449/449 438/438/438 437/437/437
f 449/449/449 437/437/437 439/439/439
f 450/450/450 439/439/439 440/440/440
f 450/450/450 449/449/449 439/439/439
f 451/451/451 440/440/440 441/441/441
f 451/451/451 450/450/450 440/440/440
f 452/452/452 441/441/441 442/442/442
f 452/452/452 442/442/442 443/443/443
f 452/452/452 451/451/451 441/441/441
f 453/453/453 452/452/452 443/443/443
f 454/454/454 443/443/443 444/444/444
f 454/454/454 444/444/444 445/445/445
f 454/454/454 453/453/453 443/443/443
f 455/455/455 445/445/445 446/446/446
f 455/455/455 454/454/454 445/445/445
f 456/456/456 455/455/455 446/446/446
f 448/448/448 446/446/446 447/447/447
f 448/448/448 456/456/456 446/446/446
v 0.000000 12.000000 10.000000
v 10.000000 12.000000 10.000000
v 0.000000 11.969616 10.347297
v 0.000000 11.879385 10.684040
v 0.000000 11.732051 11.000000
v 0.000000 11.532089 11.285575
v 0.000000 11.285575 11.532089
v 0.000000 11.000000 11.732051
v 0.000000 10.684040 11.879385
v 0.000000 10.347297 11.969616
v 0.000000 10.000000 12.000000
v 10.000000 10.000000 12.000000
v 10.000000 11.969616 10.347297
v 10.000000 11.879385 10.684040
v 10.000000 11.732051 11.000000
v 10.000000 11.532089 11.285575
v 10.000000 11.285575 11.532089
v 10.000000 11.000000 11.732051
v 10.000000 10.684040 11.879385
v 10.000000 10.347297 11.969616
vn -0.000000 1.000000 0.000000
vn -0.000000 1.000000 0.000000
vn -0.000000 0.984808 0.173648
vn -0.000000 0.939693 0.342020
vn -0.000000 0.866025 0.500000
vn -0.000000 0.766044 0.642788
vn -0.000000 0.642788 0.766044
vn -0.000000 0.500000 0.866025
vn -0.000000 0.342020 0.939693
vn -0.000000 0.173648 0.984808
vn 0.000000 -0.000000 1.000000
vn -0.000000 0.000000 1.000000
vn -0.000000 0.984808 0.173648
vn -0.000000 0.939693 0.342020
vn -0.000000 0.866025 0.500000
vn -0.000000 0.766044 0.642788
vn -0.000000 0.642788 0.766044
vn -0.000000 0.500000 0.866025
vn -0.000000 0.342020 0.939693
vn -0.000000 0.173648 0.984808
vt 1.570796 0.000000
vt 1.570796 10.000000
vt 1.745329 0.000000
vt 1.919862 0.000000
vt 2.094395 0.000000
vt 2.268928 0.000000
vt 2.443461 0.000000
vt 2.617994 0.000000
vt 2.792527 0.000000
vt 2.967060 0.000000
vt 3.141593 0.000000
vt 3.141593 10.000000
vt 1.745329 10.000000
vt 1.919862 10.000000
vt 2.094395 10.000000
vt 2.268928 10.000000
vt 2.443461 10.000000
vt 2.617994 10.000000
vt 2.792527 10.000000
vt 2.967060 10.000000
f 469/469/469 458/458/458 457/457/457
f 469/469/469 457/457/457 459/459/459
f 470/470/470 459/459/459 460/460/460
f 470/470/470 469/469/469 459/459/459
f 471/471/471 460/460/460 461/461/461
f 471/471/471 470/470/470 460/460/460
f 472/472/472 461/461/461 462/462/462
f 472/472/472 462/462/462 463/463/463
f 472/472/472 471/471/471 461/461/461
f 473/473/473 472/472/472 463/463/463
f 474/474/474 463/463/463 464/464/464
f 474/474/474 464/464/464 465/465/465
f 474/474/474 473/473/473 463/463/463
f 475/475/475 465/465/465 466/466/466
f 475/475/475 474/474/474 465/465/465
f 476/476/476 475/475/475 466/466/466
f 468/468/468 466/466/466 467/467/467
f 468/468/468 476/476/476 466/466/466
v 12.000000 10.000000 10.000000
v 11.969616 10.000000 10.347297
v 11.879385 10.000000 10.684040
v 11.732051 10.000000 11.000000
v 11.532089 10.000000 11.285575
v 11.285575 10.000000 11.532089
v 11.000000 10.000000 11.732051
v 10.684040 10.000000 11.879385
v 10.347297 10.000000 11.969616
v 10.000000 10.000000 12.000000
v 11.969616 10.347297 10.000000
v 11.879385 10.684040 10.000000
v 11.732051 11.000000 10.000000
v 11.532089 11.285575 10.000000
v 11.285575 11.532089 10.000000
v 11.000000 11.732051 10.000000
v 10.684040 11.879385 10.000000
v 10.347297 11.969616 10.000000
v 10.000000 12.000000 10.000000
v 10.000000 11.969616 10.347297
v 10.000000 11.879385 10.684040
v 10.000000 11.732051 11.000000
v 10.000000 11.532089 11.285575
v 10.000000 11.285575 11.532089
v 10.000000 11.000000 11.732051
v 10.000000 10.684040 11.879385
v 10.000000 10.347297 11.969616
v 10.189606 10.437512 11.942327
v 10.559311 10.377845 11.882659
v 10.420068 10.834300 11.768470
v 10.900969 10.261502 11.766315
v 10.222521 11.238143 11.554827
v 10.819071 10.735576 11.669745
v 11.197449 10.094317 11.599132
v 10.656404 11.168118 11.484801
v 11.177003 10.576545 11.510715
v 10.442244 11.528429 11.211745
v 11.057374 11.031578 11.348261
v 11.475915 10.365182 11.299352
v 10.211363 11.793545 10.859374
v 10.862311 11.424493 11.107809
v 11.405321 10.835370 11.152054
v 11.700819 10.112085 11.046256
v 10.623489 11.727030 10.792860
v 11.239139 11.257066 10.940383
v 11.682800 10.589334 10.906017
v 10.376828 11.919833 10.415019
v 11.004353 11.597337 10.663167
v 11.553831 11.034545 10.717862
v 11.875896 10.305806 10.622490
v 10.734759 11.831271 10.326457
v 11.334852 11.410969 10.476798
v 11.790607 10.768087 10.451405
v 11.055848 11.688610 10.183796
v 11.598417 11.177270 10.243099
v 11.937595 10.471055 10.154371
vn 1.000000 0.000000 0.000000
vn 0.984808 0.000000 0.173648
vn 0.939693 -0.000000 0.342020
vn 0.866025 0.000000 0.500000
vn 0.766044 0.000000 0.642788
vn 0.642788 0.000000 0.766044
vn 0.500000 0.000000 0.866025
vn 0.342020 0.000000 0.939693
vn 0.173648 0.000000 0.984808
vn -0.000000 -0.000000 1.000000
vn 0.984808 0.173648 0.000000
vn 0.939693 0.342020 -0.000000
vn 0.866025 0.500000 0.000000
vn 0.766044 0.642788 0.000000
vn 0.642788 0.766044 0.000000
vn 0.500000 0.866025 0.000000
vn 0.342020 0.939693 0.000000
vn 0.173648 0.984808 0.000000
vn -0.000000 1.000000 0.000000
vn -0.000000 0.984808 0.173648
vn -0.000000 0.939693 0.342020
vn -0.000000 0.866025 0.500000
vn -0.000000 0.766044 0.642788
vn -0.000000 0.642788 0.766044
vn -0.000000 0.500000 0.866025
vn -0.000000 0.342020 0.939693
vn -0.000000 0.173648 0.984808
vn 0.094803 0.218756 0.971163
vn 0.279655 0.188923 0.941329
vn 0.210034 0.417150 0.884235
vn 0.450484 0.130751 0.883158
vn 0.111260 0.619072 0.777413
vn 0.409536 0.367788 0.834873
vn 0.598724 0.047159 0.799566
vn 0.328202 0.584059 0.742401
vn 0.588502 0.288272 0.755357
vn 0.221122 0.764214 0.605873
vn 0.528687 0.515789 0.674131
vn 0.737958 0.182591 0.649676
vn 0.105681 0.896772 0.429687
vn 0.431156 0.712246 0.553905
vn 0.702661 0.417685 0.576027
vn 0.850410 0.056043 0.523128
vn 0.311745 0.863515 0.396430
vn 0.619569 0.628533 0.470191
vn 0.841400 0.294667 0.453009
vn 0.188414 0.959917 0.207510
vn 0.502176 0.798669 0.331583
vn 0.776915 0.517273 0.358931
vn 0.937948 0.152903 0.311245
vn 0.367380 0.915636 0.163229
vn 0.667426 0.705484 0.238399
vn 0.895304 0.384044 0.225702
vn 0.527924 0.844305 0.091898
vn 0.799209 0.588635 0.121550
vn 0.968798 0.235528 0.077186
vt 4.096909 -0.000000
vt 3.972867 -0.123098
vt 3.845010 -0.244267
vt 3.709313 -0.361367
vt 3.561406 -0.471833
vt 3.396670 -0.572429
vt 3.210832 -0.659058
vt 3.001476 -0.726775
vt 2.770493 -0.770319
vt 2.526113 -0.785398
vt 3.972867 0.123098
vt 3.845010 0.244267
vt 3.709313 0.361367
vt 3.561406 0.471833
vt 3.396670 0.572429
vt 3.210832 0.659058
vt 3.001476 0.726775
vt 2.770493 0.770319
vt 2.526113 0.785398
vt 2.526113 0.610865
vt 2.526113 0.436332
vt 2.526113 0.261799
vt 2.526113 0.087266
vt 2.526113 -0.087266
vt 2.526113 -0.261799
vt 2.526113 -0.436332
vt 2.526113 -0.610865
vt 2.638313 -0.560999
vt 2.862712 -0.560999
vt 2.750512 -0.336599
vt 3.087112 -0.560999
vt 2.638313 -0.112200
vt 2.974912 -0.336599
vt 3.311511 -0.560999
vt 2.862712 -0.112200
vt 3.199311 -0.336599
vt 2.750512 0.112200
vt 3.087112 -0.112200
vt 3.423711 -0.336599
vt 2.638313 0.336599
vt 2.974912 0.112200
vt 3.311511 -0.112200
vt 3.648110 -0.336599
vt 2.862712 0.336599
vt 3.199311 0.112200
vt 3.535911 -0.112200
vt 2.750512 0.560999
vt 3.087112 0.336599
vt 3.423711 0.112200
vt 3.760310 -0.112200
vt 2.974912 0.560999
vt 3.311511 0.336599
vt 3.648110 0.112200
vt 3.199311 0.560999
vt 3.535911 0.336599
vt 3.872510 0.112200
f 485/485/485 503/503/503 486/486/486
f 494/494/494 495/495/495 496/496/496
f 504/504/504 502/502/502 503/503/503
f 504/504/504 503/503/503 485/485/485
f 505/505/505 485/485/485 484/484/484
f 505/505/505 504/504/504 485/485/485
f 506/506/506 501/501/501 502/502/502
f 506/506/506 502/502/502 504/504/504
f 506/506/506 504/504/504 505/505/505
f 507/507/507 484/484/484 483/483/483
f 507/507/507 505/505/505 484/484/484
f 508/508/508 499/499/499 500/500/500
f 508/508/508 500/500/500 501/501/501
f 508/508/508 501/501/501 506/506/506
f 509/509/509 506/506/506 505/505/505
f 509/509/509 505/505/505 507/507/507
f 510/510/510 483/483/483 482/482/482
f 510/510/510 507/507/507 483/483/483
f 511/511/511 508/508/508 506/506/506
f 511/511/511 506/506/506 509/509/509
f 512/512/512 509/509/509 507/507/507
f 512/512/512 507/507/507 510/510/510
f 513/513/513 498/498/498 499/499/499
f 513/513/513 508/508/508 511/511/511
f 513/513/513 499/499/499 508/508/508
f 514/514/514 511/511/511 509/509/509
f 514/514/514 509/509/509 512/512/512
f 515/515/515 482/482/482 481/481/481
f 515/515/515 510/510/510 482/482/482
f 515/515/515 512/512/512 510/510/510
f 516/516/516 497/497/497 498/498/498
f 516/516/516 498/498/498 513/513/513
f 517/517/517 511/511/511 514/514/514
f 517/517/517 513/513/513 511/511/511
f 518/518/518 514/514/514 512/512/512
f 518/518/518 512/512/512 515/515/515
f 519/519/519 480/480/480 479/479/479
f 519/519/519 481/481/481 480/480/480
f 519/519/519 515/515/515 481/481/481
f 520/520/520 516/516/516 513/513/513
f 520/520/520 513/513/513 517/517/517
f 521/521/521 517/517/517 514/514/514
f 521/521/521 514/514/514 518/518/518
f 522/522/522 518/518/518 515/515/515
f 522/522/522 515/515/515 519/519/519
f 523/523/523 516/516/516 520/520/520
f 523/523/523 493/493/493 494/494/494
f 523/523/523 496/496/496 497/497/497
f 523/523/523 494/494/494 496/496/496
f 523/523/523 497/497/497 516/516/516
f 524/524/524 517/517/517 521/521/521
f 524/524/524 520/520/520 517/517/517
f 525/525/525 518/518/518 522/522/522
f 525/525/525 521/521/521 518/518/518
f 526/526/526 479/479/479 478/478/478
f 526/526/526 522/522/522 519/519/519
f 526/526/526 519/519/519 479/479/479
f 527/527/527 520/520/520 524/524/524
f 527/527/527 492/492/492 493/493/493
f 527/527/527 493/493/493 523/523/523
f 527/527/527 523/523/523 520/520/520
f 528/528/528 490/490/490 491/491/491
f 528/528/528 521/521/521 525/525/525
f 528/528/528 524/524/524 521/521/521
f 529/529/529 488/488/488 489/489/489
f 529/529/529 522/522/522 526/526/526
f 529/529/529 525/525/525 522/522/522
f 530/530/530 527/527/527 524/524/524
f 530/530/530 491/491/491 492/492/492
f 530/530/530 492/492/492 527/527/527
f 530/530/530 524/524/524 528/528/528
f 530/530/530 528/528/528 491/491/491
f 531/531/531 489/489/489 490/490/490
f 531/531/531 490/490/490 528/528/528
f 531/531/531 528/528/528 525/525/525
f 531/531/531 525/525/525 529/529/529
f 531/531/531 529/529/529 489/489/489
f 532/532/532 478/478/478 477/477/477
f 532/532/532 477/477/477 487/487/487
f 532/532/532 487/487/487 488/488/488
f 532/532/532 488/488/488 529/529/529
f 532/532/532 529/529/529 526/526/526
f 532/532/532 526/526/526 478/478/478
v 0.000000 12.000000 0.000000
v 10.000000 12.000000 0.000000
v 0.000000 12.000000 10.000000
v 10.000000 12.000000 10.000000
vn -0.000000 1.000000 0.000000
vn -0.000000 1.000000 0.000000
vn -0.000000 1.000000 0.000000
vn -0.000000 1.000000 0.000000
vt 0.000000 0.000000
vt 0.000000 10.000000
vt 10.000000 0.000000
vt 10.000000 10.000000
f 536/536/536 534/534/534 533/533/533
f 536/536/536 533/533/533 535/535/535
v -2.000000 0.000000 10.000000
v -2.000000 10.000000 10.000000
v -1.969615 0.000000 10.347297
v -1.879385 0.000000 10.684040
v -1.732051 0.000000 11.000000
v -1.532089 0.000000 11.285575
v -1.285575 0.000000 11.532089
v -1.000000 0.000000 11.732051
v -0.684040 0.000000 11.879385
v -0.347296 0.000000 11.969616
v 0.000000 0.000000 12.000000
v 0.000000 10.000000 12.000000
v -1.969615 10.000000 10.347297
v -1.879385 10.000000 10.684040
v -1.732051 10.000000 11.000000
v -1.532089 10.000000 11.285575
v -1.285575 10.000000 11.532089
v -1.000000 10.000000 11.732051
v -0.684040 10.000000 11.879385
v -0.347296 10.000000 11.969616
vn -1.000000 0.000000 0.000000
vn -1.000000 0.000000 0.000000
vn -0.984808 0.000000 0.173648
vn -0.939693 0.000000 0.342020
vn -0.866025 0.000000 0.500000
vn -0.766044 0.000000 0.642788
vn -0.642788 0.000000 0.766044
vn -0.500000 0.000000 0.866025
vn -0.342020 0.000000 0.939693
vn -0.173648 0.000000 0.984808
vn 0.000000 -0.000000 1.000000
vn -0.000000 0.000000 1.000000
vn -0.984808 0.000000 0.173648
vn -0.939693 0.000000 0.342020
vn -0.866025 0.000000 0.500000
vn -0.766044 0.000000 0.642788
vn -0.642788 0.000000 0.766044
vn -0.500000 0.000000 0.866025
vn -0.342020 0.000000 0.939693
vn -0.173648 0.000000 0.984808
vt 1.570796 0.000000
vt 1.570796 10.000000
vt 1.745329 0.000000
vt 1.919862 0.000000
vt 2.094395 0.000000
vt 2.268928 0.000000
vt 2.443461 0.000000
vt 2.617994 0.000000
vt 2.792527 0.000000
vt 2.967060 0.000000
vt 3.141593 0.000000
vt 3.141593 10.000000
vt 1.745329 10.000000
vt 1.919862 10.000000
vt 2.094395 10.000000
vt 2.268928 10.000000
vt 2.443461 10.000000
vt 2.617994 10.000000
vt 2.792527 10.000000
vt 2.967060 10.000000
f 549/549/549 538/538/538 537/537/537
f 549/549/549 537/537/537 539/539/539
f 550/550/550 539/539/539 540/540/540
f 550/550/550 549/549/549 539/539/539
f 551/551/551 540/540/540 541/541/541
f 551/551/551 550/550/550 540/540/540
f 552/552/552 541/541/541 542/542/542
f 552/552/552 542/542/542 543/543/543
f 552/552/552 551/551/551 541/541/541
f 553/553/553 552/552/552 543/543/543
f 554/554/554 543/543/543 544/544/544
f 554/554/554 544/544/544 545/545/545
f 554/554/554 553/553/553 543/543/543
f 555/555/555 545/545/545 546/546/546
f 555/555/555 554/554/554 545/545/545
f 556/556/556 555/555/555 546/546/546
f 548/548/548 546/546/546 547/547/547
f 548/548/548 556/556/556 546/546/546
v 12.000000 0.000000 10.000000
v 11.969616 -0.347296 10.000000
v 11.879385 -0.684040 10.000000
v 11.732051 -1.000000 10.000000
v 11.532089 -1.285575 10.000000
v 11.285575 -1.532089 10.000000
v 11.000000 -1.732051 10.000000
v 10.684040 -1.879385 10.000000
v 10.347297 -1.969615 10.000000
v 10.000000 -2.000000 10.000000
v 11.969616 0.000000 10.347297
v 11.879385 0.000000 10.684040
v 11.732051 0.000000 11.000000
v 11.532089 0.000000 11.285575
v 11.285575 0.000000 11.532089
v 11.000000 0.000000 11.732051
v 10.684040 0.000000 11.879385
v 10.347297 0.000000 11.969616
v 10.000000 0.000000 12.000000
v 10.000000 -1.969615 10.347297
v 10.000000 -1.879385 10.684040
v 10.000000 -1.732051 11.000000
v 10.000000 -1.532089 11.285575
v 10.000000 -1.285575 11.532089
v 10.000000 -1.000000 11.732051
v 10.000000 -0.684040 11.879385
v 10.000000 -0.347296 11.969616
v 10.189606 -1.942327 10.437512
v 10.559311 -1.882659 10.377845
v 10.420068 -1.768470 10.834300
v 10.900969 -1.766316 10.261502
v 10.222521 -1.554827 11.238143
v 10.819071 -1.669746 10.735576
v 11.197449 -1.599131 10.094317
v 10.656404 -1.484801 11.168118
v 11.177003 -1.510715 10.576545
v 10.442244 -1.211745 11.528429
v 11.057374 -1.348261 11.031578
v 11.475915 -1.299352 10.365182
v 10.211363 -0.859374 11.793545
v 10.862311 -1.107809 11.424493
v 11.405321 -1.152054 10.835370
v 11.700819 -1.046256 10.112085
v 10.623489 -0.792860 11.727030
v 11.239139 -0.940383 11.257066
v 11.682800 -0.906018 10.589334
v 10.376828 -0.415019 11.919833
v 11.004353 -0.663167 11.597337
v 11.553831 -0.717862 11.034545
v 11.875896 -0.622490 10.305806
v 10.734759 -0.326457 11.831271
v 11.334852 -0.476798 11.410969
v 11.790607 -0.451404 10.768087
v 11.055848 -0.183796 11.688610
v 11.598417 -0.243099 11.177270
v 11.937595 -0.154372 10.471055
vn 1.000000 -0.000000 0.000000
vn 0.984808 -0.173648 0.000000
vn 0.939693 -0.342020 -0.000000
vn 0.866025 -0.500000 0.000000
vn 0.766044 -0.642788 0.000000
vn 0.642788 -0.766044 0.000000
vn 0.500000 -0.866025 0.000000
vn 0.342020 -0.939693 0.000000
vn 0.173648 -0.984808 0.000000
vn -0.000000 -1.000000 0.000000
vn 0.984808 -0.000000 0.173648
vn 0.939693 0.000000 0.342020
vn 0.866025 -0.000000 0.500000
vn 0.766044 -0.000000 0.642788
vn 0.642788 -0.000000 0.766044
vn 0.500000 -0.000000 0.866025
vn 0.342020 -0.000000 0.939693
vn 0.173648 -0.000000 0.984808
vn -0.000000 0.000000 1.000000
vn -0.000000 -0.984808 0.173648
vn -0.000000 -0.939693 0.342020
vn -0.000000 -0.866025 0.500000
vn -0.000000 -0.766044 0.642788
vn -0.000000 -0.642788 0.766044
vn -0.000000 -0.500000 0.866025
vn -0.000000 -0.342020 0.939693
vn -0.000000 -0.173648 0.984808
vn 0.094803 -0.971163 0.218756
vn 0.279655 -0.941329 0.188923
vn 0.210034 -0.884235 0.417150
vn 0.450484 -0.883158 0.130751
vn 0.111260 -0.777413 0.619072
vn 0.409536 -0.834873 0.367788
vn 0.598724 -0.799566 0.047159
vn 0.328202 -0.742401 0.584059
vn 0.588502 -0.755357 0.288272
vn 0.221122 -0.605873 0.764214
vn 0.528687 -0.674131 0.515789
vn 0.737958 -0.649676 0.182591
vn 0.105681 -0.429687 0.896772
vn 0.431156 -0.553905 0.712246
vn 0.702661 -0.576027 0.417685
vn 0.850410 -0.523128 0.056043
vn 0.311745 -0.396430 0.863515
vn 0.619569 -0.470191 0.628533
vn 0.841400 -0.453009 0.294667
vn 0.188414 -0.207510 0.959917
vn 0.502176 -0.331583 0.798669
vn 0.776915 -0.358931 0.517273
vn 0.937948 -0.311245 0.152903
vn 0.367380 -0.163229 0.915636
vn 0.667426 -0.238399 0.705484
vn 0.895304 -0.225702 0.384044
vn 0.527924 -0.091898 0.844305
vn 0.799209 -0.121550 0.588635
vn 0.968798 -0.077186 0.235528
vt 4.096909 -0.000000
vt 3.972867 -0.123098
vt 3.845010 -0.244267
vt 3.709313 -0.361367
vt 3.561406 -0.471833
vt 3.396670 -0.572429
vt 3.210832 -0.659058
vt 3.001476 -0.726775
vt 2.770493 -0.770319
vt 2.526113 -0.785398
vt 3.972867 0.123098
vt 3.845010 0.244267
vt 3.709313 0.361367
vt 3.561406 0.471833
vt 3.396670 0.572429
vt 3.210832 0.659058
vt 3.001476 0.726775
vt 2.770493 0.770319
vt 2.526113 0.785398
vt 2.526113 -0.610865
vt 2.526113 -0.436332
vt 2.526113 -0.261799
vt 2.526113 -0.087266
vt 2.526113 0.087266
vt 2.526113 0.261799
vt 2.526113 0.436332
vt 2.526113 0.610865
vt 2.638313 -0.560999
vt 2.862712 -0.560999
vt 2.750512 -0.336599
vt 3.087112 -0.560999
vt 2.638313 -0.112200
vt 2.974912 -0.336599
vt 3.311511 -0.560999
vt 2.862712 -0.112200
vt 3.199311 -0.336599
vt 2.750512 0.112200
vt 3.087112 -0.112200
vt 3.423711 -0.336599
vt 2.638313 0.336599
vt 2.974912 0.112200
vt 3.311511 -0.112200
vt 3.648110 -0.336599
vt 2.862712 0.336599
vt 3.199311 0.112200
vt 3.535911 -0.112200
vt 2.750512 0.560999
vt 3.087112 0.336599
vt 3.423711 0.112200
vt 3.760310 -0.112200
vt 2.974912 0.560999
vt 3.311511 0.336599
vt 3.648110 0.112200
vt 3.199311 0.560999
vt 3.535911 0.336599
vt 3.872510 0.112200
f 565/565/565 576/576/576 566/566/566
f 574/574/574 575/575/575 583/583/583
f 584/584/584 577/577/577 576/576/576
f 584/584/584 576/576/576 565/565/565
f 585/585/585 565/565/565 564/564/564
f 585/585/585 584/584/584 565/565/565
f 586/586/586 578/578/578 577/577/577
f 586/586/586 577/577/577 584/584/584
f 586/586/586 584/584/584 585/585/585
f 587/587/587 564/564/564 563/563/563
f 587/587/587 585/585/585 564/564/564
f 588/588/588 579/579/579 578/578/578
f 588/588/588 580/580/580 579/579/579
f 588/588/588 578/578/578 586/586/586
f 589/589/589 586/586/586 585/585/585
f 589/589/589 585/585/585 587/587/587
f 590/590/590 563/563/563 562/562/562
f 590/590/590 587/587/587 563/563/563
f 591/591/591 588/588/588 586/586/586
f 591/591/591 586/586/586 589/589/589
f 592/592/592 589/589/589 587/587/587
f 592/592/592 587/587/587 590/590/590
f 593/593/593 581/581/581 580/580/580
f 593/593/593 580/580/580 588/588/588
f 593/593/593 588/588/588 591/591/591
f 594/594/594 591/591/591 589/589/589
f 594/594/594 589/589/589 592/592/592
f 595/595/595 562/562/562 561/561/561
f 595/595/595 592/592/592 590/590/590
f 595/595/595 590/590/590 562/562/562
f 596/596/596 582/582/582 581/581/581
f 596/596/596 581/581/581 593/593/593
f 597/597/597 593/593/593 591/591/591
f 597/597/597 591/591/591 594/594/594
f 598/598/598 594/594/594 592/592/592
f 598/598/598 592/592/592 595/595/595
f 599/599/599 560/560/560 559/559/559
f 599/599/599 561/561/561 560/560/560
f 599/599/599 595/595/595 561/561/561
f 600/600/600 596/596/596 593/593/593
f 600/600/600 593/593/593 597/597/597
f 601/601/601 597/597/597 594/594/594
f 601/601/601 594/594/594 598/598/598
f 602/602/602 598/598/598 595/595/595
f 602/602/602 595/595/595 599/599/599
f 603/603/603 596/596/596 600/600/600
f 603/603/603 573/573/573 574/574/574
f 603/603/603 583/583/583 582/582/582
f 603/603/603 582/582/582 596/596/596
f 603/603/603 574/574/574 583/583/583
f 604/604/604 597/597/597 601/601/601
f 604/604/604 600/600/600 597/597/597
f 605/605/605 601/601/601 598/598/598
f 605/605/605 598/598/598 602/602/602
f 606/606/606 559/559/559 558/558/558
f 606/606/606 602/602/602 599/599/599
f 606/606/606 599/599/599 559/559/559
f 607/607/607 600/600/600 604/604/604
f 607/607/607 572/572/572 573/573/573
f 607/607/607 573/573/573 603/603/603
f 607/607/607 603/603/603 600/600/600
f 608/608/608 601/601/601 605/605/605
f 608/608/608 570/570/570 571/571/571
f 608/608/608 604/604/604 601/601/601
f 609/609/609 568/568/568 569/569/569
f 609/609/609 605/605/605 602/602/602
f 609/609/609 602/602/602 606/606/606
f 610/610/610 607/607/607 604/604/604
f 610/610/610 571/571/571 572/572/572
f 610/610/610 572/572/572 607/607/607
f 610/610/610 608/608/608 571/571/571
f 610/610/610 604/604/604 608/608/608
f 611/611/611 569/569/569 570/570/570
f 611/611/611 608/608/608 605/605/605
f 611/611/611 605/605/605 609/609/609
f 611/611/611 570/570/570 608/608/608
f 611/611/611 609/609/609 569/569/569
f 612/612/612 558/558/558 557/557/557
f 612/612/612 557/557/557 567/567/567
f 612/612/612 567/567/567 568/568/568
f 612/612/612 568/568/568 609/609/609
f 612/612/612 609/609/609 606/606/606
f 612/612/612 606/606/606 558/558/558
v 12.000000 0.000000 0.000000
v 12.000000 0.000000 10.000000
v 12.000000 10.000000 0.000000
v 12.000000 10.000000 10.000000
vn 1.000000 0.000000 -0.000000
vn 1.000000 0.000000 -0.000000
vn 1.000000 0.000000 -0.000000
vn 1.000000 0.000000 -0.000000
vt 0.000000 0.000000
vt 10.000000 0.000000
vt 0.000000 -10.000000
vt 10.000000 -10.000000
f 614/614/614 613/613/613 615/615/615
f 614/614/614 615/615/615 616/616/616
v 12.000000 0.000000 10.000000
v 11.969616 -0.347296 10.000000
v 11.879385 -0.684040 10.000000
v 11.732051 -1.000000 10.000000
v 11.532089 -1.285575 10.000000
v 11.285575 -1.532089 10.000000
v 11.000000 -1.732051 10.000000
v 10.684040 -1.879385 10.000000
v 10.347297 -1.969615 10.000000
v 10.000000 -2.000000 10.000000
v 10.000000 -2.000000 0.000000
v 12.000000 0.000000 0.000000
v 11.969616 -0.347296 0.000000
v 11.879385 -0.684040 0.000000
v 11.732051 -1.000000 0.000000
v 11.532089 -1.285575 0.000000
v 11.285575 -1.532089 0.000000
v 11.000000 -1.732051 0.000000
v 10.684040 -1.879385 0.000000
v 10.347297 -1.969615 0.000000
vn 1.000000 -0.000000 0.000000
vn 0.984808 -0.173648 0.000000
vn 0.939693 -0.342020 0.000000
vn 0.866025 -0.500000 0.000000
vn 0.766044 -0.642788 0.000000
vn 0.642788 -0.766044 0.000000
vn 0.500000 -0.866025 0.000000
vn 0.342020 -0.939693 0.000000
vn 0.173648 -0.984808 0.000000
vn 0.000000 -1.000000 0.000000
vn -0.000000 -1.000000 0.000000
vn 1.000000 -0.000000 0.000000
vn 0.984808 -0.173648 0.000000
vn 0.939693 -0.342020 0.000000
vn 0.866025 -0.500000 0.000000
vn 0.766044 -0.642788 0.000000
vn 0.642788 -0.766044 0.000000
vn 0.500000 -0.866025 0.000000
vn 0.342020 -0.939693 0.000000
vn 0.173648 -0.984808 0.000000
vt 4.712389 10.000000
vt 4.537856 10.000000
vt 4.363323 10.000000
vt 4.188790 10.000000
vt 4.014257 10.000000
vt 3.839724 10.000000
vt 3.665191 10.000000
vt 3.490659 10.000000
vt 3.316126 10.000000
vt 3.141593 10.000000
vt 3.141593 0.000000
vt 4.712389 0.000000
vt 4.537856 0.000000
vt 4.363323 0.000000
vt 4.188790 0.000000
vt 4.014257 0.000000
vt 3.839724 0.000000
vt 3.665191 0.000000
vt 3.490659 0.000000
vt 3.316126 0.000000
f 626/626/626 627/627/627 636/636/636
f 625/625/625 626/626/626 636/636/636
f 624/624/624 635/635/635 634/634/634
f 624/624/624 636/636/636 635/635/635
f 624/624/624 625/625/625 636/636/636
f 623/623/623 624/624/624 634/634/634
f 622/622/622 633/633/633 632/632/632
f 622/622/622 634/634/634 633/633/633
f 622/622/622 623/623/623 634/634/634
f 621/621/621 622/622/622 632/632/632
f 620/620/620 632/632/632 631/631/631
f 620/620/620 621/621/621 632/632/632
f 619/619/619 631/631/631 630/630/630
f 619/619/619 620/620/620 631/631/631
f 618/618/618 629/629/629 628/628/628
f 618/618/618 630/630/630 629/629/629
f 618/618/618 619/619/619 630/630/630
f 617/617/617 618/618/618 628/628/628
v 12.000000 10.000000 0.000000
v 11.969616 10.347297 0.000000
v 11.879385 10.684040 0.000000
v 11.732051 11.000000 0.000000
v 11.532089 11.285575 0.000000
v 11.285575 11.532089 0.000000
v 11.000000 11.732051 0.000000
v 10.684040 11.879385 0.000000
v 10.347297 11.969616 0.000000
v 10.000000 12.000000 0.000000
v 11.969616 10.000000 -0.347296
v 11.879385 10.000000 -0.684040
v 11.732051 10.000000 -1.000000
v 11.532089 10.000000 -1.285575
v 11.285575 10.000000 -1.532089
v 11.000000 10.000000 -1.732051
v 10.684040 10.000000 -1.879385
v 10.347297 10.000000 -1.969615
v 10.000000 10.000000 -2.000000
v 10.000000 11.969616 -0.347296
v 10.000000 11.879385 -0.684040
v 10.000000 11.732051 -1.000000
v 10.000000 11.532089 -1.285575
v 10.000000 11.285575 -1.532089
v 10.000000 11.000000 -1.732051
v 10.000000 10.684040 -1.879385
v 10.000000 10.347297 -1.969615
v 10.189606 11.942327 -0.437513
v 10.559311 11.882659 -0.377845
v 10.420068 11.768470 -0.834300
v 10.900969 11.766315 -0.261502
v 10.222521 11.554827 -1.238143
v 10.819071 11.669745 -0.735575
v 11.197449 11.599132 -0.094317
v 10.656404 11.484801 -1.168118
v 11.177003 11.510715 -0.576545
v 10.442244 11.211745 -1.528429
v 11.057374 11.348261 -1.031578
v 11.475915 11.299352 -0.365182
v 10.211363 10.859374 -1.793544
v 10.862311 11.107809 -1.424492
v 11.405321 11.152054 -0.835371
v 11.700819 11.046256 -0.112086
v 10.623489 10.792860 -1.727030
v 11.239139 10.940383 -1.257066
v 11.682800 10.906017 -0.589334
v 10.376828 10.415019 -1.919833
v 11.004353 10.663167 -1.597337
v 11.553831 10.717862 -1.034545
v 11.875896 10.622490 -0.305807
v 10.734759 10.326457 -1.831271
v 11.334852 10.476798 -1.410968
v 11.790607 10.451405 -0.768088
v 11.055848 10.183796 -1.688610
v 11.598417 10.243099 -1.177270
v 11.937595 10.154371 -0.471055
vn 1.000000 0.000000 -0.000000
vn 0.984808 0.173648 -0.000000
vn 0.939693 0.342020 0.000000
vn 0.866025 0.500000 -0.000000
vn 0.766044 0.642788 -0.000000
vn 0.642788 0.766044 -0.000000
vn 0.500000 0.866025 -0.000000
vn 0.342020 0.939693 -0.000000
vn 0.173648 0.984808 -0.000000
vn -0.000000 1.000000 -0.000000
vn 0.984808 0.000000 -0.173648
vn 0.939693 -0.000000 -0.342020
vn 0.866025 0.000000 -0.500000
vn 0.766044 0.000000 -0.642788
vn 0.642788 0.000000 -0.766044
vn 0.500000 0.000000 -0.866025
vn 0.342020 0.000000 -0.939693
vn 0.173648 0.000000 -0.984808
vn -0.000000 -0.000000 -1.000000
vn -0.000000 0.984808 -0.173648
vn -0.000000 0.939693 -0.342020
vn -0.000000 0.866025 -0.500000
vn -0.000000 0.766044 -0.642788
vn -0.000000 0.642788 -0.766044
vn -0.000000 0.500000 -0.866025
vn -0.000000 0.342020 -0.939693
vn -0.000000 0.173648 -0.984808
vn 0.094803 0.971163 -0.218756
vn 0.279655 0.941329 -0.188923
vn 0.210034 0.884235 -0.417150
vn 0.450484 0.883158 -0.130751
vn 0.111260 0.777413 -0.619072
vn 0.409536 0.834873 -0.367788
vn 0.598724 0.799566 -0.047159
vn 0.328202 0.742401 -0.584059
vn 0.588502 0.755357 -0.288272
vn 0.221122 0.605873 -0.764214
vn 0.528687 0.674131 -0.515789
vn 0.737958 0.649676 -0.182591
vn 0.105681 0.429687 -0.896772
vn 0.431156 0.553905 -0.712246
vn 0.702661 0.576027 -0.417685
vn 0.850410 0.523128 -0.056043
vn 0.311745 0.396430 -0.863515
vn 0.619569 0.470191 -0.628533
vn 0.841400 0.453009 -0.294667
vn 0.188414 0.207510 -0.959917
vn 0.502176 0.331583 -0.798669
vn 0.776915 0.358931 -0.517273
vn 0.937948 0.311245 -0.152903
vn 0.367380 0.163229 -0.915636
vn 0.667426 0.238399 -0.705484
vn 0.895304 0.225702 -0.384044
vn 0.527924 0.091898 -0.844305
vn 0.799209 0.121550 -0.588635
vn 0.968798 0.077186 -0.235528
vt 4.096909 -0.000000
vt 3.972867 -0.123098
vt 3.845010 -0.244267
vt 3.709313 -0.361367
vt 3.561406 -0.471833
vt 3.396670 -0.572429
vt 3.210832 -0.659058
vt 3.001476 -0.726775
vt 2.770493 -0.770319
vt 2.526113 -0.785398
vt 3.972867 0.123098
vt 3.845010 0.244267
vt 3.709313 0.361367
vt 3.561406 0.471833
vt 3.396670 0.572429
vt 3.210832 0.659058
vt 3.001476 0.726775
vt 2.770493 0.770319
vt 2.526113 0.785398
vt 2.526113 -0.610865
vt 2.526113 -0.436332
vt 2.526113 -0.261799
vt 2.526113 -0.087266
vt 2.526113 0.087266
vt 2.526113 0.261799
vt 2.526113 0.436332
vt 2.526113 0.610865
vt 2.638313 -0.560999
vt 2.862712 -0.560999
vt 2.750512 -0.336599
vt 3.087112 -0.560999
vt 2.638313 -0.112200
vt 2.974912 -0.336599
vt 3.311511 -0.560999
vt 2.862712 -0.112200
vt 3.199311 -0.336599
vt 2.750512 0.112200
vt 3.087112 -0.112200
vt 3.423711 -0.336599
vt 2.638313 0.336599
vt 2.974912 0.112200
vt 3.311511 -0.112200
vt 3.648110 -0.336599
vt 2.862712 0.336599
vt 3.199311 0.112200
vt 3.535911 -0.112200
vt 2.750512 0.560999
vt 3.087112 0.336599
vt 3.423711 0.112200
vt 3.760310 -0.112200
vt 2.974912 0.560999
vt 3.311511 0.336599
vt 3.648110 0.112200
vt 3.199311 0.560999
vt 3.535911 0.336599
vt 3.872510 0.112200
f 645/645/645 656/656/656 646/646/646
f 654/654/654 655/655/655 663/663/663
f 664/664/664 657/657/657 656/656/656
f 664/664/664 656/656/656 645/645/645
f 665/665/665 645/645/645 644/644/644
f 665/665/665 664/664/664 645/645/645
f 666/666/666 658/658/658 657/657/657
f 666/666/666 657/657/657 664/664/664
f 666/666/666 664/664/664 665/665/665
f 667/667/667 644/644/644 643/643/643
f 667/667/667 665/665/665 644/644/644
f 668/668/668 659/659/659 658/658/658
f 668/668/668 660/660/660 659/659/659
f 668/668/668 658/658/658 666/666/666
f 669/669/669 666/666/666 665/665/665
f 669/669/669 665/665/665 667/667/667
f 670/670/670 643/643/643 642/642/642
f 670/670/670 667/667/667 643/643/643
f 671/671/671 668/668/668 666/666/666
f 671/671/671 666/666/666 669/669/669
f 672/672/672 669/669/669 667/667/667
f 672/672/672 667/667/667 670/670/670
f 673/673/673 661/661/661 660/660/660
f 673/673/673 660/660/660 668/668/668
f 673/673/673 668/668/668 671/671/671
f 674/674/674 671/671/671 669/669/669
f 674/674/674 669/669/669 672/672/672
f 675/675/675 642/642/642 641/641/641
f 675/675/675 672/672/672 670/670/670
f 675/675/675 670/670/670 642/642/642
f 676/676/676 662/662/662 661/661/661
f 676/676/676 661/661/661 673/673/673
f 677/677/677 673/673/673 671/671/671
f 677/677/677 671/671/671 674/674/674
f 678/678/678 674/674/674 672/672/672
f 678/678/678 672/672/672 675/675/675
f 679/679/679 640/640/640 639/639/639
f 679/679/679 641/641/641 640/640/640
f 679/679/679 675/675/675 641/641/641
f 680/680/680 676/676/676 673/673/673
f 680/680/680 673/673/673 677/677/677
f 681/681/681 677/677/677 674/674/674
f 681/681/681 674/674/674 678/678/678
f 682/682/682 678/678/678 675/675/675
f 682/682/682 675/675/675 679/679/679
f 683/683/683 676/676/676 680/680/680
f 683/683/683 653/653/653 654/654/654
f 683/683/683 663/663/663 662/662/662
f 683/683/683 662/662/662 676/676/676
f 683/683/683 654/654/654 663/663/663
f 684/684/684 677/677/677 681/681/681
f 684/684/684 680/680/680 677/677/677
f 685/685/685 681/681/681 678/678/678
f 685/685/685 678/678/678 682/682/682
f 686/686/686 639/639/639 638/638/638
f 686/686/686 682/682/682 679/679/679
f 686/686/686 679/679/679 639/639/639
f 687/687/687 680/680/680 684/684/684
f 687/687/687 652/652/652 653/653/653
f 687/687/687 653/653/653 683/683/683
f 687/687/687 683/683/683 680/680/680
f 688/688/688 681/681/681 685/685/685
f 688/688/688 650/650/650 651/651/651
f 688/688/688 684/684/684 681/681/681
f 689/689/689 648/648/648 649/649/649
f 689/689/689 685/685/685 682/682/682
f 689/689/689 682/682/682 686/686/686
f 690/690/690 687/687/687 684/684/684
f 690/690/690 651/651/651 652/652/652
f 690/690/690 652/652/652 687/687/687
f 690/690/690 688/688/688 651/651/651
f 690/690/690 684/684/684 688/688/688
f 691/691/691 649/649/649 650/650/650
f 691/691/691 688/688/688 685/685/685
f 691/691/691 685/685/685 689/689/689
f 691/691/691 650/650/650 688/688/688
f 691/691/691 689/689/689 649/649/649
f 692/692/692 638/638/638 637/637/637
f 692/692/692 637/637/637 647/647/647
f 692/692/692 647/647/647 648/648/648
f 692/692/692 648/648/648 689/689/689
f 692/692/692 689/689/689 686/686/686
f 692/692/692 686/686/686 638/638/638
v 12.000000 10.000000 0.000000
v 12.000000 10.000000 10.000000
v 11.969616 10.347297 0.000000
v 11.879385 10.684040 0.000000
v 11.732051 11.000000 0.000000
v 11.532089 11.285575 0.000000
v 11.285575 11.532089 0.000000
v 11.000000 11.732051 0.000000
v 10.684040 11.879385 0.000000
v 10.347297 11.969616 0.000000
v 10.000000 12.000000 0.000000
v 10.000000 12.000000 10.000000
v 11.969616 10.347297 10.000000
v 11.879385 10.684040 10.000000
v 11.732051 11.000000 10.000000
v 11.532089 11.285575 10.000000
v 11.285575 11.532089 10.000000
v 11.000000 11.732051 10.000000
v 10.684040 11.879385 10.000000
v 10.347297 11.969616 10.000000
vn 1.000000 0.000000 -0.000000
vn 1.000000 0.000000 -0.000000
vn 0.984808 0.173648 -0.000000
vn 0.939693 0.342020 -0.000000
vn 0.866025 0.500000 -0.000000
vn 0.766044 0.642788 -0.000000
vn 0.642788 0.766044 -0.000000
vn 0.500000 0.866025 -0.000000
vn 0.342020 0.939693 -0.000000
vn 0.173648 0.984808 -0.000000
vn -0.000000 1.000000 0.000000
vn 0.000000 1.000000 -0.000000
vn 0.984808 0.173648 -0.000000
vn 0.939693 0.342020 -0.000000
vn 0.866025 0.500000 -0.000000
vn 0.766044 0.642788 -0.000000
vn 0.642788 0.766044 -0.000000
vn 0.500000 0.866025 -0.000000
vn 0.342020 0.939693 -0.000000
vn 0.173648 0.984808 -0.000000
vt 1.570796 0.000000
vt 1.570796 10.000000
vt 1.745329 0.000000
vt 1.919862 0.000000
vt 2.094395 0.000000
vt 2.268928 0.000000
vt 2.443461 0.000000
vt 2.617994 0.000000
vt 2.792527 0.000000
vt 2.967060 0.000000
vt 3.141593 0.000000
vt 3.141593 10.000000
vt 1.745329 10.000000
vt 1.919862 10.000000
vt 2.094395 10.000000
vt 2.268928 10.000000
vt 2.443461 10.000000
vt 2.617994 10.000000
vt 2.792527 10.000000
vt 2.967060 10.000000
f 705/705/705 694/694/694 693/693/693
f 705/705/705 693/693/693 695/695/695
f 706/706/706 695/695/695 696/696/696
f 706/706/706 705/705/705 695/695/695
f 707/707/707 696/696/696 697/697/697
f 707/707/707 706/706/706 696/696/696
f 708/708/708 697/697/697 698/698/698
f 708/708/708 698/698/698 699/699/699
f 708/708/708 707/707/707 697/697/697
f 709/709/709 708/708/708 699/699/699
f 710/710/710 699/699/699 700/700/700
f 710/710/710 700/700/700 701/701/701
f 710/710/710 709/709/709 699/699/699
f 711/711/711 701/701/701 702/702/702
f 711/711/711 710/710/710 701/701/701
f 712/712/712 711/711/711 702/702/702
f 704/704/704 702/702/702 703/703/703
f 704/704/704 712/712/712 702/702/702
