# Exported by Open CASCADE Technology [dev.opencascade.org]
#  Vertices: 104
#     Faces: 92
mtllib rev-occ.mtl
g rev_occ
usemtl mat_1
v 5.000000 0.000000 0.000000
v 10.000000 0.000000 0.000000
v 9.927089 1.205367 0.000000
v 9.709418 2.393157 0.000000
v 9.350163 3.546049 0.000000
v 8.854560 4.647232 0.000000
v 8.229838 5.680647 0.000000
v 7.485107 6.631227 0.000000
v 6.631227 7.485107 0.000000
v 5.680647 8.229838 0.000000
v 4.647232 8.854560 0.000000
v 3.546049 9.350163 0.000000
v 2.393157 9.709418 0.000000
v 1.205367 9.927089 0.000000
v 0.000000 10.000000 0.000000
v 0.000000 5.000000 0.000000
v 4.924039 0.868241 0.000000
v 4.698463 1.710101 0.000000
v 4.330127 2.500000 0.000000
v 3.830222 3.213938 0.000000
v 3.213938 3.830222 0.000000
v 2.500000 4.330127 0.000000
v 1.710101 4.698463 0.000000
v 0.868241 4.924039 0.000000
vn -0.000000 -0.000000 -1.000000
vn -0.000000 -0.000000 -1.000000
vn -0.000000 -0.000000 -1.000000
vn -0.000000 -0.000000 -1.000000
vn -0.000000 -0.000000 -1.000000
vn -0.000000 -0.000000 -1.000000
vn -0.000000 -0.000000 -1.000000
vn -0.000000 -0.000000 -1.000000
vn -0.000000 -0.000000 -1.000000
vn -0.000000 -0.000000 -1.000000
vn -0.000000 -0.000000 -1.000000
vn -0.000000 -0.000000 -1.000000
vn -0.000000 -0.000000 -1.000000
vn -0.000000 -0.000000 -1.000000
vn -0.000000 -0.000000 -1.000000
vn -0.000000 -0.000000 -1.000000
vn -0.000000 -0.000000 -1.000000
vn -0.000000 -0.000000 -1.000000
vn -0.000000 -0.000000 -1.000000
vn -0.000000 -0.000000 -1.000000
vn -0.000000 -0.000000 -1.000000
vn -0.000000 -0.000000 -1.000000
vn -0.000000 -0.000000 -1.000000
vn -0.000000 -0.000000 -1.000000
vt 5.000000 0.000000
vt 10.000000 0.000000
vt 9.927089 1.205367
vt 9.709418 2.393157
vt 9.350163 3.546049
vt 8.854560 4.647232
vt 8.229838 5.680647
vt 7.485107 6.631227
vt 6.631227 7.485107
vt 5.680647 8.229838
vt 4.647232 8.854560
vt 3.546049 9.350163
vt 2.393157 9.709418
vt 1.205367 9.927089
vt 0.000000 10.000000
vt 0.000000 5.000000
vt 4.924039 0.868241
vt 4.698463 1.710101
vt 4.330127 2.500000
vt 3.830222 3.213938
vt 3.213938 3.830222
vt 2.500000 4.330127
vt 1.710101 4.698463
vt 0.868241 4.924039
f 3/3/3 2/2/2 1/1/1
f 3/3/3 1/1/1 17/17/17
f 14/14/14 16/16/16 15/15/15
f 14/14/14 24/24/24 16/16/16
f 4/4/4 17/17/17 18/18/18
f 4/4/4 3/3/3 17/17/17
f 13/13/13 23/23/23 24/24/24
f 13/13/13 24/24/24 14/14/14
f 5/5/5 4/4/4 18/18/18
f 12/12/12 23/23/23 13/13/13
f 6/6/6 18/18/18 19/19/19
f 6/6/6 5/5/5 18/18/18
f 11/11/11 22/22/22 23/23/23
f 11/11/11 23/23/23 12/12/12
f 10/10/10 21/21/21 22/22/22
f 10/10/10 22/22/22 11/11/11
f 7/7/7 19/19/19 20/20/20
f 7/7/7 6/6/6 19/19/19
f 8/8/8 7/7/7 20/20/20
f 9/9/9 20/20/20 21/21/21
f 9/9/9 8/8/8 20/20/20
f 9/9/9 21/21/21 10/10/10
v 10.000000 0.000000 0.000000
v 9.927089 1.205367 0.000000
v 9.709418 2.393157 0.000000
v 9.350163 3.546049 0.000000
v 8.854560 4.647232 0.000000
v 8.229838 5.680647 0.000000
v 7.485107 6.631227 0.000000
v 6.631227 7.485107 0.000000
v 5.680647 8.229838 0.000000
v 4.647232 8.854560 0.000000
v 3.546049 9.350163 0.000000
v 2.393157 9.709418 0.000000
v 1.205367 9.927089 0.000000
v 0.000000 10.000000 0.000000
v 0.000000 10.000000 10.000000
v 10.000000 0.000000 10.000000
v 9.927089 1.205367 10.000000
v 9.709418 2.393157 10.000000
v 9.350163 3.546049 10.000000
v 8.854560 4.647232 10.000000
v 8.229838 5.680647 10.000000
v 7.485107 6.631227 10.000000
v 6.631227 7.485107 10.000000
v 5.680647 8.229838 10.000000
v 4.647232 8.854560 10.000000
v 3.546049 9.350163 10.000000
v 2.393157 9.709418 10.000000
v 1.205367 9.927089 10.000000
vn 1.000000 0.000000 -0.000000
vn 0.992709 0.120537 -0.000000
vn 0.970942 0.239316 -0.000000
vn 0.935016 0.354605 -0.000000
vn 0.885456 0.464723 -0.000000
vn 0.822984 0.568065 -0.000000
vn 0.748511 0.663123 -0.000000
vn 0.663123 0.748511 -0.000000
vn 0.568065 0.822984 -0.000000
vn 0.464723 0.885456 -0.000000
vn 0.354605 0.935016 -0.000000
vn 0.239316 0.970942 -0.000000
vn 0.120537 0.992709 -0.000000
vn -0.000000 1.000000 0.000000
vn 0.000000 1.000000 -0.000000
vn 1.000000 0.000000 -0.000000
vn 0.992709 0.120537 -0.000000
vn 0.970942 0.239316 -0.000000
vn 0.935016 0.354605 -0.000000
vn 0.885456 0.464723 -0.000000
vn 0.822984 0.568065 -0.000000
vn 0.748511 0.663123 -0.000000
vn 0.663123 0.748511 -0.000000
vn 0.568065 0.822984 -0.000000
vn 0.464723 0.885456 -0.000000
vn 0.354605 0.935016 -0.000000
vn 0.239316 0.970942 -0.000000
vn 0.120537 0.992709 -0.000000
vt 0.000000 0.000000
vt 0.120830 0.000000
vt 0.241661 0.000000
vt 0.362491 0.000000
vt 0.483322 0.000000
vt 0.604152 0.000000
vt 0.724983 0.000000
vt 0.845813 0.000000
vt 0.966644 0.000000
vt 1.087474 0.000000
vt 1.208305 0.000000
vt 1.329135 0.000000
vt 1.449966 0.000000
vt 1.570796 0.000000
vt 1.570796 10.000000
vt 0.000000 10.000000
vt 0.120830 10.000000
vt 0.241661 10.000000
vt 0.362491 10.000000
vt 0.483322 10.000000
vt 0.604152 10.000000
vt 0.724983 10.000000
vt 0.845813 10.000000
vt 0.966644 10.000000
vt 1.087474 10.000000
vt 1.208305 10.000000
vt 1.329135 10.000000
vt 1.449966 10.000000
f 41/41/41 25/25/25 26/26/26
f 41/41/41 40/40/40 25/25/25
f 42/42/42 26/26/26 27/27/27
f 42/42/42 41/41/41 26/26/26
f 43/43/43 27/27/27 28/28/28
f 43/43/43 42/42/42 27/27/27
f 44/44/44 28/28/28 29/29/29
f 44/44/44 43/43/43 28/28/28
f 45/45/45 29/29/29 30/30/30
f 45/45/45 30/30/30 31/31/31
f 45/45/45 44/44/44 29/29/29
f 46/46/46 45/45/45 31/31/31
f 47/47/47 31/31/31 32/32/32
f 47/47/47 46/46/46 31/31/31
f 48/48/48 32/32/32 33/33/33
f 48/48/48 47/47/47 32/32/32
f 49/49/49 33/33/33 34/34/34
f 49/49/49 48/48/48 33/33/33
f 50/50/50 34/34/34 35/35/35
f 50/50/50 49/49/49 34/34/34
f 51/51/51 35/35/35 36/36/36
f 51/51/51 36/36/36 37/37/37
f 51/51/51 50/50/50 35/35/35
f 52/52/52 51/51/51 37/37/37
f 39/39/39 37/37/37 38/38/38
f 39/39/39 52/52/52 37/37/37
v 10.000000 0.000000 10.000000
v 9.927089 1.205367 10.000000
v 9.709418 2.393157 10.000000
v 9.350163 3.546049 10.000000
v 8.854560 4.647232 10.000000
v 8.229838 5.680647 10.000000
v 7.485107 6.631227 10.000000
v 6.631227 7.485107 10.000000
v 5.680647 8.229838 10.000000
v 4.647232 8.854560 10.000000
v 3.546049 9.350163 10.000000
v 2.393157 9.709418 10.000000
v 1.205367 9.927089 10.000000
v 0.000000 10.000000 10.000000
v 0.000000 5.000000 10.000000
v 5.000000 0.000000 10.000000
v 4.924039 0.868241 10.000000
v 4.698463 1.710101 10.000000
v 4.330127 2.500000 10.000000
v 3.830222 3.213938 10.000000
v 3.213938 3.830222 10.000000
v 2.500000 4.330127 10.000000
v 1.710101 4.698463 10.000000
v 0.868241 4.924039 10.000000
vn 0.000000 0.000000 1.000000
vn 0.000000 0.000000 1.000000
vn 0.000000 0.000000 1.000000
vn 0.000000 0.000000 1.000000
vn 0.000000 0.000000 1.000000
vn 0.000000 0.000000 1.000000
vn 0.000000 0.000000 1.000000
vn 0.000000 0.000000 1.000000
vn 0.000000 0.000000 1.000000
vn 0.000000 0.000000 1.000000
vn 0.000000 0.000000 1.000000
vn 0.000000 0.000000 1.000000
vn 0.000000 0.000000 1.000000
vn 0.000000 0.000000 1.000000
vn 0.000000 0.000000 1.000000
vn 0.000000 0.000000 1.000000
vn 0.000000 0.000000 1.000000
vn 0.000000 0.000000 1.000000
vn 0.000000 0.000000 1.000000
vn 0.000000 0.000000 1.000000
vn 0.000000 0.000000 1.000000
vn 0.000000 0.000000 1.000000
vn 0.000000 0.000000 1.000000
vn 0.000000 0.000000 1.000000
vt 10.000000 0.000000
vt 9.927089 1.205367
vt 9.709418 2.393157
vt 9.350163 3.546049
vt 8.854560 4.647232
vt 8.229838 5.680647
vt 7.485107 6.631227
vt 6.631227 7.485107
vt 5.680647 8.229838
vt 4.647232 8.854560
vt 3.546049 9.350163
vt 2.393157 9.709418
vt 1.205367 9.927089
vt 0.000000 10.000000
vt 0.000000 5.000000
vt 5.000000 0.000000
vt 4.924039 0.868241
vt 4.698463 1.710101
vt 4.330127 2.500000
vt 3.830222 3.213938
vt 3.213938 3.830222
vt 2.500000 4.330127
vt 1.710101 4.698463
vt 0.868241 4.924039
f 54/54/54 69/69/69 68/68/68
f 54/54/54 68/68/68 53/53/53
f 65/65/65 66/66/66 67/67/67
f 65/65/65 67/67/67 76/76/76
f 55/55/55 70/70/70 69/69/69
f 55/55/55 69/69/69 54/54/54
f 64/64/64 76/76/76 75/75/75
f 64/64/64 65/65/65 76/76/76
f 56/56/56 70/70/70 55/55/55
f 63/63/63 64/64/64 75/75/75
f 57/57/57 71/71/71 70/70/70
f 57/57/57 70/70/70 56/56/56
f 62/62/62 75/75/75 74/74/74
f 62/62/62 63/63/63 75/75/75
f 61/61/61 74/74/74 73/73/73
f 61/61/61 62/62/62 74/74/74
f 58/58/58 72/72/72 71/71/71
f 58/58/58 71/71/71 57/57/57
f 60/60/60 61/61/61 73/73/73
f 59/59/59 73/73/73 72/72/72
f 59/59/59 72/72/72 58/58/58
f 59/59/59 60/60/60 73/73/73
v 5.000000 0.000000 10.000000
v 5.000000 0.000000 0.000000
v 4.924039 0.868241 0.000000
v 4.698463 1.710101 0.000000
v 4.330127 2.500000 0.000000
v 3.830222 3.213938 0.000000
v 3.213938 3.830222 0.000000
v 2.500000 4.330127 0.000000
v 1.710101 4.698463 0.000000
v 0.868241 4.924039 0.000000
v 0.000000 5.000000 0.000000
v 0.000000 5.000000 10.000000
v 4.924039 0.868241 10.000000
v 4.698463 1.710101 10.000000
v 4.330127 2.500000 10.000000
v 3.830222 3.213938 10.000000
v 3.213938 3.830222 10.000000
v 2.500000 4.330127 10.000000
v 1.710101 4.698463 10.000000
v 0.868241 4.924039 10.000000
vn -1.000000 -0.000000 0.000000
vn -1.000000 -0.000000 0.000000
vn -0.984808 -0.173648 0.000000
vn -0.939693 -0.342020 0.000000
vn -0.866025 -0.500000 0.000000
vn -0.766044 -0.642788 0.000000
vn -0.642788 -0.766044 0.000000
vn -0.500000 -0.866025 0.000000
vn -0.342020 -0.939693 0.000000
vn -0.173648 -0.984808 0.000000
vn 0.000000 -1.000000 -0.000000
vn 0.000000 -1.000000 -0.000000
vn -0.984808 -0.173648 0.000000
vn -0.939693 -0.342020 0.000000
vn -0.866025 -0.500000 0.000000
vn -0.766044 -0.642788 0.000000
vn -0.642788 -0.766044 0.000000
vn -0.500000 -0.866025 0.000000
vn -0.342020 -0.939693 0.000000
vn -0.173648 -0.984808 0.000000
vt 6.283185 0.000000
vt 6.283185 10.000000
vt 6.108653 10.000000
vt 5.934119 10.000000
vt 5.759586 10.000000
vt 5.585053 10.000000
vt 5.410521 10.000000
vt 5.235988 10.000000
vt 5.061455 10.000000
vt 4.886922 10.000000
vt 4.712389 10.000000
vt 4.712389 0.000000
vt 6.108653 0.000000
vt 5.934119 0.000000
vt 5.759586 0.000000
vt 5.585053 0.000000
vt 5.410521 0.000000
vt 5.235988 0.000000
vt 5.061455 0.000000
vt 4.886922 0.000000
f 86/86/86 88/88/88 87/87/87
f 86/86/86 96/96/96 88/88/88
f 85/85/85 94/94/94 95/95/95
f 85/85/85 95/95/95 96/96/96
f 85/85/85 96/96/96 86/86/86
f 84/84/84 94/94/94 85/85/85
f 83/83/83 93/93/93 94/94/94
f 83/83/83 94/94/94 84/84/84
f 82/82/82 92/92/92 93/93/93
f 82/82/82 93/93/93 83/83/83
f 81/81/81 91/91/91 92/92/92
f 81/81/81 92/92/92 82/82/82
f 80/80/80 89/89/89 90/90/90
f 80/80/80 90/90/90 91/91/91
f 80/80/80 91/91/91 81/81/81
f 79/79/79 89/89/89 80/80/80
f 78/78/78 77/77/77 89/89/89
f 78/78/78 89/89/89 79/79/79
v 5.000000 0.000000 0.000000
v 10.000000 0.000000 0.000000
v 10.000000 0.000000 10.000000
v 5.000000 0.000000 10.000000
vn 0.000000 -1.000000 -0.000000
vn 0.000000 -1.000000 -0.000000
vn 0.000000 -1.000000 -0.000000
vn 0.000000 -1.000000 -0.000000
vt 5.000000 -2.500000
vt 5.000000 2.500000
vt -5.000000 2.500000
vt -5.000000 -2.500000
f 98/98/98 99/99/99 100/100/100
f 98/98/98 100/100/100 97/97/97
v 0.000000 5.000000 0.000000
v 0.000000 10.000000 0.000000
v 0.000000 10.000000 10.000000
v 0.000000 5.000000 10.000000
vn -1.000000 0.000000 -0.000000
vn -1.000000 0.000000 -0.000000
vn -1.000000 0.000000 -0.000000
vn -1.000000 0.000000 -0.000000
vt 5.000000 -2.500000
vt 5.000000 2.500000
vt -5.000000 2.500000
vt -5.000000 -2.500000
f 102/102/102 104/104/104 103/103/103
f 102/102/102 101/101/101 104/104/104
