# Exported by Open CASCADE Technology [dev.opencascade.org]
#  Vertices: 195
#     Faces: 301
mtllib occ-cone.mtl
g Cone
usemtl mat_1
v 4.000000 -0.000000 10.000000
v 3.939231 0.694593 10.000000
v 3.758770 1.368081 10.000000
v 3.464102 2.000000 10.000000
v 3.064178 2.571151 10.000000
v 2.571151 3.064178 10.000000
v 2.000000 3.464102 10.000000
v 1.368081 3.758770 10.000000
v 0.694593 3.939231 10.000000
v 0.000000 4.000000 10.000000
v -0.694593 3.939231 10.000000
v -1.368081 3.758770 10.000000
v -2.000000 3.464102 10.000000
v -2.571151 3.064178 10.000000
v -3.064178 2.571151 10.000000
v -3.464102 2.000000 10.000000
v -3.758770 1.368081 10.000000
v -3.939231 0.694593 10.000000
v -4.000000 0.000000 10.000000
v -3.939231 -0.694593 10.000000
v -3.758770 -1.368081 10.000000
v -3.464102 -2.000000 10.000000
v -3.064178 -2.571151 10.000000
v -2.571151 -3.064178 10.000000
v -2.000000 -3.464102 10.000000
v -1.368081 -3.758770 10.000000
v -0.694593 -3.939231 10.000000
v -0.000000 -4.000000 10.000000
v 0.694593 -3.939231 10.000000
v 1.368081 -3.758770 10.000000
v 2.000000 -3.464102 10.000000
v 2.571151 -3.064178 10.000000
v 3.064178 -2.571151 10.000000
v 3.464102 -2.000000 10.000000
v 3.758770 -1.368081 10.000000
v 3.939231 -0.694593 10.000000
v 4.000000 -0.000000 10.000000
v 0.000000 0.000000 0.000000
v 0.666667 -0.000000 1.666667
v 1.333333 -0.000000 3.333333
v 2.000000 -0.000000 5.000000
v 2.666667 -0.000000 6.666667
v 3.333333 -0.000000 8.333333
v 0.000000 0.000000 0.000000
v 0.666667 -0.000000 1.666667
v 1.333333 -0.000000 3.333333
v 2.000000 -0.000000 5.000000
v 2.666667 -0.000000 6.666667
v 3.333333 -0.000000 8.333333
v 0.641945 0.179865 1.666667
v 0.569613 0.346389 1.666667
v 0.455035 0.487224 1.666667
v 0.306710 0.591923 1.666667
v 1.283890 0.359729 3.333333
v 0.135637 0.652723 1.666667
v 1.139226 0.692779 3.333333
v -0.045495 0.665112 1.666667
v 0.910071 0.974448 3.333333
v -0.223253 0.628174 1.666667
v 0.613420 1.183847 3.333333
v 1.925835 0.539594 5.000000
v -0.384454 0.544647 1.666667
v 0.271275 1.305445 3.333333
v 1.708839 1.039168 5.000000
v -0.517141 0.420725 1.666667
v -0.090990 1.330225 3.333333
v 1.365106 1.461672 5.000000
v -0.611474 0.265601 1.666667
v -0.446506 1.256348 3.333333
v 0.920130 1.775770 5.000000
v 2.567780 0.719458 6.666667
v -0.660457 0.090778 1.666667
v -0.768907 1.089293 3.333333
v 0.406912 1.958168 5.000000
v 2.278452 1.385557 6.666667
v -0.660457 -0.090778 1.666667
v -1.034282 0.841451 3.333333
v -0.136485 1.995337 5.000000
v 1.820142 1.948896 6.666667
v -0.611474 -0.265601 1.666667
v -1.222948 0.531201 3.333333
v -0.669759 1.884522 5.000000
v 1.226840 2.367694 6.666667
v -0.517141 -0.420725 1.666667
v 3.209724 0.899323 8.333333
v -1.320915 0.181556 3.333333
v -1.153361 1.633940 5.000000
v 0.542549 2.610891 6.666667
v -0.384454 -0.544647 1.666667
v 2.848065 1.731946 8.333333
v -1.320915 -0.181556 3.333333
v -1.551423 1.262176 5.000000
v -0.181980 2.660450 6.666667
v -0.223253 -0.628174 1.666667
v 2.275177 2.436120 8.333333
v -1.222948 -0.531201 3.333333
v -1.834423 0.796802 5.000000
v -0.893012 2.512696 6.666667
v -0.045495 -0.665112 1.666667
v 1.533550 2.959617 8.333333
v -1.034282 -0.841451 3.333333
v -1.981372 0.272333 5.000000
v -1.537814 2.178586 6.666667
v 0.135637 -0.652723 1.666667
v 0.678187 3.263614 8.333333
v -0.768907 -1.089293 3.333333
v -1.981372 -0.272333 5.000000
v -2.068563 1.682901 6.666667
v 0.306710 -0.591923 1.666667
v -0.227475 3.325562 8.333333
v -0.446506 -1.256348 3.333333
v -1.834423 -0.796802 5.000000
v -2.445897 1.062403 6.666667
v 0.455035 -0.487224 1.666667
v -1.116265 3.140870 8.333333
v -0.090990 -1.330225 3.333333
v -1.551423 -1.262176 5.000000
v -2.641829 0.363111 6.666667
v 0.569613 -0.346389 1.666667
v -1.922268 2.723233 8.333333
v 0.271275 -1.305445 3.333333
v -1.153361 -1.633940 5.000000
v -2.641829 -0.363111 6.666667
v 0.641945 -0.179865 1.666667
v -2.585704 2.103626 8.333333
v 0.613420 -1.183847 3.333333
v -0.669759 -1.884522 5.000000
v -2.445897 -1.062403 6.666667
v -3.057371 1.328004 8.333333
v 0.910071 -0.974448 3.333333
v -0.136485 -1.995337 5.000000
v -2.068563 -1.682901 6.666667
v -3.302286 0.453889 8.333333
v 1.139226 -0.692779 3.333333
v 0.406912 -1.958168 5.000000
v -1.537814 -2.178586 6.666667
v -3.302286 -0.453889 8.333333
v 1.283890 -0.359729 3.333333
v 0.920130 -1.775770 5.000000
v -0.893012 -2.512696 6.666667
v -3.057371 -1.328004 8.333333
v 1.365106 -1.461672 5.000000
v -0.181980 -2.660450 6.666667
v -2.585704 -2.103626 8.333333
v 1.708839 -1.039168 5.000000
v 0.542549 -2.610891 6.666667
v -1.922268 -2.723233 8.333333
v 1.925835 -0.539594 5.000000
v 1.226840 -2.367694 6.666667
v -1.116265 -3.140870 8.333333
v 1.820142 -1.948896 6.666667
v -0.227475 -3.325562 8.333333
v 2.278452 -1.385557 6.666667
v 0.678187 -3.263614 8.333333
v 2.567780 -0.719458 6.666667
v 1.533550 -2.959617 8.333333
v 2.275177 -2.436120 8.333333
v 2.848065 -1.731946 8.333333
v 3.209724 -0.899323 8.333333
vn 0.928477 0.000000 -0.371391
vn 0.914371 0.161228 -0.371391
vn 0.872483 0.317558 -0.371391
vn 0.804084 0.464238 -0.371391
vn 0.711254 0.596813 -0.371391
vn 0.596813 0.711254 -0.371391
vn 0.464238 0.804084 -0.371391
vn 0.317558 0.872483 -0.371391
vn 0.161228 0.914371 -0.371391
vn 0.000000 0.928477 -0.371391
vn -0.161228 0.914371 -0.371391
vn -0.317558 0.872483 -0.371391
vn -0.464238 0.804084 -0.371391
vn -0.596813 0.711254 -0.371391
vn -0.711254 0.596813 -0.371391
vn -0.804084 0.464238 -0.371391
vn -0.872483 0.317558 -0.371391
vn -0.914371 0.161228 -0.371391
vn -0.928477 0.000000 -0.371391
vn -0.914371 -0.161228 -0.371391
vn -0.872483 -0.317558 -0.371391
vn -0.804084 -0.464238 -0.371391
vn -0.711254 -0.596813 -0.371391
vn -0.596813 -0.711254 -0.371391
vn -0.464238 -0.804084 -0.371391
vn -0.317558 -0.872483 -0.371391
vn -0.161228 -0.914371 -0.371391
vn -0.000000 -0.928477 -0.371391
vn 0.161228 -0.914371 -0.371391
vn 0.317558 -0.872483 -0.371391
vn 0.464238 -0.804084 -0.371391
vn 0.596813 -0.711254 -0.371391
vn 0.711254 -0.596813 -0.371391
vn 0.804084 -0.464238 -0.371391
vn 0.872483 -0.317558 -0.371391
vn 0.914371 -0.161228 -0.371391
vn 0.928477 0.000000 -0.371391
vn -0.057243 0.836862 -0.544413
vn 0.928477 0.000000 -0.371391
vn 0.928477 0.000000 -0.371391
vn 0.928477 0.000000 -0.371391
vn 0.928477 0.000000 -0.371391
vn 0.928477 0.000000 -0.371391
vn 0.058648 -0.857402 -0.511295
vn 0.928477 0.000000 -0.371391
vn 0.928477 0.000000 -0.371391
vn 0.928477 0.000000 -0.371391
vn 0.928477 0.000000 -0.371391
vn 0.928477 0.000000 -0.371391
vn 0.894046 0.250500 -0.371391
vn 0.793308 0.482422 -0.371391
vn 0.633735 0.678564 -0.371391
vn 0.427160 0.824381 -0.371391
vn 0.894046 0.250500 -0.371391
vn 0.188904 0.909057 -0.371391
vn 0.793308 0.482422 -0.371391
vn -0.063361 0.926312 -0.371391
vn 0.633735 0.678564 -0.371391
vn -0.310928 0.874867 -0.371391
vn 0.427160 0.824381 -0.371391
vn 0.894046 0.250500 -0.371391
vn -0.535434 0.758538 -0.371391
vn 0.188904 0.909057 -0.371391
vn 0.793308 0.482422 -0.371391
vn -0.720230 0.585950 -0.371391
vn -0.063361 0.926312 -0.371391
vn 0.633735 0.678564 -0.371391
vn -0.851609 0.369906 -0.371391
vn -0.310928 0.874867 -0.371391
vn 0.427160 0.824381 -0.371391
vn 0.894046 0.250500 -0.371391
vn -0.919829 0.126428 -0.371391
vn -0.535434 0.758538 -0.371391
vn 0.188904 0.909057 -0.371391
vn 0.793308 0.482422 -0.371391
vn -0.919829 -0.126428 -0.371391
vn -0.720230 0.585950 -0.371391
vn -0.063361 0.926312 -0.371391
vn 0.633735 0.678564 -0.371391
vn -0.851609 -0.369906 -0.371391
vn -0.851609 0.369906 -0.371391
vn -0.310928 0.874867 -0.371391
vn 0.427160 0.824381 -0.371391
vn -0.720230 -0.585950 -0.371391
vn 0.894046 0.250500 -0.371391
vn -0.919829 0.126428 -0.371391
vn -0.535434 0.758538 -0.371391
vn 0.188904 0.909057 -0.371391
vn -0.535434 -0.758538 -0.371391
vn 0.793308 0.482422 -0.371391
vn -0.919829 -0.126428 -0.371391
vn -0.720230 0.585950 -0.371391
vn -0.063361 0.926312 -0.371391
vn -0.310928 -0.874867 -0.371391
vn 0.633735 0.678564 -0.371391
vn -0.851609 -0.369906 -0.371391
vn -0.851609 0.369906 -0.371391
vn -0.310928 0.874867 -0.371391
vn -0.063361 -0.926312 -0.371391
vn 0.427160 0.824381 -0.371391
vn -0.720230 -0.585950 -0.371391
vn -0.919829 0.126428 -0.371391
vn -0.535434 0.758538 -0.371391
vn 0.188904 -0.909057 -0.371391
vn 0.188904 0.909057 -0.371391
vn -0.535434 -0.758538 -0.371391
vn -0.919829 -0.126428 -0.371391
vn -0.720230 0.585950 -0.371391
vn 0.427160 -0.824381 -0.371391
vn -0.063361 0.926312 -0.371391
vn -0.310928 -0.874867 -0.371391
vn -0.851609 -0.369906 -0.371391
vn -0.851609 0.369906 -0.371391
vn 0.633735 -0.678564 -0.371391
vn -0.310928 0.874867 -0.371391
vn -0.063361 -0.926312 -0.371391
vn -0.720230 -0.585950 -0.371391
vn -0.919829 0.126428 -0.371391
vn 0.793308 -0.482422 -0.371391
vn -0.535434 0.758538 -0.371391
vn 0.188904 -0.909057 -0.371391
vn -0.535434 -0.758538 -0.371391
vn -0.919829 -0.126428 -0.371391
vn 0.894046 -0.250500 -0.371391
vn -0.720230 0.585950 -0.371391
vn 0.427160 -0.824381 -0.371391
vn -0.310928 -0.874867 -0.371391
vn -0.851609 -0.369906 -0.371391
vn -0.851609 0.369906 -0.371391
vn 0.633735 -0.678564 -0.371391
vn -0.063361 -0.926312 -0.371391
vn -0.720230 -0.585950 -0.371391
vn -0.919829 0.126428 -0.371391
vn 0.793308 -0.482422 -0.371391
vn 0.188904 -0.909057 -0.371391
vn -0.535434 -0.758538 -0.371391
vn -0.919829 -0.126428 -0.371391
vn 0.894046 -0.250500 -0.371391
vn 0.427160 -0.824381 -0.371391
vn -0.310928 -0.874867 -0.371391
vn -0.851609 -0.369906 -0.371391
vn 0.633735 -0.678564 -0.371391
vn -0.063361 -0.926312 -0.371391
vn -0.720230 -0.585950 -0.371391
vn 0.793308 -0.482422 -0.371391
vn 0.188904 -0.909057 -0.371391
vn -0.535434 -0.758538 -0.371391
vn 0.894046 -0.250500 -0.371391
vn 0.427160 -0.824381 -0.371391
vn -0.310928 -0.874867 -0.371391
vn 0.633735 -0.678564 -0.371391
vn -0.063361 -0.926312 -0.371391
vn 0.793308 -0.482422 -0.371391
vn 0.188904 -0.909057 -0.371391
vn 0.894046 -0.250500 -0.371391
vn 0.427160 -0.824381 -0.371391
vn 0.633735 -0.678564 -0.371391
vn 0.793308 -0.482422 -0.371391
vn 0.894046 -0.250500 -0.371391
vt 0.000000 10.770329
vt 0.174533 10.770329
vt 0.349066 10.770329
vt 0.523599 10.770329
vt 0.698132 10.770329
vt 0.872665 10.770329
vt 1.047198 10.770329
vt 1.221730 10.770329
vt 1.396263 10.770329
vt 1.570796 10.770329
vt 1.745329 10.770329
vt 1.919862 10.770329
vt 2.094395 10.770329
vt 2.268928 10.770329
vt 2.443461 10.770329
vt 2.617994 10.770329
vt 2.792527 10.770329
vt 2.967060 10.770329
vt 3.141593 10.770329
vt 3.316126 10.770329
vt 3.490659 10.770329
vt 3.665191 10.770329
vt 3.839724 10.770329
vt 4.014257 10.770329
vt 4.188790 10.770329
vt 4.363323 10.770329
vt 4.537856 10.770329
vt 4.712389 10.770329
vt 4.886922 10.770329
vt 5.061455 10.770329
vt 5.235988 10.770329
vt 5.410521 10.770329
vt 5.585053 10.770329
vt 5.759586 10.770329
vt 5.934119 10.770329
vt 6.108653 10.770329
vt 6.283185 10.770329
vt 0.000000 0.000000
vt 0.000000 1.795055
vt 0.000000 3.590110
vt 0.000000 5.385165
vt 0.000000 7.180220
vt 0.000000 8.975275
vt 6.283185 0.000000
vt 6.283185 1.795055
vt 6.283185 3.590110
vt 6.283185 5.385165
vt 6.283185 7.180220
vt 6.283185 8.975275
vt 0.273182 1.795055
vt 0.546364 1.795055
vt 0.819546 1.795055
vt 1.092728 1.795055
vt 0.273182 3.590110
vt 1.365910 1.795055
vt 0.546364 3.590110
vt 1.639092 1.795055
vt 0.819546 3.590110
vt 1.912274 1.795055
vt 1.092728 3.590110
vt 0.273182 5.385165
vt 2.185456 1.795055
vt 1.365910 3.590110
vt 0.546364 5.385165
vt 2.458638 1.795055
vt 1.639092 3.590110
vt 0.819546 5.385165
vt 2.731820 1.795055
vt 1.912274 3.590110
vt 1.092728 5.385165
vt 0.273182 7.180220
vt 3.005002 1.795055
vt 2.185456 3.590110
vt 1.365910 5.385165
vt 0.546364 7.180220
vt 3.278184 1.795055
vt 2.458638 3.590110
vt 1.639092 5.385165
vt 0.819546 7.180220
vt 3.551366 1.795055
vt 2.731820 3.590110
vt 1.912274 5.385165
vt 1.092728 7.180220
vt 3.824548 1.795055
vt 0.273182 8.975275
vt 3.005002 3.590110
vt 2.185456 5.385165
vt 1.365910 7.180220
vt 4.097730 1.795055
vt 0.546364 8.975275
vt 3.278184 3.590110
vt 2.458638 5.385165
vt 1.639092 7.180220
vt 4.370912 1.795055
vt 0.819546 8.975275
vt 3.551366 3.590110
vt 2.731820 5.385165
vt 1.912274 7.180220
vt 4.644094 1.795055
vt 1.092728 8.975275
vt 3.824548 3.590110
vt 3.005002 5.385165
vt 2.185456 7.180220
vt 4.917275 1.795055
vt 1.365910 8.975275
vt 4.097730 3.590110
vt 3.278184 5.385165
vt 2.458638 7.180220
vt 5.190457 1.795055
vt 1.639092 8.975275
vt 4.370912 3.590110
vt 3.551366 5.385165
vt 2.731820 7.180220
vt 5.463639 1.795055
vt 1.912274 8.975275
vt 4.644094 3.590110
vt 3.824548 5.385165
vt 3.005002 7.180220
vt 5.736821 1.795055
vt 2.185456 8.975275
vt 4.917275 3.590110
vt 4.097730 5.385165
vt 3.278184 7.180220
vt 6.010004 1.795055
vt 2.458638 8.975275
vt 5.190457 3.590110
vt 4.370912 5.385165
vt 3.551366 7.180220
vt 2.731820 8.975275
vt 5.463639 3.590110
vt 4.644094 5.385165
vt 3.824548 7.180220
vt 3.005002 8.975275
vt 5.736821 3.590110
vt 4.917275 5.385165
vt 4.097730 7.180220
vt 3.278184 8.975275
vt 6.010004 3.590110
vt 5.190457 5.385165
vt 4.370912 7.180220
vt 3.551366 8.975275
vt 5.463639 5.385165
vt 4.644094 7.180220
vt 3.824548 8.975275
vt 5.736821 5.385165
vt 4.917275 7.180220
vt 4.097730 8.975275
vt 6.010004 5.385165
vt 5.190457 7.180220
vt 4.370912 8.975275
vt 5.463639 7.180220
vt 4.644094 8.975275
vt 5.736821 7.180220
vt 4.917275 8.975275
vt 6.010004 7.180220
vt 5.190457 8.975275
vt 5.463639 8.975275
vt 5.736821 8.975275
vt 6.010004 8.975275
f 2/2/2 1/1/1 43/43/43
f 37/37/37 36/36/36 49/49/49
f 50/50/50 39/39/39 38/38/38
f 51/51/51 50/50/50 38/38/38
f 52/52/52 51/51/51 38/38/38
f 53/53/53 52/52/52 38/38/38
f 54/54/54 40/40/40 39/39/39
f 54/54/54 41/41/41 40/40/40
f 54/54/54 39/39/39 50/50/50
f 55/55/55 53/53/53 38/38/38
f 56/56/56 50/50/50 51/51/51
f 56/56/56 54/54/54 50/50/50
f 57/57/57 55/55/55 38/38/38
f 58/58/58 51/51/51 52/52/52
f 58/58/58 56/56/56 51/51/51
f 59/59/59 57/57/57 38/38/38
f 60/60/60 52/52/52 53/53/53
f 60/60/60 58/58/58 52/52/52
f 61/61/61 41/41/41 54/54/54
f 62/62/62 59/59/59 38/38/38
f 63/63/63 53/53/53 55/55/55
f 63/63/63 55/55/55 57/57/57
f 63/63/63 60/60/60 53/53/53
f 64/64/64 61/61/61 54/54/54
f 64/64/64 54/54/54 56/56/56
f 64/64/64 56/56/56 58/58/58
f 65/65/65 62/62/62 38/38/38
f 66/66/66 63/63/63 57/57/57
f 67/67/67 64/64/64 58/58/58
f 68/68/68 65/65/65 38/38/38
f 69/69/69 57/57/57 59/59/59
f 69/69/69 66/66/66 57/57/57
f 70/70/70 58/58/58 60/60/60
f 70/70/70 67/67/67 58/58/58
f 71/71/71 42/42/42 41/41/41
f 71/71/71 41/41/41 61/61/61
f 71/71/71 61/61/61 64/64/64
f 72/72/72 68/68/68 38/38/38
f 73/73/73 69/69/69 59/59/59
f 73/73/73 59/59/59 62/62/62
f 74/74/74 60/60/60 63/63/63
f 74/74/74 70/70/70 60/60/60
f 75/75/75 71/71/71 64/64/64
f 76/76/76 38/38/38 44/44/44
f 76/76/76 72/72/72 38/38/38
f 77/77/77 62/62/62 65/65/65
f 77/77/77 73/73/73 62/62/62
f 77/77/77 65/65/65 68/68/68
f 78/78/78 74/74/74 63/63/63
f 78/78/78 66/66/66 69/69/69
f 78/78/78 63/63/63 66/66/66
f 79/79/79 64/64/64 67/67/67
f 79/79/79 75/75/75 64/64/64
f 80/80/80 76/76/76 44/44/44
f 81/81/81 77/77/77 68/68/68
f 82/82/82 78/78/78 69/69/69
f 83/83/83 79/79/79 67/67/67
f 83/83/83 67/67/67 70/70/70
f 84/84/84 80/80/80 44/44/44
f 85/85/85 3/3/3 2/2/2
f 85/85/85 42/42/42 71/71/71
f 85/85/85 43/43/43 42/42/42
f 85/85/85 2/2/2 43/43/43
f 86/86/86 68/68/68 72/72/72
f 86/86/86 81/81/81 68/68/68
f 87/87/87 69/69/69 73/73/73
f 87/87/87 82/82/82 69/69/69
f 88/88/88 70/70/70 74/74/74
f 88/88/88 83/83/83 70/70/70
f 89/89/89 84/84/84 44/44/44
f 90/90/90 4/4/4 3/3/3
f 90/90/90 5/5/5 4/4/4
f 90/90/90 3/3/3 85/85/85
f 90/90/90 85/85/85 71/71/71
f 90/90/90 71/71/71 75/75/75
f 91/91/91 86/86/86 72/72/72
f 91/91/91 72/72/72 76/76/76
f 92/92/92 73/73/73 77/77/77
f 92/92/92 77/77/77 81/81/81
f 92/92/92 87/87/87 73/73/73
f 93/93/93 88/88/88 74/74/74
f 93/93/93 74/74/74 78/78/78
f 93/93/93 78/78/78 82/82/82
f 94/94/94 89/89/89 44/44/44
f 95/95/95 5/5/5 90/90/90
f 95/95/95 6/6/6 5/5/5
f 95/95/95 90/90/90 75/75/75
f 95/95/95 75/75/75 79/79/79
f 96/96/96 91/91/91 76/76/76
f 96/96/96 76/76/76 80/80/80
f 96/96/96 80/80/80 84/84/84
f 97/97/97 92/92/92 81/81/81
f 98/98/98 93/93/93 82/82/82
f 99/99/99 94/94/94 44/44/44
f 100/100/100 7/7/7 6/6/6
f 100/100/100 8/8/8 7/7/7
f 100/100/100 6/6/6 95/95/95
f 100/100/100 95/95/95 79/79/79
f 100/100/100 79/79/79 83/83/83
f 101/101/101 96/96/96 84/84/84
f 102/102/102 81/81/81 86/86/86
f 102/102/102 97/97/97 81/81/81
f 103/103/103 82/82/82 87/87/87
f 103/103/103 98/98/98 82/82/82
f 104/104/104 99/99/99 44/44/44
f 105/105/105 9/9/9 8/8/8
f 105/105/105 10/10/10 9/9/9
f 105/105/105 83/83/83 88/88/88
f 105/105/105 8/8/8 100/100/100
f 105/105/105 100/100/100 83/83/83
f 106/106/106 101/101/101 84/84/84
f 106/106/106 84/84/84 89/89/89
f 107/107/107 86/86/86 91/91/91
f 107/107/107 102/102/102 86/86/86
f 108/108/108 92/92/92 97/97/97
f 108/108/108 87/87/87 92/92/92
f 108/108/108 103/103/103 87/87/87
f 109/109/109 104/104/104 44/44/44
f 110/110/110 11/11/11 10/10/10
f 110/110/110 88/88/88 93/93/93
f 110/110/110 10/10/10 105/105/105
f 110/110/110 105/105/105 88/88/88
f 111/111/111 89/89/89 94/94/94
f 111/111/111 106/106/106 89/89/89
f 112/112/112 96/96/96 101/101/101
f 112/112/112 107/107/107 91/91/91
f 112/112/112 91/91/91 96/96/96
f 113/113/113 108/108/108 97/97/97
f 114/114/114 109/109/109 44/44/44
f 115/115/115 12/12/12 11/11/11
f 115/115/115 13/13/13 12/12/12
f 115/115/115 93/93/93 98/98/98
f 115/115/115 11/11/11 110/110/110
f 115/115/115 110/110/110 93/93/93
f 116/116/116 94/94/94 99/99/99
f 116/116/116 111/111/111 94/94/94
f 117/117/117 112/112/112 101/101/101
f 118/118/118 97/97/97 102/102/102
f 118/118/118 113/113/113 97/97/97
f 119/119/119 114/114/114 44/44/44
f 120/120/120 14/14/14 13/13/13
f 120/120/120 98/98/98 103/103/103
f 120/120/120 115/115/115 98/98/98
f 120/120/120 13/13/13 115/115/115
f 121/121/121 99/99/99 104/104/104
f 121/121/121 104/104/104 109/109/109
f 121/121/121 116/116/116 99/99/99
f 122/122/122 117/117/117 101/101/101
f 122/122/122 101/101/101 106/106/106
f 123/123/123 102/102/102 107/107/107
f 123/123/123 118/118/118 102/102/102
f 124/124/124 44/44/44 45/45/45
f 124/124/124 119/119/119 44/44/44
f 125/125/125 120/120/120 103/103/103
f 125/125/125 15/15/15 14/14/14
f 125/125/125 16/16/16 15/15/15
f 125/125/125 14/14/14 120/120/120
f 125/125/125 103/103/103 108/108/108
f 126/126/126 121/121/121 109/109/109
f 126/126/126 109/109/109 114/114/114
f 127/127/127 122/122/122 106/106/106
f 127/127/127 106/106/106 111/111/111
f 128/128/128 107/107/107 112/112/112
f 128/128/128 112/112/112 117/117/117
f 128/128/128 123/123/123 107/107/107
f 129/129/129 17/17/17 16/16/16
f 129/129/129 125/125/125 108/108/108
f 129/129/129 108/108/108 113/113/113
f 129/129/129 16/16/16 125/125/125
f 130/130/130 126/126/126 114/114/114
f 131/131/131 127/127/127 111/111/111
f 131/131/131 111/111/111 116/116/116
f 132/132/132 128/128/128 117/117/117
f 133/133/133 18/18/18 17/17/17
f 133/133/133 19/19/19 18/18/18
f 133/133/133 129/129/129 113/113/113
f 133/133/133 17/17/17 129/129/129
f 133/133/133 113/113/113 118/118/118
f 134/134/134 114/114/114 119/119/119
f 134/134/134 130/130/130 114/114/114
f 135/135/135 116/116/116 121/121/121
f 135/135/135 131/131/131 116/116/116
f 136/136/136 132/132/132 117/117/117
f 136/136/136 117/117/117 122/122/122
f 136/136/136 122/122/122 127/127/127
f 137/137/137 133/133/133 118/118/118
f 137/137/137 118/118/118 123/123/123
f 137/137/137 20/20/20 19/19/19
f 137/137/137 21/21/21 20/20/20
f 137/137/137 19/19/19 133/133/133
f 138/138/138 119/119/119 124/124/124
f 138/138/138 124/124/124 45/45/45
f 138/138/138 45/45/45 46/46/46
f 138/138/138 134/134/134 119/119/119
f 139/139/139 126/126/126 130/130/130
f 139/139/139 135/135/135 121/121/121
f 139/139/139 121/121/121 126/126/126
f 140/140/140 136/136/136 127/127/127
f 141/141/141 22/22/22 21/21/21
f 141/141/141 123/123/123 128/128/128
f 141/141/141 21/21/21 137/137/137
f 141/141/141 137/137/137 123/123/123
f 142/142/142 139/139/139 130/130/130
f 143/143/143 140/140/140 127/127/127
f 143/143/143 127/127/127 131/131/131
f 144/144/144 23/23/23 22/22/22
f 144/144/144 24/24/24 23/23/23
f 144/144/144 141/141/141 128/128/128
f 144/144/144 132/132/132 136/136/136
f 144/144/144 128/128/128 132/132/132
f 144/144/144 22/22/22 141/141/141
f 145/145/145 130/130/130 134/134/134
f 145/145/145 142/142/142 130/130/130
f 146/146/146 143/143/143 131/131/131
f 146/146/146 131/131/131 135/135/135
f 147/147/147 25/25/25 24/24/24
f 147/147/147 24/24/24 144/144/144
f 147/147/147 144/144/144 136/136/136
f 148/148/148 145/145/145 134/134/134
f 148/148/148 46/46/46 47/47/47
f 148/148/148 138/138/138 46/46/46
f 148/148/148 134/134/134 138/138/138
f 149/149/149 146/146/146 135/135/135
f 149/149/149 135/135/135 139/139/139
f 149/149/149 139/139/139 142/142/142
f 150/150/150 26/26/26 25/25/25
f 150/150/150 27/27/27 26/26/26
f 150/150/150 136/136/136 140/140/140
f 150/150/150 147/147/147 136/136/136
f 150/150/150 25/25/25 147/147/147
f 151/151/151 149/149/149 142/142/142
f 152/152/152 28/28/28 27/27/27
f 152/152/152 140/140/140 143/143/143
f 152/152/152 150/150/150 140/140/140
f 152/152/152 27/27/27 150/150/150
f 152/152/152 143/143/143 146/146/146
f 153/153/153 151/151/151 142/142/142
f 153/153/153 142/142/142 145/145/145
f 154/154/154 29/29/29 28/28/28
f 154/154/154 30/30/30 29/29/29
f 154/154/154 146/146/146 149/149/149
f 154/154/154 152/152/152 146/146/146
f 154/154/154 28/28/28 152/152/152
f 155/155/155 153/153/153 145/145/145
f 155/155/155 47/47/47 48/48/48
f 155/155/155 145/145/145 148/148/148
f 155/155/155 148/148/148 47/47/47
f 156/156/156 154/154/154 149/149/149
f 156/156/156 31/31/31 30/30/30
f 156/156/156 32/32/32 31/31/31
f 156/156/156 30/30/30 154/154/154
f 156/156/156 149/149/149 151/151/151
f 157/157/157 156/156/156 151/151/151
f 157/157/157 33/33/33 32/32/32
f 157/157/157 32/32/32 156/156/156
f 158/158/158 34/34/34 33/33/33
f 158/158/158 35/35/35 34/34/34
f 158/158/158 151/151/151 153/153/153
f 158/158/158 33/33/33 157/157/157
f 158/158/158 157/157/157 151/151/151
f 159/159/159 153/153/153 155/155/155
f 159/159/159 155/155/155 48/48/48
f 159/159/159 158/158/158 153/153/153
f 159/159/159 35/35/35 158/158/158
f 159/159/159 36/36/36 35/35/35
f 159/159/159 49/49/49 36/36/36
f 159/159/159 48/48/48 49/49/49
v 4.000000 -0.000000 10.000000
v 3.939231 0.694593 10.000000
v 3.758770 1.368081 10.000000
v 3.464102 2.000000 10.000000
v 3.064178 2.571151 10.000000
v 2.571151 3.064178 10.000000
v 2.000000 3.464102 10.000000
v 1.368081 3.758770 10.000000
v 0.694593 3.939231 10.000000
v 0.000000 4.000000 10.000000
v -0.694593 3.939231 10.000000
v -1.368081 3.758770 10.000000
v -2.000000 3.464102 10.000000
v -2.571151 3.064178 10.000000
v -3.064178 2.571151 10.000000
v -3.464102 2.000000 10.000000
v -3.758770 1.368081 10.000000
v -3.939231 0.694593 10.000000
v -4.000000 0.000000 10.000000
v -3.939231 -0.694593 10.000000
v -3.758770 -1.368081 10.000000
v -3.464102 -2.000000 10.000000
v -3.064178 -2.571151 10.000000
v -2.571151 -3.064178 10.000000
v -2.000000 -3.464102 10.000000
v -1.368081 -3.758770 10.000000
v -0.694593 -3.939231 10.000000
v -0.000000 -4.000000 10.000000
v 0.694593 -3.939231 10.000000
v 1.368081 -3.758770 10.000000
v 2.000000 -3.464102 10.000000
v 2.571151 -3.064178 10.000000
v 3.064178 -2.571151 10.000000
v 3.464102 -2.000000 10.000000
v 3.758770 -1.368081 10.000000
v 3.939231 -0.694593 10.000000
vn 0.000000 0.000000 1.000000
vn 0.000000 0.000000 1.000000
vn 0.000000 0.000000 1.000000
vn 0.000000 0.000000 1.000000
vn 0.000000 0.000000 1.000000
vn 0.000000 0.000000 1.000000
vn 0.000000 0.000000 1.000000
vn 0.000000 0.000000 1.000000
vn 0.000000 0.000000 1.000000
vn 0.000000 0.000000 1.000000
vn 0.000000 0.000000 1.000000
vn 0.000000 0.000000 1.000000
vn 0.000000 0.000000 1.000000
vn 0.000000 0.000000 1.000000
vn 0.000000 0.000000 1.000000
vn 0.000000 0.000000 1.000000
vn 0.000000 0.000000 1.000000
vn 0.000000 0.000000 1.000000
vn 0.000000 0.000000 1.000000
vn 0.000000 0.000000 1.000000
vn 0.000000 0.000000 1.000000
vn 0.000000 0.000000 1.000000
vn 0.000000 0.000000 1.000000
vn 0.000000 0.000000 1.000000
vn 0.000000 0.000000 1.000000
vn 0.000000 0.000000 1.000000
vn 0.000000 0.000000 1.000000
vn 0.000000 0.000000 1.000000
vn 0.000000 0.000000 1.000000
vn 0.000000 0.000000 1.000000
vn 0.000000 0.000000 1.000000
vn 0.000000 0.000000 1.000000
vn 0.000000 0.000000 1.000000
vn 0.000000 0.000000 1.000000
vn 0.000000 0.000000 1.000000
vn 0.000000 0.000000 1.000000
vt 4.000000 -0.000000
vt 3.939231 0.694593
vt 3.758770 1.368081
vt 3.464102 2.000000
vt 3.064178 2.571151
vt 2.571151 3.064178
vt 2.000000 3.464102
vt 1.368081 3.758770
vt 0.694593 3.939231
vt 0.000000 4.000000
vt -0.694593 3.939231
vt -1.368081 3.758770
vt -2.000000 3.464102
vt -2.571151 3.064178
vt -3.064178 2.571151
vt -3.464102 2.000000
vt -3.758770 1.368081
vt -3.939231 0.694593
vt -4.000000 0.000000
vt -3.939231 -0.694593
vt -3.758770 -1.368081
vt -3.464102 -2.000000
vt -3.064178 -2.571151
vt -2.571151 -3.064178
vt -2.000000 -3.464102
vt -1.368081 -3.758770
vt -0.694593 -3.939231
vt -0.000000 -4.000000
vt 0.694593 -3.939231
vt 1.368081 -3.758770
vt 2.000000 -3.464102
vt 2.571151 -3.064178
vt 3.064178 -2.571151
vt 3.464102 -2.000000
vt 3.758770 -1.368081
vt 3.939231 -0.694593
f 184/184/184 182/182/182 183/183/183
f 180/180/180 181/181/181 182/182/182
f 180/180/180 182/182/182 184/184/184
f 186/186/186 184/184/184 185/185/185
f 191/191/191 188/188/188 189/189/189
f 191/191/191 189/189/189 190/190/190
f 174/174/174 175/175/175 176/176/176
f 174/174/174 176/176/176 177/177/177
f 174/174/174 177/177/177 178/178/178
f 174/174/174 178/178/178 179/179/179
f 174/174/174 179/179/179 180/180/180
f 192/192/192 187/187/187 188/188/188
f 192/192/192 188/188/188 191/191/191
f 172/172/172 173/173/173 174/174/174
f 172/172/172 174/174/174 180/180/180
f 194/194/194 186/186/186 187/187/187
f 194/194/194 192/192/192 193/193/193
f 194/194/194 187/187/187 192/192/192
f 160/160/160 194/194/194 195/195/195
f 167/167/167 168/168/168 169/169/169
f 167/167/167 169/169/169 170/170/170
f 162/162/162 160/160/160 161/161/161
f 166/166/166 167/167/167 170/170/170
f 164/164/164 162/162/162 163/163/163
f 164/164/164 160/160/160 162/162/162
f 165/165/165 166/166/166 170/170/170
f 165/165/165 160/160/160 164/164/164
f 165/165/165 170/170/170 171/171/171
f 165/165/165 171/171/171 172/172/172
f 165/165/165 184/184/184 186/186/186
f 165/165/165 180/180/180 184/184/184
f 165/165/165 186/186/186 194/194/194
f 165/165/165 172/172/172 180/180/180
f 165/165/165 194/194/194 160/160/160
