# Exported by Open CASCADE Technology [dev.opencascade.org]
#  Vertices: 180
#     Faces: 128
g HoledPlate
v 0.000000 0.000000 5.000000
v 100.000000 0.000000 5.000000
v 100.000000 80.000000 5.000000
v 0.000000 80.000000 5.000000
v 19.000000 34.000000 5.000000
v 31.000000 34.000000 5.000000
v 19.000000 46.000000 5.000000
v 31.000000 46.000000 5.000000
v 58.000000 40.000000 5.000000
v 57.391037 43.061466 5.000000
v 57.391037 36.938534 5.000000
v 55.656853 34.343147 5.000000
v 53.061466 32.608963 5.000000
v 50.000000 32.000000 5.000000
v 46.938534 32.608963 5.000000
v 44.343147 34.343147 5.000000
v 42.608963 36.938534 5.000000
v 42.000000 40.000000 5.000000
v 42.608963 43.061466 5.000000
v 44.343147 45.656853 5.000000
v 46.938534 47.391037 5.000000
v 50.000000 48.000000 5.000000
v 53.061466 47.391037 5.000000
v 55.656853 45.656853 5.000000
v 83.000000 40.000000 5.000000
v 79.000000 46.928204 5.000000
v 79.000000 33.071796 5.000000
v 71.000000 33.071796 5.000000
v 67.000000 40.000000 5.000000
v 71.000000 46.928204 5.000000
vn 0.000000 0.000000 1.000000
vn 0.000000 0.000000 1.000000
vn 0.000000 0.000000 1.000000
vn 0.000000 0.000000 1.000000
vn 0.000000 0.000000 1.000000
vn 0.000000 0.000000 1.000000
vn 0.000000 0.000000 1.000000
vn 0.000000 0.000000 1.000000
vn 0.000000 0.000000 1.000000
vn 0.000000 0.000000 1.000000
vn 0.000000 0.000000 1.000000
vn 0.000000 0.000000 1.000000
vn 0.000000 0.000000 1.000000
vn 0.000000 0.000000 1.000000
vn 0.000000 0.000000 1.000000
vn 0.000000 0.000000 1.000000
vn 0.000000 0.000000 1.000000
vn 0.000000 0.000000 1.000000
vn 0.000000 0.000000 1.000000
vn 0.000000 0.000000 1.000000
vn 0.000000 0.000000 1.000000
vn 0.000000 0.000000 1.000000
vn 0.000000 0.000000 1.000000
vn 0.000000 0.000000 1.000000
vn 0.000000 0.000000 1.000000
vn 0.000000 0.000000 1.000000
vn 0.000000 0.000000 1.000000
vn 0.000000 0.000000 1.000000
vn 0.000000 0.000000 1.000000
vn 0.000000 0.000000 1.000000
vt 0.000000 0.000000
vt 100.000000 0.000000
vt 100.000000 80.000000
vt 0.000000 80.000000
vt 19.000000 34.000000
vt 31.000000 34.000000
vt 19.000000 46.000000
vt 31.000000 46.000000
vt 58.000000 40.000000
vt 57.391037 43.061466
vt 57.391037 36.938534
vt 55.656853 34.343147
vt 53.061466 32.608963
vt 50.000000 32.000000
vt 46.938534 32.608963
vt 44.343147 34.343147
vt 42.608963 36.938534
vt 42.000000 40.000000
vt 42.608963 43.061466
vt 44.343147 45.656853
vt 46.938534 47.391037
vt 50.000000 48.000000
vt 53.061466 47.391037
vt 55.656853 45.656853
vt 83.000000 40.000000
vt 79.000000 46.928204
vt 79.000000 33.071796
vt 71.000000 33.071796
vt 67.000000 40.000000
vt 71.000000 46.928204
f 6/6/6 5/5/5 1/1/1
f 17/17/17 6/6/6 16/16/16
f 15/15/15 16/16/16 6/6/6
f 15/15/15 6/6/6 1/1/1
f 4/4/4 5/5/5 7/7/7
f 4/4/4 7/7/7 8/8/8
f 4/4/4 1/1/1 5/5/5
f 18/18/18 8/8/8 6/6/6
f 18/18/18 6/6/6 17/17/17
f 14/14/14 15/15/15 1/1/1
f 19/19/19 8/8/8 18/18/18
f 20/20/20 8/8/8 19/19/19
f 21/21/21 4/4/4 8/8/8
f 21/21/21 8/8/8 20/20/20
f 22/22/22 4/4/4 21/21/21
f 2/2/2 13/13/13 14/14/14
f 2/2/2 14/14/14 1/1/1
f 28/28/28 11/11/11 12/12/12
f 28/28/28 12/12/12 13/13/13
f 28/28/28 13/13/13 2/2/2
f 29/29/29 10/10/10 9/9/9
f 29/29/29 9/9/9 11/11/11
f 29/29/29 11/11/11 28/28/28
f 27/27/27 28/28/28 2/2/2
f 30/30/30 23/23/23 24/24/24
f 30/30/30 24/24/24 10/10/10
f 30/30/30 10/10/10 29/29/29
f 25/25/25 27/27/27 2/2/2
f 3/3/3 22/22/22 23/23/23
f 3/3/3 26/26/26 25/25/25
f 3/3/3 30/30/30 26/26/26
f 3/3/3 4/4/4 22/22/22
f 3/3/3 23/23/23 30/30/30
f 3/3/3 25/25/25 2/2/2
v 0.000000 0.000000 0.000000
v 100.000000 0.000000 0.000000
v 100.000000 0.000000 5.000000
v 0.000000 0.000000 5.000000
vn 0.000000 -1.000000 0.000000
vn 0.000000 -1.000000 0.000000
vn 0.000000 -1.000000 0.000000
vn 0.000000 -1.000000 0.000000
vt 0.000000 0.000000
vt 100.000000 0.000000
vt 100.000000 5.000000
vt 0.000000 5.000000
f 33/33/33 31/31/31 32/32/32
f 33/33/33 34/34/34 31/31/31
v 100.000000 80.000000 0.000000
v 0.000000 80.000000 0.000000
v 100.000000 0.000000 0.000000
v 0.000000 0.000000 0.000000
v 31.000000 46.000000 0.000000
v 19.000000 46.000000 0.000000
v 19.000000 34.000000 0.000000
v 31.000000 34.000000 0.000000
v 58.000000 40.000000 0.000000
v 57.391037 43.061466 0.000000
v 55.656853 45.656853 0.000000
v 53.061466 47.391037 0.000000
v 50.000000 48.000000 0.000000
v 46.938534 47.391037 0.000000
v 44.343147 45.656853 0.000000
v 42.608963 43.061466 0.000000
v 42.000000 40.000000 0.000000
v 42.608963 36.938534 0.000000
v 44.343147 34.343147 0.000000
v 46.938534 32.608963 0.000000
v 50.000000 32.000000 0.000000
v 53.061466 32.608963 0.000000
v 55.656853 34.343147 0.000000
v 57.391037 36.938534 0.000000
v 83.000000 40.000000 0.000000
v 79.000000 46.928204 0.000000
v 71.000000 46.928204 0.000000
v 67.000000 40.000000 0.000000
v 71.000000 33.071796 0.000000
v 79.000000 33.071796 0.000000
vn 0.000000 0.000000 -1.000000
vn 0.000000 0.000000 -1.000000
vn 0.000000 0.000000 -1.000000
vn 0.000000 0.000000 -1.000000
vn 0.000000 0.000000 -1.000000
vn 0.000000 0.000000 -1.000000
vn 0.000000 0.000000 -1.000000
vn 0.000000 0.000000 -1.000000
vn 0.000000 0.000000 -1.000000
vn 0.000000 0.000000 -1.000000
vn 0.000000 0.000000 -1.000000
vn 0.000000 0.000000 -1.000000
vn 0.000000 0.000000 -1.000000
vn 0.000000 0.000000 -1.000000
vn 0.000000 0.000000 -1.000000
vn 0.000000 0.000000 -1.000000
vn 0.000000 0.000000 -1.000000
vn 0.000000 0.000000 -1.000000
vn 0.000000 0.000000 -1.000000
vn 0.000000 0.000000 -1.000000
vn 0.000000 0.000000 -1.000000
vn 0.000000 0.000000 -1.000000
vn 0.000000 0.000000 -1.000000
vn 0.000000 0.000000 -1.000000
vn 0.000000 0.000000 -1.000000
vn 0.000000 0.000000 -1.000000
vn 0.000000 0.000000 -1.000000
vn 0.000000 0.000000 -1.000000
vn 0.000000 0.000000 -1.000000
vn 0.000000 0.000000 -1.000000
vt 100.000000 -80.000000
vt 0.000000 -80.000000
vt 100.000000 0.000000
vt 0.000000 0.000000
vt 31.000000 -46.000000
vt 19.000000 -46.000000
vt 19.000000 -34.000000
vt 31.000000 -34.000000
vt 58.000000 -40.000000
vt 57.391037 -43.061466
vt 55.656853 -45.656853
vt 53.061466 -47.391037
vt 50.000000 -48.000000
vt 46.938534 -47.391037
vt 44.343147 -45.656853
vt 42.608963 -43.061466
vt 42.000000 -40.000000
vt 42.608963 -36.938534
vt 44.343147 -34.343147
vt 46.938534 -32.608963
vt 50.000000 -32.000000
vt 53.061466 -32.608963
vt 55.656853 -34.343147
vt 57.391037 -36.938534
vt 83.000000 -40.000000
vt 79.000000 -46.928204
vt 71.000000 -46.928204
vt 67.000000 -40.000000
vt 71.000000 -33.071796
vt 79.000000 -33.071796
f 39/39/39 40/40/40 36/36/36
f 50/50/50 39/39/39 49/49/49
f 48/48/48 49/49/49 39/39/39
f 48/48/48 39/39/39 36/36/36
f 38/38/38 40/40/40 41/41/41
f 38/38/38 41/41/41 42/42/42
f 38/38/38 36/36/36 40/40/40
f 51/51/51 42/42/42 39/39/39
f 51/51/51 39/39/39 50/50/50
f 47/47/47 48/48/48 36/36/36
f 52/52/52 42/42/42 51/51/51
f 53/53/53 42/42/42 52/52/52
f 54/54/54 38/38/38 42/42/42
f 54/54/54 42/42/42 53/53/53
f 55/55/55 38/38/38 54/54/54
f 35/35/35 46/46/46 47/47/47
f 35/35/35 47/47/47 36/36/36
f 61/61/61 44/44/44 45/45/45
f 61/61/61 45/45/45 46/46/46
f 61/61/61 46/46/46 35/35/35
f 62/62/62 43/43/43 44/44/44
f 62/62/62 58/58/58 43/43/43
f 62/62/62 44/44/44 61/61/61
f 60/60/60 61/61/61 35/35/35
f 63/63/63 56/56/56 57/57/57
f 63/63/63 57/57/57 58/58/58
f 63/63/63 58/58/58 62/62/62
f 59/59/59 60/60/60 35/35/35
f 37/37/37 55/55/55 56/56/56
f 37/37/37 63/63/63 64/64/64
f 37/37/37 64/64/64 59/59/59
f 37/37/37 38/38/38 55/55/55
f 37/37/37 56/56/56 63/63/63
f 37/37/37 59/59/59 35/35/35
v 100.000000 0.000000 0.000000
v 100.000000 80.000000 0.000000
v 100.000000 80.000000 5.000000
v 100.000000 0.000000 5.000000
vn 1.000000 0.000000 0.000000
vn 1.000000 0.000000 0.000000
vn 1.000000 0.000000 0.000000
vn 1.000000 0.000000 0.000000
vt 0.000000 0.000000
vt 80.000000 0.000000
vt 80.000000 5.000000
vt 0.000000 5.000000
f 67/67/67 65/65/65 66/66/66
f 67/67/67 68/68/68 65/65/65
v 100.000000 80.000000 0.000000
v 0.000000 80.000000 0.000000
v 0.000000 80.000000 5.000000
v 100.000000 80.000000 5.000000
vn 0.000000 1.000000 0.000000
vn 0.000000 1.000000 0.000000
vn 0.000000 1.000000 0.000000
vn 0.000000 1.000000 0.000000
vt -100.000000 0.000000
vt 0.000000 0.000000
vt 0.000000 5.000000
vt -100.000000 5.000000
f 71/71/71 69/69/69 70/70/70
f 71/71/71 72/72/72 69/69/69
v 0.000000 80.000000 0.000000
v 0.000000 0.000000 0.000000
v 0.000000 0.000000 5.000000
v 0.000000 80.000000 5.000000
vn -1.000000 0.000000 0.000000
vn -1.000000 0.000000 0.000000
vn -1.000000 0.000000 0.000000
vn -1.000000 0.000000 0.000000
vt -80.000000 0.000000
vt 0.000000 0.000000
vt 0.000000 5.000000
vt -80.000000 5.000000
f 75/75/75 73/73/73 74/74/74
f 75/75/75 76/76/76 73/73/73
v 31.000000 34.000000 0.000000
v 31.000000 34.000000 5.000000
v 19.000000 34.000000 5.000000
v 19.000000 34.000000 0.000000
vn -0.000000 1.000000 -0.000000
vn -0.000000 1.000000 -0.000000
vn -0.000000 1.000000 -0.000000
vn -0.000000 1.000000 -0.000000
vt 12.000000 0.000000
vt 12.000000 5.000000
vt 0.000000 5.000000
vt 0.000000 0.000000
f 78/78/78 80/80/80 79/79/79
f 78/78/78 77/77/77 80/80/80
v 31.000000 46.000000 0.000000
v 31.000000 46.000000 5.000000
v 31.000000 34.000000 5.000000
v 31.000000 34.000000 0.000000
vn -1.000000 -0.000000 -0.000000
vn -1.000000 -0.000000 -0.000000
vn -1.000000 -0.000000 -0.000000
vn -1.000000 -0.000000 -0.000000
vt 12.000000 0.000000
vt 12.000000 5.000000
vt 0.000000 5.000000
vt 0.000000 0.000000
f 82/82/82 84/84/84 83/83/83
f 82/82/82 81/81/81 84/84/84
v 19.000000 46.000000 0.000000
v 19.000000 46.000000 5.000000
v 31.000000 46.000000 5.000000
v 31.000000 46.000000 0.000000
vn -0.000000 -1.000000 -0.000000
vn -0.000000 -1.000000 -0.000000
vn -0.000000 -1.000000 -0.000000
vn -0.000000 -1.000000 -0.000000
vt 12.000000 0.000000
vt 12.000000 5.000000
vt 0.000000 5.000000
vt 0.000000 0.000000
f 86/86/86 88/88/88 87/87/87
f 86/86/86 85/85/85 88/88/88
v 19.000000 34.000000 0.000000
v 19.000000 34.000000 5.000000
v 19.000000 46.000000 5.000000
v 19.000000 46.000000 0.000000
vn 1.000000 -0.000000 -0.000000
vn 1.000000 -0.000000 -0.000000
vn 1.000000 -0.000000 -0.000000
vn 1.000000 -0.000000 -0.000000
vt 12.000000 0.000000
vt 12.000000 5.000000
vt 0.000000 5.000000
vt 0.000000 0.000000
f 90/90/90 92/92/92 91/91/91
f 90/90/90 89/89/89 92/92/92
v 57.391037 43.061466 0.000000
v 57.391037 43.061466 5.000000
v 58.000000 40.000000 5.000000
v 58.000000 40.000000 0.000000
vn -0.980785 -0.195090 -0.000000
vn -0.980785 -0.195090 -0.000000
vn -0.980785 -0.195090 -0.000000
vn -0.980785 -0.195090 -0.000000
vt 0.000000 -1.560723
vt 5.000000 -1.560723
vt 5.000000 1.560723
vt 0.000000 1.560723
f 95/95/95 94/94/94 93/93/93
f 95/95/95 93/93/93 96/96/96
v 55.656853 45.656853 0.000000
v 55.656853 45.656853 5.000000
v 57.391037 43.061466 5.000000
v 57.391037 43.061466 0.000000
vn -0.831470 -0.555570 -0.000000
vn -0.831470 -0.555570 -0.000000
vn -0.831470 -0.555570 -0.000000
vn -0.831470 -0.555570 -0.000000
vt 0.000000 -1.560723
vt 5.000000 -1.560723
vt 5.000000 1.560723
vt 0.000000 1.560723
f 99/99/99 98/98/98 97/97/97
f 99/99/99 97/97/97 100/100/100
v 53.061466 47.391037 0.000000
v 53.061466 47.391037 5.000000
v 55.656853 45.656853 5.000000
v 55.656853 45.656853 0.000000
vn -0.555570 -0.831470 -0.000000
vn -0.555570 -0.831470 -0.000000
vn -0.555570 -0.831470 -0.000000
vn -0.555570 -0.831470 -0.000000
vt 0.000000 -1.560723
vt 5.000000 -1.560723
vt 5.000000 1.560723
vt 0.000000 1.560723
f 103/103/103 102/102/102 101/101/101
f 103/103/103 101/101/101 104/104/104
v 50.000000 48.000000 0.000000
v 50.000000 48.000000 5.000000
v 53.061466 47.391037 5.000000
v 53.061466 47.391037 0.000000
vn -0.195090 -0.980785 -0.000000
vn -0.195090 -0.980785 -0.000000
vn -0.195090 -0.980785 -0.000000
vn -0.195090 -0.980785 -0.000000
vt 0.000000 -1.560723
vt 5.000000 -1.560723
vt 5.000000 1.560723
vt 0.000000 1.560723
f 107/107/107 106/106/106 105/105/105
f 107/107/107 105/105/105 108/108/108
v 46.938534 47.391037 0.000000
v 46.938534 47.391037 5.000000
v 50.000000 48.000000 5.000000
v 50.000000 48.000000 0.000000
vn 0.195090 -0.980785 -0.000000
vn 0.195090 -0.980785 -0.000000
vn 0.195090 -0.980785 -0.000000
vn 0.195090 -0.980785 -0.000000
vt 0.000000 -1.560723
vt 5.000000 -1.560723
vt 5.000000 1.560723
vt 0.000000 1.560723
f 111/111/111 110/110/110 109/109/109
f 111/111/111 109/109/109 112/112/112
v 44.343147 45.656853 0.000000
v 44.343147 45.656853 5.000000
v 46.938534 47.391037 5.000000
v 46.938534 47.391037 0.000000
vn 0.555570 -0.831470 -0.000000
vn 0.555570 -0.831470 -0.000000
vn 0.555570 -0.831470 -0.000000
vn 0.555570 -0.831470 -0.000000
vt 0.000000 -1.560723
vt 5.000000 -1.560723
vt 5.000000 1.560723
vt 0.000000 1.560723
f 115/115/115 114/114/114 113/113/113
f 115/115/115 113/113/113 116/116/116
v 42.608963 43.061466 0.000000
v 42.608963 43.061466 5.000000
v 44.343147 45.656853 5.000000
v 44.343147 45.656853 0.000000
vn 0.831470 -0.555570 -0.000000
vn 0.831470 -0.555570 -0.000000
vn 0.831470 -0.555570 -0.000000
vn 0.831470 -0.555570 -0.000000
vt 0.000000 -1.560723
vt 5.000000 -1.560723
vt 5.000000 1.560723
vt 0.000000 1.560723
f 119/119/119 118/118/118 117/117/117
f 119/119/119 117/117/117 120/120/120
v 42.000000 40.000000 0.000000
v 42.000000 40.000000 5.000000
v 42.608963 43.061466 5.000000
v 42.608963 43.061466 0.000000
vn 0.980785 -0.195090 -0.000000
vn 0.980785 -0.195090 -0.000000
vn 0.980785 -0.195090 -0.000000
vn 0.980785 -0.195090 -0.000000
vt 0.000000 -1.560723
vt 5.000000 -1.560723
vt 5.000000 1.560723
vt 0.000000 1.560723
f 123/123/123 122/122/122 121/121/121
f 123/123/123 121/121/121 124/124/124
v 42.608963 36.938534 0.000000
v 42.608963 36.938534 5.000000
v 42.000000 40.000000 5.000000
v 42.000000 40.000000 0.000000
vn 0.980785 0.195090 -0.000000
vn 0.980785 0.195090 -0.000000
vn 0.980785 0.195090 -0.000000
vn 0.980785 0.195090 -0.000000
vt 0.000000 -1.560723
vt 5.000000 -1.560723
vt 5.000000 1.560723
vt 0.000000 1.560723
f 127/127/127 126/126/126 125/125/125
f 127/127/127 125/125/125 128/128/128
v 44.343147 34.343147 0.000000
v 44.343147 34.343147 5.000000
v 42.608963 36.938534 5.000000
v 42.608963 36.938534 0.000000
vn 0.831470 0.555570 -0.000000
vn 0.831470 0.555570 -0.000000
vn 0.831470 0.555570 -0.000000
vn 0.831470 0.555570 -0.000000
vt 0.000000 -1.560723
vt 5.000000 -1.560723
vt 5.000000 1.560723
vt 0.000000 1.560723
f 131/131/131 130/130/130 129/129/129
f 131/131/131 129/129/129 132/132/132
v 46.938534 32.608963 0.000000
v 46.938534 32.608963 5.000000
v 44.343147 34.343147 5.000000
v 44.343147 34.343147 0.000000
vn 0.555570 0.831470 -0.000000
vn 0.555570 0.831470 -0.000000
vn 0.555570 0.831470 -0.000000
vn 0.555570 0.831470 -0.000000
vt 0.000000 -1.560723
vt 5.000000 -1.560723
vt 5.000000 1.560723
vt 0.000000 1.560723
f 135/135/135 134/134/134 133/133/133
f 135/135/135 133/133/133 136/136/136
v 50.000000 32.000000 0.000000
v 50.000000 32.000000 5.000000
v 46.938534 32.608963 5.000000
v 46.938534 32.608963 0.000000
vn 0.195090 0.980785 -0.000000
vn 0.195090 0.980785 -0.000000
vn 0.195090 0.980785 -0.000000
vn 0.195090 0.980785 -0.000000
vt 0.000000 -1.560723
vt 5.000000 -1.560723
vt 5.000000 1.560723
vt 0.000000 1.560723
f 139/139/139 138/138/138 137/137/137
f 139/139/139 137/137/137 140/140/140
v 53.061466 32.608963 0.000000
v 53.061466 32.608963 5.000000
v 50.000000 32.000000 5.000000
v 50.000000 32.000000 0.000000
vn -0.195090 0.980785 -0.000000
vn -0.195090 0.980785 -0.000000
vn -0.195090 0.980785 -0.000000
vn -0.195090 0.980785 -0.000000
vt 0.000000 -1.560723
vt 5.000000 -1.560723
vt 5.000000 1.560723
vt 0.000000 1.560723
f 143/143/143 142/142/142 141/141/141
f 143/143/143 141/141/141 144/144/144
v 55.656853 34.343147 0.000000
v 55.656853 34.343147 5.000000
v 53.061466 32.608963 5.000000
v 53.061466 32.608963 0.000000
vn -0.555570 0.831470 -0.000000
vn -0.555570 0.831470 -0.000000
vn -0.555570 0.831470 -0.000000
vn -0.555570 0.831470 -0.000000
vt 0.000000 -1.560723
vt 5.000000 -1.560723
vt 5.000000 1.560723
vt 0.000000 1.560723
f 147/147/147 146/146/146 145/145/145
f 147/147/147 145/145/145 148/148/148
v 57.391037 36.938534 0.000000
v 57.391037 36.938534 5.000000
v 55.656853 34.343147 5.000000
v 55.656853 34.343147 0.000000
vn -0.831470 0.555570 -0.000000
vn -0.831470 0.555570 -0.000000
vn -0.831470 0.555570 -0.000000
vn -0.831470 0.555570 -0.000000
vt 0.000000 -1.560723
vt 5.000000 -1.560723
vt 5.000000 1.560723
vt 0.000000 1.560723
f 151/151/151 150/150/150 149/149/149
f 151/151/151 149/149/149 152/152/152
v 58.000000 40.000000 0.000000
v 58.000000 40.000000 5.000000
v 57.391037 36.938534 5.000000
v 57.391037 36.938534 0.000000
vn -0.980785 0.195090 -0.000000
vn -0.980785 0.195090 -0.000000
vn -0.980785 0.195090 -0.000000
vn -0.980785 0.195090 -0.000000
vt 0.000000 -1.560723
vt 5.000000 -1.560723
vt 5.000000 1.560723
vt 0.000000 1.560723
f 155/155/155 154/154/154 153/153/153
f 155/155/155 153/153/153 156/156/156
v 79.000000 46.928204 0.000000
v 79.000000 46.928204 5.000000
v 83.000000 40.000000 5.000000
v 83.000000 40.000000 0.000000
vn -0.866025 -0.500000 -0.000000
vn -0.866025 -0.500000 -0.000000
vn -0.866025 -0.500000 -0.000000
vn -0.866025 -0.500000 -0.000000
vt 0.000000 -4.000000
vt 5.000000 -4.000000
vt 5.000000 4.000000
vt 0.000000 4.000000
f 160/160/160 158/158/158 157/157/157
f 159/159/159 158/158/158 160/160/160
v 71.000000 46.928204 0.000000
v 71.000000 46.928204 5.000000
v 79.000000 46.928204 5.000000
v 79.000000 46.928204 0.000000
vn -0.000000 -1.000000 -0.000000
vn -0.000000 -1.000000 -0.000000
vn -0.000000 -1.000000 -0.000000
vn -0.000000 -1.000000 -0.000000
vt 0.000000 -4.000000
vt 5.000000 -4.000000
vt 5.000000 4.000000
vt 0.000000 4.000000
f 163/163/163 162/162/162 161/161/161
f 163/163/163 161/161/161 164/164/164
v 67.000000 40.000000 0.000000
v 67.000000 40.000000 5.000000
v 71.000000 46.928204 5.000000
v 71.000000 46.928204 0.000000
vn 0.866025 -0.500000 -0.000000
vn 0.866025 -0.500000 -0.000000
vn 0.866025 -0.500000 -0.000000
vn 0.866025 -0.500000 -0.000000
vt 0.000000 -4.000000
vt 5.000000 -4.000000
vt 5.000000 4.000000
vt 0.000000 4.000000
f 168/168/168 166/166/166 165/165/165
f 167/167/167 166/166/166 168/168/168
v 71.000000 33.071796 0.000000
v 71.000000 33.071796 5.000000
v 67.000000 40.000000 5.000000
v 67.000000 40.000000 0.000000
vn 0.866025 0.500000 -0.000000
vn 0.866025 0.500000 -0.000000
vn 0.866025 0.500000 -0.000000
vn 0.866025 0.500000 -0.000000
vt 0.000000 -4.000000
vt 5.000000 -4.000000
vt 5.000000 4.000000
vt 0.000000 4.000000
f 172/172/172 170/170/170 169/169/169
f 171/171/171 170/170/170 172/172/172
v 79.000000 33.071796 0.000000
v 79.000000 33.071796 5.000000
v 71.000000 33.071796 5.000000
v 71.000000 33.071796 0.000000
vn 0.000000 1.000000 -0.000000
vn 0.000000 1.000000 -0.000000
vn 0.000000 1.000000 -0.000000
vn 0.000000 1.000000 -0.000000
vt 0.000000 -4.000000
vt 5.000000 -4.000000
vt 5.000000 4.000000
vt 0.000000 4.000000
f 175/175/175 174/174/174 173/173/173
f 175/175/175 173/173/173 176/176/176
v 83.000000 40.000000 0.000000
v 83.000000 40.000000 5.000000
v 79.000000 33.071796 5.000000
v 79.000000 33.071796 0.000000
vn -0.866025 0.500000 -0.000000
vn -0.866025 0.500000 -0.000000
vn -0.866025 0.500000 -0.000000
vn -0.866025 0.500000 -0.000000
vt 0.000000 -4.000000
vt 5.000000 -4.000000
vt 5.000000 4.000000
vt 0.000000 4.000000
f 180/180/180 178/178/178 177/177/177
f 179/179/179 178/178/178 180/180/180
