# Exported by Open CASCADE Technology [dev.opencascade.org]
#  Vertices: 24
#     Faces: 12
g COMPOUND
v 0.000000 0.000000 0.000000
v 0.000000 0.000000 15.000000
v 0.000000 5.000000 0.000000
v 0.000000 5.000000 15.000000
vn -1.000000 -0.000000 0.000000
vn -1.000000 -0.000000 0.000000
vn -1.000000 -0.000000 0.000000
vn -1.000000 -0.000000 0.000000
vt 0.000000 0.000000
vt 15.000000 0.000000
vt 0.000000 -5.000000
vt 15.000000 -5.000000
f 2/2/2 3/3/3 1/1/1
f 2/2/2 4/4/4 3/3/3
v 20.000000 0.000000 0.000000
v 20.000000 0.000000 15.000000
v 20.000000 5.000000 0.000000
v 20.000000 5.000000 15.000000
vn 1.000000 0.000000 -0.000000
vn 1.000000 0.000000 -0.000000
vn 1.000000 0.000000 -0.000000
vn 1.000000 0.000000 -0.000000
vt 0.000000 0.000000
vt 15.000000 0.000000
vt 0.000000 -5.000000
vt 15.000000 -5.000000
f 6/6/6 5/5/5 7/7/7
f 6/6/6 7/7/7 8/8/8
v 0.000000 0.000000 0.000000
v 20.000000 0.000000 0.000000
v 0.000000 0.000000 15.000000
v 20.000000 0.000000 15.000000
vn 0.000000 -1.000000 -0.000000
vn 0.000000 -1.000000 -0.000000
vn 0.000000 -1.000000 -0.000000
vn 0.000000 -1.000000 -0.000000
vt 0.000000 0.000000
vt 0.000000 20.000000
vt 15.000000 0.000000
vt 15.000000 20.000000
f 12/12/12 9/9/9 10/10/10
f 12/12/12 11/11/11 9/9/9
v 0.000000 5.000000 0.000000
v 20.000000 5.000000 0.000000
v 0.000000 5.000000 15.000000
v 20.000000 5.000000 15.000000
vn -0.000000 1.000000 0.000000
vn -0.000000 1.000000 0.000000
vn -0.000000 1.000000 0.000000
vn -0.000000 1.000000 0.000000
vt 0.000000 0.000000
vt 0.000000 20.000000
vt 15.000000 0.000000
vt 15.000000 20.000000
f 16/16/16 14/14/14 13/13/13
f 16/16/16 13/13/13 15/15/15
v 0.000000 0.000000 0.000000
v 0.000000 5.000000 0.000000
v 20.000000 0.000000 0.000000
v 20.000000 5.000000 0.000000
vn -0.000000 -0.000000 -1.000000
vn -0.000000 -0.000000 -1.000000
vn -0.000000 -0.000000 -1.000000
vn -0.000000 -0.000000 -1.000000
vt 0.000000 0.000000
vt 0.000000 5.000000
vt 20.000000 0.000000
vt 20.000000 5.000000
f 20/20/20 17/17/17 18/18/18
f 20/20/20 19/19/19 17/17/17
v 0.000000 0.000000 15.000000
v 0.000000 5.000000 15.000000
v 20.000000 0.000000 15.000000
v 20.000000 5.000000 15.000000
vn 0.000000 0.000000 1.000000
vn 0.000000 0.000000 1.000000
vn 0.000000 0.000000 1.000000
vn 0.000000 0.000000 1.000000
vt 0.000000 0.000000
vt 0.000000 5.000000
vt 20.000000 0.000000
vt 20.000000 5.000000
f 24/24/24 22/22/22 21/21/21
f 24/24/24 21/21/21 23/23/23
