ISO-10303-21;
HEADER;
FILE_DESCRIPTION(('Open CASCADE Model'),'2;1');
FILE_NAME('Open CASCADE Shape Model','1979-01-01T00:00:00',('Author'),(
    'Open CASCADE'),'Open CASCADE STEP processor 8.0','Open CASCADE 8.0'
  ,'Unknown');
FILE_SCHEMA(('AUTOMOTIVE_DESIGN { 1 0 10303 214 1 1 1 1 }'));
ENDSEC;
DATA;
#1 = APPLICATION_PROTOCOL_DEFINITION('international standard',
  'automotive_design',2000,#2);
#2 = APPLICATION_CONTEXT(
  'core data for automotive mechanical design processes');
#3 = SHAPE_DEFINITION_REPRESENTATION(#4,#10);
#4 = PRODUCT_DEFINITION_SHAPE('','',#5);
#5 = PRODUCT_DEFINITION('design','',#6,#9);
#6 = PRODUCT_DEFINITION_FORMATION('','',#7);
#7 = PRODUCT('COMPOUND','COMPOUND','',(#8));
#8 = PRODUCT_CONTEXT('',#2,'mechanical');
#9 = PRODUCT_DEFINITION_CONTEXT('part definition',#2,'design');
#10 = ADVANCED_BREP_SHAPE_REPRESENTATION('',(#11,#15),#1673);
#11 = AXIS2_PLACEMENT_3D('',#12,#13,#14);
#12 = CARTESIAN_POINT('',(0.,0.,0.));
#13 = DIRECTION('',(0.,0.,1.));
#14 = DIRECTION('',(1.,0.,-0.));
#15 = MANIFOLD_SOLID_BREP('',#16);
#16 = CLOSED_SHELL('',(#17,#179,#265,#380,#508,#618,#672,#753,#802,#849,
    #896,#986,#1074,#1162,#1237,#1305,#1312,#1382,#1432,#1484,#1511,
    #1518,#1565,#1612,#1619,#1666));
#17 = ADVANCED_FACE('',(#18),#32,.F.);
#18 = FACE_BOUND('',#19,.F.);
#19 = EDGE_LOOP('',(#20,#55,#104,#132));
#20 = ORIENTED_EDGE('',*,*,#21,.F.);
#21 = EDGE_CURVE('',#22,#24,#26,.T.);
#22 = VERTEX_POINT('',#23);
#23 = CARTESIAN_POINT('',(12.,0.,10.));
#24 = VERTEX_POINT('',#25);
#25 = CARTESIAN_POINT('',(12.,10.,10.));
#26 = SURFACE_CURVE('',#27,(#31,#43),.PCURVE_S1.);
#27 = LINE('',#28,#29);
#28 = CARTESIAN_POINT('',(12.,0.,10.));
#29 = VECTOR('',#30,1.);
#30 = DIRECTION('',(0.,1.,0.));
#31 = PCURVE('',#32,#37);
#32 = CYLINDRICAL_SURFACE('',#33,2.);
#33 = AXIS2_PLACEMENT_3D('',#34,#35,#36);
#34 = CARTESIAN_POINT('',(10.,0.,10.));
#35 = DIRECTION('',(0.,1.,0.));
#36 = DIRECTION('',(1.110223024625E-16,0.,-1.));
#37 = DEFINITIONAL_REPRESENTATION('',(#38),#42);
#38 = LINE('',#39,#40);
#39 = CARTESIAN_POINT('',(1.570796326795,0.));
#40 = VECTOR('',#41,1.);
#41 = DIRECTION('',(0.,1.));
#42 = ( GEOMETRIC_REPRESENTATION_CONTEXT(2) 
PARAMETRIC_REPRESENTATION_CONTEXT() REPRESENTATION_CONTEXT('2D SPACE',''
  ) );
#43 = PCURVE('',#44,#49);
#44 = PLANE('',#45);
#45 = AXIS2_PLACEMENT_3D('',#46,#47,#48);
#46 = CARTESIAN_POINT('',(12.,0.,0.));
#47 = DIRECTION('',(1.,0.,-0.));
#48 = DIRECTION('',(0.,0.,1.));
#49 = DEFINITIONAL_REPRESENTATION('',(#50),#54);
#50 = LINE('',#51,#52);
#51 = CARTESIAN_POINT('',(10.,0.));
#52 = VECTOR('',#53,1.);
#53 = DIRECTION('',(0.,-1.));
#54 = ( GEOMETRIC_REPRESENTATION_CONTEXT(2) 
PARAMETRIC_REPRESENTATION_CONTEXT() REPRESENTATION_CONTEXT('2D SPACE',''
  ) );
#55 = ORIENTED_EDGE('',*,*,#56,.T.);
#56 = EDGE_CURVE('',#22,#57,#59,.T.);
#57 = VERTEX_POINT('',#58);
#58 = CARTESIAN_POINT('',(10.,0.,12.));
#59 = SURFACE_CURVE('',#60,(#65,#72),.PCURVE_S1.);
#60 = CIRCLE('',#61,2.);
#61 = AXIS2_PLACEMENT_3D('',#62,#63,#64);
#62 = CARTESIAN_POINT('',(10.,0.,10.));
#63 = DIRECTION('',(0.,-1.,0.));
#64 = DIRECTION('',(1.110223024625E-16,0.,-1.));
#65 = PCURVE('',#32,#66);
#66 = DEFINITIONAL_REPRESENTATION('',(#67),#71);
#67 = LINE('',#68,#69);
#68 = CARTESIAN_POINT('',(0.,0.));
#69 = VECTOR('',#70,1.);
#70 = DIRECTION('',(1.,0.));
#71 = ( GEOMETRIC_REPRESENTATION_CONTEXT(2) 
PARAMETRIC_REPRESENTATION_CONTEXT() REPRESENTATION_CONTEXT('2D SPACE',''
  ) );
#72 = PCURVE('',#73,#78);
#73 = SPHERICAL_SURFACE('',#74,2.);
#74 = AXIS2_PLACEMENT_3D('',#75,#76,#77);
#75 = CARTESIAN_POINT('',(10.,0.,10.));
#76 = DIRECTION('',(-0.,0.707106781187,0.707106781187));
#77 = DIRECTION('',(-0.57735026919,0.57735026919,-0.57735026919));
#78 = DEFINITIONAL_REPRESENTATION('',(#79),#103);
#79 = B_SPLINE_CURVE_WITH_KNOTS('',8,(#80,#81,#82,#83,#84,#85,#86,#87,
    #88,#89,#90,#91,#92,#93,#94,#95,#96,#97,#98,#99,#100,#101,#102),
  .UNSPECIFIED.,.F.,.F.,(9,7,7,9),(1.570796326795,2.356194490192,
    2.748893571891,3.14159265359),.UNSPECIFIED.);
#80 = CARTESIAN_POINT('',(4.096909271714,4.440892098501E-16));
#81 = CARTESIAN_POINT('',(4.027489225806,6.942004590872E-02));
#82 = CARTESIAN_POINT('',(3.95806924124,0.138840134751));
#83 = CARTESIAN_POINT('',(3.887629185485,0.207750106311));
#84 = CARTESIAN_POINT('',(3.815151992345,0.275641724657));
#85 = CARTESIAN_POINT('',(3.7395478948,0.341946139328));
#86 = CARTESIAN_POINT('',(3.659626167293,0.405996516923));
#87 = CARTESIAN_POINT('',(3.573989624256,0.466917545466));
#88 = CARTESIAN_POINT('',(3.435149532438,0.551939390664));
#89 = CARTESIAN_POINT('',(3.387138426248,0.579220140835));
#90 = CARTESIAN_POINT('',(3.337246121973,0.605301926671));
#91 = CARTESIAN_POINT('',(3.285332121348,0.630032113869));
#92 = CARTESIAN_POINT('',(3.23128145701,0.653242056598));
#93 = CARTESIAN_POINT('',(3.175025560699,0.67474957767));
#94 = CARTESIAN_POINT('',(3.116568093007,0.694366405529));
#95 = CARTESIAN_POINT('',(2.99546337633,0.729454730602));
#96 = CARTESIAN_POINT('',(2.932815764915,0.744925971874));
#97 = CARTESIAN_POINT('',(2.868178567382,0.75814412822));
#98 = CARTESIAN_POINT('',(2.801753048874,0.768931919205));
#99 = CARTESIAN_POINT('',(2.733864117577,0.777136199325));
#100 = CARTESIAN_POINT('',(2.664952777734,0.782644685938));
#101 = CARTESIAN_POINT('',(2.595532990828,0.785398163397));
#102 = CARTESIAN_POINT('',(2.526112944919,0.785398163397));
#103 = ( GEOMETRIC_REPRESENTATION_CONTEXT(2) 
PARAMETRIC_REPRESENTATION_CONTEXT() REPRESENTATION_CONTEXT('2D SPACE',''
  ) );
#104 = ORIENTED_EDGE('',*,*,#105,.T.);
#105 = EDGE_CURVE('',#57,#106,#108,.T.);
#106 = VERTEX_POINT('',#107);
#107 = CARTESIAN_POINT('',(10.,10.,12.));
#108 = SURFACE_CURVE('',#109,(#113,#120),.PCURVE_S1.);
#109 = LINE('',#110,#111);
#110 = CARTESIAN_POINT('',(10.,0.,12.));
#111 = VECTOR('',#112,1.);
#112 = DIRECTION('',(0.,1.,0.));
#113 = PCURVE('',#32,#114);
#114 = DEFINITIONAL_REPRESENTATION('',(#115),#119);
#115 = LINE('',#116,#117);
#116 = CARTESIAN_POINT('',(3.14159265359,0.));
#117 = VECTOR('',#118,1.);
#118 = DIRECTION('',(0.,1.));
#119 = ( GEOMETRIC_REPRESENTATION_CONTEXT(2) 
PARAMETRIC_REPRESENTATION_CONTEXT() REPRESENTATION_CONTEXT('2D SPACE',''
  ) );
#120 = PCURVE('',#121,#126);
#121 = PLANE('',#122);
#122 = AXIS2_PLACEMENT_3D('',#123,#124,#125);
#123 = CARTESIAN_POINT('',(0.,0.,12.));
#124 = DIRECTION('',(0.,0.,1.));
#125 = DIRECTION('',(1.,0.,-0.));
#126 = DEFINITIONAL_REPRESENTATION('',(#127),#131);
#127 = LINE('',#128,#129);
#128 = CARTESIAN_POINT('',(10.,0.));
#129 = VECTOR('',#130,1.);
#130 = DIRECTION('',(0.,1.));
#131 = ( GEOMETRIC_REPRESENTATION_CONTEXT(2) 
PARAMETRIC_REPRESENTATION_CONTEXT() REPRESENTATION_CONTEXT('2D SPACE',''
  ) );
#132 = ORIENTED_EDGE('',*,*,#133,.F.);
#133 = EDGE_CURVE('',#24,#106,#134,.T.);
#134 = SURFACE_CURVE('',#135,(#140,#147),.PCURVE_S1.);
#135 = CIRCLE('',#136,2.);
#136 = AXIS2_PLACEMENT_3D('',#137,#138,#139);
#137 = CARTESIAN_POINT('',(10.,10.,10.));
#138 = DIRECTION('',(0.,-1.,0.));
#139 = DIRECTION('',(1.110223024625E-16,0.,-1.));
#140 = PCURVE('',#32,#141);
#141 = DEFINITIONAL_REPRESENTATION('',(#142),#146);
#142 = LINE('',#143,#144);
#143 = CARTESIAN_POINT('',(0.,10.));
#144 = VECTOR('',#145,1.);
#145 = DIRECTION('',(1.,0.));
#146 = ( GEOMETRIC_REPRESENTATION_CONTEXT(2) 
PARAMETRIC_REPRESENTATION_CONTEXT() REPRESENTATION_CONTEXT('2D SPACE',''
  ) );
#147 = PCURVE('',#148,#153);
#148 = SPHERICAL_SURFACE('',#149,2.);
#149 = AXIS2_PLACEMENT_3D('',#150,#151,#152);
#150 = CARTESIAN_POINT('',(10.,10.,10.));
#151 = DIRECTION('',(0.,0.707106781187,-0.707106781187));
#152 = DIRECTION('',(-0.57735026919,-0.57735026919,-0.57735026919));
#153 = DEFINITIONAL_REPRESENTATION('',(#154),#178);
#154 = B_SPLINE_CURVE_WITH_KNOTS('',8,(#155,#156,#157,#158,#159,#160,
    #161,#162,#163,#164,#165,#166,#167,#168,#169,#170,#171,#172,#173,
    #174,#175,#176,#177),.UNSPECIFIED.,.F.,.F.,(9,7,7,9),(1.570796326795
    ,2.356194490192,2.748893571891,3.14159265359),.UNSPECIFIED.);
#155 = CARTESIAN_POINT('',(4.096909271714,-8.881784197001E-16));
#156 = CARTESIAN_POINT('',(4.027489225806,-6.942004590873E-02));
#157 = CARTESIAN_POINT('',(3.958069241235,-0.138840134751));
#158 = CARTESIAN_POINT('',(3.887629185509,-0.207750106312));
#159 = CARTESIAN_POINT('',(3.815151992305,-0.275641724656));
#160 = CARTESIAN_POINT('',(3.739547894824,-0.34194613933));
#161 = CARTESIAN_POINT('',(3.659626167287,-0.405996516923));
#162 = CARTESIAN_POINT('',(3.573989624256,-0.466917545466));
#163 = CARTESIAN_POINT('',(3.435149532438,-0.551939390664));
#164 = CARTESIAN_POINT('',(3.387138426248,-0.579220140835));
#165 = CARTESIAN_POINT('',(3.337246121973,-0.605301926671));
#166 = CARTESIAN_POINT('',(3.285332121348,-0.630032113869));
#167 = CARTESIAN_POINT('',(3.23128145701,-0.653242056598));
#168 = CARTESIAN_POINT('',(3.175025560698,-0.67474957767));
#169 = CARTESIAN_POINT('',(3.116568093007,-0.694366405529));
#170 = CARTESIAN_POINT('',(2.99546337633,-0.729454730602));
#171 = CARTESIAN_POINT('',(2.932815764915,-0.744925971874));
#172 = CARTESIAN_POINT('',(2.868178567382,-0.75814412822));
#173 = CARTESIAN_POINT('',(2.801753048874,-0.768931919205));
#174 = CARTESIAN_POINT('',(2.733864117577,-0.777136199325));
#175 = CARTESIAN_POINT('',(2.664952777734,-0.782644685938));
#176 = CARTESIAN_POINT('',(2.595532990828,-0.785398163397));
#177 = CARTESIAN_POINT('',(2.526112944919,-0.785398163397));
#178 = ( GEOMETRIC_REPRESENTATION_CONTEXT(2) 
PARAMETRIC_REPRESENTATION_CONTEXT() REPRESENTATION_CONTEXT('2D SPACE',''
  ) );
#179 = ADVANCED_FACE('',(#180),#121,.T.);
#180 = FACE_BOUND('',#181,.T.);
#181 = EDGE_LOOP('',(#182,#212,#238,#239));
#182 = ORIENTED_EDGE('',*,*,#183,.F.);
#183 = EDGE_CURVE('',#184,#186,#188,.T.);
#184 = VERTEX_POINT('',#185);
#185 = CARTESIAN_POINT('',(0.,0.,12.));
#186 = VERTEX_POINT('',#187);
#187 = CARTESIAN_POINT('',(0.,10.,12.));
#188 = SURFACE_CURVE('',#189,(#193,#200),.PCURVE_S1.);
#189 = LINE('',#190,#191);
#190 = CARTESIAN_POINT('',(0.,0.,12.));
#191 = VECTOR('',#192,1.);
#192 = DIRECTION('',(0.,1.,0.));
#193 = PCURVE('',#121,#194);
#194 = DEFINITIONAL_REPRESENTATION('',(#195),#199);
#195 = LINE('',#196,#197);
#196 = CARTESIAN_POINT('',(0.,0.));
#197 = VECTOR('',#198,1.);
#198 = DIRECTION('',(0.,1.));
#199 = ( GEOMETRIC_REPRESENTATION_CONTEXT(2) 
PARAMETRIC_REPRESENTATION_CONTEXT() REPRESENTATION_CONTEXT('2D SPACE',''
  ) );
#200 = PCURVE('',#201,#206);
#201 = CYLINDRICAL_SURFACE('',#202,2.);
#202 = AXIS2_PLACEMENT_3D('',#203,#204,#205);
#203 = CARTESIAN_POINT('',(0.,0.,10.));
#204 = DIRECTION('',(0.,1.,0.));
#205 = DIRECTION('',(-1.110223024625E-16,0.,-1.));
#206 = DEFINITIONAL_REPRESENTATION('',(#207),#211);
#207 = LINE('',#208,#209);
#208 = CARTESIAN_POINT('',(3.14159265359,0.));
#209 = VECTOR('',#210,1.);
#210 = DIRECTION('',(0.,1.));
#211 = ( GEOMETRIC_REPRESENTATION_CONTEXT(2) 
PARAMETRIC_REPRESENTATION_CONTEXT() REPRESENTATION_CONTEXT('2D SPACE',''
  ) );
#212 = ORIENTED_EDGE('',*,*,#213,.T.);
#213 = EDGE_CURVE('',#184,#57,#214,.T.);
#214 = SURFACE_CURVE('',#215,(#219,#226),.PCURVE_S1.);
#215 = LINE('',#216,#217);
#216 = CARTESIAN_POINT('',(0.,0.,12.));
#217 = VECTOR('',#218,1.);
#218 = DIRECTION('',(1.,0.,0.));
#219 = PCURVE('',#121,#220);
#220 = DEFINITIONAL_REPRESENTATION('',(#221),#225);
#221 = LINE('',#222,#223);
#222 = CARTESIAN_POINT('',(0.,0.));
#223 = VECTOR('',#224,1.);
#224 = DIRECTION('',(1.,0.));
#225 = ( GEOMETRIC_REPRESENTATION_CONTEXT(2) 
PARAMETRIC_REPRESENTATION_CONTEXT() REPRESENTATION_CONTEXT('2D SPACE',''
  ) );
#226 = PCURVE('',#227,#232);
#227 = CYLINDRICAL_SURFACE('',#228,2.);
#228 = AXIS2_PLACEMENT_3D('',#229,#230,#231);
#229 = CARTESIAN_POINT('',(0.,0.,10.));
#230 = DIRECTION('',(1.,0.,0.));
#231 = DIRECTION('',(0.,-1.110223024625E-16,-1.));
#232 = DEFINITIONAL_REPRESENTATION('',(#233),#237);
#233 = LINE('',#234,#235);
#234 = CARTESIAN_POINT('',(3.14159265359,0.));
#235 = VECTOR('',#236,1.);
#236 = DIRECTION('',(0.,1.));
#237 = ( GEOMETRIC_REPRESENTATION_CONTEXT(2) 
PARAMETRIC_REPRESENTATION_CONTEXT() REPRESENTATION_CONTEXT('2D SPACE',''
  ) );
#238 = ORIENTED_EDGE('',*,*,#105,.T.);
#239 = ORIENTED_EDGE('',*,*,#240,.F.);
#240 = EDGE_CURVE('',#186,#106,#241,.T.);
#241 = SURFACE_CURVE('',#242,(#246,#253),.PCURVE_S1.);
#242 = LINE('',#243,#244);
#243 = CARTESIAN_POINT('',(0.,10.,12.));
#244 = VECTOR('',#245,1.);
#245 = DIRECTION('',(1.,0.,0.));
#246 = PCURVE('',#121,#247);
#247 = DEFINITIONAL_REPRESENTATION('',(#248),#252);
#248 = LINE('',#249,#250);
#249 = CARTESIAN_POINT('',(0.,10.));
#250 = VECTOR('',#251,1.);
#251 = DIRECTION('',(1.,0.));
#252 = ( GEOMETRIC_REPRESENTATION_CONTEXT(2) 
PARAMETRIC_REPRESENTATION_CONTEXT() REPRESENTATION_CONTEXT('2D SPACE',''
  ) );
#253 = PCURVE('',#254,#259);
#254 = CYLINDRICAL_SURFACE('',#255,2.);
#255 = AXIS2_PLACEMENT_3D('',#256,#257,#258);
#256 = CARTESIAN_POINT('',(0.,10.,10.));
#257 = DIRECTION('',(1.,0.,0.));
#258 = DIRECTION('',(0.,1.110223024625E-16,-1.));
#259 = DEFINITIONAL_REPRESENTATION('',(#260),#264);
#260 = LINE('',#261,#262);
#261 = CARTESIAN_POINT('',(3.14159265359,0.));
#262 = VECTOR('',#263,1.);
#263 = DIRECTION('',(0.,1.));
#264 = ( GEOMETRIC_REPRESENTATION_CONTEXT(2) 
PARAMETRIC_REPRESENTATION_CONTEXT() REPRESENTATION_CONTEXT('2D SPACE',''
  ) );
#265 = ADVANCED_FACE('',(#266),#280,.F.);
#266 = FACE_BOUND('',#267,.F.);
#267 = EDGE_LOOP('',(#268,#303,#331,#359));
#268 = ORIENTED_EDGE('',*,*,#269,.F.);
#269 = EDGE_CURVE('',#270,#272,#274,.T.);
#270 = VERTEX_POINT('',#271);
#271 = CARTESIAN_POINT('',(-2.,0.,0.));
#272 = VERTEX_POINT('',#273);
#273 = CARTESIAN_POINT('',(-2.,0.,10.));
#274 = SURFACE_CURVE('',#275,(#279,#291),.PCURVE_S1.);
#275 = LINE('',#276,#277);
#276 = CARTESIAN_POINT('',(-2.,0.,0.));
#277 = VECTOR('',#278,1.);
#278 = DIRECTION('',(0.,0.,1.));
#279 = PCURVE('',#280,#285);
#280 = PLANE('',#281);
#281 = AXIS2_PLACEMENT_3D('',#282,#283,#284);
#282 = CARTESIAN_POINT('',(-2.,0.,0.));
#283 = DIRECTION('',(1.,0.,-0.));
#284 = DIRECTION('',(0.,0.,1.));
#285 = DEFINITIONAL_REPRESENTATION('',(#286),#290);
#286 = LINE('',#287,#288);
#287 = CARTESIAN_POINT('',(0.,0.));
#288 = VECTOR('',#289,1.);
#289 = DIRECTION('',(1.,0.));
#290 = ( GEOMETRIC_REPRESENTATION_CONTEXT(2) 
PARAMETRIC_REPRESENTATION_CONTEXT() REPRESENTATION_CONTEXT('2D SPACE',''
  ) );
#291 = PCURVE('',#292,#297);
#292 = CYLINDRICAL_SURFACE('',#293,2.);
#293 = AXIS2_PLACEMENT_3D('',#294,#295,#296);
#294 = CARTESIAN_POINT('',(0.,0.,0.));
#295 = DIRECTION('',(0.,0.,1.));
#296 = DIRECTION('',(-1.110223024625E-16,1.,0.));
#297 = DEFINITIONAL_REPRESENTATION('',(#298),#302);
#298 = LINE('',#299,#300);
#299 = CARTESIAN_POINT('',(1.570796326795,0.));
#300 = VECTOR('',#301,1.);
#301 = DIRECTION('',(0.,1.));
#302 = ( GEOMETRIC_REPRESENTATION_CONTEXT(2) 
PARAMETRIC_REPRESENTATION_CONTEXT() REPRESENTATION_CONTEXT('2D SPACE',''
  ) );
#303 = ORIENTED_EDGE('',*,*,#304,.T.);
#304 = EDGE_CURVE('',#270,#305,#307,.T.);
#305 = VERTEX_POINT('',#306);
#306 = CARTESIAN_POINT('',(-2.,10.,0.));
#307 = SURFACE_CURVE('',#308,(#312,#319),.PCURVE_S1.);
#308 = LINE('',#309,#310);
#309 = CARTESIAN_POINT('',(-2.,0.,0.));
#310 = VECTOR('',#311,1.);
#311 = DIRECTION('',(0.,1.,0.));
#312 = PCURVE('',#280,#313);
#313 = DEFINITIONAL_REPRESENTATION('',(#314),#318);
#314 = LINE('',#315,#316);
#315 = CARTESIAN_POINT('',(0.,0.));
#316 = VECTOR('',#317,1.);
#317 = DIRECTION('',(0.,-1.));
#318 = ( GEOMETRIC_REPRESENTATION_CONTEXT(2) 
PARAMETRIC_REPRESENTATION_CONTEXT() REPRESENTATION_CONTEXT('2D SPACE',''
  ) );
#319 = PCURVE('',#320,#325);
#320 = CYLINDRICAL_SURFACE('',#321,2.);
#321 = AXIS2_PLACEMENT_3D('',#322,#323,#324);
#322 = CARTESIAN_POINT('',(0.,0.,0.));
#323 = DIRECTION('',(0.,1.,0.));
#324 = DIRECTION('',(-1.110223024625E-16,0.,1.));
#325 = DEFINITIONAL_REPRESENTATION('',(#326),#330);
#326 = LINE('',#327,#328);
#327 = CARTESIAN_POINT('',(1.570796326795,0.));
#328 = VECTOR('',#329,1.);
#329 = DIRECTION('',(0.,1.));
#330 = ( GEOMETRIC_REPRESENTATION_CONTEXT(2) 
PARAMETRIC_REPRESENTATION_CONTEXT() REPRESENTATION_CONTEXT('2D SPACE',''
  ) );
#331 = ORIENTED_EDGE('',*,*,#332,.T.);
#332 = EDGE_CURVE('',#305,#333,#335,.T.);
#333 = VERTEX_POINT('',#334);
#334 = CARTESIAN_POINT('',(-2.,10.,10.));
#335 = SURFACE_CURVE('',#336,(#340,#347),.PCURVE_S1.);
#336 = LINE('',#337,#338);
#337 = CARTESIAN_POINT('',(-2.,10.,0.));
#338 = VECTOR('',#339,1.);
#339 = DIRECTION('',(0.,0.,1.));
#340 = PCURVE('',#280,#341);
#341 = DEFINITIONAL_REPRESENTATION('',(#342),#346);
#342 = LINE('',#343,#344);
#343 = CARTESIAN_POINT('',(0.,-10.));
#344 = VECTOR('',#345,1.);
#345 = DIRECTION('',(1.,0.));
#346 = ( GEOMETRIC_REPRESENTATION_CONTEXT(2) 
PARAMETRIC_REPRESENTATION_CONTEXT() REPRESENTATION_CONTEXT('2D SPACE',''
  ) );
#347 = PCURVE('',#348,#353);
#348 = CYLINDRICAL_SURFACE('',#349,2.);
#349 = AXIS2_PLACEMENT_3D('',#350,#351,#352);
#350 = CARTESIAN_POINT('',(0.,10.,0.));
#351 = DIRECTION('',(0.,0.,1.));
#352 = DIRECTION('',(-1.110223024625E-16,-1.,0.));
#353 = DEFINITIONAL_REPRESENTATION('',(#354),#358);
#354 = LINE('',#355,#356);
#355 = CARTESIAN_POINT('',(1.570796326795,0.));
#356 = VECTOR('',#357,1.);
#357 = DIRECTION('',(0.,1.));
#358 = ( GEOMETRIC_REPRESENTATION_CONTEXT(2) 
PARAMETRIC_REPRESENTATION_CONTEXT() REPRESENTATION_CONTEXT('2D SPACE',''
  ) );
#359 = ORIENTED_EDGE('',*,*,#360,.F.);
#360 = EDGE_CURVE('',#272,#333,#361,.T.);
#361 = SURFACE_CURVE('',#362,(#366,#373),.PCURVE_S1.);
#362 = LINE('',#363,#364);
#363 = CARTESIAN_POINT('',(-2.,0.,10.));
#364 = VECTOR('',#365,1.);
#365 = DIRECTION('',(0.,1.,0.));
#366 = PCURVE('',#280,#367);
#367 = DEFINITIONAL_REPRESENTATION('',(#368),#372);
#368 = LINE('',#369,#370);
#369 = CARTESIAN_POINT('',(10.,0.));
#370 = VECTOR('',#371,1.);
#371 = DIRECTION('',(0.,-1.));
#372 = ( GEOMETRIC_REPRESENTATION_CONTEXT(2) 
PARAMETRIC_REPRESENTATION_CONTEXT() REPRESENTATION_CONTEXT('2D SPACE',''
  ) );
#373 = PCURVE('',#201,#374);
#374 = DEFINITIONAL_REPRESENTATION('',(#375),#379);
#375 = LINE('',#376,#377);
#376 = CARTESIAN_POINT('',(1.570796326795,0.));
#377 = VECTOR('',#378,1.);
#378 = DIRECTION('',(0.,1.));
#379 = ( GEOMETRIC_REPRESENTATION_CONTEXT(2) 
PARAMETRIC_REPRESENTATION_CONTEXT() REPRESENTATION_CONTEXT('2D SPACE',''
  ) );
#380 = ADVANCED_FACE('',(#381),#292,.T.);
#381 = FACE_BOUND('',#382,.T.);
#382 = EDGE_LOOP('',(#383,#384,#433,#461));
#383 = ORIENTED_EDGE('',*,*,#269,.F.);
#384 = ORIENTED_EDGE('',*,*,#385,.T.);
#385 = EDGE_CURVE('',#270,#386,#388,.T.);
#386 = VERTEX_POINT('',#387);
#387 = CARTESIAN_POINT('',(0.,-2.,0.));
#388 = SURFACE_CURVE('',#389,(#394,#401),.PCURVE_S1.);
#389 = CIRCLE('',#390,2.);
#390 = AXIS2_PLACEMENT_3D('',#391,#392,#393);
#391 = CARTESIAN_POINT('',(0.,0.,0.));
#392 = DIRECTION('',(0.,0.,1.));
#393 = DIRECTION('',(-1.110223024625E-16,1.,0.));
#394 = PCURVE('',#292,#395);
#395 = DEFINITIONAL_REPRESENTATION('',(#396),#400);
#396 = LINE('',#397,#398);
#397 = CARTESIAN_POINT('',(0.,0.));
#398 = VECTOR('',#399,1.);
#399 = DIRECTION('',(1.,0.));
#400 = ( GEOMETRIC_REPRESENTATION_CONTEXT(2) 
PARAMETRIC_REPRESENTATION_CONTEXT() REPRESENTATION_CONTEXT('2D SPACE',''
  ) );
#401 = PCURVE('',#402,#407);
#402 = SPHERICAL_SURFACE('',#403,2.);
#403 = AXIS2_PLACEMENT_3D('',#404,#405,#406);
#404 = CARTESIAN_POINT('',(0.,0.,0.));
#405 = DIRECTION('',(0.,0.707106781187,-0.707106781187));
#406 = DIRECTION('',(0.57735026919,0.57735026919,0.57735026919));
#407 = DEFINITIONAL_REPRESENTATION('',(#408),#432);
#408 = B_SPLINE_CURVE_WITH_KNOTS('',8,(#409,#410,#411,#412,#413,#414,
    #415,#416,#417,#418,#419,#420,#421,#422,#423,#424,#425,#426,#427,
    #428,#429,#430,#431),.UNSPECIFIED.,.F.,.F.,(9,7,7,9),(1.570796326795
    ,2.356194490192,2.748893571891,3.14159265359),.UNSPECIFIED.);
#409 = CARTESIAN_POINT('',(4.096909271714,-3.520682012241E-17));
#410 = CARTESIAN_POINT('',(4.027489225806,-6.942004590872E-02));
#411 = CARTESIAN_POINT('',(3.958069241236,-0.138840134751));
#412 = CARTESIAN_POINT('',(3.887629185501,-0.207750106313));
#413 = CARTESIAN_POINT('',(3.815151992305,-0.275641724656));
#414 = CARTESIAN_POINT('',(3.739547894816,-0.34194613933));
#415 = CARTESIAN_POINT('',(3.659626167289,-0.405996516923));
#416 = CARTESIAN_POINT('',(3.573989624256,-0.466917545466));
#417 = CARTESIAN_POINT('',(3.435149532438,-0.551939390664));
#418 = CARTESIAN_POINT('',(3.387138426248,-0.579220140835));
#419 = CARTESIAN_POINT('',(3.337246121973,-0.605301926671));
#420 = CARTESIAN_POINT('',(3.285332121348,-0.630032113869));
#421 = CARTESIAN_POINT('',(3.23128145701,-0.653242056598));
#422 = CARTESIAN_POINT('',(3.175025560698,-0.67474957767));
#423 = CARTESIAN_POINT('',(3.116568093007,-0.694366405529));
#424 = CARTESIAN_POINT('',(2.99546337633,-0.729454730602));
#425 = CARTESIAN_POINT('',(2.932815764915,-0.744925971874));
#426 = CARTESIAN_POINT('',(2.868178567382,-0.75814412822));
#427 = CARTESIAN_POINT('',(2.801753048874,-0.768931919205));
#428 = CARTESIAN_POINT('',(2.733864117577,-0.777136199325));
#429 = CARTESIAN_POINT('',(2.664952777734,-0.782644685938));
#430 = CARTESIAN_POINT('',(2.595532990828,-0.785398163397));
#431 = CARTESIAN_POINT('',(2.526112944919,-0.785398163397));
#432 = ( GEOMETRIC_REPRESENTATION_CONTEXT(2) 
PARAMETRIC_REPRESENTATION_CONTEXT() REPRESENTATION_CONTEXT('2D SPACE',''
  ) );
#433 = ORIENTED_EDGE('',*,*,#434,.T.);
#434 = EDGE_CURVE('',#386,#435,#437,.T.);
#435 = VERTEX_POINT('',#436);
#436 = CARTESIAN_POINT('',(0.,-2.,10.));
#437 = SURFACE_CURVE('',#438,(#442,#449),.PCURVE_S1.);
#438 = LINE('',#439,#440);
#439 = CARTESIAN_POINT('',(0.,-2.,0.));
#440 = VECTOR('',#441,1.);
#441 = DIRECTION('',(0.,0.,1.));
#442 = PCURVE('',#292,#443);
#443 = DEFINITIONAL_REPRESENTATION('',(#444),#448);
#444 = LINE('',#445,#446);
#445 = CARTESIAN_POINT('',(3.14159265359,0.));
#446 = VECTOR('',#447,1.);
#447 = DIRECTION('',(0.,1.));
#448 = ( GEOMETRIC_REPRESENTATION_CONTEXT(2) 
PARAMETRIC_REPRESENTATION_CONTEXT() REPRESENTATION_CONTEXT('2D SPACE',''
  ) );
#449 = PCURVE('',#450,#455);
#450 = PLANE('',#451);
#451 = AXIS2_PLACEMENT_3D('',#452,#453,#454);
#452 = CARTESIAN_POINT('',(0.,-2.,0.));
#453 = DIRECTION('',(-0.,1.,0.));
#454 = DIRECTION('',(0.,0.,1.));
#455 = DEFINITIONAL_REPRESENTATION('',(#456),#460);
#456 = LINE('',#457,#458);
#457 = CARTESIAN_POINT('',(0.,0.));
#458 = VECTOR('',#459,1.);
#459 = DIRECTION('',(1.,0.));
#460 = ( GEOMETRIC_REPRESENTATION_CONTEXT(2) 
PARAMETRIC_REPRESENTATION_CONTEXT() REPRESENTATION_CONTEXT('2D SPACE',''
  ) );
#461 = ORIENTED_EDGE('',*,*,#462,.F.);
#462 = EDGE_CURVE('',#272,#435,#463,.T.);
#463 = SURFACE_CURVE('',#464,(#469,#476),.PCURVE_S1.);
#464 = CIRCLE('',#465,2.);
#465 = AXIS2_PLACEMENT_3D('',#466,#467,#468);
#466 = CARTESIAN_POINT('',(0.,0.,10.));
#467 = DIRECTION('',(0.,0.,1.));
#468 = DIRECTION('',(-1.110223024625E-16,1.,0.));
#469 = PCURVE('',#292,#470);
#470 = DEFINITIONAL_REPRESENTATION('',(#471),#475);
#471 = LINE('',#472,#473);
#472 = CARTESIAN_POINT('',(0.,10.));
#473 = VECTOR('',#474,1.);
#474 = DIRECTION('',(1.,0.));
#475 = ( GEOMETRIC_REPRESENTATION_CONTEXT(2) 
PARAMETRIC_REPRESENTATION_CONTEXT() REPRESENTATION_CONTEXT('2D SPACE',''
  ) );
#476 = PCURVE('',#477,#482);
#477 = SPHERICAL_SURFACE('',#478,2.);
#478 = AXIS2_PLACEMENT_3D('',#479,#480,#481);
#479 = CARTESIAN_POINT('',(0.,0.,10.));
#480 = DIRECTION('',(-0.,-0.707106781187,-0.707106781187));
#481 = DIRECTION('',(0.57735026919,0.57735026919,-0.57735026919));
#482 = DEFINITIONAL_REPRESENTATION('',(#483),#507);
#483 = B_SPLINE_CURVE_WITH_KNOTS('',8,(#484,#485,#486,#487,#488,#489,
    #490,#491,#492,#493,#494,#495,#496,#497,#498,#499,#500,#501,#502,
    #503,#504,#505,#506),.UNSPECIFIED.,.F.,.F.,(9,7,7,9),(1.570796326795
    ,2.356194490192,2.748893571891,3.14159265359),.UNSPECIFIED.);
#484 = CARTESIAN_POINT('',(4.096909271714,0.));
#485 = CARTESIAN_POINT('',(4.027489225806,6.942004590872E-02));
#486 = CARTESIAN_POINT('',(3.958069241237,0.138840134751));
#487 = CARTESIAN_POINT('',(3.887629185494,0.207750106313));
#488 = CARTESIAN_POINT('',(3.815151992316,0.275641724656));
#489 = CARTESIAN_POINT('',(3.739547894811,0.34194613933));
#490 = CARTESIAN_POINT('',(3.65962616729,0.405996516923));
#491 = CARTESIAN_POINT('',(3.573989624256,0.466917545466));
#492 = CARTESIAN_POINT('',(3.435149532438,0.551939390664));
#493 = CARTESIAN_POINT('',(3.387138426248,0.579220140835));
#494 = CARTESIAN_POINT('',(3.337246121973,0.605301926671));
#495 = CARTESIAN_POINT('',(3.285332121348,0.630032113869));
#496 = CARTESIAN_POINT('',(3.23128145701,0.653242056598));
#497 = CARTESIAN_POINT('',(3.175025560698,0.67474957767));
#498 = CARTESIAN_POINT('',(3.116568093007,0.694366405529));
#499 = CARTESIAN_POINT('',(2.99546337633,0.729454730602));
#500 = CARTESIAN_POINT('',(2.932815764915,0.744925971874));
#501 = CARTESIAN_POINT('',(2.868178567382,0.75814412822));
#502 = CARTESIAN_POINT('',(2.801753048874,0.768931919205));
#503 = CARTESIAN_POINT('',(2.733864117577,0.777136199325));
#504 = CARTESIAN_POINT('',(2.664952777734,0.782644685938));
#505 = CARTESIAN_POINT('',(2.595532990828,0.785398163397));
#506 = CARTESIAN_POINT('',(2.526112944919,0.785398163397));
#507 = ( GEOMETRIC_REPRESENTATION_CONTEXT(2) 
PARAMETRIC_REPRESENTATION_CONTEXT() REPRESENTATION_CONTEXT('2D SPACE',''
  ) );
#508 = ADVANCED_FACE('',(#509),#521,.T.);
#509 = FACE_BOUND('',#510,.T.);
#510 = EDGE_LOOP('',(#511,#539,#563,#591));
#511 = ORIENTED_EDGE('',*,*,#512,.F.);
#512 = EDGE_CURVE('',#386,#513,#515,.T.);
#513 = VERTEX_POINT('',#514);
#514 = CARTESIAN_POINT('',(10.,-2.,0.));
#515 = SURFACE_CURVE('',#516,(#520,#532),.PCURVE_S1.);
#516 = LINE('',#517,#518);
#517 = CARTESIAN_POINT('',(0.,-2.,0.));
#518 = VECTOR('',#519,1.);
#519 = DIRECTION('',(1.,0.,0.));
#520 = PCURVE('',#521,#526);
#521 = CYLINDRICAL_SURFACE('',#522,2.);
#522 = AXIS2_PLACEMENT_3D('',#523,#524,#525);
#523 = CARTESIAN_POINT('',(0.,0.,0.));
#524 = DIRECTION('',(1.,0.,0.));
#525 = DIRECTION('',(0.,-1.110223024625E-16,1.));
#526 = DEFINITIONAL_REPRESENTATION('',(#527),#531);
#527 = LINE('',#528,#529);
#528 = CARTESIAN_POINT('',(1.570796326795,0.));
#529 = VECTOR('',#530,1.);
#530 = DIRECTION('',(0.,1.));
#531 = ( GEOMETRIC_REPRESENTATION_CONTEXT(2) 
PARAMETRIC_REPRESENTATION_CONTEXT() REPRESENTATION_CONTEXT('2D SPACE',''
  ) );
#532 = PCURVE('',#450,#533);
#533 = DEFINITIONAL_REPRESENTATION('',(#534),#538);
#534 = LINE('',#535,#536);
#535 = CARTESIAN_POINT('',(0.,0.));
#536 = VECTOR('',#537,1.);
#537 = DIRECTION('',(0.,1.));
#538 = ( GEOMETRIC_REPRESENTATION_CONTEXT(2) 
PARAMETRIC_REPRESENTATION_CONTEXT() REPRESENTATION_CONTEXT('2D SPACE',''
  ) );
#539 = ORIENTED_EDGE('',*,*,#540,.T.);
#540 = EDGE_CURVE('',#386,#541,#543,.T.);
#541 = VERTEX_POINT('',#542);
#542 = CARTESIAN_POINT('',(0.,0.,-2.));
#543 = SURFACE_CURVE('',#544,(#549,#556),.PCURVE_S1.);
#544 = CIRCLE('',#545,2.);
#545 = AXIS2_PLACEMENT_3D('',#546,#547,#548);
#546 = CARTESIAN_POINT('',(0.,0.,0.));
#547 = DIRECTION('',(1.,0.,0.));
#548 = DIRECTION('',(0.,-1.110223024625E-16,1.));
#549 = PCURVE('',#521,#550);
#550 = DEFINITIONAL_REPRESENTATION('',(#551),#555);
#551 = LINE('',#552,#553);
#552 = CARTESIAN_POINT('',(0.,0.));
#553 = VECTOR('',#554,1.);
#554 = DIRECTION('',(1.,0.));
#555 = ( GEOMETRIC_REPRESENTATION_CONTEXT(2) 
PARAMETRIC_REPRESENTATION_CONTEXT() REPRESENTATION_CONTEXT('2D SPACE',''
  ) );
#556 = PCURVE('',#402,#557);
#557 = DEFINITIONAL_REPRESENTATION('',(#558),#562);
#558 = LINE('',#559,#560);
#559 = CARTESIAN_POINT('',(2.526112944919,-2.356194490192));
#560 = VECTOR('',#561,1.);
#561 = DIRECTION('',(-0.,1.));
#562 = ( GEOMETRIC_REPRESENTATION_CONTEXT(2) 
PARAMETRIC_REPRESENTATION_CONTEXT() REPRESENTATION_CONTEXT('2D SPACE',''
  ) );
#563 = ORIENTED_EDGE('',*,*,#564,.T.);
#564 = EDGE_CURVE('',#541,#565,#567,.T.);
#565 = VERTEX_POINT('',#566);
#566 = CARTESIAN_POINT('',(10.,0.,-2.));
#567 = SURFACE_CURVE('',#568,(#572,#579),.PCURVE_S1.);
#568 = LINE('',#569,#570);
#569 = CARTESIAN_POINT('',(0.,0.,-2.));
#570 = VECTOR('',#571,1.);
#571 = DIRECTION('',(1.,0.,0.));
#572 = PCURVE('',#521,#573);
#573 = DEFINITIONAL_REPRESENTATION('',(#574),#578);
#574 = LINE('',#575,#576);
#575 = CARTESIAN_POINT('',(3.14159265359,0.));
#576 = VECTOR('',#577,1.);
#577 = DIRECTION('',(0.,1.));
#578 = ( GEOMETRIC_REPRESENTATION_CONTEXT(2) 
PARAMETRIC_REPRESENTATION_CONTEXT() REPRESENTATION_CONTEXT('2D SPACE',''
  ) );
#579 = PCURVE('',#580,#585);
#580 = PLANE('',#581);
#581 = AXIS2_PLACEMENT_3D('',#582,#583,#584);
#582 = CARTESIAN_POINT('',(0.,0.,-2.));
#583 = DIRECTION('',(0.,0.,1.));
#584 = DIRECTION('',(1.,0.,-0.));
#585 = DEFINITIONAL_REPRESENTATION('',(#586),#590);
#586 = LINE('',#587,#588);
#587 = CARTESIAN_POINT('',(0.,0.));
#588 = VECTOR('',#589,1.);
#589 = DIRECTION('',(1.,0.));
#590 = ( GEOMETRIC_REPRESENTATION_CONTEXT(2) 
PARAMETRIC_REPRESENTATION_CONTEXT() REPRESENTATION_CONTEXT('2D SPACE',''
  ) );
#591 = ORIENTED_EDGE('',*,*,#592,.F.);
#592 = EDGE_CURVE('',#513,#565,#593,.T.);
#593 = SURFACE_CURVE('',#594,(#599,#606),.PCURVE_S1.);
#594 = CIRCLE('',#595,2.);
#595 = AXIS2_PLACEMENT_3D('',#596,#597,#598);
#596 = CARTESIAN_POINT('',(10.,0.,0.));
#597 = DIRECTION('',(1.,0.,0.));
#598 = DIRECTION('',(0.,-1.110223024625E-16,1.));
#599 = PCURVE('',#521,#600);
#600 = DEFINITIONAL_REPRESENTATION('',(#601),#605);
#601 = LINE('',#602,#603);
#602 = CARTESIAN_POINT('',(0.,10.));
#603 = VECTOR('',#604,1.);
#604 = DIRECTION('',(1.,0.));
#605 = ( GEOMETRIC_REPRESENTATION_CONTEXT(2) 
PARAMETRIC_REPRESENTATION_CONTEXT() REPRESENTATION_CONTEXT('2D SPACE',''
  ) );
#606 = PCURVE('',#607,#612);
#607 = SPHERICAL_SURFACE('',#608,2.);
#608 = AXIS2_PLACEMENT_3D('',#609,#610,#611);
#609 = CARTESIAN_POINT('',(10.,0.,0.));
#610 = DIRECTION('',(0.,-0.707106781187,0.707106781187));
#611 = DIRECTION('',(-0.57735026919,0.57735026919,0.57735026919));
#612 = DEFINITIONAL_REPRESENTATION('',(#613),#617);
#613 = LINE('',#614,#615);
#614 = CARTESIAN_POINT('',(2.526112944919,2.356194490192));
#615 = VECTOR('',#616,1.);
#616 = DIRECTION('',(0.,-1.));
#617 = ( GEOMETRIC_REPRESENTATION_CONTEXT(2) 
PARAMETRIC_REPRESENTATION_CONTEXT() REPRESENTATION_CONTEXT('2D SPACE',''
  ) );
#618 = ADVANCED_FACE('',(#619),#450,.F.);
#619 = FACE_BOUND('',#620,.F.);
#620 = EDGE_LOOP('',(#621,#622,#623,#646));
#621 = ORIENTED_EDGE('',*,*,#512,.F.);
#622 = ORIENTED_EDGE('',*,*,#434,.T.);
#623 = ORIENTED_EDGE('',*,*,#624,.T.);
#624 = EDGE_CURVE('',#435,#625,#627,.T.);
#625 = VERTEX_POINT('',#626);
#626 = CARTESIAN_POINT('',(10.,-2.,10.));
#627 = SURFACE_CURVE('',#628,(#632,#639),.PCURVE_S1.);
#628 = LINE('',#629,#630);
#629 = CARTESIAN_POINT('',(0.,-2.,10.));
#630 = VECTOR('',#631,1.);
#631 = DIRECTION('',(1.,0.,0.));
#632 = PCURVE('',#450,#633);
#633 = DEFINITIONAL_REPRESENTATION('',(#634),#638);
#634 = LINE('',#635,#636);
#635 = CARTESIAN_POINT('',(10.,0.));
#636 = VECTOR('',#637,1.);
#637 = DIRECTION('',(0.,1.));
#638 = ( GEOMETRIC_REPRESENTATION_CONTEXT(2) 
PARAMETRIC_REPRESENTATION_CONTEXT() REPRESENTATION_CONTEXT('2D SPACE',''
  ) );
#639 = PCURVE('',#227,#640);
#640 = DEFINITIONAL_REPRESENTATION('',(#641),#645);
#641 = LINE('',#642,#643);
#642 = CARTESIAN_POINT('',(1.570796326795,0.));
#643 = VECTOR('',#644,1.);
#644 = DIRECTION('',(0.,1.));
#645 = ( GEOMETRIC_REPRESENTATION_CONTEXT(2) 
PARAMETRIC_REPRESENTATION_CONTEXT() REPRESENTATION_CONTEXT('2D SPACE',''
  ) );
#646 = ORIENTED_EDGE('',*,*,#647,.F.);
#647 = EDGE_CURVE('',#513,#625,#648,.T.);
#648 = SURFACE_CURVE('',#649,(#653,#660),.PCURVE_S1.);
#649 = LINE('',#650,#651);
#650 = CARTESIAN_POINT('',(10.,-2.,0.));
#651 = VECTOR('',#652,1.);
#652 = DIRECTION('',(0.,0.,1.));
#653 = PCURVE('',#450,#654);
#654 = DEFINITIONAL_REPRESENTATION('',(#655),#659);
#655 = LINE('',#656,#657);
#656 = CARTESIAN_POINT('',(0.,10.));
#657 = VECTOR('',#658,1.);
#658 = DIRECTION('',(1.,0.));
#659 = ( GEOMETRIC_REPRESENTATION_CONTEXT(2) 
PARAMETRIC_REPRESENTATION_CONTEXT() REPRESENTATION_CONTEXT('2D SPACE',''
  ) );
#660 = PCURVE('',#661,#666);
#661 = CYLINDRICAL_SURFACE('',#662,2.);
#662 = AXIS2_PLACEMENT_3D('',#663,#664,#665);
#663 = CARTESIAN_POINT('',(10.,0.,0.));
#664 = DIRECTION('',(0.,0.,1.));
#665 = DIRECTION('',(1.110223024625E-16,1.,0.));
#666 = DEFINITIONAL_REPRESENTATION('',(#667),#671);
#667 = LINE('',#668,#669);
#668 = CARTESIAN_POINT('',(3.14159265359,0.));
#669 = VECTOR('',#670,1.);
#670 = DIRECTION('',(0.,1.));
#671 = ( GEOMETRIC_REPRESENTATION_CONTEXT(2) 
PARAMETRIC_REPRESENTATION_CONTEXT() REPRESENTATION_CONTEXT('2D SPACE',''
  ) );
#672 = ADVANCED_FACE('',(#673),#580,.F.);
#673 = FACE_BOUND('',#674,.F.);
#674 = EDGE_LOOP('',(#675,#698,#699,#727));
#675 = ORIENTED_EDGE('',*,*,#676,.F.);
#676 = EDGE_CURVE('',#541,#677,#679,.T.);
#677 = VERTEX_POINT('',#678);
#678 = CARTESIAN_POINT('',(0.,10.,-2.));
#679 = SURFACE_CURVE('',#680,(#684,#691),.PCURVE_S1.);
#680 = LINE('',#681,#682);
#681 = CARTESIAN_POINT('',(0.,0.,-2.));
#682 = VECTOR('',#683,1.);
#683 = DIRECTION('',(0.,1.,0.));
#684 = PCURVE('',#580,#685);
#685 = DEFINITIONAL_REPRESENTATION('',(#686),#690);
#686 = LINE('',#687,#688);
#687 = CARTESIAN_POINT('',(0.,0.));
#688 = VECTOR('',#689,1.);
#689 = DIRECTION('',(0.,1.));
#690 = ( GEOMETRIC_REPRESENTATION_CONTEXT(2) 
PARAMETRIC_REPRESENTATION_CONTEXT() REPRESENTATION_CONTEXT('2D SPACE',''
  ) );
#691 = PCURVE('',#320,#692);
#692 = DEFINITIONAL_REPRESENTATION('',(#693),#697);
#693 = LINE('',#694,#695);
#694 = CARTESIAN_POINT('',(3.14159265359,0.));
#695 = VECTOR('',#696,1.);
#696 = DIRECTION('',(0.,1.));
#697 = ( GEOMETRIC_REPRESENTATION_CONTEXT(2) 
PARAMETRIC_REPRESENTATION_CONTEXT() REPRESENTATION_CONTEXT('2D SPACE',''
  ) );
#698 = ORIENTED_EDGE('',*,*,#564,.T.);
#699 = ORIENTED_EDGE('',*,*,#700,.T.);
#700 = EDGE_CURVE('',#565,#701,#703,.T.);
#701 = VERTEX_POINT('',#702);
#702 = CARTESIAN_POINT('',(10.,10.,-2.));
#703 = SURFACE_CURVE('',#704,(#708,#715),.PCURVE_S1.);
#704 = LINE('',#705,#706);
#705 = CARTESIAN_POINT('',(10.,0.,-2.));
#706 = VECTOR('',#707,1.);
#707 = DIRECTION('',(0.,1.,0.));
#708 = PCURVE('',#580,#709);
#709 = DEFINITIONAL_REPRESENTATION('',(#710),#714);
#710 = LINE('',#711,#712);
#711 = CARTESIAN_POINT('',(10.,0.));
#712 = VECTOR('',#713,1.);
#713 = DIRECTION('',(0.,1.));
#714 = ( GEOMETRIC_REPRESENTATION_CONTEXT(2) 
PARAMETRIC_REPRESENTATION_CONTEXT() REPRESENTATION_CONTEXT('2D SPACE',''
  ) );
#715 = PCURVE('',#716,#721);
#716 = CYLINDRICAL_SURFACE('',#717,2.);
#717 = AXIS2_PLACEMENT_3D('',#718,#719,#720);
#718 = CARTESIAN_POINT('',(10.,0.,0.));
#719 = DIRECTION('',(0.,1.,0.));
#720 = DIRECTION('',(1.110223024625E-16,0.,1.));
#721 = DEFINITIONAL_REPRESENTATION('',(#722),#726);
#722 = LINE('',#723,#724);
#723 = CARTESIAN_POINT('',(3.14159265359,0.));
#724 = VECTOR('',#725,1.);
#725 = DIRECTION('',(0.,1.));
#726 = ( GEOMETRIC_REPRESENTATION_CONTEXT(2) 
PARAMETRIC_REPRESENTATION_CONTEXT() REPRESENTATION_CONTEXT('2D SPACE',''
  ) );
#727 = ORIENTED_EDGE('',*,*,#728,.F.);
#728 = EDGE_CURVE('',#677,#701,#729,.T.);
#729 = SURFACE_CURVE('',#730,(#734,#741),.PCURVE_S1.);
#730 = LINE('',#731,#732);
#731 = CARTESIAN_POINT('',(0.,10.,-2.));
#732 = VECTOR('',#733,1.);
#733 = DIRECTION('',(1.,0.,0.));
#734 = PCURVE('',#580,#735);
#735 = DEFINITIONAL_REPRESENTATION('',(#736),#740);
#736 = LINE('',#737,#738);
#737 = CARTESIAN_POINT('',(0.,10.));
#738 = VECTOR('',#739,1.);
#739 = DIRECTION('',(1.,0.));
#740 = ( GEOMETRIC_REPRESENTATION_CONTEXT(2) 
PARAMETRIC_REPRESENTATION_CONTEXT() REPRESENTATION_CONTEXT('2D SPACE',''
  ) );
#741 = PCURVE('',#742,#747);
#742 = CYLINDRICAL_SURFACE('',#743,2.);
#743 = AXIS2_PLACEMENT_3D('',#744,#745,#746);
#744 = CARTESIAN_POINT('',(0.,10.,0.));
#745 = DIRECTION('',(1.,0.,0.));
#746 = DIRECTION('',(0.,1.110223024625E-16,1.));
#747 = DEFINITIONAL_REPRESENTATION('',(#748),#752);
#748 = LINE('',#749,#750);
#749 = CARTESIAN_POINT('',(3.14159265359,0.));
#750 = VECTOR('',#751,1.);
#751 = DIRECTION('',(0.,1.));
#752 = ( GEOMETRIC_REPRESENTATION_CONTEXT(2) 
PARAMETRIC_REPRESENTATION_CONTEXT() REPRESENTATION_CONTEXT('2D SPACE',''
  ) );
#753 = ADVANCED_FACE('',(#754),#227,.F.);
#754 = FACE_BOUND('',#755,.F.);
#755 = EDGE_LOOP('',(#756,#757,#779,#780));
#756 = ORIENTED_EDGE('',*,*,#624,.F.);
#757 = ORIENTED_EDGE('',*,*,#758,.T.);
#758 = EDGE_CURVE('',#435,#184,#759,.T.);
#759 = SURFACE_CURVE('',#760,(#765,#772),.PCURVE_S1.);
#760 = CIRCLE('',#761,2.);
#761 = AXIS2_PLACEMENT_3D('',#762,#763,#764);
#762 = CARTESIAN_POINT('',(0.,0.,10.));
#763 = DIRECTION('',(-1.,-0.,0.));
#764 = DIRECTION('',(0.,-1.110223024625E-16,-1.));
#765 = PCURVE('',#227,#766);
#766 = DEFINITIONAL_REPRESENTATION('',(#767),#771);
#767 = LINE('',#768,#769);
#768 = CARTESIAN_POINT('',(0.,0.));
#769 = VECTOR('',#770,1.);
#770 = DIRECTION('',(1.,0.));
#771 = ( GEOMETRIC_REPRESENTATION_CONTEXT(2) 
PARAMETRIC_REPRESENTATION_CONTEXT() REPRESENTATION_CONTEXT('2D SPACE',''
  ) );
#772 = PCURVE('',#477,#773);
#773 = DEFINITIONAL_REPRESENTATION('',(#774),#778);
#774 = LINE('',#775,#776);
#775 = CARTESIAN_POINT('',(2.526112944919,2.356194490192));
#776 = VECTOR('',#777,1.);
#777 = DIRECTION('',(0.,-1.));
#778 = ( GEOMETRIC_REPRESENTATION_CONTEXT(2) 
PARAMETRIC_REPRESENTATION_CONTEXT() REPRESENTATION_CONTEXT('2D SPACE',''
  ) );
#779 = ORIENTED_EDGE('',*,*,#213,.T.);
#780 = ORIENTED_EDGE('',*,*,#781,.F.);
#781 = EDGE_CURVE('',#625,#57,#782,.T.);
#782 = SURFACE_CURVE('',#783,(#788,#795),.PCURVE_S1.);
#783 = CIRCLE('',#784,2.);
#784 = AXIS2_PLACEMENT_3D('',#785,#786,#787);
#785 = CARTESIAN_POINT('',(10.,0.,10.));
#786 = DIRECTION('',(-1.,-0.,0.));
#787 = DIRECTION('',(0.,-1.110223024625E-16,-1.));
#788 = PCURVE('',#227,#789);
#789 = DEFINITIONAL_REPRESENTATION('',(#790),#794);
#790 = LINE('',#791,#792);
#791 = CARTESIAN_POINT('',(0.,10.));
#792 = VECTOR('',#793,1.);
#793 = DIRECTION('',(1.,0.));
#794 = ( GEOMETRIC_REPRESENTATION_CONTEXT(2) 
PARAMETRIC_REPRESENTATION_CONTEXT() REPRESENTATION_CONTEXT('2D SPACE',''
  ) );
#795 = PCURVE('',#73,#796);
#796 = DEFINITIONAL_REPRESENTATION('',(#797),#801);
#797 = LINE('',#798,#799);
#798 = CARTESIAN_POINT('',(2.526112944919,-2.356194490192));
#799 = VECTOR('',#800,1.);
#800 = DIRECTION('',(-0.,1.));
#801 = ( GEOMETRIC_REPRESENTATION_CONTEXT(2) 
PARAMETRIC_REPRESENTATION_CONTEXT() REPRESENTATION_CONTEXT('2D SPACE',''
  ) );
#802 = ADVANCED_FACE('',(#803),#477,.T.);
#803 = FACE_BOUND('',#804,.T.);
#804 = EDGE_LOOP('',(#805,#806,#807));
#805 = ORIENTED_EDGE('',*,*,#462,.T.);
#806 = ORIENTED_EDGE('',*,*,#758,.T.);
#807 = ORIENTED_EDGE('',*,*,#808,.F.);
#808 = EDGE_CURVE('',#272,#184,#809,.T.);
#809 = SURFACE_CURVE('',#810,(#815,#842),.PCURVE_S1.);
#810 = CIRCLE('',#811,2.);
#811 = AXIS2_PLACEMENT_3D('',#812,#813,#814);
#812 = CARTESIAN_POINT('',(0.,0.,10.));
#813 = DIRECTION('',(0.,1.,0.));
#814 = DIRECTION('',(-1.110223024625E-16,0.,-1.));
#815 = PCURVE('',#477,#816);
#816 = DEFINITIONAL_REPRESENTATION('',(#817),#841);
#817 = B_SPLINE_CURVE_WITH_KNOTS('',8,(#818,#819,#820,#821,#822,#823,
    #824,#825,#826,#827,#828,#829,#830,#831,#832,#833,#834,#835,#836,
    #837,#838,#839,#840),.UNSPECIFIED.,.F.,.F.,(9,7,7,9),(1.570796326795
    ,2.356194490192,2.748893571891,3.14159265359),.UNSPECIFIED.);
#818 = CARTESIAN_POINT('',(4.096909271714,0.));
#819 = CARTESIAN_POINT('',(4.027489225806,-6.942004590872E-02));
#820 = CARTESIAN_POINT('',(3.958069241235,-0.138840134751));
#821 = CARTESIAN_POINT('',(3.887629185501,-0.207750106313));
#822 = CARTESIAN_POINT('',(3.815151992301,-0.275641724654));
#823 = CARTESIAN_POINT('',(3.739547894818,-0.34194613933));
#824 = CARTESIAN_POINT('',(3.659626167288,-0.405996516923));
#825 = CARTESIAN_POINT('',(3.573989624256,-0.466917545466));
#826 = CARTESIAN_POINT('',(3.435149532438,-0.551939390664));
#827 = CARTESIAN_POINT('',(3.387138426248,-0.579220140835));
#828 = CARTESIAN_POINT('',(3.337246121973,-0.605301926671));
#829 = CARTESIAN_POINT('',(3.285332121348,-0.630032113869));
#830 = CARTESIAN_POINT('',(3.23128145701,-0.653242056598));
#831 = CARTESIAN_POINT('',(3.175025560698,-0.67474957767));
#832 = CARTESIAN_POINT('',(3.116568093007,-0.694366405529));
#833 = CARTESIAN_POINT('',(2.99546337633,-0.729454730602));
#834 = CARTESIAN_POINT('',(2.932815764915,-0.744925971874));
#835 = CARTESIAN_POINT('',(2.868178567382,-0.75814412822));
#836 = CARTESIAN_POINT('',(2.801753048874,-0.768931919205));
#837 = CARTESIAN_POINT('',(2.733864117577,-0.777136199325));
#838 = CARTESIAN_POINT('',(2.664952777734,-0.782644685938));
#839 = CARTESIAN_POINT('',(2.595532990828,-0.785398163397));
#840 = CARTESIAN_POINT('',(2.526112944919,-0.785398163397));
#841 = ( GEOMETRIC_REPRESENTATION_CONTEXT(2) 
PARAMETRIC_REPRESENTATION_CONTEXT() REPRESENTATION_CONTEXT('2D SPACE',''
  ) );
#842 = PCURVE('',#201,#843);
#843 = DEFINITIONAL_REPRESENTATION('',(#844),#848);
#844 = LINE('',#845,#846);
#845 = CARTESIAN_POINT('',(0.,0.));
#846 = VECTOR('',#847,1.);
#847 = DIRECTION('',(1.,0.));
#848 = ( GEOMETRIC_REPRESENTATION_CONTEXT(2) 
PARAMETRIC_REPRESENTATION_CONTEXT() REPRESENTATION_CONTEXT('2D SPACE',''
  ) );
#849 = ADVANCED_FACE('',(#850),#402,.T.);
#850 = FACE_BOUND('',#851,.T.);
#851 = EDGE_LOOP('',(#852,#853,#895));
#852 = ORIENTED_EDGE('',*,*,#385,.F.);
#853 = ORIENTED_EDGE('',*,*,#854,.T.);
#854 = EDGE_CURVE('',#270,#541,#855,.T.);
#855 = SURFACE_CURVE('',#856,(#861,#888),.PCURVE_S1.);
#856 = CIRCLE('',#857,2.);
#857 = AXIS2_PLACEMENT_3D('',#858,#859,#860);
#858 = CARTESIAN_POINT('',(0.,0.,0.));
#859 = DIRECTION('',(-0.,-1.,0.));
#860 = DIRECTION('',(-1.110223024625E-16,0.,1.));
#861 = PCURVE('',#402,#862);
#862 = DEFINITIONAL_REPRESENTATION('',(#863),#887);
#863 = B_SPLINE_CURVE_WITH_KNOTS('',8,(#864,#865,#866,#867,#868,#869,
    #870,#871,#872,#873,#874,#875,#876,#877,#878,#879,#880,#881,#882,
    #883,#884,#885,#886),.UNSPECIFIED.,.F.,.F.,(9,7,7,9),(1.570796326795
    ,2.356194490192,2.748893571891,3.14159265359),.UNSPECIFIED.);
#864 = CARTESIAN_POINT('',(4.096909271714,3.520682012241E-17));
#865 = CARTESIAN_POINT('',(4.027489225806,6.942004590872E-02));
#866 = CARTESIAN_POINT('',(3.958069241236,0.138840134751));
#867 = CARTESIAN_POINT('',(3.887629185501,0.207750106313));
#868 = CARTESIAN_POINT('',(3.815151992305,0.275641724656));
#869 = CARTESIAN_POINT('',(3.739547894816,0.34194613933));
#870 = CARTESIAN_POINT('',(3.659626167289,0.405996516923));
#871 = CARTESIAN_POINT('',(3.573989624256,0.466917545466));
#872 = CARTESIAN_POINT('',(3.435149532438,0.551939390664));
#873 = CARTESIAN_POINT('',(3.387138426248,0.579220140835));
#874 = CARTESIAN_POINT('',(3.337246121973,0.605301926671));
#875 = CARTESIAN_POINT('',(3.285332121348,0.630032113869));
#876 = CARTESIAN_POINT('',(3.23128145701,0.653242056598));
#877 = CARTESIAN_POINT('',(3.175025560698,0.67474957767));
#878 = CARTESIAN_POINT('',(3.116568093007,0.694366405529));
#879 = CARTESIAN_POINT('',(2.99546337633,0.729454730602));
#880 = CARTESIAN_POINT('',(2.932815764915,0.744925971874));
#881 = CARTESIAN_POINT('',(2.868178567382,0.75814412822));
#882 = CARTESIAN_POINT('',(2.801753048874,0.768931919205));
#883 = CARTESIAN_POINT('',(2.733864117577,0.777136199325));
#884 = CARTESIAN_POINT('',(2.664952777734,0.782644685938));
#885 = CARTESIAN_POINT('',(2.595532990828,0.785398163397));
#886 = CARTESIAN_POINT('',(2.526112944919,0.785398163397));
#887 = ( GEOMETRIC_REPRESENTATION_CONTEXT(2) 
PARAMETRIC_REPRESENTATION_CONTEXT() REPRESENTATION_CONTEXT('2D SPACE',''
  ) );
#888 = PCURVE('',#320,#889);
#889 = DEFINITIONAL_REPRESENTATION('',(#890),#894);
#890 = LINE('',#891,#892);
#891 = CARTESIAN_POINT('',(0.,0.));
#892 = VECTOR('',#893,1.);
#893 = DIRECTION('',(1.,0.));
#894 = ( GEOMETRIC_REPRESENTATION_CONTEXT(2) 
PARAMETRIC_REPRESENTATION_CONTEXT() REPRESENTATION_CONTEXT('2D SPACE',''
  ) );
#895 = ORIENTED_EDGE('',*,*,#540,.F.);
#896 = ADVANCED_FACE('',(#897),#607,.T.);
#897 = FACE_BOUND('',#898,.T.);
#898 = EDGE_LOOP('',(#899,#943,#944));
#899 = ORIENTED_EDGE('',*,*,#900,.T.);
#900 = EDGE_CURVE('',#901,#513,#903,.T.);
#901 = VERTEX_POINT('',#902);
#902 = CARTESIAN_POINT('',(12.,0.,0.));
#903 = SURFACE_CURVE('',#904,(#909,#936),.PCURVE_S1.);
#904 = CIRCLE('',#905,2.);
#905 = AXIS2_PLACEMENT_3D('',#906,#907,#908);
#906 = CARTESIAN_POINT('',(10.,0.,0.));
#907 = DIRECTION('',(0.,0.,-1.));
#908 = DIRECTION('',(1.110223024625E-16,1.,0.));
#909 = PCURVE('',#607,#910);
#910 = DEFINITIONAL_REPRESENTATION('',(#911),#935);
#911 = B_SPLINE_CURVE_WITH_KNOTS('',8,(#912,#913,#914,#915,#916,#917,
    #918,#919,#920,#921,#922,#923,#924,#925,#926,#927,#928,#929,#930,
    #931,#932,#933,#934),.UNSPECIFIED.,.F.,.F.,(9,7,7,9),(1.570796326795
    ,2.356194490192,2.748893571891,3.14159265359),.UNSPECIFIED.);
#912 = CARTESIAN_POINT('',(4.096909271714,3.520682012241E-17));
#913 = CARTESIAN_POINT('',(4.027489225806,6.942004590872E-02));
#914 = CARTESIAN_POINT('',(3.958069241236,0.138840134751));
#915 = CARTESIAN_POINT('',(3.887629185501,0.207750106313));
#916 = CARTESIAN_POINT('',(3.815151992305,0.275641724654));
#917 = CARTESIAN_POINT('',(3.739547894816,0.34194613933));
#918 = CARTESIAN_POINT('',(3.659626167289,0.405996516923));
#919 = CARTESIAN_POINT('',(3.573989624256,0.466917545466));
#920 = CARTESIAN_POINT('',(3.435149532438,0.551939390664));
#921 = CARTESIAN_POINT('',(3.387138426248,0.579220140835));
#922 = CARTESIAN_POINT('',(3.337246121973,0.605301926671));
#923 = CARTESIAN_POINT('',(3.285332121348,0.630032113869));
#924 = CARTESIAN_POINT('',(3.23128145701,0.653242056598));
#925 = CARTESIAN_POINT('',(3.175025560699,0.67474957767));
#926 = CARTESIAN_POINT('',(3.116568093007,0.694366405529));
#927 = CARTESIAN_POINT('',(2.99546337633,0.729454730602));
#928 = CARTESIAN_POINT('',(2.932815764915,0.744925971874));
#929 = CARTESIAN_POINT('',(2.868178567382,0.75814412822));
#930 = CARTESIAN_POINT('',(2.801753048874,0.768931919205));
#931 = CARTESIAN_POINT('',(2.733864117577,0.777136199325));
#932 = CARTESIAN_POINT('',(2.664952777734,0.782644685938));
#933 = CARTESIAN_POINT('',(2.595532990828,0.785398163397));
#934 = CARTESIAN_POINT('',(2.526112944919,0.785398163397));
#935 = ( GEOMETRIC_REPRESENTATION_CONTEXT(2) 
PARAMETRIC_REPRESENTATION_CONTEXT() REPRESENTATION_CONTEXT('2D SPACE',''
  ) );
#936 = PCURVE('',#661,#937);
#937 = DEFINITIONAL_REPRESENTATION('',(#938),#942);
#938 = LINE('',#939,#940);
#939 = CARTESIAN_POINT('',(0.,0.));
#940 = VECTOR('',#941,1.);
#941 = DIRECTION('',(1.,0.));
#942 = ( GEOMETRIC_REPRESENTATION_CONTEXT(2) 
PARAMETRIC_REPRESENTATION_CONTEXT() REPRESENTATION_CONTEXT('2D SPACE',''
  ) );
#943 = ORIENTED_EDGE('',*,*,#592,.T.);
#944 = ORIENTED_EDGE('',*,*,#945,.F.);
#945 = EDGE_CURVE('',#901,#565,#946,.T.);
#946 = SURFACE_CURVE('',#947,(#952,#979),.PCURVE_S1.);
#947 = CIRCLE('',#948,2.);
#948 = AXIS2_PLACEMENT_3D('',#949,#950,#951);
#949 = CARTESIAN_POINT('',(10.,0.,0.));
#950 = DIRECTION('',(-0.,1.,0.));
#951 = DIRECTION('',(1.110223024625E-16,0.,1.));
#952 = PCURVE('',#607,#953);
#953 = DEFINITIONAL_REPRESENTATION('',(#954),#978);
#954 = B_SPLINE_CURVE_WITH_KNOTS('',8,(#955,#956,#957,#958,#959,#960,
    #961,#962,#963,#964,#965,#966,#967,#968,#969,#970,#971,#972,#973,
    #974,#975,#976,#977),.UNSPECIFIED.,.F.,.F.,(9,7,7,9),(1.570796326795
    ,2.356194490192,2.748893571891,3.14159265359),.UNSPECIFIED.);
#955 = CARTESIAN_POINT('',(4.096909271714,-3.520682012241E-17));
#956 = CARTESIAN_POINT('',(4.027489225806,-6.942004590872E-02));
#957 = CARTESIAN_POINT('',(3.958069241236,-0.138840134751));
#958 = CARTESIAN_POINT('',(3.887629185501,-0.207750106313));
#959 = CARTESIAN_POINT('',(3.815151992305,-0.275641724654));
#960 = CARTESIAN_POINT('',(3.739547894816,-0.34194613933));
#961 = CARTESIAN_POINT('',(3.659626167289,-0.405996516923));
#962 = CARTESIAN_POINT('',(3.573989624256,-0.466917545466));
#963 = CARTESIAN_POINT('',(3.435149532438,-0.551939390664));
#964 = CARTESIAN_POINT('',(3.387138426248,-0.579220140835));
#965 = CARTESIAN_POINT('',(3.337246121973,-0.605301926671));
#966 = CARTESIAN_POINT('',(3.285332121348,-0.630032113869));
#967 = CARTESIAN_POINT('',(3.23128145701,-0.653242056598));
#968 = CARTESIAN_POINT('',(3.175025560699,-0.67474957767));
#969 = CARTESIAN_POINT('',(3.116568093007,-0.694366405529));
#970 = CARTESIAN_POINT('',(2.99546337633,-0.729454730602));
#971 = CARTESIAN_POINT('',(2.932815764915,-0.744925971874));
#972 = CARTESIAN_POINT('',(2.868178567382,-0.75814412822));
#973 = CARTESIAN_POINT('',(2.801753048874,-0.768931919205));
#974 = CARTESIAN_POINT('',(2.733864117577,-0.777136199325));
#975 = CARTESIAN_POINT('',(2.664952777734,-0.782644685938));
#976 = CARTESIAN_POINT('',(2.595532990828,-0.785398163397));
#977 = CARTESIAN_POINT('',(2.526112944919,-0.785398163397));
#978 = ( GEOMETRIC_REPRESENTATION_CONTEXT(2) 
PARAMETRIC_REPRESENTATION_CONTEXT() REPRESENTATION_CONTEXT('2D SPACE',''
  ) );
#979 = PCURVE('',#716,#980);
#980 = DEFINITIONAL_REPRESENTATION('',(#981),#985);
#981 = LINE('',#982,#983);
#982 = CARTESIAN_POINT('',(0.,0.));
#983 = VECTOR('',#984,1.);
#984 = DIRECTION('',(1.,0.));
#985 = ( GEOMETRIC_REPRESENTATION_CONTEXT(2) 
PARAMETRIC_REPRESENTATION_CONTEXT() REPRESENTATION_CONTEXT('2D SPACE',''
  ) );
#986 = ADVANCED_FACE('',(#987),#742,.F.);
#987 = FACE_BOUND('',#988,.F.);
#988 = EDGE_LOOP('',(#989,#1019,#1046,#1047));
#989 = ORIENTED_EDGE('',*,*,#990,.F.);
#990 = EDGE_CURVE('',#991,#993,#995,.T.);
#991 = VERTEX_POINT('',#992);
#992 = CARTESIAN_POINT('',(0.,12.,0.));
#993 = VERTEX_POINT('',#994);
#994 = CARTESIAN_POINT('',(10.,12.,0.));
#995 = SURFACE_CURVE('',#996,(#1000,#1007),.PCURVE_S1.);
#996 = LINE('',#997,#998);
#997 = CARTESIAN_POINT('',(0.,12.,0.));
#998 = VECTOR('',#999,1.);
#999 = DIRECTION('',(1.,0.,0.));
#1000 = PCURVE('',#742,#1001);
#1001 = DEFINITIONAL_REPRESENTATION('',(#1002),#1006);
#1002 = LINE('',#1003,#1004);
#1003 = CARTESIAN_POINT('',(1.570796326795,0.));
#1004 = VECTOR('',#1005,1.);
#1005 = DIRECTION('',(0.,1.));
#1006 = ( GEOMETRIC_REPRESENTATION_CONTEXT(2) 
PARAMETRIC_REPRESENTATION_CONTEXT() REPRESENTATION_CONTEXT('2D SPACE',''
  ) );
#1007 = PCURVE('',#1008,#1013);
#1008 = PLANE('',#1009);
#1009 = AXIS2_PLACEMENT_3D('',#1010,#1011,#1012);
#1010 = CARTESIAN_POINT('',(0.,12.,0.));
#1011 = DIRECTION('',(-0.,1.,0.));
#1012 = DIRECTION('',(0.,0.,1.));
#1013 = DEFINITIONAL_REPRESENTATION('',(#1014),#1018);
#1014 = LINE('',#1015,#1016);
#1015 = CARTESIAN_POINT('',(0.,0.));
#1016 = VECTOR('',#1017,1.);
#1017 = DIRECTION('',(0.,1.));
#1018 = ( GEOMETRIC_REPRESENTATION_CONTEXT(2) 
PARAMETRIC_REPRESENTATION_CONTEXT() REPRESENTATION_CONTEXT('2D SPACE',''
  ) );
#1019 = ORIENTED_EDGE('',*,*,#1020,.T.);
#1020 = EDGE_CURVE('',#991,#677,#1021,.T.);
#1021 = SURFACE_CURVE('',#1022,(#1027,#1034),.PCURVE_S1.);
#1022 = CIRCLE('',#1023,2.);
#1023 = AXIS2_PLACEMENT_3D('',#1024,#1025,#1026);
#1024 = CARTESIAN_POINT('',(0.,10.,0.));
#1025 = DIRECTION('',(-1.,0.,0.));
#1026 = DIRECTION('',(0.,1.110223024625E-16,1.));
#1027 = PCURVE('',#742,#1028);
#1028 = DEFINITIONAL_REPRESENTATION('',(#1029),#1033);
#1029 = LINE('',#1030,#1031);
#1030 = CARTESIAN_POINT('',(0.,0.));
#1031 = VECTOR('',#1032,1.);
#1032 = DIRECTION('',(1.,0.));
#1033 = ( GEOMETRIC_REPRESENTATION_CONTEXT(2) 
PARAMETRIC_REPRESENTATION_CONTEXT() REPRESENTATION_CONTEXT('2D SPACE',''
  ) );
#1034 = PCURVE('',#1035,#1040);
#1035 = SPHERICAL_SURFACE('',#1036,2.);
#1036 = AXIS2_PLACEMENT_3D('',#1037,#1038,#1039);
#1037 = CARTESIAN_POINT('',(0.,10.,0.));
#1038 = DIRECTION('',(0.,0.707106781187,0.707106781187));
#1039 = DIRECTION('',(0.57735026919,-0.57735026919,0.57735026919));
#1040 = DEFINITIONAL_REPRESENTATION('',(#1041),#1045);
#1041 = LINE('',#1042,#1043);
#1042 = CARTESIAN_POINT('',(2.526112944919,2.356194490192));
#1043 = VECTOR('',#1044,1.);
#1044 = DIRECTION('',(0.,-1.));
#1045 = ( GEOMETRIC_REPRESENTATION_CONTEXT(2) 
PARAMETRIC_REPRESENTATION_CONTEXT() REPRESENTATION_CONTEXT('2D SPACE',''
  ) );
#1046 = ORIENTED_EDGE('',*,*,#728,.T.);
#1047 = ORIENTED_EDGE('',*,*,#1048,.F.);
#1048 = EDGE_CURVE('',#993,#701,#1049,.T.);
#1049 = SURFACE_CURVE('',#1050,(#1055,#1062),.PCURVE_S1.);
#1050 = CIRCLE('',#1051,2.);
#1051 = AXIS2_PLACEMENT_3D('',#1052,#1053,#1054);
#1052 = CARTESIAN_POINT('',(10.,10.,0.));
#1053 = DIRECTION('',(-1.,0.,0.));
#1054 = DIRECTION('',(0.,1.110223024625E-16,1.));
#1055 = PCURVE('',#742,#1056);
#1056 = DEFINITIONAL_REPRESENTATION('',(#1057),#1061);
#1057 = LINE('',#1058,#1059);
#1058 = CARTESIAN_POINT('',(0.,10.));
#1059 = VECTOR('',#1060,1.);
#1060 = DIRECTION('',(1.,0.));
#1061 = ( GEOMETRIC_REPRESENTATION_CONTEXT(2) 
PARAMETRIC_REPRESENTATION_CONTEXT() REPRESENTATION_CONTEXT('2D SPACE',''
  ) );
#1062 = PCURVE('',#1063,#1068);
#1063 = SPHERICAL_SURFACE('',#1064,2.);
#1064 = AXIS2_PLACEMENT_3D('',#1065,#1066,#1067);
#1065 = CARTESIAN_POINT('',(10.,10.,0.));
#1066 = DIRECTION('',(0.,-0.707106781187,-0.707106781187));
#1067 = DIRECTION('',(-0.57735026919,-0.57735026919,0.57735026919));
#1068 = DEFINITIONAL_REPRESENTATION('',(#1069),#1073);
#1069 = LINE('',#1070,#1071);
#1070 = CARTESIAN_POINT('',(2.526112944919,-2.356194490192));
#1071 = VECTOR('',#1072,1.);
#1072 = DIRECTION('',(-0.,1.));
#1073 = ( GEOMETRIC_REPRESENTATION_CONTEXT(2) 
PARAMETRIC_REPRESENTATION_CONTEXT() REPRESENTATION_CONTEXT('2D SPACE',''
  ) );
#1074 = ADVANCED_FACE('',(#1075),#1035,.T.);
#1075 = FACE_BOUND('',#1076,.T.);
#1076 = EDGE_LOOP('',(#1077,#1119,#1120));
#1077 = ORIENTED_EDGE('',*,*,#1078,.T.);
#1078 = EDGE_CURVE('',#305,#991,#1079,.T.);
#1079 = SURFACE_CURVE('',#1080,(#1085,#1112),.PCURVE_S1.);
#1080 = CIRCLE('',#1081,2.);
#1081 = AXIS2_PLACEMENT_3D('',#1082,#1083,#1084);
#1082 = CARTESIAN_POINT('',(0.,10.,0.));
#1083 = DIRECTION('',(-0.,0.,-1.));
#1084 = DIRECTION('',(-1.110223024625E-16,-1.,0.));
#1085 = PCURVE('',#1035,#1086);
#1086 = DEFINITIONAL_REPRESENTATION('',(#1087),#1111);
#1087 = B_SPLINE_CURVE_WITH_KNOTS('',8,(#1088,#1089,#1090,#1091,#1092,
    #1093,#1094,#1095,#1096,#1097,#1098,#1099,#1100,#1101,#1102,#1103,
    #1104,#1105,#1106,#1107,#1108,#1109,#1110),.UNSPECIFIED.,.F.,.F.,(9,
    7,7,9),(1.570796326795,2.356194490192,2.748893571891,3.14159265359),
  .UNSPECIFIED.);
#1088 = CARTESIAN_POINT('',(4.096909271714,0.));
#1089 = CARTESIAN_POINT('',(4.027489225806,6.942004590872E-02));
#1090 = CARTESIAN_POINT('',(3.958069241235,0.138840134751));
#1091 = CARTESIAN_POINT('',(3.887629185501,0.207750106313));
#1092 = CARTESIAN_POINT('',(3.815151992301,0.275641724654));
#1093 = CARTESIAN_POINT('',(3.739547894818,0.34194613933));
#1094 = CARTESIAN_POINT('',(3.659626167288,0.405996516923));
#1095 = CARTESIAN_POINT('',(3.573989624256,0.466917545466));
#1096 = CARTESIAN_POINT('',(3.435149532438,0.551939390664));
#1097 = CARTESIAN_POINT('',(3.387138426248,0.579220140835));
#1098 = CARTESIAN_POINT('',(3.337246121973,0.605301926671));
#1099 = CARTESIAN_POINT('',(3.285332121348,0.630032113869));
#1100 = CARTESIAN_POINT('',(3.23128145701,0.653242056598));
#1101 = CARTESIAN_POINT('',(3.175025560698,0.67474957767));
#1102 = CARTESIAN_POINT('',(3.116568093007,0.694366405529));
#1103 = CARTESIAN_POINT('',(2.99546337633,0.729454730602));
#1104 = CARTESIAN_POINT('',(2.932815764915,0.744925971874));
#1105 = CARTESIAN_POINT('',(2.868178567382,0.75814412822));
#1106 = CARTESIAN_POINT('',(2.801753048874,0.768931919205));
#1107 = CARTESIAN_POINT('',(2.733864117577,0.777136199325));
#1108 = CARTESIAN_POINT('',(2.664952777734,0.782644685938));
#1109 = CARTESIAN_POINT('',(2.595532990828,0.785398163397));
#1110 = CARTESIAN_POINT('',(2.526112944919,0.785398163397));
#1111 = ( GEOMETRIC_REPRESENTATION_CONTEXT(2) 
PARAMETRIC_REPRESENTATION_CONTEXT() REPRESENTATION_CONTEXT('2D SPACE',''
  ) );
#1112 = PCURVE('',#348,#1113);
#1113 = DEFINITIONAL_REPRESENTATION('',(#1114),#1118);
#1114 = LINE('',#1115,#1116);
#1115 = CARTESIAN_POINT('',(0.,0.));
#1116 = VECTOR('',#1117,1.);
#1117 = DIRECTION('',(1.,0.));
#1118 = ( GEOMETRIC_REPRESENTATION_CONTEXT(2) 
PARAMETRIC_REPRESENTATION_CONTEXT() REPRESENTATION_CONTEXT('2D SPACE',''
  ) );
#1119 = ORIENTED_EDGE('',*,*,#1020,.T.);
#1120 = ORIENTED_EDGE('',*,*,#1121,.F.);
#1121 = EDGE_CURVE('',#305,#677,#1122,.T.);
#1122 = SURFACE_CURVE('',#1123,(#1128,#1155),.PCURVE_S1.);
#1123 = CIRCLE('',#1124,2.);
#1124 = AXIS2_PLACEMENT_3D('',#1125,#1126,#1127);
#1125 = CARTESIAN_POINT('',(0.,10.,0.));
#1126 = DIRECTION('',(-0.,-1.,0.));
#1127 = DIRECTION('',(-1.110223024625E-16,0.,1.));
#1128 = PCURVE('',#1035,#1129);
#1129 = DEFINITIONAL_REPRESENTATION('',(#1130),#1154);
#1130 = B_SPLINE_CURVE_WITH_KNOTS('',8,(#1131,#1132,#1133,#1134,#1135,
    #1136,#1137,#1138,#1139,#1140,#1141,#1142,#1143,#1144,#1145,#1146,
    #1147,#1148,#1149,#1150,#1151,#1152,#1153),.UNSPECIFIED.,.F.,.F.,(9,
    7,7,9),(1.570796326795,2.356194490192,2.748893571891,3.14159265359),
  .UNSPECIFIED.);
#1131 = CARTESIAN_POINT('',(4.096909271714,0.));
#1132 = CARTESIAN_POINT('',(4.027489225806,-6.942004590872E-02));
#1133 = CARTESIAN_POINT('',(3.958069241233,-0.138840134751));
#1134 = CARTESIAN_POINT('',(3.887629185509,-0.207750106313));
#1135 = CARTESIAN_POINT('',(3.815151992287,-0.275641724656));
#1136 = CARTESIAN_POINT('',(3.739547894826,-0.34194613933));
#1137 = CARTESIAN_POINT('',(3.659626167287,-0.405996516923));
#1138 = CARTESIAN_POINT('',(3.573989624256,-0.466917545466));
#1139 = CARTESIAN_POINT('',(3.435149532438,-0.551939390664));
#1140 = CARTESIAN_POINT('',(3.387138426248,-0.579220140835));
#1141 = CARTESIAN_POINT('',(3.337246121973,-0.605301926671));
#1142 = CARTESIAN_POINT('',(3.285332121348,-0.630032113869));
#1143 = CARTESIAN_POINT('',(3.23128145701,-0.653242056598));
#1144 = CARTESIAN_POINT('',(3.175025560698,-0.67474957767));
#1145 = CARTESIAN_POINT('',(3.116568093007,-0.694366405529));
#1146 = CARTESIAN_POINT('',(2.99546337633,-0.729454730602));
#1147 = CARTESIAN_POINT('',(2.932815764915,-0.744925971874));
#1148 = CARTESIAN_POINT('',(2.868178567382,-0.75814412822));
#1149 = CARTESIAN_POINT('',(2.801753048874,-0.768931919205));
#1150 = CARTESIAN_POINT('',(2.733864117577,-0.777136199325));
#1151 = CARTESIAN_POINT('',(2.664952777734,-0.782644685938));
#1152 = CARTESIAN_POINT('',(2.595532990828,-0.785398163397));
#1153 = CARTESIAN_POINT('',(2.526112944919,-0.785398163397));
#1154 = ( GEOMETRIC_REPRESENTATION_CONTEXT(2) 
PARAMETRIC_REPRESENTATION_CONTEXT() REPRESENTATION_CONTEXT('2D SPACE',''
  ) );
#1155 = PCURVE('',#320,#1156);
#1156 = DEFINITIONAL_REPRESENTATION('',(#1157),#1161);
#1157 = LINE('',#1158,#1159);
#1158 = CARTESIAN_POINT('',(0.,10.));
#1159 = VECTOR('',#1160,1.);
#1160 = DIRECTION('',(1.,0.));
#1161 = ( GEOMETRIC_REPRESENTATION_CONTEXT(2) 
PARAMETRIC_REPRESENTATION_CONTEXT() REPRESENTATION_CONTEXT('2D SPACE',''
  ) );
#1162 = ADVANCED_FACE('',(#1163),#348,.F.);
#1163 = FACE_BOUND('',#1164,.F.);
#1164 = EDGE_LOOP('',(#1165,#1166,#1167,#1190));
#1165 = ORIENTED_EDGE('',*,*,#332,.F.);
#1166 = ORIENTED_EDGE('',*,*,#1078,.T.);
#1167 = ORIENTED_EDGE('',*,*,#1168,.T.);
#1168 = EDGE_CURVE('',#991,#1169,#1171,.T.);
#1169 = VERTEX_POINT('',#1170);
#1170 = CARTESIAN_POINT('',(0.,12.,10.));
#1171 = SURFACE_CURVE('',#1172,(#1176,#1183),.PCURVE_S1.);
#1172 = LINE('',#1173,#1174);
#1173 = CARTESIAN_POINT('',(0.,12.,0.));
#1174 = VECTOR('',#1175,1.);
#1175 = DIRECTION('',(0.,0.,1.));
#1176 = PCURVE('',#348,#1177);
#1177 = DEFINITIONAL_REPRESENTATION('',(#1178),#1182);
#1178 = LINE('',#1179,#1180);
#1179 = CARTESIAN_POINT('',(3.14159265359,0.));
#1180 = VECTOR('',#1181,1.);
#1181 = DIRECTION('',(0.,1.));
#1182 = ( GEOMETRIC_REPRESENTATION_CONTEXT(2) 
PARAMETRIC_REPRESENTATION_CONTEXT() REPRESENTATION_CONTEXT('2D SPACE',''
  ) );
#1183 = PCURVE('',#1008,#1184);
#1184 = DEFINITIONAL_REPRESENTATION('',(#1185),#1189);
#1185 = LINE('',#1186,#1187);
#1186 = CARTESIAN_POINT('',(0.,0.));
#1187 = VECTOR('',#1188,1.);
#1188 = DIRECTION('',(1.,0.));
#1189 = ( GEOMETRIC_REPRESENTATION_CONTEXT(2) 
PARAMETRIC_REPRESENTATION_CONTEXT() REPRESENTATION_CONTEXT('2D SPACE',''
  ) );
#1190 = ORIENTED_EDGE('',*,*,#1191,.F.);
#1191 = EDGE_CURVE('',#333,#1169,#1192,.T.);
#1192 = SURFACE_CURVE('',#1193,(#1198,#1205),.PCURVE_S1.);
#1193 = CIRCLE('',#1194,2.);
#1194 = AXIS2_PLACEMENT_3D('',#1195,#1196,#1197);
#1195 = CARTESIAN_POINT('',(0.,10.,10.));
#1196 = DIRECTION('',(-0.,0.,-1.));
#1197 = DIRECTION('',(-1.110223024625E-16,-1.,0.));
#1198 = PCURVE('',#348,#1199);
#1199 = DEFINITIONAL_REPRESENTATION('',(#1200),#1204);
#1200 = LINE('',#1201,#1202);
#1201 = CARTESIAN_POINT('',(0.,10.));
#1202 = VECTOR('',#1203,1.);
#1203 = DIRECTION('',(1.,0.));
#1204 = ( GEOMETRIC_REPRESENTATION_CONTEXT(2) 
PARAMETRIC_REPRESENTATION_CONTEXT() REPRESENTATION_CONTEXT('2D SPACE',''
  ) );
#1205 = PCURVE('',#1206,#1211);
#1206 = SPHERICAL_SURFACE('',#1207,2.);
#1207 = AXIS2_PLACEMENT_3D('',#1208,#1209,#1210);
#1208 = CARTESIAN_POINT('',(0.,10.,10.));
#1209 = DIRECTION('',(0.,-0.707106781187,0.707106781187));
#1210 = DIRECTION('',(0.57735026919,-0.57735026919,-0.57735026919));
#1211 = DEFINITIONAL_REPRESENTATION('',(#1212),#1236);
#1212 = B_SPLINE_CURVE_WITH_KNOTS('',8,(#1213,#1214,#1215,#1216,#1217,
    #1218,#1219,#1220,#1221,#1222,#1223,#1224,#1225,#1226,#1227,#1228,
    #1229,#1230,#1231,#1232,#1233,#1234,#1235),.UNSPECIFIED.,.F.,.F.,(9,
    7,7,9),(1.570796326795,2.356194490192,2.748893571891,3.14159265359),
  .UNSPECIFIED.);
#1213 = CARTESIAN_POINT('',(4.096909271714,0.));
#1214 = CARTESIAN_POINT('',(4.027489225806,-6.942004590872E-02));
#1215 = CARTESIAN_POINT('',(3.958069241235,-0.138840134751));
#1216 = CARTESIAN_POINT('',(3.887629185509,-0.207750106312));
#1217 = CARTESIAN_POINT('',(3.815151992305,-0.275641724656));
#1218 = CARTESIAN_POINT('',(3.739547894824,-0.341946139328));
#1219 = CARTESIAN_POINT('',(3.659626167287,-0.405996516923));
#1220 = CARTESIAN_POINT('',(3.573989624256,-0.466917545466));
#1221 = CARTESIAN_POINT('',(3.435149532438,-0.551939390664));
#1222 = CARTESIAN_POINT('',(3.387138426248,-0.579220140835));
#1223 = CARTESIAN_POINT('',(3.337246121973,-0.605301926671));
#1224 = CARTESIAN_POINT('',(3.285332121348,-0.630032113869));
#1225 = CARTESIAN_POINT('',(3.23128145701,-0.653242056598));
#1226 = CARTESIAN_POINT('',(3.175025560698,-0.67474957767));
#1227 = CARTESIAN_POINT('',(3.116568093007,-0.694366405529));
#1228 = CARTESIAN_POINT('',(2.99546337633,-0.729454730602));
#1229 = CARTESIAN_POINT('',(2.932815764915,-0.744925971874));
#1230 = CARTESIAN_POINT('',(2.868178567382,-0.758144128221));
#1231 = CARTESIAN_POINT('',(2.801753048874,-0.768931919205));
#1232 = CARTESIAN_POINT('',(2.733864117577,-0.777136199325));
#1233 = CARTESIAN_POINT('',(2.664952777734,-0.782644685938));
#1234 = CARTESIAN_POINT('',(2.595532990828,-0.785398163397));
#1235 = CARTESIAN_POINT('',(2.526112944919,-0.785398163397));
#1236 = ( GEOMETRIC_REPRESENTATION_CONTEXT(2) 
PARAMETRIC_REPRESENTATION_CONTEXT() REPRESENTATION_CONTEXT('2D SPACE',''
  ) );
#1237 = ADVANCED_FACE('',(#1238),#1206,.T.);
#1238 = FACE_BOUND('',#1239,.T.);
#1239 = EDGE_LOOP('',(#1240,#1282,#1304));
#1240 = ORIENTED_EDGE('',*,*,#1241,.T.);
#1241 = EDGE_CURVE('',#333,#186,#1242,.T.);
#1242 = SURFACE_CURVE('',#1243,(#1248,#1275),.PCURVE_S1.);
#1243 = CIRCLE('',#1244,2.);
#1244 = AXIS2_PLACEMENT_3D('',#1245,#1246,#1247);
#1245 = CARTESIAN_POINT('',(0.,10.,10.));
#1246 = DIRECTION('',(0.,1.,0.));
#1247 = DIRECTION('',(-1.110223024625E-16,0.,-1.));
#1248 = PCURVE('',#1206,#1249);
#1249 = DEFINITIONAL_REPRESENTATION('',(#1250),#1274);
#1250 = B_SPLINE_CURVE_WITH_KNOTS('',8,(#1251,#1252,#1253,#1254,#1255,
    #1256,#1257,#1258,#1259,#1260,#1261,#1262,#1263,#1264,#1265,#1266,
    #1267,#1268,#1269,#1270,#1271,#1272,#1273),.UNSPECIFIED.,.F.,.F.,(9,
    7,7,9),(1.570796326795,2.356194490192,2.748893571891,3.14159265359),
  .UNSPECIFIED.);
#1251 = CARTESIAN_POINT('',(4.096909271714,0.));
#1252 = CARTESIAN_POINT('',(4.027489225806,6.942004590872E-02));
#1253 = CARTESIAN_POINT('',(3.958069241241,0.138840134752));
#1254 = CARTESIAN_POINT('',(3.887629185479,0.207750106311));
#1255 = CARTESIAN_POINT('',(3.815151992341,0.275641724658));
#1256 = CARTESIAN_POINT('',(3.739547894802,0.341946139328));
#1257 = CARTESIAN_POINT('',(3.659626167293,0.405996516923));
#1258 = CARTESIAN_POINT('',(3.573989624256,0.466917545466));
#1259 = CARTESIAN_POINT('',(3.435149532438,0.551939390664));
#1260 = CARTESIAN_POINT('',(3.387138426248,0.579220140835));
#1261 = CARTESIAN_POINT('',(3.337246121973,0.605301926671));
#1262 = CARTESIAN_POINT('',(3.285332121348,0.630032113869));
#1263 = CARTESIAN_POINT('',(3.23128145701,0.653242056598));
#1264 = CARTESIAN_POINT('',(3.175025560698,0.67474957767));
#1265 = CARTESIAN_POINT('',(3.116568093007,0.694366405529));
#1266 = CARTESIAN_POINT('',(2.99546337633,0.729454730602));
#1267 = CARTESIAN_POINT('',(2.932815764915,0.744925971874));
#1268 = CARTESIAN_POINT('',(2.868178567382,0.75814412822));
#1269 = CARTESIAN_POINT('',(2.801753048874,0.768931919205));
#1270 = CARTESIAN_POINT('',(2.733864117577,0.777136199325));
#1271 = CARTESIAN_POINT('',(2.664952777734,0.782644685938));
#1272 = CARTESIAN_POINT('',(2.595532990828,0.785398163397));
#1273 = CARTESIAN_POINT('',(2.526112944919,0.785398163397));
#1274 = ( GEOMETRIC_REPRESENTATION_CONTEXT(2) 
PARAMETRIC_REPRESENTATION_CONTEXT() REPRESENTATION_CONTEXT('2D SPACE',''
  ) );
#1275 = PCURVE('',#201,#1276);
#1276 = DEFINITIONAL_REPRESENTATION('',(#1277),#1281);
#1277 = LINE('',#1278,#1279);
#1278 = CARTESIAN_POINT('',(0.,10.));
#1279 = VECTOR('',#1280,1.);
#1280 = DIRECTION('',(1.,0.));
#1281 = ( GEOMETRIC_REPRESENTATION_CONTEXT(2) 
PARAMETRIC_REPRESENTATION_CONTEXT() REPRESENTATION_CONTEXT('2D SPACE',''
  ) );
#1282 = ORIENTED_EDGE('',*,*,#1283,.F.);
#1283 = EDGE_CURVE('',#1169,#186,#1284,.T.);
#1284 = SURFACE_CURVE('',#1285,(#1290,#1297),.PCURVE_S1.);
#1285 = CIRCLE('',#1286,2.);
#1286 = AXIS2_PLACEMENT_3D('',#1287,#1288,#1289);
#1287 = CARTESIAN_POINT('',(0.,10.,10.));
#1288 = DIRECTION('',(1.,-0.,0.));
#1289 = DIRECTION('',(0.,1.110223024625E-16,-1.));
#1290 = PCURVE('',#1206,#1291);
#1291 = DEFINITIONAL_REPRESENTATION('',(#1292),#1296);
#1292 = LINE('',#1293,#1294);
#1293 = CARTESIAN_POINT('',(2.526112944919,-2.356194490192));
#1294 = VECTOR('',#1295,1.);
#1295 = DIRECTION('',(-0.,1.));
#1296 = ( GEOMETRIC_REPRESENTATION_CONTEXT(2) 
PARAMETRIC_REPRESENTATION_CONTEXT() REPRESENTATION_CONTEXT('2D SPACE',''
  ) );
#1297 = PCURVE('',#254,#1298);
#1298 = DEFINITIONAL_REPRESENTATION('',(#1299),#1303);
#1299 = LINE('',#1300,#1301);
#1300 = CARTESIAN_POINT('',(0.,0.));
#1301 = VECTOR('',#1302,1.);
#1302 = DIRECTION('',(1.,0.));
#1303 = ( GEOMETRIC_REPRESENTATION_CONTEXT(2) 
PARAMETRIC_REPRESENTATION_CONTEXT() REPRESENTATION_CONTEXT('2D SPACE',''
  ) );
#1304 = ORIENTED_EDGE('',*,*,#1191,.F.);
#1305 = ADVANCED_FACE('',(#1306),#320,.F.);
#1306 = FACE_BOUND('',#1307,.F.);
#1307 = EDGE_LOOP('',(#1308,#1309,#1310,#1311));
#1308 = ORIENTED_EDGE('',*,*,#304,.F.);
#1309 = ORIENTED_EDGE('',*,*,#854,.T.);
#1310 = ORIENTED_EDGE('',*,*,#676,.T.);
#1311 = ORIENTED_EDGE('',*,*,#1121,.F.);
#1312 = ADVANCED_FACE('',(#1313),#716,.T.);
#1313 = FACE_BOUND('',#1314,.T.);
#1314 = EDGE_LOOP('',(#1315,#1338,#1339,#1340));
#1315 = ORIENTED_EDGE('',*,*,#1316,.F.);
#1316 = EDGE_CURVE('',#901,#1317,#1319,.T.);
#1317 = VERTEX_POINT('',#1318);
#1318 = CARTESIAN_POINT('',(12.,10.,0.));
#1319 = SURFACE_CURVE('',#1320,(#1324,#1331),.PCURVE_S1.);
#1320 = LINE('',#1321,#1322);
#1321 = CARTESIAN_POINT('',(12.,0.,0.));
#1322 = VECTOR('',#1323,1.);
#1323 = DIRECTION('',(0.,1.,0.));
#1324 = PCURVE('',#716,#1325);
#1325 = DEFINITIONAL_REPRESENTATION('',(#1326),#1330);
#1326 = LINE('',#1327,#1328);
#1327 = CARTESIAN_POINT('',(1.570796326795,0.));
#1328 = VECTOR('',#1329,1.);
#1329 = DIRECTION('',(0.,1.));
#1330 = ( GEOMETRIC_REPRESENTATION_CONTEXT(2) 
PARAMETRIC_REPRESENTATION_CONTEXT() REPRESENTATION_CONTEXT('2D SPACE',''
  ) );
#1331 = PCURVE('',#44,#1332);
#1332 = DEFINITIONAL_REPRESENTATION('',(#1333),#1337);
#1333 = LINE('',#1334,#1335);
#1334 = CARTESIAN_POINT('',(0.,0.));
#1335 = VECTOR('',#1336,1.);
#1336 = DIRECTION('',(0.,-1.));
#1337 = ( GEOMETRIC_REPRESENTATION_CONTEXT(2) 
PARAMETRIC_REPRESENTATION_CONTEXT() REPRESENTATION_CONTEXT('2D SPACE',''
  ) );
#1338 = ORIENTED_EDGE('',*,*,#945,.T.);
#1339 = ORIENTED_EDGE('',*,*,#700,.T.);
#1340 = ORIENTED_EDGE('',*,*,#1341,.F.);
#1341 = EDGE_CURVE('',#1317,#701,#1342,.T.);
#1342 = SURFACE_CURVE('',#1343,(#1348,#1355),.PCURVE_S1.);
#1343 = CIRCLE('',#1344,2.);
#1344 = AXIS2_PLACEMENT_3D('',#1345,#1346,#1347);
#1345 = CARTESIAN_POINT('',(10.,10.,0.));
#1346 = DIRECTION('',(-0.,1.,0.));
#1347 = DIRECTION('',(1.110223024625E-16,0.,1.));
#1348 = PCURVE('',#716,#1349);
#1349 = DEFINITIONAL_REPRESENTATION('',(#1350),#1354);
#1350 = LINE('',#1351,#1352);
#1351 = CARTESIAN_POINT('',(0.,10.));
#1352 = VECTOR('',#1353,1.);
#1353 = DIRECTION('',(1.,0.));
#1354 = ( GEOMETRIC_REPRESENTATION_CONTEXT(2) 
PARAMETRIC_REPRESENTATION_CONTEXT() REPRESENTATION_CONTEXT('2D SPACE',''
  ) );
#1355 = PCURVE('',#1063,#1356);
#1356 = DEFINITIONAL_REPRESENTATION('',(#1357),#1381);
#1357 = B_SPLINE_CURVE_WITH_KNOTS('',8,(#1358,#1359,#1360,#1361,#1362,
    #1363,#1364,#1365,#1366,#1367,#1368,#1369,#1370,#1371,#1372,#1373,
    #1374,#1375,#1376,#1377,#1378,#1379,#1380),.UNSPECIFIED.,.F.,.F.,(9,
    7,7,9),(1.570796326795,2.356194490192,2.748893571891,3.14159265359),
  .UNSPECIFIED.);
#1358 = CARTESIAN_POINT('',(4.096909271714,0.));
#1359 = CARTESIAN_POINT('',(4.027489225806,6.942004590872E-02));
#1360 = CARTESIAN_POINT('',(3.95806924124,0.138840134751));
#1361 = CARTESIAN_POINT('',(3.88762918549,0.207750106312));
#1362 = CARTESIAN_POINT('',(3.815151992345,0.275641724656));
#1363 = CARTESIAN_POINT('',(3.739547894798,0.34194613933));
#1364 = CARTESIAN_POINT('',(3.659626167293,0.405996516923));
#1365 = CARTESIAN_POINT('',(3.573989624256,0.466917545466));
#1366 = CARTESIAN_POINT('',(3.435149532438,0.551939390664));
#1367 = CARTESIAN_POINT('',(3.387138426248,0.579220140835));
#1368 = CARTESIAN_POINT('',(3.337246121973,0.605301926671));
#1369 = CARTESIAN_POINT('',(3.285332121348,0.630032113869));
#1370 = CARTESIAN_POINT('',(3.23128145701,0.653242056598));
#1371 = CARTESIAN_POINT('',(3.175025560698,0.67474957767));
#1372 = CARTESIAN_POINT('',(3.116568093007,0.694366405529));
#1373 = CARTESIAN_POINT('',(2.99546337633,0.729454730602));
#1374 = CARTESIAN_POINT('',(2.932815764915,0.744925971874));
#1375 = CARTESIAN_POINT('',(2.868178567382,0.75814412822));
#1376 = CARTESIAN_POINT('',(2.801753048874,0.768931919205));
#1377 = CARTESIAN_POINT('',(2.733864117577,0.777136199325));
#1378 = CARTESIAN_POINT('',(2.664952777734,0.782644685938));
#1379 = CARTESIAN_POINT('',(2.595532990828,0.785398163397));
#1380 = CARTESIAN_POINT('',(2.526112944919,0.785398163397));
#1381 = ( GEOMETRIC_REPRESENTATION_CONTEXT(2) 
PARAMETRIC_REPRESENTATION_CONTEXT() REPRESENTATION_CONTEXT('2D SPACE',''
  ) );
#1382 = ADVANCED_FACE('',(#1383),#254,.T.);
#1383 = FACE_BOUND('',#1384,.T.);
#1384 = EDGE_LOOP('',(#1385,#1408,#1409,#1410));
#1385 = ORIENTED_EDGE('',*,*,#1386,.F.);
#1386 = EDGE_CURVE('',#1169,#1387,#1389,.T.);
#1387 = VERTEX_POINT('',#1388);
#1388 = CARTESIAN_POINT('',(10.,12.,10.));
#1389 = SURFACE_CURVE('',#1390,(#1394,#1401),.PCURVE_S1.);
#1390 = LINE('',#1391,#1392);
#1391 = CARTESIAN_POINT('',(0.,12.,10.));
#1392 = VECTOR('',#1393,1.);
#1393 = DIRECTION('',(1.,0.,0.));
#1394 = PCURVE('',#254,#1395);
#1395 = DEFINITIONAL_REPRESENTATION('',(#1396),#1400);
#1396 = LINE('',#1397,#1398);
#1397 = CARTESIAN_POINT('',(1.570796326795,0.));
#1398 = VECTOR('',#1399,1.);
#1399 = DIRECTION('',(0.,1.));
#1400 = ( GEOMETRIC_REPRESENTATION_CONTEXT(2) 
PARAMETRIC_REPRESENTATION_CONTEXT() REPRESENTATION_CONTEXT('2D SPACE',''
  ) );
#1401 = PCURVE('',#1008,#1402);
#1402 = DEFINITIONAL_REPRESENTATION('',(#1403),#1407);
#1403 = LINE('',#1404,#1405);
#1404 = CARTESIAN_POINT('',(10.,0.));
#1405 = VECTOR('',#1406,1.);
#1406 = DIRECTION('',(0.,1.));
#1407 = ( GEOMETRIC_REPRESENTATION_CONTEXT(2) 
PARAMETRIC_REPRESENTATION_CONTEXT() REPRESENTATION_CONTEXT('2D SPACE',''
  ) );
#1408 = ORIENTED_EDGE('',*,*,#1283,.T.);
#1409 = ORIENTED_EDGE('',*,*,#240,.T.);
#1410 = ORIENTED_EDGE('',*,*,#1411,.F.);
#1411 = EDGE_CURVE('',#1387,#106,#1412,.T.);
#1412 = SURFACE_CURVE('',#1413,(#1418,#1425),.PCURVE_S1.);
#1413 = CIRCLE('',#1414,2.);
#1414 = AXIS2_PLACEMENT_3D('',#1415,#1416,#1417);
#1415 = CARTESIAN_POINT('',(10.,10.,10.));
#1416 = DIRECTION('',(1.,-0.,0.));
#1417 = DIRECTION('',(0.,1.110223024625E-16,-1.));
#1418 = PCURVE('',#254,#1419);
#1419 = DEFINITIONAL_REPRESENTATION('',(#1420),#1424);
#1420 = LINE('',#1421,#1422);
#1421 = CARTESIAN_POINT('',(0.,10.));
#1422 = VECTOR('',#1423,1.);
#1423 = DIRECTION('',(1.,0.));
#1424 = ( GEOMETRIC_REPRESENTATION_CONTEXT(2) 
PARAMETRIC_REPRESENTATION_CONTEXT() REPRESENTATION_CONTEXT('2D SPACE',''
  ) );
#1425 = PCURVE('',#148,#1426);
#1426 = DEFINITIONAL_REPRESENTATION('',(#1427),#1431);
#1427 = LINE('',#1428,#1429);
#1428 = CARTESIAN_POINT('',(2.526112944919,2.356194490192));
#1429 = VECTOR('',#1430,1.);
#1430 = DIRECTION('',(0.,-1.));
#1431 = ( GEOMETRIC_REPRESENTATION_CONTEXT(2) 
PARAMETRIC_REPRESENTATION_CONTEXT() REPRESENTATION_CONTEXT('2D SPACE',''
  ) );
#1432 = ADVANCED_FACE('',(#1433),#148,.T.);
#1433 = FACE_BOUND('',#1434,.T.);
#1434 = EDGE_LOOP('',(#1435,#1436,#1483));
#1435 = ORIENTED_EDGE('',*,*,#133,.F.);
#1436 = ORIENTED_EDGE('',*,*,#1437,.T.);
#1437 = EDGE_CURVE('',#24,#1387,#1438,.T.);
#1438 = SURFACE_CURVE('',#1439,(#1444,#1471),.PCURVE_S1.);
#1439 = CIRCLE('',#1440,2.);
#1440 = AXIS2_PLACEMENT_3D('',#1441,#1442,#1443);
#1441 = CARTESIAN_POINT('',(10.,10.,10.));
#1442 = DIRECTION('',(-0.,0.,1.));
#1443 = DIRECTION('',(1.110223024625E-16,-1.,0.));
#1444 = PCURVE('',#148,#1445);
#1445 = DEFINITIONAL_REPRESENTATION('',(#1446),#1470);
#1446 = B_SPLINE_CURVE_WITH_KNOTS('',8,(#1447,#1448,#1449,#1450,#1451,
    #1452,#1453,#1454,#1455,#1456,#1457,#1458,#1459,#1460,#1461,#1462,
    #1463,#1464,#1465,#1466,#1467,#1468,#1469),.UNSPECIFIED.,.F.,.F.,(9,
    7,7,9),(1.570796326795,2.356194490192,2.748893571891,3.14159265359),
  .UNSPECIFIED.);
#1447 = CARTESIAN_POINT('',(4.096909271714,8.881784197001E-16));
#1448 = CARTESIAN_POINT('',(4.027489225806,6.942004590873E-02));
#1449 = CARTESIAN_POINT('',(3.95806924124,0.138840134751));
#1450 = CARTESIAN_POINT('',(3.88762918549,0.207750106312));
#1451 = CARTESIAN_POINT('',(3.815151992345,0.275641724656));
#1452 = CARTESIAN_POINT('',(3.739547894798,0.341946139328));
#1453 = CARTESIAN_POINT('',(3.659626167293,0.405996516923));
#1454 = CARTESIAN_POINT('',(3.573989624256,0.466917545466));
#1455 = CARTESIAN_POINT('',(3.435149532438,0.551939390664));
#1456 = CARTESIAN_POINT('',(3.387138426248,0.579220140835));
#1457 = CARTESIAN_POINT('',(3.337246121973,0.605301926671));
#1458 = CARTESIAN_POINT('',(3.285332121348,0.630032113869));
#1459 = CARTESIAN_POINT('',(3.23128145701,0.653242056598));
#1460 = CARTESIAN_POINT('',(3.175025560698,0.67474957767));
#1461 = CARTESIAN_POINT('',(3.116568093007,0.694366405529));
#1462 = CARTESIAN_POINT('',(2.99546337633,0.729454730602));
#1463 = CARTESIAN_POINT('',(2.932815764915,0.744925971874));
#1464 = CARTESIAN_POINT('',(2.868178567382,0.75814412822));
#1465 = CARTESIAN_POINT('',(2.801753048874,0.768931919205));
#1466 = CARTESIAN_POINT('',(2.733864117577,0.777136199325));
#1467 = CARTESIAN_POINT('',(2.664952777734,0.782644685938));
#1468 = CARTESIAN_POINT('',(2.595532990828,0.785398163397));
#1469 = CARTESIAN_POINT('',(2.526112944919,0.785398163397));
#1470 = ( GEOMETRIC_REPRESENTATION_CONTEXT(2) 
PARAMETRIC_REPRESENTATION_CONTEXT() REPRESENTATION_CONTEXT('2D SPACE',''
  ) );
#1471 = PCURVE('',#1472,#1477);
#1472 = CYLINDRICAL_SURFACE('',#1473,2.);
#1473 = AXIS2_PLACEMENT_3D('',#1474,#1475,#1476);
#1474 = CARTESIAN_POINT('',(10.,10.,0.));
#1475 = DIRECTION('',(0.,0.,1.));
#1476 = DIRECTION('',(1.110223024625E-16,-1.,0.));
#1477 = DEFINITIONAL_REPRESENTATION('',(#1478),#1482);
#1478 = LINE('',#1479,#1480);
#1479 = CARTESIAN_POINT('',(0.,10.));
#1480 = VECTOR('',#1481,1.);
#1481 = DIRECTION('',(1.,0.));
#1482 = ( GEOMETRIC_REPRESENTATION_CONTEXT(2) 
PARAMETRIC_REPRESENTATION_CONTEXT() REPRESENTATION_CONTEXT('2D SPACE',''
  ) );
#1483 = ORIENTED_EDGE('',*,*,#1411,.T.);
#1484 = ADVANCED_FACE('',(#1485),#1008,.T.);
#1485 = FACE_BOUND('',#1486,.T.);
#1486 = EDGE_LOOP('',(#1487,#1488,#1489,#1490));
#1487 = ORIENTED_EDGE('',*,*,#990,.F.);
#1488 = ORIENTED_EDGE('',*,*,#1168,.T.);
#1489 = ORIENTED_EDGE('',*,*,#1386,.T.);
#1490 = ORIENTED_EDGE('',*,*,#1491,.F.);
#1491 = EDGE_CURVE('',#993,#1387,#1492,.T.);
#1492 = SURFACE_CURVE('',#1493,(#1497,#1504),.PCURVE_S1.);
#1493 = LINE('',#1494,#1495);
#1494 = CARTESIAN_POINT('',(10.,12.,0.));
#1495 = VECTOR('',#1496,1.);
#1496 = DIRECTION('',(0.,0.,1.));
#1497 = PCURVE('',#1008,#1498);
#1498 = DEFINITIONAL_REPRESENTATION('',(#1499),#1503);
#1499 = LINE('',#1500,#1501);
#1500 = CARTESIAN_POINT('',(0.,10.));
#1501 = VECTOR('',#1502,1.);
#1502 = DIRECTION('',(1.,0.));
#1503 = ( GEOMETRIC_REPRESENTATION_CONTEXT(2) 
PARAMETRIC_REPRESENTATION_CONTEXT() REPRESENTATION_CONTEXT('2D SPACE',''
  ) );
#1504 = PCURVE('',#1472,#1505);
#1505 = DEFINITIONAL_REPRESENTATION('',(#1506),#1510);
#1506 = LINE('',#1507,#1508);
#1507 = CARTESIAN_POINT('',(3.14159265359,0.));
#1508 = VECTOR('',#1509,1.);
#1509 = DIRECTION('',(0.,1.));
#1510 = ( GEOMETRIC_REPRESENTATION_CONTEXT(2) 
PARAMETRIC_REPRESENTATION_CONTEXT() REPRESENTATION_CONTEXT('2D SPACE',''
  ) );
#1511 = ADVANCED_FACE('',(#1512),#201,.T.);
#1512 = FACE_BOUND('',#1513,.T.);
#1513 = EDGE_LOOP('',(#1514,#1515,#1516,#1517));
#1514 = ORIENTED_EDGE('',*,*,#360,.F.);
#1515 = ORIENTED_EDGE('',*,*,#808,.T.);
#1516 = ORIENTED_EDGE('',*,*,#183,.T.);
#1517 = ORIENTED_EDGE('',*,*,#1241,.F.);
#1518 = ADVANCED_FACE('',(#1519),#73,.T.);
#1519 = FACE_BOUND('',#1520,.T.);
#1520 = EDGE_LOOP('',(#1521,#1563,#1564));
#1521 = ORIENTED_EDGE('',*,*,#1522,.F.);
#1522 = EDGE_CURVE('',#22,#625,#1523,.T.);
#1523 = SURFACE_CURVE('',#1524,(#1529,#1556),.PCURVE_S1.);
#1524 = CIRCLE('',#1525,2.);
#1525 = AXIS2_PLACEMENT_3D('',#1526,#1527,#1528);
#1526 = CARTESIAN_POINT('',(10.,0.,10.));
#1527 = DIRECTION('',(0.,0.,-1.));
#1528 = DIRECTION('',(1.110223024625E-16,1.,0.));
#1529 = PCURVE('',#73,#1530);
#1530 = DEFINITIONAL_REPRESENTATION('',(#1531),#1555);
#1531 = B_SPLINE_CURVE_WITH_KNOTS('',8,(#1532,#1533,#1534,#1535,#1536,
    #1537,#1538,#1539,#1540,#1541,#1542,#1543,#1544,#1545,#1546,#1547,
    #1548,#1549,#1550,#1551,#1552,#1553,#1554),.UNSPECIFIED.,.F.,.F.,(9,
    7,7,9),(1.570796326795,2.356194490192,2.748893571891,3.14159265359),
  .UNSPECIFIED.);
#1532 = CARTESIAN_POINT('',(4.096909271714,0.));
#1533 = CARTESIAN_POINT('',(4.027489225806,-6.942004590872E-02));
#1534 = CARTESIAN_POINT('',(3.958069241239,-0.138840134751));
#1535 = CARTESIAN_POINT('',(3.887629185494,-0.207750106312));
#1536 = CARTESIAN_POINT('',(3.815151992334,-0.275641724657));
#1537 = CARTESIAN_POINT('',(3.739547894809,-0.341946139329));
#1538 = CARTESIAN_POINT('',(3.659626167291,-0.405996516923));
#1539 = CARTESIAN_POINT('',(3.573989624256,-0.466917545466));
#1540 = CARTESIAN_POINT('',(3.435149532438,-0.551939390664));
#1541 = CARTESIAN_POINT('',(3.387138426248,-0.579220140835));
#1542 = CARTESIAN_POINT('',(3.337246121973,-0.605301926671));
#1543 = CARTESIAN_POINT('',(3.285332121348,-0.630032113869));
#1544 = CARTESIAN_POINT('',(3.23128145701,-0.653242056598));
#1545 = CARTESIAN_POINT('',(3.175025560698,-0.67474957767));
#1546 = CARTESIAN_POINT('',(3.116568093007,-0.694366405529));
#1547 = CARTESIAN_POINT('',(2.99546337633,-0.729454730602));
#1548 = CARTESIAN_POINT('',(2.932815764915,-0.744925971874));
#1549 = CARTESIAN_POINT('',(2.868178567382,-0.758144128221));
#1550 = CARTESIAN_POINT('',(2.801753048874,-0.768931919205));
#1551 = CARTESIAN_POINT('',(2.733864117577,-0.777136199325));
#1552 = CARTESIAN_POINT('',(2.664952777734,-0.782644685938));
#1553 = CARTESIAN_POINT('',(2.595532990828,-0.785398163397));
#1554 = CARTESIAN_POINT('',(2.526112944919,-0.785398163397));
#1555 = ( GEOMETRIC_REPRESENTATION_CONTEXT(2) 
PARAMETRIC_REPRESENTATION_CONTEXT() REPRESENTATION_CONTEXT('2D SPACE',''
  ) );
#1556 = PCURVE('',#661,#1557);
#1557 = DEFINITIONAL_REPRESENTATION('',(#1558),#1562);
#1558 = LINE('',#1559,#1560);
#1559 = CARTESIAN_POINT('',(0.,10.));
#1560 = VECTOR('',#1561,1.);
#1561 = DIRECTION('',(1.,0.));
#1562 = ( GEOMETRIC_REPRESENTATION_CONTEXT(2) 
PARAMETRIC_REPRESENTATION_CONTEXT() REPRESENTATION_CONTEXT('2D SPACE',''
  ) );
#1563 = ORIENTED_EDGE('',*,*,#56,.T.);
#1564 = ORIENTED_EDGE('',*,*,#781,.F.);
#1565 = ADVANCED_FACE('',(#1566),#44,.T.);
#1566 = FACE_BOUND('',#1567,.T.);
#1567 = EDGE_LOOP('',(#1568,#1589,#1590,#1611));
#1568 = ORIENTED_EDGE('',*,*,#1569,.F.);
#1569 = EDGE_CURVE('',#901,#22,#1570,.T.);
#1570 = SURFACE_CURVE('',#1571,(#1575,#1582),.PCURVE_S1.);
#1571 = LINE('',#1572,#1573);
#1572 = CARTESIAN_POINT('',(12.,0.,0.));
#1573 = VECTOR('',#1574,1.);
#1574 = DIRECTION('',(0.,0.,1.));
#1575 = PCURVE('',#44,#1576);
#1576 = DEFINITIONAL_REPRESENTATION('',(#1577),#1581);
#1577 = LINE('',#1578,#1579);
#1578 = CARTESIAN_POINT('',(0.,0.));
#1579 = VECTOR('',#1580,1.);
#1580 = DIRECTION('',(1.,0.));
#1581 = ( GEOMETRIC_REPRESENTATION_CONTEXT(2) 
PARAMETRIC_REPRESENTATION_CONTEXT() REPRESENTATION_CONTEXT('2D SPACE',''
  ) );
#1582 = PCURVE('',#661,#1583);
#1583 = DEFINITIONAL_REPRESENTATION('',(#1584),#1588);
#1584 = LINE('',#1585,#1586);
#1585 = CARTESIAN_POINT('',(1.570796326795,0.));
#1586 = VECTOR('',#1587,1.);
#1587 = DIRECTION('',(0.,1.));
#1588 = ( GEOMETRIC_REPRESENTATION_CONTEXT(2) 
PARAMETRIC_REPRESENTATION_CONTEXT() REPRESENTATION_CONTEXT('2D SPACE',''
  ) );
#1589 = ORIENTED_EDGE('',*,*,#1316,.T.);
#1590 = ORIENTED_EDGE('',*,*,#1591,.T.);
#1591 = EDGE_CURVE('',#1317,#24,#1592,.T.);
#1592 = SURFACE_CURVE('',#1593,(#1597,#1604),.PCURVE_S1.);
#1593 = LINE('',#1594,#1595);
#1594 = CARTESIAN_POINT('',(12.,10.,0.));
#1595 = VECTOR('',#1596,1.);
#1596 = DIRECTION('',(0.,0.,1.));
#1597 = PCURVE('',#44,#1598);
#1598 = DEFINITIONAL_REPRESENTATION('',(#1599),#1603);
#1599 = LINE('',#1600,#1601);
#1600 = CARTESIAN_POINT('',(0.,-10.));
#1601 = VECTOR('',#1602,1.);
#1602 = DIRECTION('',(1.,0.));
#1603 = ( GEOMETRIC_REPRESENTATION_CONTEXT(2) 
PARAMETRIC_REPRESENTATION_CONTEXT() REPRESENTATION_CONTEXT('2D SPACE',''
  ) );
#1604 = PCURVE('',#1472,#1605);
#1605 = DEFINITIONAL_REPRESENTATION('',(#1606),#1610);
#1606 = LINE('',#1607,#1608);
#1607 = CARTESIAN_POINT('',(1.570796326795,0.));
#1608 = VECTOR('',#1609,1.);
#1609 = DIRECTION('',(0.,1.));
#1610 = ( GEOMETRIC_REPRESENTATION_CONTEXT(2) 
PARAMETRIC_REPRESENTATION_CONTEXT() REPRESENTATION_CONTEXT('2D SPACE',''
  ) );
#1611 = ORIENTED_EDGE('',*,*,#21,.F.);
#1612 = ADVANCED_FACE('',(#1613),#661,.F.);
#1613 = FACE_BOUND('',#1614,.F.);
#1614 = EDGE_LOOP('',(#1615,#1616,#1617,#1618));
#1615 = ORIENTED_EDGE('',*,*,#1569,.F.);
#1616 = ORIENTED_EDGE('',*,*,#900,.T.);
#1617 = ORIENTED_EDGE('',*,*,#647,.T.);
#1618 = ORIENTED_EDGE('',*,*,#1522,.F.);
#1619 = ADVANCED_FACE('',(#1620),#1063,.T.);
#1620 = FACE_BOUND('',#1621,.T.);
#1621 = EDGE_LOOP('',(#1622,#1664,#1665));
#1622 = ORIENTED_EDGE('',*,*,#1623,.F.);
#1623 = EDGE_CURVE('',#1317,#993,#1624,.T.);
#1624 = SURFACE_CURVE('',#1625,(#1630,#1657),.PCURVE_S1.);
#1625 = CIRCLE('',#1626,2.);
#1626 = AXIS2_PLACEMENT_3D('',#1627,#1628,#1629);
#1627 = CARTESIAN_POINT('',(10.,10.,0.));
#1628 = DIRECTION('',(-0.,0.,1.));
#1629 = DIRECTION('',(1.110223024625E-16,-1.,0.));
#1630 = PCURVE('',#1063,#1631);
#1631 = DEFINITIONAL_REPRESENTATION('',(#1632),#1656);
#1632 = B_SPLINE_CURVE_WITH_KNOTS('',8,(#1633,#1634,#1635,#1636,#1637,
    #1638,#1639,#1640,#1641,#1642,#1643,#1644,#1645,#1646,#1647,#1648,
    #1649,#1650,#1651,#1652,#1653,#1654,#1655),.UNSPECIFIED.,.F.,.F.,(9,
    7,7,9),(1.570796326795,2.356194490192,2.748893571891,3.14159265359),
  .UNSPECIFIED.);
#1633 = CARTESIAN_POINT('',(4.096909271714,-4.440892098501E-16));
#1634 = CARTESIAN_POINT('',(4.027489225806,-6.942004590872E-02));
#1635 = CARTESIAN_POINT('',(3.958069241237,-0.138840134751));
#1636 = CARTESIAN_POINT('',(3.887629185501,-0.207750106312));
#1637 = CARTESIAN_POINT('',(3.815151992301,-0.275641724656));
#1638 = CARTESIAN_POINT('',(3.739547894811,-0.341946139329));
#1639 = CARTESIAN_POINT('',(3.65962616729,-0.405996516923));
#1640 = CARTESIAN_POINT('',(3.573989624256,-0.466917545466));
#1641 = CARTESIAN_POINT('',(3.435149532438,-0.551939390664));
#1642 = CARTESIAN_POINT('',(3.387138426248,-0.579220140835));
#1643 = CARTESIAN_POINT('',(3.337246121973,-0.605301926671));
#1644 = CARTESIAN_POINT('',(3.285332121348,-0.630032113869));
#1645 = CARTESIAN_POINT('',(3.23128145701,-0.653242056598));
#1646 = CARTESIAN_POINT('',(3.175025560699,-0.67474957767));
#1647 = CARTESIAN_POINT('',(3.116568093007,-0.694366405529));
#1648 = CARTESIAN_POINT('',(2.99546337633,-0.729454730602));
#1649 = CARTESIAN_POINT('',(2.932815764915,-0.744925971874));
#1650 = CARTESIAN_POINT('',(2.868178567382,-0.75814412822));
#1651 = CARTESIAN_POINT('',(2.801753048874,-0.768931919205));
#1652 = CARTESIAN_POINT('',(2.733864117577,-0.777136199325));
#1653 = CARTESIAN_POINT('',(2.664952777734,-0.782644685938));
#1654 = CARTESIAN_POINT('',(2.595532990828,-0.785398163397));
#1655 = CARTESIAN_POINT('',(2.526112944919,-0.785398163397));
#1656 = ( GEOMETRIC_REPRESENTATION_CONTEXT(2) 
PARAMETRIC_REPRESENTATION_CONTEXT() REPRESENTATION_CONTEXT('2D SPACE',''
  ) );
#1657 = PCURVE('',#1472,#1658);
#1658 = DEFINITIONAL_REPRESENTATION('',(#1659),#1663);
#1659 = LINE('',#1660,#1661);
#1660 = CARTESIAN_POINT('',(0.,0.));
#1661 = VECTOR('',#1662,1.);
#1662 = DIRECTION('',(1.,0.));
#1663 = ( GEOMETRIC_REPRESENTATION_CONTEXT(2) 
PARAMETRIC_REPRESENTATION_CONTEXT() REPRESENTATION_CONTEXT('2D SPACE',''
  ) );
#1664 = ORIENTED_EDGE('',*,*,#1341,.T.);
#1665 = ORIENTED_EDGE('',*,*,#1048,.F.);
#1666 = ADVANCED_FACE('',(#1667),#1472,.T.);
#1667 = FACE_BOUND('',#1668,.T.);
#1668 = EDGE_LOOP('',(#1669,#1670,#1671,#1672));
#1669 = ORIENTED_EDGE('',*,*,#1591,.F.);
#1670 = ORIENTED_EDGE('',*,*,#1623,.T.);
#1671 = ORIENTED_EDGE('',*,*,#1491,.T.);
#1672 = ORIENTED_EDGE('',*,*,#1437,.F.);
#1673 = ( GEOMETRIC_REPRESENTATION_CONTEXT(3) 
GLOBAL_UNCERTAINTY_ASSIGNED_CONTEXT((#1677)) 
GLOBAL_UNIT_ASSIGNED_CONTEXT((#1674,#1675,#1676)) REPRESENTATION_CONTEXT
('Context #1','3D Context with UNIT and UNCERTAINTY') );
#1674 = ( LENGTH_UNIT() NAMED_UNIT(*) SI_UNIT(.MILLI.,.METRE.) );
#1675 = ( NAMED_UNIT(*) PLANE_ANGLE_UNIT() SI_UNIT($,.RADIAN.) );
#1676 = ( NAMED_UNIT(*) SI_UNIT($,.STERADIAN.) SOLID_ANGLE_UNIT() );
#1677 = UNCERTAINTY_MEASURE_WITH_UNIT(LENGTH_MEASURE(1.E-06),#1674,
  'distance_accuracy_value','confusion accuracy');
#1678 = PRODUCT_RELATED_PRODUCT_CATEGORY('part',$,(#7));
ENDSEC;
END-ISO-10303-21;
