ISO-10303-21;
HEADER;
FILE_DESCRIPTION(('BRep'),'2;1');
FILE_NAME('model.step','2026-07-31T00:00:00',('',''),(''),'','rust','');
FILE_SCHEMA(('AUTOMOTIVE_DESIGN'));
ENDSEC;
DATA;
#1=APPLICATION_CONTEXT('AUTOMOTIVE_DESIGN');
#2=PRODUCT_CONTEXT('',#1,'mechanical');
#3=PRODUCT_DEFINITION_CONTEXT('part definition',#1,'design');
#4=GEOMETRIC_REPRESENTATION_CONTEXT('','',3);
#5=CARTESIAN_POINT('',(-1.0,1.0,0.0));
#6=DIRECTION('',(0.0,0.0,-1.0));
#7=DIRECTION('',(1.0,0.0,0.0));
#8=AXIS2_PLACEMENT_3D('',#5,#6,#7);
#9=PLANE('',#8);
#10=CARTESIAN_POINT('',(0.0,3.0,0.0));
#11=VERTEX_POINT('',#10);
#12=CARTESIAN_POINT('',(0.0,0.0,0.0));
#13=VERTEX_POINT('',#12);
#14=CARTESIAN_POINT('',(0.0,3.0,0.0));
#15=DIRECTION('',(0.0,-1.0,0.0));
#16=VECTOR('',#15,1.0);
#17=LINE('',#14,#16);
#18=EDGE_CURVE('',#11,#13,#17,.T.);
#19=ORIENTED_EDGE('',#11,#13,#18,.T.);
#20=CARTESIAN_POINT('',(2.0,3.0,0.0));
#21=VERTEX_POINT('',#20);
#22=CARTESIAN_POINT('',(2.0,3.0,0.0));
#23=DIRECTION('',(-1.0,0.0,0.0));
#24=VECTOR('',#23,1.0);
#25=LINE('',#22,#24);
#26=EDGE_CURVE('',#21,#11,#25,.T.);
#27=ORIENTED_EDGE('',#21,#11,#26,.T.);
#28=CARTESIAN_POINT('',(2.0,0.0,0.0));
#29=VERTEX_POINT('',#28);
#30=CARTESIAN_POINT('',(2.0,0.0,0.0));
#31=DIRECTION('',(0.0,1.0,0.0));
#32=VECTOR('',#31,1.0);
#33=LINE('',#30,#32);
#34=EDGE_CURVE('',#29,#21,#33,.T.);
#35=ORIENTED_EDGE('',#29,#21,#34,.T.);
#36=CARTESIAN_POINT('',(0.0,0.0,0.0));
#37=DIRECTION('',(1.0,0.0,0.0));
#38=VECTOR('',#37,1.0);
#39=LINE('',#36,#38);
#40=EDGE_CURVE('',#13,#29,#39,.T.);
#41=ORIENTED_EDGE('',#13,#29,#40,.T.);
#42=EDGE_LOOP('',(#19,#27,#35,#41));
#43=FACE_OUTER_BOUND('',#42,.T.);
#44=ADVANCED_FACE('',#9,(#43),.T.);
#45=CARTESIAN_POINT('',(-1.0,-1.0,4.0));
#46=DIRECTION('',(0.0,0.0,1.0));
#47=DIRECTION('',(1.0,0.0,0.0));
#48=AXIS2_PLACEMENT_3D('',#45,#46,#47);
#49=PLANE('',#48);
#50=CARTESIAN_POINT('',(0.0,0.0,4.0));
#51=VERTEX_POINT('',#50);
#52=CARTESIAN_POINT('',(2.0,0.0,4.0));
#53=VERTEX_POINT('',#52);
#54=CARTESIAN_POINT('',(0.0,0.0,4.0));
#55=DIRECTION('',(1.0,0.0,0.0));
#56=VECTOR('',#55,1.0);
#57=LINE('',#54,#56);
#58=EDGE_CURVE('',#51,#53,#57,.T.);
#59=ORIENTED_EDGE('',#51,#53,#58,.T.);
#60=CARTESIAN_POINT('',(2.0,3.0,4.0));
#61=VERTEX_POINT('',#60);
#62=CARTESIAN_POINT('',(2.0,0.0,4.0));
#63=DIRECTION('',(0.0,1.0,0.0));
#64=VECTOR('',#63,1.0);
#65=LINE('',#62,#64);
#66=EDGE_CURVE('',#53,#61,#65,.T.);
#67=ORIENTED_EDGE('',#53,#61,#66,.T.);
#68=CARTESIAN_POINT('',(0.0,3.0,4.0));
#69=VERTEX_POINT('',#68);
#70=CARTESIAN_POINT('',(2.0,3.0,4.0));
#71=DIRECTION('',(-1.0,0.0,0.0));
#72=VECTOR('',#71,1.0);
#73=LINE('',#70,#72);
#74=EDGE_CURVE('',#61,#69,#73,.T.);
#75=ORIENTED_EDGE('',#61,#69,#74,.T.);
#76=CARTESIAN_POINT('',(0.0,3.0,4.0));
#77=DIRECTION('',(0.0,-1.0,0.0));
#78=VECTOR('',#77,1.0);
#79=LINE('',#76,#78);
#80=EDGE_CURVE('',#69,#51,#79,.T.);
#81=ORIENTED_EDGE('',#69,#51,#80,.T.);
#82=EDGE_LOOP('',(#59,#67,#75,#81));
#83=FACE_OUTER_BOUND('',#82,.T.);
#84=ADVANCED_FACE('',#49,(#83),.T.);
#85=CARTESIAN_POINT('',(1.0,0.0,-1.0));
#86=DIRECTION('',(0.0,-1.0,0.0));
#87=DIRECTION('',(0.0,0.0,1.0));
#88=AXIS2_PLACEMENT_3D('',#85,#86,#87);
#89=PLANE('',#88);
#90=ORIENTED_EDGE('',#13,#29,#40,.T.);
#91=CARTESIAN_POINT('',(2.0,0.0,0.0));
#92=DIRECTION('',(0.0,0.0,1.0));
#93=VECTOR('',#92,1.0);
#94=LINE('',#91,#93);
#95=EDGE_CURVE('',#29,#53,#94,.T.);
#96=ORIENTED_EDGE('',#29,#53,#95,.T.);
#97=ORIENTED_EDGE('',#51,#53,#58,.T.);
#98=CARTESIAN_POINT('',(0.0,0.0,0.0));
#99=DIRECTION('',(0.0,0.0,1.0));
#100=VECTOR('',#99,1.0);
#101=LINE('',#98,#100);
#102=EDGE_CURVE('',#13,#51,#101,.T.);
#103=ORIENTED_EDGE('',#13,#51,#102,.T.);
#104=EDGE_LOOP('',(#90,#96,#97,#103));
#105=FACE_OUTER_BOUND('',#104,.T.);
#106=ADVANCED_FACE('',#89,(#105),.T.);
#107=CARTESIAN_POINT('',(-1.0,3.0,-1.0));
#108=DIRECTION('',(0.0,1.0,0.0));
#109=DIRECTION('',(0.0,0.0,1.0));
#110=AXIS2_PLACEMENT_3D('',#107,#108,#109);
#111=PLANE('',#110);
#112=ORIENTED_EDGE('',#21,#11,#26,.T.);
#113=CARTESIAN_POINT('',(2.0,3.0,0.0));
#114=DIRECTION('',(0.0,0.0,1.0));
#115=VECTOR('',#114,1.0);
#116=LINE('',#113,#115);
#117=EDGE_CURVE('',#21,#61,#116,.T.);
#118=ORIENTED_EDGE('',#21,#61,#117,.T.);
#119=ORIENTED_EDGE('',#61,#69,#74,.T.);
#120=CARTESIAN_POINT('',(0.0,3.0,0.0));
#121=DIRECTION('',(0.0,0.0,1.0));
#122=VECTOR('',#121,1.0);
#123=LINE('',#120,#122);
#124=EDGE_CURVE('',#11,#69,#123,.T.);
#125=ORIENTED_EDGE('',#11,#69,#124,.T.);
#126=EDGE_LOOP('',(#112,#118,#119,#125));
#127=FACE_OUTER_BOUND('',#126,.T.);
#128=ADVANCED_FACE('',#111,(#127),.T.);
#129=CARTESIAN_POINT('',(0.0,-1.0,-1.0));
#130=DIRECTION('',(-1.0,0.0,0.0));
#131=DIRECTION('',(0.0,0.0,1.0));
#132=AXIS2_PLACEMENT_3D('',#129,#130,#131);
#133=PLANE('',#132);
#134=ORIENTED_EDGE('',#13,#51,#102,.T.);
#135=ORIENTED_EDGE('',#69,#51,#80,.T.);
#136=ORIENTED_EDGE('',#11,#69,#124,.T.);
#137=ORIENTED_EDGE('',#11,#13,#18,.T.);
#138=EDGE_LOOP('',(#134,#135,#136,#137));
#139=FACE_OUTER_BOUND('',#138,.T.);
#140=ADVANCED_FACE('',#133,(#139),.T.);
#141=CARTESIAN_POINT('',(2.0,1.0,-1.0));
#142=DIRECTION('',(1.0,0.0,-0.0));
#143=DIRECTION('',(0.0,0.0,1.0));
#144=AXIS2_PLACEMENT_3D('',#141,#142,#143);
#145=PLANE('',#144);
#146=ORIENTED_EDGE('',#29,#21,#34,.T.);
#147=ORIENTED_EDGE('',#21,#61,#117,.T.);
#148=ORIENTED_EDGE('',#53,#61,#66,.T.);
#149=ORIENTED_EDGE('',#29,#53,#95,.T.);
#150=EDGE_LOOP('',(#146,#147,#148,#149));
#151=FACE_OUTER_BOUND('',#150,.T.);
#152=ADVANCED_FACE('',#145,(#151),.T.);
#153=CLOSED_SHELL('',(#44,#84,#106,#128,#140,#152));
#154=MANIFOLD_SOLID_BREP('',#153);
#155=ADVANCED_BREP_SHAPE_REPRESENTATION('Shape',(#154),#4);
#156=PRODUCT('Shape','Shape','',(2));
#157=PRODUCT_DEFINITION_FORMATION('','',#156);
#158=PRODUCT_DEFINITION('','','',#157,#3);
#159=PRODUCT_DEFINITION_SHAPE('','',#156);
#160=PRODUCT_DEFINITION_SHAPE_REPRESENTATION('',#159,#155);
ENDSEC;
END-ISO-10303-21;
