v 0.000000000 3.000000000 0.000000000
v 0.200000000 3.000000000 0.000000000
v 0.400000000 3.000000000 0.000000000
v 0.600000000 3.000000000 0.000000000
v 0.800000000 3.000000000 0.000000000
v 1.000000000 3.000000000 0.000000000
v 1.200000000 3.000000000 0.000000000
v 1.400000000 3.000000000 0.000000000
v 1.600000000 3.000000000 0.000000000
v 1.800000000 3.000000000 0.000000000
v 2.000000000 3.000000000 0.000000000
v 0.000000000 2.800000000 0.000000000
v 0.200000000 2.800000000 0.000000000
v 0.400000000 2.800000000 0.000000000
v 0.600000000 2.800000000 0.000000000
v 0.800000000 2.800000000 0.000000000
v 1.000000000 2.800000000 0.000000000
v 1.200000000 2.800000000 0.000000000
v 1.400000000 2.800000000 0.000000000
v 1.600000000 2.800000000 0.000000000
v 1.800000000 2.800000000 0.000000000
v 2.000000000 2.800000000 0.000000000
v 0.000000000 2.600000000 0.000000000
v 0.200000000 2.600000000 0.000000000
v 0.400000000 2.600000000 0.000000000
v 0.600000000 2.600000000 0.000000000
v 0.800000000 2.600000000 0.000000000
v 1.000000000 2.600000000 0.000000000
v 1.200000000 2.600000000 0.000000000
v 1.400000000 2.600000000 0.000000000
v 1.600000000 2.600000000 0.000000000
v 1.800000000 2.600000000 0.000000000
v 2.000000000 2.600000000 0.000000000
v 0.000000000 2.400000000 0.000000000
v 0.200000000 2.400000000 0.000000000
v 0.400000000 2.400000000 0.000000000
v 0.600000000 2.400000000 0.000000000
v 0.800000000 2.400000000 0.000000000
v 1.000000000 2.400000000 0.000000000
v 1.200000000 2.400000000 0.000000000
v 1.400000000 2.400000000 0.000000000
v 1.600000000 2.400000000 0.000000000
v 1.800000000 2.400000000 0.000000000
v 2.000000000 2.400000000 0.000000000
v 0.000000000 2.200000000 0.000000000
v 0.200000000 2.200000000 0.000000000
v 0.400000000 2.200000000 0.000000000
v 0.600000000 2.200000000 0.000000000
v 0.800000000 2.200000000 0.000000000
v 1.000000000 2.200000000 0.000000000
v 1.200000000 2.200000000 0.000000000
v 1.400000000 2.200000000 0.000000000
v 1.600000000 2.200000000 0.000000000
v 1.800000000 2.200000000 0.000000000
v 2.000000000 2.200000000 0.000000000
v 0.000000000 2.000000000 0.000000000
v 0.200000000 2.000000000 0.000000000
v 0.400000000 2.000000000 0.000000000
v 0.600000000 2.000000000 0.000000000
v 0.800000000 2.000000000 0.000000000
v 1.000000000 2.000000000 0.000000000
v 1.200000000 2.000000000 0.000000000
v 1.400000000 2.000000000 0.000000000
v 1.600000000 2.000000000 0.000000000
v 1.800000000 2.000000000 0.000000000
v 2.000000000 2.000000000 0.000000000
v 0.000000000 1.800000000 0.000000000
v 0.200000000 1.800000000 0.000000000
v 0.400000000 1.800000000 0.000000000
v 0.600000000 1.800000000 0.000000000
v 0.800000000 1.800000000 0.000000000
v 1.000000000 1.800000000 0.000000000
v 1.200000000 1.800000000 0.000000000
v 1.400000000 1.800000000 0.000000000
v 1.600000000 1.800000000 0.000000000
v 1.800000000 1.800000000 0.000000000
v 2.000000000 1.800000000 0.000000000
v 0.000000000 1.600000000 0.000000000
v 0.200000000 1.600000000 0.000000000
v 0.400000000 1.600000000 0.000000000
v 0.600000000 1.600000000 0.000000000
v 0.800000000 1.600000000 0.000000000
v 1.000000000 1.600000000 0.000000000
v 1.200000000 1.600000000 0.000000000
v 1.400000000 1.600000000 0.000000000
v 1.600000000 1.600000000 0.000000000
v 1.800000000 1.600000000 0.000000000
v 2.000000000 1.600000000 0.000000000
v 0.000000000 1.400000000 0.000000000
v 0.200000000 1.400000000 0.000000000
v 0.400000000 1.400000000 0.000000000
v 0.600000000 1.400000000 0.000000000
v 0.800000000 1.400000000 0.000000000
v 1.000000000 1.400000000 0.000000000
v 1.200000000 1.400000000 0.000000000
v 1.400000000 1.400000000 0.000000000
v 1.600000000 1.400000000 0.000000000
v 1.800000000 1.400000000 0.000000000
v 2.000000000 1.400000000 0.000000000
v 0.000000000 1.200000000 0.000000000
v 0.200000000 1.200000000 0.000000000
v 0.400000000 1.200000000 0.000000000
v 0.600000000 1.200000000 0.000000000
v 0.800000000 1.200000000 0.000000000
v 1.000000000 1.200000000 0.000000000
v 1.200000000 1.200000000 0.000000000
v 1.400000000 1.200000000 0.000000000
v 1.600000000 1.200000000 0.000000000
v 1.800000000 1.200000000 0.000000000
v 2.000000000 1.200000000 0.000000000
v 0.000000000 1.000000000 0.000000000
v 0.200000000 1.000000000 0.000000000
v 0.400000000 1.000000000 0.000000000
v 0.600000000 1.000000000 0.000000000
v 0.800000000 1.000000000 0.000000000
v 1.000000000 1.000000000 0.000000000
v 1.200000000 1.000000000 0.000000000
v 1.400000000 1.000000000 0.000000000
v 1.600000000 1.000000000 0.000000000
v 1.800000000 1.000000000 0.000000000
v 2.000000000 1.000000000 0.000000000
v 0.000000000 0.800000000 0.000000000
v 0.200000000 0.800000000 0.000000000
v 0.400000000 0.800000000 0.000000000
v 0.600000000 0.800000000 0.000000000
v 0.800000000 0.800000000 0.000000000
v 1.000000000 0.800000000 0.000000000
v 1.200000000 0.800000000 0.000000000
v 1.400000000 0.800000000 0.000000000
v 1.600000000 0.800000000 0.000000000
v 1.800000000 0.800000000 0.000000000
v 2.000000000 0.800000000 0.000000000
v 0.000000000 0.600000000 0.000000000
v 0.200000000 0.600000000 0.000000000
v 0.400000000 0.600000000 0.000000000
v 0.600000000 0.600000000 0.000000000
v 0.800000000 0.600000000 0.000000000
v 1.000000000 0.600000000 0.000000000
v 1.200000000 0.600000000 0.000000000
v 1.400000000 0.600000000 0.000000000
v 1.600000000 0.600000000 0.000000000
v 1.800000000 0.600000000 0.000000000
v 2.000000000 0.600000000 0.000000000
v 0.000000000 0.400000000 0.000000000
v 0.200000000 0.400000000 0.000000000
v 0.400000000 0.400000000 0.000000000
v 0.600000000 0.400000000 0.000000000
v 0.800000000 0.400000000 0.000000000
v 1.000000000 0.400000000 0.000000000
v 1.200000000 0.400000000 0.000000000
v 1.400000000 0.400000000 0.000000000
v 1.600000000 0.400000000 0.000000000
v 1.800000000 0.400000000 0.000000000
v 2.000000000 0.400000000 0.000000000
v 0.000000000 0.200000000 0.000000000
v 0.200000000 0.200000000 0.000000000
v 0.400000000 0.200000000 0.000000000
v 0.600000000 0.200000000 0.000000000
v 0.800000000 0.200000000 0.000000000
v 1.000000000 0.200000000 0.000000000
v 1.200000000 0.200000000 0.000000000
v 1.400000000 0.200000000 0.000000000
v 1.600000000 0.200000000 0.000000000
v 1.800000000 0.200000000 0.000000000
v 2.000000000 0.200000000 0.000000000
v 0.000000000 0.000000000 0.000000000
v 0.200000000 0.000000000 0.000000000
v 0.400000000 0.000000000 0.000000000
v 0.600000000 0.000000000 0.000000000
v 0.800000000 0.000000000 0.000000000
v 1.000000000 0.000000000 0.000000000
v 1.200000000 0.000000000 0.000000000
v 1.400000000 0.000000000 0.000000000
v 1.600000000 0.000000000 0.000000000
v 1.800000000 0.000000000 0.000000000
v 2.000000000 0.000000000 0.000000000
v 0.000000000 0.000000000 4.000000000
v 0.200000000 0.000000000 4.000000000
v 0.400000000 0.000000000 4.000000000
v 0.600000000 0.000000000 4.000000000
v 0.800000000 0.000000000 4.000000000
v 1.000000000 0.000000000 4.000000000
v 1.200000000 0.000000000 4.000000000
v 1.400000000 0.000000000 4.000000000
v 1.600000000 0.000000000 4.000000000
v 1.800000000 0.000000000 4.000000000
v 2.000000000 0.000000000 4.000000000
v 0.000000000 0.200000000 4.000000000
v 0.200000000 0.200000000 4.000000000
v 0.400000000 0.200000000 4.000000000
v 0.600000000 0.200000000 4.000000000
v 0.800000000 0.200000000 4.000000000
v 1.000000000 0.200000000 4.000000000
v 1.200000000 0.200000000 4.000000000
v 1.400000000 0.200000000 4.000000000
v 1.600000000 0.200000000 4.000000000
v 1.800000000 0.200000000 4.000000000
v 2.000000000 0.200000000 4.000000000
v 0.000000000 0.400000000 4.000000000
v 0.200000000 0.400000000 4.000000000
v 0.400000000 0.400000000 4.000000000
v 0.600000000 0.400000000 4.000000000
v 0.800000000 0.400000000 4.000000000
v 1.000000000 0.400000000 4.000000000
v 1.200000000 0.400000000 4.000000000
v 1.400000000 0.400000000 4.000000000
v 1.600000000 0.400000000 4.000000000
v 1.800000000 0.400000000 4.000000000
v 2.000000000 0.400000000 4.000000000
v 0.000000000 0.600000000 4.000000000
v 0.200000000 0.600000000 4.000000000
v 0.400000000 0.600000000 4.000000000
v 0.600000000 0.600000000 4.000000000
v 0.800000000 0.600000000 4.000000000
v 1.000000000 0.600000000 4.000000000
v 1.200000000 0.600000000 4.000000000
v 1.400000000 0.600000000 4.000000000
v 1.600000000 0.600000000 4.000000000
v 1.800000000 0.600000000 4.000000000
v 2.000000000 0.600000000 4.000000000
v 0.000000000 0.800000000 4.000000000
v 0.200000000 0.800000000 4.000000000
v 0.400000000 0.800000000 4.000000000
v 0.600000000 0.800000000 4.000000000
v 0.800000000 0.800000000 4.000000000
v 1.000000000 0.800000000 4.000000000
v 1.200000000 0.800000000 4.000000000
v 1.400000000 0.800000000 4.000000000
v 1.600000000 0.800000000 4.000000000
v 1.800000000 0.800000000 4.000000000
v 2.000000000 0.800000000 4.000000000
v 0.000000000 1.000000000 4.000000000
v 0.200000000 1.000000000 4.000000000
v 0.400000000 1.000000000 4.000000000
v 0.600000000 1.000000000 4.000000000
v 0.800000000 1.000000000 4.000000000
v 1.000000000 1.000000000 4.000000000
v 1.200000000 1.000000000 4.000000000
v 1.400000000 1.000000000 4.000000000
v 1.600000000 1.000000000 4.000000000
v 1.800000000 1.000000000 4.000000000
v 2.000000000 1.000000000 4.000000000
v 0.000000000 1.200000000 4.000000000
v 0.200000000 1.200000000 4.000000000
v 0.400000000 1.200000000 4.000000000
v 0.600000000 1.200000000 4.000000000
v 0.800000000 1.200000000 4.000000000
v 1.000000000 1.200000000 4.000000000
v 1.200000000 1.200000000 4.000000000
v 1.400000000 1.200000000 4.000000000
v 1.600000000 1.200000000 4.000000000
v 1.800000000 1.200000000 4.000000000
v 2.000000000 1.200000000 4.000000000
v 0.000000000 1.400000000 4.000000000
v 0.200000000 1.400000000 4.000000000
v 0.400000000 1.400000000 4.000000000
v 0.600000000 1.400000000 4.000000000
v 0.800000000 1.400000000 4.000000000
v 1.000000000 1.400000000 4.000000000
v 1.200000000 1.400000000 4.000000000
v 1.400000000 1.400000000 4.000000000
v 1.600000000 1.400000000 4.000000000
v 1.800000000 1.400000000 4.000000000
v 2.000000000 1.400000000 4.000000000
v 0.000000000 1.600000000 4.000000000
v 0.200000000 1.600000000 4.000000000
v 0.400000000 1.600000000 4.000000000
v 0.600000000 1.600000000 4.000000000
v 0.800000000 1.600000000 4.000000000
v 1.000000000 1.600000000 4.000000000
v 1.200000000 1.600000000 4.000000000
v 1.400000000 1.600000000 4.000000000
v 1.600000000 1.600000000 4.000000000
v 1.800000000 1.600000000 4.000000000
v 2.000000000 1.600000000 4.000000000
v 0.000000000 1.800000000 4.000000000
v 0.200000000 1.800000000 4.000000000
v 0.400000000 1.800000000 4.000000000
v 0.600000000 1.800000000 4.000000000
v 0.800000000 1.800000000 4.000000000
v 1.000000000 1.800000000 4.000000000
v 1.200000000 1.800000000 4.000000000
v 1.400000000 1.800000000 4.000000000
v 1.600000000 1.800000000 4.000000000
v 1.800000000 1.800000000 4.000000000
v 2.000000000 1.800000000 4.000000000
v 0.000000000 2.000000000 4.000000000
v 0.200000000 2.000000000 4.000000000
v 0.400000000 2.000000000 4.000000000
v 0.600000000 2.000000000 4.000000000
v 0.800000000 2.000000000 4.000000000
v 1.000000000 2.000000000 4.000000000
v 1.200000000 2.000000000 4.000000000
v 1.400000000 2.000000000 4.000000000
v 1.600000000 2.000000000 4.000000000
v 1.800000000 2.000000000 4.000000000
v 2.000000000 2.000000000 4.000000000
v 0.000000000 2.200000000 4.000000000
v 0.200000000 2.200000000 4.000000000
v 0.400000000 2.200000000 4.000000000
v 0.600000000 2.200000000 4.000000000
v 0.800000000 2.200000000 4.000000000
v 1.000000000 2.200000000 4.000000000
v 1.200000000 2.200000000 4.000000000
v 1.400000000 2.200000000 4.000000000
v 1.600000000 2.200000000 4.000000000
v 1.800000000 2.200000000 4.000000000
v 2.000000000 2.200000000 4.000000000
v 0.000000000 2.400000000 4.000000000
v 0.200000000 2.400000000 4.000000000
v 0.400000000 2.400000000 4.000000000
v 0.600000000 2.400000000 4.000000000
v 0.800000000 2.400000000 4.000000000
v 1.000000000 2.400000000 4.000000000
v 1.200000000 2.400000000 4.000000000
v 1.400000000 2.400000000 4.000000000
v 1.600000000 2.400000000 4.000000000
v 1.800000000 2.400000000 4.000000000
v 2.000000000 2.400000000 4.000000000
v 0.000000000 2.600000000 4.000000000
v 0.200000000 2.600000000 4.000000000
v 0.400000000 2.600000000 4.000000000
v 0.600000000 2.600000000 4.000000000
v 0.800000000 2.600000000 4.000000000
v 1.000000000 2.600000000 4.000000000
v 1.200000000 2.600000000 4.000000000
v 1.400000000 2.600000000 4.000000000
v 1.600000000 2.600000000 4.000000000
v 1.800000000 2.600000000 4.000000000
v 2.000000000 2.600000000 4.000000000
v 0.000000000 2.800000000 4.000000000
v 0.200000000 2.800000000 4.000000000
v 0.400000000 2.800000000 4.000000000
v 0.600000000 2.800000000 4.000000000
v 0.800000000 2.800000000 4.000000000
v 1.000000000 2.800000000 4.000000000
v 1.200000000 2.800000000 4.000000000
v 1.400000000 2.800000000 4.000000000
v 1.600000000 2.800000000 4.000000000
v 1.800000000 2.800000000 4.000000000
v 2.000000000 2.800000000 4.000000000
v 0.000000000 3.000000000 4.000000000
v 0.200000000 3.000000000 4.000000000
v 0.400000000 3.000000000 4.000000000
v 0.600000000 3.000000000 4.000000000
v 0.800000000 3.000000000 4.000000000
v 1.000000000 3.000000000 4.000000000
v 1.200000000 3.000000000 4.000000000
v 1.400000000 3.000000000 4.000000000
v 1.600000000 3.000000000 4.000000000
v 1.800000000 3.000000000 4.000000000
v 2.000000000 3.000000000 4.000000000
v 2.000000000 0.000000000 0.000000000
v 2.000000000 0.000000000 0.200000000
v 2.000000000 0.000000000 0.400000000
v 2.000000000 0.000000000 0.600000000
v 2.000000000 0.000000000 0.800000000
v 2.000000000 0.000000000 1.000000000
v 2.000000000 0.000000000 1.200000000
v 2.000000000 0.000000000 1.400000000
v 2.000000000 0.000000000 1.600000000
v 2.000000000 0.000000000 1.800000000
v 2.000000000 0.000000000 2.000000000
v 2.000000000 0.000000000 2.200000000
v 2.000000000 0.000000000 2.400000000
v 2.000000000 0.000000000 2.600000000
v 2.000000000 0.000000000 2.800000000
v 2.000000000 0.000000000 3.000000000
v 2.000000000 0.000000000 3.200000000
v 2.000000000 0.000000000 3.400000000
v 2.000000000 0.000000000 3.600000000
v 2.000000000 0.000000000 3.800000000
v 2.000000000 0.000000000 4.000000000
v 1.800000000 0.000000000 0.000000000
v 1.800000000 0.000000000 0.200000000
v 1.800000000 0.000000000 0.400000000
v 1.800000000 0.000000000 0.600000000
v 1.800000000 0.000000000 0.800000000
v 1.800000000 0.000000000 1.000000000
v 1.800000000 0.000000000 1.200000000
v 1.800000000 0.000000000 1.400000000
v 1.800000000 0.000000000 1.600000000
v 1.800000000 0.000000000 1.800000000
v 1.800000000 0.000000000 2.000000000
v 1.800000000 0.000000000 2.200000000
v 1.800000000 0.000000000 2.400000000
v 1.800000000 0.000000000 2.600000000
v 1.800000000 0.000000000 2.800000000
v 1.800000000 0.000000000 3.000000000
v 1.800000000 0.000000000 3.200000000
v 1.800000000 0.000000000 3.400000000
v 1.800000000 0.000000000 3.600000000
v 1.800000000 0.000000000 3.800000000
v 1.800000000 0.000000000 4.000000000
v 1.600000000 0.000000000 0.000000000
v 1.600000000 0.000000000 0.200000000
v 1.600000000 0.000000000 0.400000000
v 1.600000000 0.000000000 0.600000000
v 1.600000000 0.000000000 0.800000000
v 1.600000000 0.000000000 1.000000000
v 1.600000000 0.000000000 1.200000000
v 1.600000000 0.000000000 1.400000000
v 1.600000000 0.000000000 1.600000000
v 1.600000000 0.000000000 1.800000000
v 1.600000000 0.000000000 2.000000000
v 1.600000000 0.000000000 2.200000000
v 1.600000000 0.000000000 2.400000000
v 1.600000000 0.000000000 2.600000000
v 1.600000000 0.000000000 2.800000000
v 1.600000000 0.000000000 3.000000000
v 1.600000000 0.000000000 3.200000000
v 1.600000000 0.000000000 3.400000000
v 1.600000000 0.000000000 3.600000000
v 1.600000000 0.000000000 3.800000000
v 1.600000000 0.000000000 4.000000000
v 1.400000000 0.000000000 0.000000000
v 1.400000000 0.000000000 0.200000000
v 1.400000000 0.000000000 0.400000000
v 1.400000000 0.000000000 0.600000000
v 1.400000000 0.000000000 0.800000000
v 1.400000000 0.000000000 1.000000000
v 1.400000000 0.000000000 1.200000000
v 1.400000000 0.000000000 1.400000000
v 1.400000000 0.000000000 1.600000000
v 1.400000000 0.000000000 1.800000000
v 1.400000000 0.000000000 2.000000000
v 1.400000000 0.000000000 2.200000000
v 1.400000000 0.000000000 2.400000000
v 1.400000000 0.000000000 2.600000000
v 1.400000000 0.000000000 2.800000000
v 1.400000000 0.000000000 3.000000000
v 1.400000000 0.000000000 3.200000000
v 1.400000000 0.000000000 3.400000000
v 1.400000000 0.000000000 3.600000000
v 1.400000000 0.000000000 3.800000000
v 1.400000000 0.000000000 4.000000000
v 1.200000000 0.000000000 0.000000000
v 1.200000000 0.000000000 0.200000000
v 1.200000000 0.000000000 0.400000000
v 1.200000000 0.000000000 0.600000000
v 1.200000000 0.000000000 0.800000000
v 1.200000000 0.000000000 1.000000000
v 1.200000000 0.000000000 1.200000000
v 1.200000000 0.000000000 1.400000000
v 1.200000000 0.000000000 1.600000000
v 1.200000000 0.000000000 1.800000000
v 1.200000000 0.000000000 2.000000000
v 1.200000000 0.000000000 2.200000000
v 1.200000000 0.000000000 2.400000000
v 1.200000000 0.000000000 2.600000000
v 1.200000000 0.000000000 2.800000000
v 1.200000000 0.000000000 3.000000000
v 1.200000000 0.000000000 3.200000000
v 1.200000000 0.000000000 3.400000000
v 1.200000000 0.000000000 3.600000000
v 1.200000000 0.000000000 3.800000000
v 1.200000000 0.000000000 4.000000000
v 1.000000000 0.000000000 0.000000000
v 1.000000000 0.000000000 0.200000000
v 1.000000000 0.000000000 0.400000000
v 1.000000000 0.000000000 0.600000000
v 1.000000000 0.000000000 0.800000000
v 1.000000000 0.000000000 1.000000000
v 1.000000000 0.000000000 1.200000000
v 1.000000000 0.000000000 1.400000000
v 1.000000000 0.000000000 1.600000000
v 1.000000000 0.000000000 1.800000000
v 1.000000000 0.000000000 2.000000000
v 1.000000000 0.000000000 2.200000000
v 1.000000000 0.000000000 2.400000000
v 1.000000000 0.000000000 2.600000000
v 1.000000000 0.000000000 2.800000000
v 1.000000000 0.000000000 3.000000000
v 1.000000000 0.000000000 3.200000000
v 1.000000000 0.000000000 3.400000000
v 1.000000000 0.000000000 3.600000000
v 1.000000000 0.000000000 3.800000000
v 1.000000000 0.000000000 4.000000000
v 0.800000000 0.000000000 0.000000000
v 0.800000000 0.000000000 0.200000000
v 0.800000000 0.000000000 0.400000000
v 0.800000000 0.000000000 0.600000000
v 0.800000000 0.000000000 0.800000000
v 0.800000000 0.000000000 1.000000000
v 0.800000000 0.000000000 1.200000000
v 0.800000000 0.000000000 1.400000000
v 0.800000000 0.000000000 1.600000000
v 0.800000000 0.000000000 1.800000000
v 0.800000000 0.000000000 2.000000000
v 0.800000000 0.000000000 2.200000000
v 0.800000000 0.000000000 2.400000000
v 0.800000000 0.000000000 2.600000000
v 0.800000000 0.000000000 2.800000000
v 0.800000000 0.000000000 3.000000000
v 0.800000000 0.000000000 3.200000000
v 0.800000000 0.000000000 3.400000000
v 0.800000000 0.000000000 3.600000000
v 0.800000000 0.000000000 3.800000000
v 0.800000000 0.000000000 4.000000000
v 0.600000000 0.000000000 0.000000000
v 0.600000000 0.000000000 0.200000000
v 0.600000000 0.000000000 0.400000000
v 0.600000000 0.000000000 0.600000000
v 0.600000000 0.000000000 0.800000000
v 0.600000000 0.000000000 1.000000000
v 0.600000000 0.000000000 1.200000000
v 0.600000000 0.000000000 1.400000000
v 0.600000000 0.000000000 1.600000000
v 0.600000000 0.000000000 1.800000000
v 0.600000000 0.000000000 2.000000000
v 0.600000000 0.000000000 2.200000000
v 0.600000000 0.000000000 2.400000000
v 0.600000000 0.000000000 2.600000000
v 0.600000000 0.000000000 2.800000000
v 0.600000000 0.000000000 3.000000000
v 0.600000000 0.000000000 3.200000000
v 0.600000000 0.000000000 3.400000000
v 0.600000000 0.000000000 3.600000000
v 0.600000000 0.000000000 3.800000000
v 0.600000000 0.000000000 4.000000000
v 0.400000000 0.000000000 0.000000000
v 0.400000000 0.000000000 0.200000000
v 0.400000000 0.000000000 0.400000000
v 0.400000000 0.000000000 0.600000000
v 0.400000000 0.000000000 0.800000000
v 0.400000000 0.000000000 1.000000000
v 0.400000000 0.000000000 1.200000000
v 0.400000000 0.000000000 1.400000000
v 0.400000000 0.000000000 1.600000000
v 0.400000000 0.000000000 1.800000000
v 0.400000000 0.000000000 2.000000000
v 0.400000000 0.000000000 2.200000000
v 0.400000000 0.000000000 2.400000000
v 0.400000000 0.000000000 2.600000000
v 0.400000000 0.000000000 2.800000000
v 0.400000000 0.000000000 3.000000000
v 0.400000000 0.000000000 3.200000000
v 0.400000000 0.000000000 3.400000000
v 0.400000000 0.000000000 3.600000000
v 0.400000000 0.000000000 3.800000000
v 0.400000000 0.000000000 4.000000000
v 0.200000000 0.000000000 0.000000000
v 0.200000000 0.000000000 0.200000000
v 0.200000000 0.000000000 0.400000000
v 0.200000000 0.000000000 0.600000000
v 0.200000000 0.000000000 0.800000000
v 0.200000000 0.000000000 1.000000000
v 0.200000000 0.000000000 1.200000000
v 0.200000000 0.000000000 1.400000000
v 0.200000000 0.000000000 1.600000000
v 0.200000000 0.000000000 1.800000000
v 0.200000000 0.000000000 2.000000000
v 0.200000000 0.000000000 2.200000000
v 0.200000000 0.000000000 2.400000000
v 0.200000000 0.000000000 2.600000000
v 0.200000000 0.000000000 2.800000000
v 0.200000000 0.000000000 3.000000000
v 0.200000000 0.000000000 3.200000000
v 0.200000000 0.000000000 3.400000000
v 0.200000000 0.000000000 3.600000000
v 0.200000000 0.000000000 3.800000000
v 0.200000000 0.000000000 4.000000000
v 0.000000000 0.000000000 0.000000000
v 0.000000000 0.000000000 0.200000000
v 0.000000000 0.000000000 0.400000000
v 0.000000000 0.000000000 0.600000000
v 0.000000000 0.000000000 0.800000000
v 0.000000000 0.000000000 1.000000000
v 0.000000000 0.000000000 1.200000000
v 0.000000000 0.000000000 1.400000000
v 0.000000000 0.000000000 1.600000000
v 0.000000000 0.000000000 1.800000000
v 0.000000000 0.000000000 2.000000000
v 0.000000000 0.000000000 2.200000000
v 0.000000000 0.000000000 2.400000000
v 0.000000000 0.000000000 2.600000000
v 0.000000000 0.000000000 2.800000000
v 0.000000000 0.000000000 3.000000000
v 0.000000000 0.000000000 3.200000000
v 0.000000000 0.000000000 3.400000000
v 0.000000000 0.000000000 3.600000000
v 0.000000000 0.000000000 3.800000000
v 0.000000000 0.000000000 4.000000000
v 0.000000000 3.000000000 0.000000000
v 0.000000000 3.000000000 0.200000000
v 0.000000000 3.000000000 0.400000000
v 0.000000000 3.000000000 0.600000000
v 0.000000000 3.000000000 0.800000000
v 0.000000000 3.000000000 1.000000000
v 0.000000000 3.000000000 1.200000000
v 0.000000000 3.000000000 1.400000000
v 0.000000000 3.000000000 1.600000000
v 0.000000000 3.000000000 1.800000000
v 0.000000000 3.000000000 2.000000000
v 0.000000000 3.000000000 2.200000000
v 0.000000000 3.000000000 2.400000000
v 0.000000000 3.000000000 2.600000000
v 0.000000000 3.000000000 2.800000000
v 0.000000000 3.000000000 3.000000000
v 0.000000000 3.000000000 3.200000000
v 0.000000000 3.000000000 3.400000000
v 0.000000000 3.000000000 3.600000000
v 0.000000000 3.000000000 3.800000000
v 0.000000000 3.000000000 4.000000000
v 0.200000000 3.000000000 0.000000000
v 0.200000000 3.000000000 0.200000000
v 0.200000000 3.000000000 0.400000000
v 0.200000000 3.000000000 0.600000000
v 0.200000000 3.000000000 0.800000000
v 0.200000000 3.000000000 1.000000000
v 0.200000000 3.000000000 1.200000000
v 0.200000000 3.000000000 1.400000000
v 0.200000000 3.000000000 1.600000000
v 0.200000000 3.000000000 1.800000000
v 0.200000000 3.000000000 2.000000000
v 0.200000000 3.000000000 2.200000000
v 0.200000000 3.000000000 2.400000000
v 0.200000000 3.000000000 2.600000000
v 0.200000000 3.000000000 2.800000000
v 0.200000000 3.000000000 3.000000000
v 0.200000000 3.000000000 3.200000000
v 0.200000000 3.000000000 3.400000000
v 0.200000000 3.000000000 3.600000000
v 0.200000000 3.000000000 3.800000000
v 0.200000000 3.000000000 4.000000000
v 0.400000000 3.000000000 0.000000000
v 0.400000000 3.000000000 0.200000000
v 0.400000000 3.000000000 0.400000000
v 0.400000000 3.000000000 0.600000000
v 0.400000000 3.000000000 0.800000000
v 0.400000000 3.000000000 1.000000000
v 0.400000000 3.000000000 1.200000000
v 0.400000000 3.000000000 1.400000000
v 0.400000000 3.000000000 1.600000000
v 0.400000000 3.000000000 1.800000000
v 0.400000000 3.000000000 2.000000000
v 0.400000000 3.000000000 2.200000000
v 0.400000000 3.000000000 2.400000000
v 0.400000000 3.000000000 2.600000000
v 0.400000000 3.000000000 2.800000000
v 0.400000000 3.000000000 3.000000000
v 0.400000000 3.000000000 3.200000000
v 0.400000000 3.000000000 3.400000000
v 0.400000000 3.000000000 3.600000000
v 0.400000000 3.000000000 3.800000000
v 0.400000000 3.000000000 4.000000000
v 0.600000000 3.000000000 0.000000000
v 0.600000000 3.000000000 0.200000000
v 0.600000000 3.000000000 0.400000000
v 0.600000000 3.000000000 0.600000000
v 0.600000000 3.000000000 0.800000000
v 0.600000000 3.000000000 1.000000000
v 0.600000000 3.000000000 1.200000000
v 0.600000000 3.000000000 1.400000000
v 0.600000000 3.000000000 1.600000000
v 0.600000000 3.000000000 1.800000000
v 0.600000000 3.000000000 2.000000000
v 0.600000000 3.000000000 2.200000000
v 0.600000000 3.000000000 2.400000000
v 0.600000000 3.000000000 2.600000000
v 0.600000000 3.000000000 2.800000000
v 0.600000000 3.000000000 3.000000000
v 0.600000000 3.000000000 3.200000000
v 0.600000000 3.000000000 3.400000000
v 0.600000000 3.000000000 3.600000000
v 0.600000000 3.000000000 3.800000000
v 0.600000000 3.000000000 4.000000000
v 0.800000000 3.000000000 0.000000000
v 0.800000000 3.000000000 0.200000000
v 0.800000000 3.000000000 0.400000000
v 0.800000000 3.000000000 0.600000000
v 0.800000000 3.000000000 0.800000000
v 0.800000000 3.000000000 1.000000000
v 0.800000000 3.000000000 1.200000000
v 0.800000000 3.000000000 1.400000000
v 0.800000000 3.000000000 1.600000000
v 0.800000000 3.000000000 1.800000000
v 0.800000000 3.000000000 2.000000000
v 0.800000000 3.000000000 2.200000000
v 0.800000000 3.000000000 2.400000000
v 0.800000000 3.000000000 2.600000000
v 0.800000000 3.000000000 2.800000000
v 0.800000000 3.000000000 3.000000000
v 0.800000000 3.000000000 3.200000000
v 0.800000000 3.000000000 3.400000000
v 0.800000000 3.000000000 3.600000000
v 0.800000000 3.000000000 3.800000000
v 0.800000000 3.000000000 4.000000000
v 1.000000000 3.000000000 0.000000000
v 1.000000000 3.000000000 0.200000000
v 1.000000000 3.000000000 0.400000000
v 1.000000000 3.000000000 0.600000000
v 1.000000000 3.000000000 0.800000000
v 1.000000000 3.000000000 1.000000000
v 1.000000000 3.000000000 1.200000000
v 1.000000000 3.000000000 1.400000000
v 1.000000000 3.000000000 1.600000000
v 1.000000000 3.000000000 1.800000000
v 1.000000000 3.000000000 2.000000000
v 1.000000000 3.000000000 2.200000000
v 1.000000000 3.000000000 2.400000000
v 1.000000000 3.000000000 2.600000000
v 1.000000000 3.000000000 2.800000000
v 1.000000000 3.000000000 3.000000000
v 1.000000000 3.000000000 3.200000000
v 1.000000000 3.000000000 3.400000000
v 1.000000000 3.000000000 3.600000000
v 1.000000000 3.000000000 3.800000000
v 1.000000000 3.000000000 4.000000000
v 1.200000000 3.000000000 0.000000000
v 1.200000000 3.000000000 0.200000000
v 1.200000000 3.000000000 0.400000000
v 1.200000000 3.000000000 0.600000000
v 1.200000000 3.000000000 0.800000000
v 1.200000000 3.000000000 1.000000000
v 1.200000000 3.000000000 1.200000000
v 1.200000000 3.000000000 1.400000000
v 1.200000000 3.000000000 1.600000000
v 1.200000000 3.000000000 1.800000000
v 1.200000000 3.000000000 2.000000000
v 1.200000000 3.000000000 2.200000000
v 1.200000000 3.000000000 2.400000000
v 1.200000000 3.000000000 2.600000000
v 1.200000000 3.000000000 2.800000000
v 1.200000000 3.000000000 3.000000000
v 1.200000000 3.000000000 3.200000000
v 1.200000000 3.000000000 3.400000000
v 1.200000000 3.000000000 3.600000000
v 1.200000000 3.000000000 3.800000000
v 1.200000000 3.000000000 4.000000000
v 1.400000000 3.000000000 0.000000000
v 1.400000000 3.000000000 0.200000000
v 1.400000000 3.000000000 0.400000000
v 1.400000000 3.000000000 0.600000000
v 1.400000000 3.000000000 0.800000000
v 1.400000000 3.000000000 1.000000000
v 1.400000000 3.000000000 1.200000000
v 1.400000000 3.000000000 1.400000000
v 1.400000000 3.000000000 1.600000000
v 1.400000000 3.000000000 1.800000000
v 1.400000000 3.000000000 2.000000000
v 1.400000000 3.000000000 2.200000000
v 1.400000000 3.000000000 2.400000000
v 1.400000000 3.000000000 2.600000000
v 1.400000000 3.000000000 2.800000000
v 1.400000000 3.000000000 3.000000000
v 1.400000000 3.000000000 3.200000000
v 1.400000000 3.000000000 3.400000000
v 1.400000000 3.000000000 3.600000000
v 1.400000000 3.000000000 3.800000000
v 1.400000000 3.000000000 4.000000000
v 1.600000000 3.000000000 0.000000000
v 1.600000000 3.000000000 0.200000000
v 1.600000000 3.000000000 0.400000000
v 1.600000000 3.000000000 0.600000000
v 1.600000000 3.000000000 0.800000000
v 1.600000000 3.000000000 1.000000000
v 1.600000000 3.000000000 1.200000000
v 1.600000000 3.000000000 1.400000000
v 1.600000000 3.000000000 1.600000000
v 1.600000000 3.000000000 1.800000000
v 1.600000000 3.000000000 2.000000000
v 1.600000000 3.000000000 2.200000000
v 1.600000000 3.000000000 2.400000000
v 1.600000000 3.000000000 2.600000000
v 1.600000000 3.000000000 2.800000000
v 1.600000000 3.000000000 3.000000000
v 1.600000000 3.000000000 3.200000000
v 1.600000000 3.000000000 3.400000000
v 1.600000000 3.000000000 3.600000000
v 1.600000000 3.000000000 3.800000000
v 1.600000000 3.000000000 4.000000000
v 1.800000000 3.000000000 0.000000000
v 1.800000000 3.000000000 0.200000000
v 1.800000000 3.000000000 0.400000000
v 1.800000000 3.000000000 0.600000000
v 1.800000000 3.000000000 0.800000000
v 1.800000000 3.000000000 1.000000000
v 1.800000000 3.000000000 1.200000000
v 1.800000000 3.000000000 1.400000000
v 1.800000000 3.000000000 1.600000000
v 1.800000000 3.000000000 1.800000000
v 1.800000000 3.000000000 2.000000000
v 1.800000000 3.000000000 2.200000000
v 1.800000000 3.000000000 2.400000000
v 1.800000000 3.000000000 2.600000000
v 1.800000000 3.000000000 2.800000000
v 1.800000000 3.000000000 3.000000000
v 1.800000000 3.000000000 3.200000000
v 1.800000000 3.000000000 3.400000000
v 1.800000000 3.000000000 3.600000000
v 1.800000000 3.000000000 3.800000000
v 1.800000000 3.000000000 4.000000000
v 2.000000000 3.000000000 0.000000000
v 2.000000000 3.000000000 0.200000000
v 2.000000000 3.000000000 0.400000000
v 2.000000000 3.000000000 0.600000000
v 2.000000000 3.000000000 0.800000000
v 2.000000000 3.000000000 1.000000000
v 2.000000000 3.000000000 1.200000000
v 2.000000000 3.000000000 1.400000000
v 2.000000000 3.000000000 1.600000000
v 2.000000000 3.000000000 1.800000000
v 2.000000000 3.000000000 2.000000000
v 2.000000000 3.000000000 2.200000000
v 2.000000000 3.000000000 2.400000000
v 2.000000000 3.000000000 2.600000000
v 2.000000000 3.000000000 2.800000000
v 2.000000000 3.000000000 3.000000000
v 2.000000000 3.000000000 3.200000000
v 2.000000000 3.000000000 3.400000000
v 2.000000000 3.000000000 3.600000000
v 2.000000000 3.000000000 3.800000000
v 2.000000000 3.000000000 4.000000000
v 0.000000000 0.000000000 0.000000000
v 0.000000000 0.000000000 0.200000000
v 0.000000000 0.000000000 0.400000000
v 0.000000000 0.000000000 0.600000000
v 0.000000000 0.000000000 0.800000000
v 0.000000000 0.000000000 1.000000000
v 0.000000000 0.000000000 1.200000000
v 0.000000000 0.000000000 1.400000000
v 0.000000000 0.000000000 1.600000000
v 0.000000000 0.000000000 1.800000000
v 0.000000000 0.000000000 2.000000000
v 0.000000000 0.000000000 2.200000000
v 0.000000000 0.000000000 2.400000000
v 0.000000000 0.000000000 2.600000000
v 0.000000000 0.000000000 2.800000000
v 0.000000000 0.000000000 3.000000000
v 0.000000000 0.000000000 3.200000000
v 0.000000000 0.000000000 3.400000000
v 0.000000000 0.000000000 3.600000000
v 0.000000000 0.000000000 3.800000000
v 0.000000000 0.000000000 4.000000000
v 0.000000000 0.200000000 0.000000000
v 0.000000000 0.200000000 0.200000000
v 0.000000000 0.200000000 0.400000000
v 0.000000000 0.200000000 0.600000000
v 0.000000000 0.200000000 0.800000000
v 0.000000000 0.200000000 1.000000000
v 0.000000000 0.200000000 1.200000000
v 0.000000000 0.200000000 1.400000000
v 0.000000000 0.200000000 1.600000000
v 0.000000000 0.200000000 1.800000000
v 0.000000000 0.200000000 2.000000000
v 0.000000000 0.200000000 2.200000000
v 0.000000000 0.200000000 2.400000000
v 0.000000000 0.200000000 2.600000000
v 0.000000000 0.200000000 2.800000000
v 0.000000000 0.200000000 3.000000000
v 0.000000000 0.200000000 3.200000000
v 0.000000000 0.200000000 3.400000000
v 0.000000000 0.200000000 3.600000000
v 0.000000000 0.200000000 3.800000000
v 0.000000000 0.200000000 4.000000000
v 0.000000000 0.400000000 0.000000000
v 0.000000000 0.400000000 0.200000000
v 0.000000000 0.400000000 0.400000000
v 0.000000000 0.400000000 0.600000000
v 0.000000000 0.400000000 0.800000000
v 0.000000000 0.400000000 1.000000000
v 0.000000000 0.400000000 1.200000000
v 0.000000000 0.400000000 1.400000000
v 0.000000000 0.400000000 1.600000000
v 0.000000000 0.400000000 1.800000000
v 0.000000000 0.400000000 2.000000000
v 0.000000000 0.400000000 2.200000000
v 0.000000000 0.400000000 2.400000000
v 0.000000000 0.400000000 2.600000000
v 0.000000000 0.400000000 2.800000000
v 0.000000000 0.400000000 3.000000000
v 0.000000000 0.400000000 3.200000000
v 0.000000000 0.400000000 3.400000000
v 0.000000000 0.400000000 3.600000000
v 0.000000000 0.400000000 3.800000000
v 0.000000000 0.400000000 4.000000000
v 0.000000000 0.600000000 0.000000000
v 0.000000000 0.600000000 0.200000000
v 0.000000000 0.600000000 0.400000000
v 0.000000000 0.600000000 0.600000000
v 0.000000000 0.600000000 0.800000000
v 0.000000000 0.600000000 1.000000000
v 0.000000000 0.600000000 1.200000000
v 0.000000000 0.600000000 1.400000000
v 0.000000000 0.600000000 1.600000000
v 0.000000000 0.600000000 1.800000000
v 0.000000000 0.600000000 2.000000000
v 0.000000000 0.600000000 2.200000000
v 0.000000000 0.600000000 2.400000000
v 0.000000000 0.600000000 2.600000000
v 0.000000000 0.600000000 2.800000000
v 0.000000000 0.600000000 3.000000000
v 0.000000000 0.600000000 3.200000000
v 0.000000000 0.600000000 3.400000000
v 0.000000000 0.600000000 3.600000000
v 0.000000000 0.600000000 3.800000000
v 0.000000000 0.600000000 4.000000000
v 0.000000000 0.800000000 0.000000000
v 0.000000000 0.800000000 0.200000000
v 0.000000000 0.800000000 0.400000000
v 0.000000000 0.800000000 0.600000000
v 0.000000000 0.800000000 0.800000000
v 0.000000000 0.800000000 1.000000000
v 0.000000000 0.800000000 1.200000000
v 0.000000000 0.800000000 1.400000000
v 0.000000000 0.800000000 1.600000000
v 0.000000000 0.800000000 1.800000000
v 0.000000000 0.800000000 2.000000000
v 0.000000000 0.800000000 2.200000000
v 0.000000000 0.800000000 2.400000000
v 0.000000000 0.800000000 2.600000000
v 0.000000000 0.800000000 2.800000000
v 0.000000000 0.800000000 3.000000000
v 0.000000000 0.800000000 3.200000000
v 0.000000000 0.800000000 3.400000000
v 0.000000000 0.800000000 3.600000000
v 0.000000000 0.800000000 3.800000000
v 0.000000000 0.800000000 4.000000000
v 0.000000000 1.000000000 0.000000000
v 0.000000000 1.000000000 0.200000000
v 0.000000000 1.000000000 0.400000000
v 0.000000000 1.000000000 0.600000000
v 0.000000000 1.000000000 0.800000000
v 0.000000000 1.000000000 1.000000000
v 0.000000000 1.000000000 1.200000000
v 0.000000000 1.000000000 1.400000000
v 0.000000000 1.000000000 1.600000000
v 0.000000000 1.000000000 1.800000000
v 0.000000000 1.000000000 2.000000000
v 0.000000000 1.000000000 2.200000000
v 0.000000000 1.000000000 2.400000000
v 0.000000000 1.000000000 2.600000000
v 0.000000000 1.000000000 2.800000000
v 0.000000000 1.000000000 3.000000000
v 0.000000000 1.000000000 3.200000000
v 0.000000000 1.000000000 3.400000000
v 0.000000000 1.000000000 3.600000000
v 0.000000000 1.000000000 3.800000000
v 0.000000000 1.000000000 4.000000000
v 0.000000000 1.200000000 0.000000000
v 0.000000000 1.200000000 0.200000000
v 0.000000000 1.200000000 0.400000000
v 0.000000000 1.200000000 0.600000000
v 0.000000000 1.200000000 0.800000000
v 0.000000000 1.200000000 1.000000000
v 0.000000000 1.200000000 1.200000000
v 0.000000000 1.200000000 1.400000000
v 0.000000000 1.200000000 1.600000000
v 0.000000000 1.200000000 1.800000000
v 0.000000000 1.200000000 2.000000000
v 0.000000000 1.200000000 2.200000000
v 0.000000000 1.200000000 2.400000000
v 0.000000000 1.200000000 2.600000000
v 0.000000000 1.200000000 2.800000000
v 0.000000000 1.200000000 3.000000000
v 0.000000000 1.200000000 3.200000000
v 0.000000000 1.200000000 3.400000000
v 0.000000000 1.200000000 3.600000000
v 0.000000000 1.200000000 3.800000000
v 0.000000000 1.200000000 4.000000000
v 0.000000000 1.400000000 0.000000000
v 0.000000000 1.400000000 0.200000000
v 0.000000000 1.400000000 0.400000000
v 0.000000000 1.400000000 0.600000000
v 0.000000000 1.400000000 0.800000000
v 0.000000000 1.400000000 1.000000000
v 0.000000000 1.400000000 1.200000000
v 0.000000000 1.400000000 1.400000000
v 0.000000000 1.400000000 1.600000000
v 0.000000000 1.400000000 1.800000000
v 0.000000000 1.400000000 2.000000000
v 0.000000000 1.400000000 2.200000000
v 0.000000000 1.400000000 2.400000000
v 0.000000000 1.400000000 2.600000000
v 0.000000000 1.400000000 2.800000000
v 0.000000000 1.400000000 3.000000000
v 0.000000000 1.400000000 3.200000000
v 0.000000000 1.400000000 3.400000000
v 0.000000000 1.400000000 3.600000000
v 0.000000000 1.400000000 3.800000000
v 0.000000000 1.400000000 4.000000000
v 0.000000000 1.600000000 0.000000000
v 0.000000000 1.600000000 0.200000000
v 0.000000000 1.600000000 0.400000000
v 0.000000000 1.600000000 0.600000000
v 0.000000000 1.600000000 0.800000000
v 0.000000000 1.600000000 1.000000000
v 0.000000000 1.600000000 1.200000000
v 0.000000000 1.600000000 1.400000000
v 0.000000000 1.600000000 1.600000000
v 0.000000000 1.600000000 1.800000000
v 0.000000000 1.600000000 2.000000000
v 0.000000000 1.600000000 2.200000000
v 0.000000000 1.600000000 2.400000000
v 0.000000000 1.600000000 2.600000000
v 0.000000000 1.600000000 2.800000000
v 0.000000000 1.600000000 3.000000000
v 0.000000000 1.600000000 3.200000000
v 0.000000000 1.600000000 3.400000000
v 0.000000000 1.600000000 3.600000000
v 0.000000000 1.600000000 3.800000000
v 0.000000000 1.600000000 4.000000000
v 0.000000000 1.800000000 0.000000000
v 0.000000000 1.800000000 0.200000000
v 0.000000000 1.800000000 0.400000000
v 0.000000000 1.800000000 0.600000000
v 0.000000000 1.800000000 0.800000000
v 0.000000000 1.800000000 1.000000000
v 0.000000000 1.800000000 1.200000000
v 0.000000000 1.800000000 1.400000000
v 0.000000000 1.800000000 1.600000000
v 0.000000000 1.800000000 1.800000000
v 0.000000000 1.800000000 2.000000000
v 0.000000000 1.800000000 2.200000000
v 0.000000000 1.800000000 2.400000000
v 0.000000000 1.800000000 2.600000000
v 0.000000000 1.800000000 2.800000000
v 0.000000000 1.800000000 3.000000000
v 0.000000000 1.800000000 3.200000000
v 0.000000000 1.800000000 3.400000000
v 0.000000000 1.800000000 3.600000000
v 0.000000000 1.800000000 3.800000000
v 0.000000000 1.800000000 4.000000000
v 0.000000000 2.000000000 0.000000000
v 0.000000000 2.000000000 0.200000000
v 0.000000000 2.000000000 0.400000000
v 0.000000000 2.000000000 0.600000000
v 0.000000000 2.000000000 0.800000000
v 0.000000000 2.000000000 1.000000000
v 0.000000000 2.000000000 1.200000000
v 0.000000000 2.000000000 1.400000000
v 0.000000000 2.000000000 1.600000000
v 0.000000000 2.000000000 1.800000000
v 0.000000000 2.000000000 2.000000000
v 0.000000000 2.000000000 2.200000000
v 0.000000000 2.000000000 2.400000000
v 0.000000000 2.000000000 2.600000000
v 0.000000000 2.000000000 2.800000000
v 0.000000000 2.000000000 3.000000000
v 0.000000000 2.000000000 3.200000000
v 0.000000000 2.000000000 3.400000000
v 0.000000000 2.000000000 3.600000000
v 0.000000000 2.000000000 3.800000000
v 0.000000000 2.000000000 4.000000000
v 0.000000000 2.200000000 0.000000000
v 0.000000000 2.200000000 0.200000000
v 0.000000000 2.200000000 0.400000000
v 0.000000000 2.200000000 0.600000000
v 0.000000000 2.200000000 0.800000000
v 0.000000000 2.200000000 1.000000000
v 0.000000000 2.200000000 1.200000000
v 0.000000000 2.200000000 1.400000000
v 0.000000000 2.200000000 1.600000000
v 0.000000000 2.200000000 1.800000000
v 0.000000000 2.200000000 2.000000000
v 0.000000000 2.200000000 2.200000000
v 0.000000000 2.200000000 2.400000000
v 0.000000000 2.200000000 2.600000000
v 0.000000000 2.200000000 2.800000000
v 0.000000000 2.200000000 3.000000000
v 0.000000000 2.200000000 3.200000000
v 0.000000000 2.200000000 3.400000000
v 0.000000000 2.200000000 3.600000000
v 0.000000000 2.200000000 3.800000000
v 0.000000000 2.200000000 4.000000000
v 0.000000000 2.400000000 0.000000000
v 0.000000000 2.400000000 0.200000000
v 0.000000000 2.400000000 0.400000000
v 0.000000000 2.400000000 0.600000000
v 0.000000000 2.400000000 0.800000000
v 0.000000000 2.400000000 1.000000000
v 0.000000000 2.400000000 1.200000000
v 0.000000000 2.400000000 1.400000000
v 0.000000000 2.400000000 1.600000000
v 0.000000000 2.400000000 1.800000000
v 0.000000000 2.400000000 2.000000000
v 0.000000000 2.400000000 2.200000000
v 0.000000000 2.400000000 2.400000000
v 0.000000000 2.400000000 2.600000000
v 0.000000000 2.400000000 2.800000000
v 0.000000000 2.400000000 3.000000000
v 0.000000000 2.400000000 3.200000000
v 0.000000000 2.400000000 3.400000000
v 0.000000000 2.400000000 3.600000000
v 0.000000000 2.400000000 3.800000000
v 0.000000000 2.400000000 4.000000000
v 0.000000000 2.600000000 0.000000000
v 0.000000000 2.600000000 0.200000000
v 0.000000000 2.600000000 0.400000000
v 0.000000000 2.600000000 0.600000000
v 0.000000000 2.600000000 0.800000000
v 0.000000000 2.600000000 1.000000000
v 0.000000000 2.600000000 1.200000000
v 0.000000000 2.600000000 1.400000000
v 0.000000000 2.600000000 1.600000000
v 0.000000000 2.600000000 1.800000000
v 0.000000000 2.600000000 2.000000000
v 0.000000000 2.600000000 2.200000000
v 0.000000000 2.600000000 2.400000000
v 0.000000000 2.600000000 2.600000000
v 0.000000000 2.600000000 2.800000000
v 0.000000000 2.600000000 3.000000000
v 0.000000000 2.600000000 3.200000000
v 0.000000000 2.600000000 3.400000000
v 0.000000000 2.600000000 3.600000000
v 0.000000000 2.600000000 3.800000000
v 0.000000000 2.600000000 4.000000000
v 0.000000000 2.800000000 0.000000000
v 0.000000000 2.800000000 0.200000000
v 0.000000000 2.800000000 0.400000000
v 0.000000000 2.800000000 0.600000000
v 0.000000000 2.800000000 0.800000000
v 0.000000000 2.800000000 1.000000000
v 0.000000000 2.800000000 1.200000000
v 0.000000000 2.800000000 1.400000000
v 0.000000000 2.800000000 1.600000000
v 0.000000000 2.800000000 1.800000000
v 0.000000000 2.800000000 2.000000000
v 0.000000000 2.800000000 2.200000000
v 0.000000000 2.800000000 2.400000000
v 0.000000000 2.800000000 2.600000000
v 0.000000000 2.800000000 2.800000000
v 0.000000000 2.800000000 3.000000000
v 0.000000000 2.800000000 3.200000000
v 0.000000000 2.800000000 3.400000000
v 0.000000000 2.800000000 3.600000000
v 0.000000000 2.800000000 3.800000000
v 0.000000000 2.800000000 4.000000000
v 0.000000000 3.000000000 0.000000000
v 0.000000000 3.000000000 0.200000000
v 0.000000000 3.000000000 0.400000000
v 0.000000000 3.000000000 0.600000000
v 0.000000000 3.000000000 0.800000000
v 0.000000000 3.000000000 1.000000000
v 0.000000000 3.000000000 1.200000000
v 0.000000000 3.000000000 1.400000000
v 0.000000000 3.000000000 1.600000000
v 0.000000000 3.000000000 1.800000000
v 0.000000000 3.000000000 2.000000000
v 0.000000000 3.000000000 2.200000000
v 0.000000000 3.000000000 2.400000000
v 0.000000000 3.000000000 2.600000000
v 0.000000000 3.000000000 2.800000000
v 0.000000000 3.000000000 3.000000000
v 0.000000000 3.000000000 3.200000000
v 0.000000000 3.000000000 3.400000000
v 0.000000000 3.000000000 3.600000000
v 0.000000000 3.000000000 3.800000000
v 0.000000000 3.000000000 4.000000000
v 2.000000000 3.000000000 0.000000000
v 2.000000000 3.000000000 0.200000000
v 2.000000000 3.000000000 0.400000000
v 2.000000000 3.000000000 0.600000000
v 2.000000000 3.000000000 0.800000000
v 2.000000000 3.000000000 1.000000000
v 2.000000000 3.000000000 1.200000000
v 2.000000000 3.000000000 1.400000000
v 2.000000000 3.000000000 1.600000000
v 2.000000000 3.000000000 1.800000000
v 2.000000000 3.000000000 2.000000000
v 2.000000000 3.000000000 2.200000000
v 2.000000000 3.000000000 2.400000000
v 2.000000000 3.000000000 2.600000000
v 2.000000000 3.000000000 2.800000000
v 2.000000000 3.000000000 3.000000000
v 2.000000000 3.000000000 3.200000000
v 2.000000000 3.000000000 3.400000000
v 2.000000000 3.000000000 3.600000000
v 2.000000000 3.000000000 3.800000000
v 2.000000000 3.000000000 4.000000000
v 2.000000000 2.800000000 0.000000000
v 2.000000000 2.800000000 0.200000000
v 2.000000000 2.800000000 0.400000000
v 2.000000000 2.800000000 0.600000000
v 2.000000000 2.800000000 0.800000000
v 2.000000000 2.800000000 1.000000000
v 2.000000000 2.800000000 1.200000000
v 2.000000000 2.800000000 1.400000000
v 2.000000000 2.800000000 1.600000000
v 2.000000000 2.800000000 1.800000000
v 2.000000000 2.800000000 2.000000000
v 2.000000000 2.800000000 2.200000000
v 2.000000000 2.800000000 2.400000000
v 2.000000000 2.800000000 2.600000000
v 2.000000000 2.800000000 2.800000000
v 2.000000000 2.800000000 3.000000000
v 2.000000000 2.800000000 3.200000000
v 2.000000000 2.800000000 3.400000000
v 2.000000000 2.800000000 3.600000000
v 2.000000000 2.800000000 3.800000000
v 2.000000000 2.800000000 4.000000000
v 2.000000000 2.600000000 0.000000000
v 2.000000000 2.600000000 0.200000000
v 2.000000000 2.600000000 0.400000000
v 2.000000000 2.600000000 0.600000000
v 2.000000000 2.600000000 0.800000000
v 2.000000000 2.600000000 1.000000000
v 2.000000000 2.600000000 1.200000000
v 2.000000000 2.600000000 1.400000000
v 2.000000000 2.600000000 1.600000000
v 2.000000000 2.600000000 1.800000000
v 2.000000000 2.600000000 2.000000000
v 2.000000000 2.600000000 2.200000000
v 2.000000000 2.600000000 2.400000000
v 2.000000000 2.600000000 2.600000000
v 2.000000000 2.600000000 2.800000000
v 2.000000000 2.600000000 3.000000000
v 2.000000000 2.600000000 3.200000000
v 2.000000000 2.600000000 3.400000000
v 2.000000000 2.600000000 3.600000000
v 2.000000000 2.600000000 3.800000000
v 2.000000000 2.600000000 4.000000000
v 2.000000000 2.400000000 0.000000000
v 2.000000000 2.400000000 0.200000000
v 2.000000000 2.400000000 0.400000000
v 2.000000000 2.400000000 0.600000000
v 2.000000000 2.400000000 0.800000000
v 2.000000000 2.400000000 1.000000000
v 2.000000000 2.400000000 1.200000000
v 2.000000000 2.400000000 1.400000000
v 2.000000000 2.400000000 1.600000000
v 2.000000000 2.400000000 1.800000000
v 2.000000000 2.400000000 2.000000000
v 2.000000000 2.400000000 2.200000000
v 2.000000000 2.400000000 2.400000000
v 2.000000000 2.400000000 2.600000000
v 2.000000000 2.400000000 2.800000000
v 2.000000000 2.400000000 3.000000000
v 2.000000000 2.400000000 3.200000000
v 2.000000000 2.400000000 3.400000000
v 2.000000000 2.400000000 3.600000000
v 2.000000000 2.400000000 3.800000000
v 2.000000000 2.400000000 4.000000000
v 2.000000000 2.200000000 0.000000000
v 2.000000000 2.200000000 0.200000000
v 2.000000000 2.200000000 0.400000000
v 2.000000000 2.200000000 0.600000000
v 2.000000000 2.200000000 0.800000000
v 2.000000000 2.200000000 1.000000000
v 2.000000000 2.200000000 1.200000000
v 2.000000000 2.200000000 1.400000000
v 2.000000000 2.200000000 1.600000000
v 2.000000000 2.200000000 1.800000000
v 2.000000000 2.200000000 2.000000000
v 2.000000000 2.200000000 2.200000000
v 2.000000000 2.200000000 2.400000000
v 2.000000000 2.200000000 2.600000000
v 2.000000000 2.200000000 2.800000000
v 2.000000000 2.200000000 3.000000000
v 2.000000000 2.200000000 3.200000000
v 2.000000000 2.200000000 3.400000000
v 2.000000000 2.200000000 3.600000000
v 2.000000000 2.200000000 3.800000000
v 2.000000000 2.200000000 4.000000000
v 2.000000000 2.000000000 0.000000000
v 2.000000000 2.000000000 0.200000000
v 2.000000000 2.000000000 0.400000000
v 2.000000000 2.000000000 0.600000000
v 2.000000000 2.000000000 0.800000000
v 2.000000000 2.000000000 1.000000000
v 2.000000000 2.000000000 1.200000000
v 2.000000000 2.000000000 1.400000000
v 2.000000000 2.000000000 1.600000000
v 2.000000000 2.000000000 1.800000000
v 2.000000000 2.000000000 2.000000000
v 2.000000000 2.000000000 2.200000000
v 2.000000000 2.000000000 2.400000000
v 2.000000000 2.000000000 2.600000000
v 2.000000000 2.000000000 2.800000000
v 2.000000000 2.000000000 3.000000000
v 2.000000000 2.000000000 3.200000000
v 2.000000000 2.000000000 3.400000000
v 2.000000000 2.000000000 3.600000000
v 2.000000000 2.000000000 3.800000000
v 2.000000000 2.000000000 4.000000000
v 2.000000000 1.800000000 0.000000000
v 2.000000000 1.800000000 0.200000000
v 2.000000000 1.800000000 0.400000000
v 2.000000000 1.800000000 0.600000000
v 2.000000000 1.800000000 0.800000000
v 2.000000000 1.800000000 1.000000000
v 2.000000000 1.800000000 1.200000000
v 2.000000000 1.800000000 1.400000000
v 2.000000000 1.800000000 1.600000000
v 2.000000000 1.800000000 1.800000000
v 2.000000000 1.800000000 2.000000000
v 2.000000000 1.800000000 2.200000000
v 2.000000000 1.800000000 2.400000000
v 2.000000000 1.800000000 2.600000000
v 2.000000000 1.800000000 2.800000000
v 2.000000000 1.800000000 3.000000000
v 2.000000000 1.800000000 3.200000000
v 2.000000000 1.800000000 3.400000000
v 2.000000000 1.800000000 3.600000000
v 2.000000000 1.800000000 3.800000000
v 2.000000000 1.800000000 4.000000000
v 2.000000000 1.600000000 0.000000000
v 2.000000000 1.600000000 0.200000000
v 2.000000000 1.600000000 0.400000000
v 2.000000000 1.600000000 0.600000000
v 2.000000000 1.600000000 0.800000000
v 2.000000000 1.600000000 1.000000000
v 2.000000000 1.600000000 1.200000000
v 2.000000000 1.600000000 1.400000000
v 2.000000000 1.600000000 1.600000000
v 2.000000000 1.600000000 1.800000000
v 2.000000000 1.600000000 2.000000000
v 2.000000000 1.600000000 2.200000000
v 2.000000000 1.600000000 2.400000000
v 2.000000000 1.600000000 2.600000000
v 2.000000000 1.600000000 2.800000000
v 2.000000000 1.600000000 3.000000000
v 2.000000000 1.600000000 3.200000000
v 2.000000000 1.600000000 3.400000000
v 2.000000000 1.600000000 3.600000000
v 2.000000000 1.600000000 3.800000000
v 2.000000000 1.600000000 4.000000000
v 2.000000000 1.400000000 0.000000000
v 2.000000000 1.400000000 0.200000000
v 2.000000000 1.400000000 0.400000000
v 2.000000000 1.400000000 0.600000000
v 2.000000000 1.400000000 0.800000000
v 2.000000000 1.400000000 1.000000000
v 2.000000000 1.400000000 1.200000000
v 2.000000000 1.400000000 1.400000000
v 2.000000000 1.400000000 1.600000000
v 2.000000000 1.400000000 1.800000000
v 2.000000000 1.400000000 2.000000000
v 2.000000000 1.400000000 2.200000000
v 2.000000000 1.400000000 2.400000000
v 2.000000000 1.400000000 2.600000000
v 2.000000000 1.400000000 2.800000000
v 2.000000000 1.400000000 3.000000000
v 2.000000000 1.400000000 3.200000000
v 2.000000000 1.400000000 3.400000000
v 2.000000000 1.400000000 3.600000000
v 2.000000000 1.400000000 3.800000000
v 2.000000000 1.400000000 4.000000000
v 2.000000000 1.200000000 0.000000000
v 2.000000000 1.200000000 0.200000000
v 2.000000000 1.200000000 0.400000000
v 2.000000000 1.200000000 0.600000000
v 2.000000000 1.200000000 0.800000000
v 2.000000000 1.200000000 1.000000000
v 2.000000000 1.200000000 1.200000000
v 2.000000000 1.200000000 1.400000000
v 2.000000000 1.200000000 1.600000000
v 2.000000000 1.200000000 1.800000000
v 2.000000000 1.200000000 2.000000000
v 2.000000000 1.200000000 2.200000000
v 2.000000000 1.200000000 2.400000000
v 2.000000000 1.200000000 2.600000000
v 2.000000000 1.200000000 2.800000000
v 2.000000000 1.200000000 3.000000000
v 2.000000000 1.200000000 3.200000000
v 2.000000000 1.200000000 3.400000000
v 2.000000000 1.200000000 3.600000000
v 2.000000000 1.200000000 3.800000000
v 2.000000000 1.200000000 4.000000000
v 2.000000000 1.000000000 0.000000000
v 2.000000000 1.000000000 0.200000000
v 2.000000000 1.000000000 0.400000000
v 2.000000000 1.000000000 0.600000000
v 2.000000000 1.000000000 0.800000000
v 2.000000000 1.000000000 1.000000000
v 2.000000000 1.000000000 1.200000000
v 2.000000000 1.000000000 1.400000000
v 2.000000000 1.000000000 1.600000000
v 2.000000000 1.000000000 1.800000000
v 2.000000000 1.000000000 2.000000000
v 2.000000000 1.000000000 2.200000000
v 2.000000000 1.000000000 2.400000000
v 2.000000000 1.000000000 2.600000000
v 2.000000000 1.000000000 2.800000000
v 2.000000000 1.000000000 3.000000000
v 2.000000000 1.000000000 3.200000000
v 2.000000000 1.000000000 3.400000000
v 2.000000000 1.000000000 3.600000000
v 2.000000000 1.000000000 3.800000000
v 2.000000000 1.000000000 4.000000000
v 2.000000000 0.800000000 0.000000000
v 2.000000000 0.800000000 0.200000000
v 2.000000000 0.800000000 0.400000000
v 2.000000000 0.800000000 0.600000000
v 2.000000000 0.800000000 0.800000000
v 2.000000000 0.800000000 1.000000000
v 2.000000000 0.800000000 1.200000000
v 2.000000000 0.800000000 1.400000000
v 2.000000000 0.800000000 1.600000000
v 2.000000000 0.800000000 1.800000000
v 2.000000000 0.800000000 2.000000000
v 2.000000000 0.800000000 2.200000000
v 2.000000000 0.800000000 2.400000000
v 2.000000000 0.800000000 2.600000000
v 2.000000000 0.800000000 2.800000000
v 2.000000000 0.800000000 3.000000000
v 2.000000000 0.800000000 3.200000000
v 2.000000000 0.800000000 3.400000000
v 2.000000000 0.800000000 3.600000000
v 2.000000000 0.800000000 3.800000000
v 2.000000000 0.800000000 4.000000000
v 2.000000000 0.600000000 0.000000000
v 2.000000000 0.600000000 0.200000000
v 2.000000000 0.600000000 0.400000000
v 2.000000000 0.600000000 0.600000000
v 2.000000000 0.600000000 0.800000000
v 2.000000000 0.600000000 1.000000000
v 2.000000000 0.600000000 1.200000000
v 2.000000000 0.600000000 1.400000000
v 2.000000000 0.600000000 1.600000000
v 2.000000000 0.600000000 1.800000000
v 2.000000000 0.600000000 2.000000000
v 2.000000000 0.600000000 2.200000000
v 2.000000000 0.600000000 2.400000000
v 2.000000000 0.600000000 2.600000000
v 2.000000000 0.600000000 2.800000000
v 2.000000000 0.600000000 3.000000000
v 2.000000000 0.600000000 3.200000000
v 2.000000000 0.600000000 3.400000000
v 2.000000000 0.600000000 3.600000000
v 2.000000000 0.600000000 3.800000000
v 2.000000000 0.600000000 4.000000000
v 2.000000000 0.400000000 0.000000000
v 2.000000000 0.400000000 0.200000000
v 2.000000000 0.400000000 0.400000000
v 2.000000000 0.400000000 0.600000000
v 2.000000000 0.400000000 0.800000000
v 2.000000000 0.400000000 1.000000000
v 2.000000000 0.400000000 1.200000000
v 2.000000000 0.400000000 1.400000000
v 2.000000000 0.400000000 1.600000000
v 2.000000000 0.400000000 1.800000000
v 2.000000000 0.400000000 2.000000000
v 2.000000000 0.400000000 2.200000000
v 2.000000000 0.400000000 2.400000000
v 2.000000000 0.400000000 2.600000000
v 2.000000000 0.400000000 2.800000000
v 2.000000000 0.400000000 3.000000000
v 2.000000000 0.400000000 3.200000000
v 2.000000000 0.400000000 3.400000000
v 2.000000000 0.400000000 3.600000000
v 2.000000000 0.400000000 3.800000000
v 2.000000000 0.400000000 4.000000000
v 2.000000000 0.200000000 0.000000000
v 2.000000000 0.200000000 0.200000000
v 2.000000000 0.200000000 0.400000000
v 2.000000000 0.200000000 0.600000000
v 2.000000000 0.200000000 0.800000000
v 2.000000000 0.200000000 1.000000000
v 2.000000000 0.200000000 1.200000000
v 2.000000000 0.200000000 1.400000000
v 2.000000000 0.200000000 1.600000000
v 2.000000000 0.200000000 1.800000000
v 2.000000000 0.200000000 2.000000000
v 2.000000000 0.200000000 2.200000000
v 2.000000000 0.200000000 2.400000000
v 2.000000000 0.200000000 2.600000000
v 2.000000000 0.200000000 2.800000000
v 2.000000000 0.200000000 3.000000000
v 2.000000000 0.200000000 3.200000000
v 2.000000000 0.200000000 3.400000000
v 2.000000000 0.200000000 3.600000000
v 2.000000000 0.200000000 3.800000000
v 2.000000000 0.200000000 4.000000000
v 2.000000000 0.000000000 0.000000000
v 2.000000000 0.000000000 0.200000000
v 2.000000000 0.000000000 0.400000000
v 2.000000000 0.000000000 0.600000000
v 2.000000000 0.000000000 0.800000000
v 2.000000000 0.000000000 1.000000000
v 2.000000000 0.000000000 1.200000000
v 2.000000000 0.000000000 1.400000000
v 2.000000000 0.000000000 1.600000000
v 2.000000000 0.000000000 1.800000000
v 2.000000000 0.000000000 2.000000000
v 2.000000000 0.000000000 2.200000000
v 2.000000000 0.000000000 2.400000000
v 2.000000000 0.000000000 2.600000000
v 2.000000000 0.000000000 2.800000000
v 2.000000000 0.000000000 3.000000000
v 2.000000000 0.000000000 3.200000000
v 2.000000000 0.000000000 3.400000000
v 2.000000000 0.000000000 3.600000000
v 2.000000000 0.000000000 3.800000000
v 2.000000000 0.000000000 4.000000000
f 1 2 12
f 2 13 12
f 2 3 13
f 3 14 13
f 3 4 14
f 4 15 14
f 4 5 15
f 5 16 15
f 5 6 16
f 6 17 16
f 6 7 17
f 7 18 17
f 7 8 18
f 8 19 18
f 8 9 19
f 9 20 19
f 9 10 20
f 10 21 20
f 10 11 21
f 11 22 21
f 12 13 23
f 13 24 23
f 13 14 24
f 14 25 24
f 14 15 25
f 15 26 25
f 15 16 26
f 16 27 26
f 16 17 27
f 17 28 27
f 17 18 28
f 18 29 28
f 18 19 29
f 19 30 29
f 19 20 30
f 20 31 30
f 20 21 31
f 21 32 31
f 21 22 32
f 22 33 32
f 23 24 34
f 24 35 34
f 24 25 35
f 25 36 35
f 25 26 36
f 26 37 36
f 26 27 37
f 27 38 37
f 27 28 38
f 28 39 38
f 28 29 39
f 29 40 39
f 29 30 40
f 30 41 40
f 30 31 41
f 31 42 41
f 31 32 42
f 32 43 42
f 32 33 43
f 33 44 43
f 34 35 45
f 35 46 45
f 35 36 46
f 36 47 46
f 36 37 47
f 37 48 47
f 37 38 48
f 38 49 48
f 38 39 49
f 39 50 49
f 39 40 50
f 40 51 50
f 40 41 51
f 41 52 51
f 41 42 52
f 42 53 52
f 42 43 53
f 43 54 53
f 43 44 54
f 44 55 54
f 45 46 56
f 46 57 56
f 46 47 57
f 47 58 57
f 47 48 58
f 48 59 58
f 48 49 59
f 49 60 59
f 49 50 60
f 50 61 60
f 50 51 61
f 51 62 61
f 51 52 62
f 52 63 62
f 52 53 63
f 53 64 63
f 53 54 64
f 54 65 64
f 54 55 65
f 55 66 65
f 56 57 67
f 57 68 67
f 57 58 68
f 58 69 68
f 58 59 69
f 59 70 69
f 59 60 70
f 60 71 70
f 60 61 71
f 61 72 71
f 61 62 72
f 62 73 72
f 62 63 73
f 63 74 73
f 63 64 74
f 64 75 74
f 64 65 75
f 65 76 75
f 65 66 76
f 66 77 76
f 67 68 78
f 68 79 78
f 68 69 79
f 69 80 79
f 69 70 80
f 70 81 80
f 70 71 81
f 71 82 81
f 71 72 82
f 72 83 82
f 72 73 83
f 73 84 83
f 73 74 84
f 74 85 84
f 74 75 85
f 75 86 85
f 75 76 86
f 76 87 86
f 76 77 87
f 77 88 87
f 78 79 89
f 79 90 89
f 79 80 90
f 80 91 90
f 80 81 91
f 81 92 91
f 81 82 92
f 82 93 92
f 82 83 93
f 83 94 93
f 83 84 94
f 84 95 94
f 84 85 95
f 85 96 95
f 85 86 96
f 86 97 96
f 86 87 97
f 87 98 97
f 87 88 98
f 88 99 98
f 89 90 100
f 90 101 100
f 90 91 101
f 91 102 101
f 91 92 102
f 92 103 102
f 92 93 103
f 93 104 103
f 93 94 104
f 94 105 104
f 94 95 105
f 95 106 105
f 95 96 106
f 96 107 106
f 96 97 107
f 97 108 107
f 97 98 108
f 98 109 108
f 98 99 109
f 99 110 109
f 100 101 111
f 101 112 111
f 101 102 112
f 102 113 112
f 102 103 113
f 103 114 113
f 103 104 114
f 104 115 114
f 104 105 115
f 105 116 115
f 105 106 116
f 106 117 116
f 106 107 117
f 107 118 117
f 107 108 118
f 108 119 118
f 108 109 119
f 109 120 119
f 109 110 120
f 110 121 120
f 111 112 122
f 112 123 122
f 112 113 123
f 113 124 123
f 113 114 124
f 114 125 124
f 114 115 125
f 115 126 125
f 115 116 126
f 116 127 126
f 116 117 127
f 117 128 127
f 117 118 128
f 118 129 128
f 118 119 129
f 119 130 129
f 119 120 130
f 120 131 130
f 120 121 131
f 121 132 131
f 122 123 133
f 123 134 133
f 123 124 134
f 124 135 134
f 124 125 135
f 125 136 135
f 125 126 136
f 126 137 136
f 126 127 137
f 127 138 137
f 127 128 138
f 128 139 138
f 128 129 139
f 129 140 139
f 129 130 140
f 130 141 140
f 130 131 141
f 131 142 141
f 131 132 142
f 132 143 142
f 133 134 144
f 134 145 144
f 134 135 145
f 135 146 145
f 135 136 146
f 136 147 146
f 136 137 147
f 137 148 147
f 137 138 148
f 138 149 148
f 138 139 149
f 139 150 149
f 139 140 150
f 140 151 150
f 140 141 151
f 141 152 151
f 141 142 152
f 142 153 152
f 142 143 153
f 143 154 153
f 144 145 155
f 145 156 155
f 145 146 156
f 146 157 156
f 146 147 157
f 147 158 157
f 147 148 158
f 148 159 158
f 148 149 159
f 149 160 159
f 149 150 160
f 150 161 160
f 150 151 161
f 151 162 161
f 151 152 162
f 152 163 162
f 152 153 163
f 153 164 163
f 153 154 164
f 154 165 164
f 155 156 166
f 156 167 166
f 156 157 167
f 157 168 167
f 157 158 168
f 158 169 168
f 158 159 169
f 159 170 169
f 159 160 170
f 160 171 170
f 160 161 171
f 161 172 171
f 161 162 172
f 162 173 172
f 162 163 173
f 163 174 173
f 163 164 174
f 164 175 174
f 164 165 175
f 165 176 175
f 177 178 188
f 178 189 188
f 178 179 189
f 179 190 189
f 179 180 190
f 180 191 190
f 180 181 191
f 181 192 191
f 181 182 192
f 182 193 192
f 182 183 193
f 183 194 193
f 183 184 194
f 184 195 194
f 184 185 195
f 185 196 195
f 185 186 196
f 186 197 196
f 186 187 197
f 187 198 197
f 188 189 199
f 189 200 199
f 189 190 200
f 190 201 200
f 190 191 201
f 191 202 201
f 191 192 202
f 192 203 202
f 192 193 203
f 193 204 203
f 193 194 204
f 194 205 204
f 194 195 205
f 195 206 205
f 195 196 206
f 196 207 206
f 196 197 207
f 197 208 207
f 197 198 208
f 198 209 208
f 199 200 210
f 200 211 210
f 200 201 211
f 201 212 211
f 201 202 212
f 202 213 212
f 202 203 213
f 203 214 213
f 203 204 214
f 204 215 214
f 204 205 215
f 205 216 215
f 205 206 216
f 206 217 216
f 206 207 217
f 207 218 217
f 207 208 218
f 208 219 218
f 208 209 219
f 209 220 219
f 210 211 221
f 211 222 221
f 211 212 222
f 212 223 222
f 212 213 223
f 213 224 223
f 213 214 224
f 214 225 224
f 214 215 225
f 215 226 225
f 215 216 226
f 216 227 226
f 216 217 227
f 217 228 227
f 217 218 228
f 218 229 228
f 218 219 229
f 219 230 229
f 219 220 230
f 220 231 230
f 221 222 232
f 222 233 232
f 222 223 233
f 223 234 233
f 223 224 234
f 224 235 234
f 224 225 235
f 225 236 235
f 225 226 236
f 226 237 236
f 226 227 237
f 227 238 237
f 227 228 238
f 228 239 238
f 228 229 239
f 229 240 239
f 229 230 240
f 230 241 240
f 230 231 241
f 231 242 241
f 232 233 243
f 233 244 243
f 233 234 244
f 234 245 244
f 234 235 245
f 235 246 245
f 235 236 246
f 236 247 246
f 236 237 247
f 237 248 247
f 237 238 248
f 238 249 248
f 238 239 249
f 239 250 249
f 239 240 250
f 240 251 250
f 240 241 251
f 241 252 251
f 241 242 252
f 242 253 252
f 243 244 254
f 244 255 254
f 244 245 255
f 245 256 255
f 245 246 256
f 246 257 256
f 246 247 257
f 247 258 257
f 247 248 258
f 248 259 258
f 248 249 259
f 249 260 259
f 249 250 260
f 250 261 260
f 250 251 261
f 251 262 261
f 251 252 262
f 252 263 262
f 252 253 263
f 253 264 263
f 254 255 265
f 255 266 265
f 255 256 266
f 256 267 266
f 256 257 267
f 257 268 267
f 257 258 268
f 258 269 268
f 258 259 269
f 259 270 269
f 259 260 270
f 260 271 270
f 260 261 271
f 261 272 271
f 261 262 272
f 262 273 272
f 262 263 273
f 263 274 273
f 263 264 274
f 264 275 274
f 265 266 276
f 266 277 276
f 266 267 277
f 267 278 277
f 267 268 278
f 268 279 278
f 268 269 279
f 269 280 279
f 269 270 280
f 270 281 280
f 270 271 281
f 271 282 281
f 271 272 282
f 272 283 282
f 272 273 283
f 273 284 283
f 273 274 284
f 274 285 284
f 274 275 285
f 275 286 285
f 276 277 287
f 277 288 287
f 277 278 288
f 278 289 288
f 278 279 289
f 279 290 289
f 279 280 290
f 280 291 290
f 280 281 291
f 281 292 291
f 281 282 292
f 282 293 292
f 282 283 293
f 283 294 293
f 283 284 294
f 284 295 294
f 284 285 295
f 285 296 295
f 285 286 296
f 286 297 296
f 287 288 298
f 288 299 298
f 288 289 299
f 289 300 299
f 289 290 300
f 290 301 300
f 290 291 301
f 291 302 301
f 291 292 302
f 292 303 302
f 292 293 303
f 293 304 303
f 293 294 304
f 294 305 304
f 294 295 305
f 295 306 305
f 295 296 306
f 296 307 306
f 296 297 307
f 297 308 307
f 298 299 309
f 299 310 309
f 299 300 310
f 300 311 310
f 300 301 311
f 301 312 311
f 301 302 312
f 302 313 312
f 302 303 313
f 303 314 313
f 303 304 314
f 304 315 314
f 304 305 315
f 305 316 315
f 305 306 316
f 306 317 316
f 306 307 317
f 307 318 317
f 307 308 318
f 308 319 318
f 309 310 320
f 310 321 320
f 310 311 321
f 311 322 321
f 311 312 322
f 312 323 322
f 312 313 323
f 313 324 323
f 313 314 324
f 314 325 324
f 314 315 325
f 315 326 325
f 315 316 326
f 316 327 326
f 316 317 327
f 317 328 327
f 317 318 328
f 318 329 328
f 318 319 329
f 319 330 329
f 320 321 331
f 321 332 331
f 321 322 332
f 322 333 332
f 322 323 333
f 323 334 333
f 323 324 334
f 324 335 334
f 324 325 335
f 325 336 335
f 325 326 336
f 326 337 336
f 326 327 337
f 327 338 337
f 327 328 338
f 328 339 338
f 328 329 339
f 329 340 339
f 329 330 340
f 330 341 340
f 331 332 342
f 332 343 342
f 332 333 343
f 333 344 343
f 333 334 344
f 334 345 344
f 334 335 345
f 335 346 345
f 335 336 346
f 336 347 346
f 336 337 347
f 337 348 347
f 337 338 348
f 338 349 348
f 338 339 349
f 339 350 349
f 339 340 350
f 340 351 350
f 340 341 351
f 341 352 351
f 353 354 374
f 354 375 374
f 354 355 375
f 355 376 375
f 355 356 376
f 356 377 376
f 356 357 377
f 357 378 377
f 357 358 378
f 358 379 378
f 358 359 379
f 359 380 379
f 359 360 380
f 360 381 380
f 360 361 381
f 361 382 381
f 361 362 382
f 362 383 382
f 362 363 383
f 363 384 383
f 363 364 384
f 364 385 384
f 364 365 385
f 365 386 385
f 365 366 386
f 366 387 386
f 366 367 387
f 367 388 387
f 367 368 388
f 368 389 388
f 368 369 389
f 369 390 389
f 369 370 390
f 370 391 390
f 370 371 391
f 371 392 391
f 371 372 392
f 372 393 392
f 372 373 393
f 373 394 393
f 374 375 395
f 375 396 395
f 375 376 396
f 376 397 396
f 376 377 397
f 377 398 397
f 377 378 398
f 378 399 398
f 378 379 399
f 379 400 399
f 379 380 400
f 380 401 400
f 380 381 401
f 381 402 401
f 381 382 402
f 382 403 402
f 382 383 403
f 383 404 403
f 383 384 404
f 384 405 404
f 384 385 405
f 385 406 405
f 385 386 406
f 386 407 406
f 386 387 407
f 387 408 407
f 387 388 408
f 388 409 408
f 388 389 409
f 389 410 409
f 389 390 410
f 390 411 410
f 390 391 411
f 391 412 411
f 391 392 412
f 392 413 412
f 392 393 413
f 393 414 413
f 393 394 414
f 394 415 414
f 395 396 416
f 396 417 416
f 396 397 417
f 397 418 417
f 397 398 418
f 398 419 418
f 398 399 419
f 399 420 419
f 399 400 420
f 400 421 420
f 400 401 421
f 401 422 421
f 401 402 422
f 402 423 422
f 402 403 423
f 403 424 423
f 403 404 424
f 404 425 424
f 404 405 425
f 405 426 425
f 405 406 426
f 406 427 426
f 406 407 427
f 407 428 427
f 407 408 428
f 408 429 428
f 408 409 429
f 409 430 429
f 409 410 430
f 410 431 430
f 410 411 431
f 411 432 431
f 411 412 432
f 412 433 432
f 412 413 433
f 413 434 433
f 413 414 434
f 414 435 434
f 414 415 435
f 415 436 435
f 416 417 437
f 417 438 437
f 417 418 438
f 418 439 438
f 418 419 439
f 419 440 439
f 419 420 440
f 420 441 440
f 420 421 441
f 421 442 441
f 421 422 442
f 422 443 442
f 422 423 443
f 423 444 443
f 423 424 444
f 424 445 444
f 424 425 445
f 425 446 445
f 425 426 446
f 426 447 446
f 426 427 447
f 427 448 447
f 427 428 448
f 428 449 448
f 428 429 449
f 429 450 449
f 429 430 450
f 430 451 450
f 430 431 451
f 431 452 451
f 431 432 452
f 432 453 452
f 432 433 453
f 433 454 453
f 433 434 454
f 434 455 454
f 434 435 455
f 435 456 455
f 435 436 456
f 436 457 456
f 437 438 458
f 438 459 458
f 438 439 459
f 439 460 459
f 439 440 460
f 440 461 460
f 440 441 461
f 441 462 461
f 441 442 462
f 442 463 462
f 442 443 463
f 443 464 463
f 443 444 464
f 444 465 464
f 444 445 465
f 445 466 465
f 445 446 466
f 446 467 466
f 446 447 467
f 447 468 467
f 447 448 468
f 448 469 468
f 448 449 469
f 449 470 469
f 449 450 470
f 450 471 470
f 450 451 471
f 451 472 471
f 451 452 472
f 452 473 472
f 452 453 473
f 453 474 473
f 453 454 474
f 454 475 474
f 454 455 475
f 455 476 475
f 455 456 476
f 456 477 476
f 456 457 477
f 457 478 477
f 458 459 479
f 459 480 479
f 459 460 480
f 460 481 480
f 460 461 481
f 461 482 481
f 461 462 482
f 462 483 482
f 462 463 483
f 463 484 483
f 463 464 484
f 464 485 484
f 464 465 485
f 465 486 485
f 465 466 486
f 466 487 486
f 466 467 487
f 467 488 487
f 467 468 488
f 468 489 488
f 468 469 489
f 469 490 489
f 469 470 490
f 470 491 490
f 470 471 491
f 471 492 491
f 471 472 492
f 472 493 492
f 472 473 493
f 473 494 493
f 473 474 494
f 474 495 494
f 474 475 495
f 475 496 495
f 475 476 496
f 476 497 496
f 476 477 497
f 477 498 497
f 477 478 498
f 478 499 498
f 479 480 500
f 480 501 500
f 480 481 501
f 481 502 501
f 481 482 502
f 482 503 502
f 482 483 503
f 483 504 503
f 483 484 504
f 484 505 504
f 484 485 505
f 485 506 505
f 485 486 506
f 486 507 506
f 486 487 507
f 487 508 507
f 487 488 508
f 488 509 508
f 488 489 509
f 489 510 509
f 489 490 510
f 490 511 510
f 490 491 511
f 491 512 511
f 491 492 512
f 492 513 512
f 492 493 513
f 493 514 513
f 493 494 514
f 494 515 514
f 494 495 515
f 495 516 515
f 495 496 516
f 496 517 516
f 496 497 517
f 497 518 517
f 497 498 518
f 498 519 518
f 498 499 519
f 499 520 519
f 500 501 521
f 501 522 521
f 501 502 522
f 502 523 522
f 502 503 523
f 503 524 523
f 503 504 524
f 504 525 524
f 504 505 525
f 505 526 525
f 505 506 526
f 506 527 526
f 506 507 527
f 507 528 527
f 507 508 528
f 508 529 528
f 508 509 529
f 509 530 529
f 509 510 530
f 510 531 530
f 510 511 531
f 511 532 531
f 511 512 532
f 512 533 532
f 512 513 533
f 513 534 533
f 513 514 534
f 514 535 534
f 514 515 535
f 515 536 535
f 515 516 536
f 516 537 536
f 516 517 537
f 517 538 537
f 517 518 538
f 518 539 538
f 518 519 539
f 519 540 539
f 519 520 540
f 520 541 540
f 521 522 542
f 522 543 542
f 522 523 543
f 523 544 543
f 523 524 544
f 524 545 544
f 524 525 545
f 525 546 545
f 525 526 546
f 526 547 546
f 526 527 547
f 527 548 547
f 527 528 548
f 528 549 548
f 528 529 549
f 529 550 549
f 529 530 550
f 530 551 550
f 530 531 551
f 531 552 551
f 531 532 552
f 532 553 552
f 532 533 553
f 533 554 553
f 533 534 554
f 534 555 554
f 534 535 555
f 535 556 555
f 535 536 556
f 536 557 556
f 536 537 557
f 537 558 557
f 537 538 558
f 538 559 558
f 538 539 559
f 539 560 559
f 539 540 560
f 540 561 560
f 540 541 561
f 541 562 561
f 542 543 563
f 543 564 563
f 543 544 564
f 544 565 564
f 544 545 565
f 545 566 565
f 545 546 566
f 546 567 566
f 546 547 567
f 547 568 567
f 547 548 568
f 548 569 568
f 548 549 569
f 549 570 569
f 549 550 570
f 550 571 570
f 550 551 571
f 551 572 571
f 551 552 572
f 552 573 572
f 552 553 573
f 553 574 573
f 553 554 574
f 554 575 574
f 554 555 575
f 555 576 575
f 555 556 576
f 556 577 576
f 556 557 577
f 557 578 577
f 557 558 578
f 558 579 578
f 558 559 579
f 559 580 579
f 559 560 580
f 560 581 580
f 560 561 581
f 561 582 581
f 561 562 582
f 562 583 582
f 584 585 605
f 585 606 605
f 585 586 606
f 586 607 606
f 586 587 607
f 587 608 607
f 587 588 608
f 588 609 608
f 588 589 609
f 589 610 609
f 589 590 610
f 590 611 610
f 590 591 611
f 591 612 611
f 591 592 612
f 592 613 612
f 592 593 613
f 593 614 613
f 593 594 614
f 594 615 614
f 594 595 615
f 595 616 615
f 595 596 616
f 596 617 616
f 596 597 617
f 597 618 617
f 597 598 618
f 598 619 618
f 598 599 619
f 599 620 619
f 599 600 620
f 600 621 620
f 600 601 621
f 601 622 621
f 601 602 622
f 602 623 622
f 602 603 623
f 603 624 623
f 603 604 624
f 604 625 624
f 605 606 626
f 606 627 626
f 606 607 627
f 607 628 627
f 607 608 628
f 608 629 628
f 608 609 629
f 609 630 629
f 609 610 630
f 610 631 630
f 610 611 631
f 611 632 631
f 611 612 632
f 612 633 632
f 612 613 633
f 613 634 633
f 613 614 634
f 614 635 634
f 614 615 635
f 615 636 635
f 615 616 636
f 616 637 636
f 616 617 637
f 617 638 637
f 617 618 638
f 618 639 638
f 618 619 639
f 619 640 639
f 619 620 640
f 620 641 640
f 620 621 641
f 621 642 641
f 621 622 642
f 622 643 642
f 622 623 643
f 623 644 643
f 623 624 644
f 624 645 644
f 624 625 645
f 625 646 645
f 626 627 647
f 627 648 647
f 627 628 648
f 628 649 648
f 628 629 649
f 629 650 649
f 629 630 650
f 630 651 650
f 630 631 651
f 631 652 651
f 631 632 652
f 632 653 652
f 632 633 653
f 633 654 653
f 633 634 654
f 634 655 654
f 634 635 655
f 635 656 655
f 635 636 656
f 636 657 656
f 636 637 657
f 637 658 657
f 637 638 658
f 638 659 658
f 638 639 659
f 639 660 659
f 639 640 660
f 640 661 660
f 640 641 661
f 641 662 661
f 641 642 662
f 642 663 662
f 642 643 663
f 643 664 663
f 643 644 664
f 644 665 664
f 644 645 665
f 645 666 665
f 645 646 666
f 646 667 666
f 647 648 668
f 648 669 668
f 648 649 669
f 649 670 669
f 649 650 670
f 650 671 670
f 650 651 671
f 651 672 671
f 651 652 672
f 652 673 672
f 652 653 673
f 653 674 673
f 653 654 674
f 654 675 674
f 654 655 675
f 655 676 675
f 655 656 676
f 656 677 676
f 656 657 677
f 657 678 677
f 657 658 678
f 658 679 678
f 658 659 679
f 659 680 679
f 659 660 680
f 660 681 680
f 660 661 681
f 661 682 681
f 661 662 682
f 662 683 682
f 662 663 683
f 663 684 683
f 663 664 684
f 664 685 684
f 664 665 685
f 665 686 685
f 665 666 686
f 666 687 686
f 666 667 687
f 667 688 687
f 668 669 689
f 669 690 689
f 669 670 690
f 670 691 690
f 670 671 691
f 671 692 691
f 671 672 692
f 672 693 692
f 672 673 693
f 673 694 693
f 673 674 694
f 674 695 694
f 674 675 695
f 675 696 695
f 675 676 696
f 676 697 696
f 676 677 697
f 677 698 697
f 677 678 698
f 678 699 698
f 678 679 699
f 679 700 699
f 679 680 700
f 680 701 700
f 680 681 701
f 681 702 701
f 681 682 702
f 682 703 702
f 682 683 703
f 683 704 703
f 683 684 704
f 684 705 704
f 684 685 705
f 685 706 705
f 685 686 706
f 686 707 706
f 686 687 707
f 687 708 707
f 687 688 708
f 688 709 708
f 689 690 710
f 690 711 710
f 690 691 711
f 691 712 711
f 691 692 712
f 692 713 712
f 692 693 713
f 693 714 713
f 693 694 714
f 694 715 714
f 694 695 715
f 695 716 715
f 695 696 716
f 696 717 716
f 696 697 717
f 697 718 717
f 697 698 718
f 698 719 718
f 698 699 719
f 699 720 719
f 699 700 720
f 700 721 720
f 700 701 721
f 701 722 721
f 701 702 722
f 702 723 722
f 702 703 723
f 703 724 723
f 703 704 724
f 704 725 724
f 704 705 725
f 705 726 725
f 705 706 726
f 706 727 726
f 706 707 727
f 707 728 727
f 707 708 728
f 708 729 728
f 708 709 729
f 709 730 729
f 710 711 731
f 711 732 731
f 711 712 732
f 712 733 732
f 712 713 733
f 713 734 733
f 713 714 734
f 714 735 734
f 714 715 735
f 715 736 735
f 715 716 736
f 716 737 736
f 716 717 737
f 717 738 737
f 717 718 738
f 718 739 738
f 718 719 739
f 719 740 739
f 719 720 740
f 720 741 740
f 720 721 741
f 721 742 741
f 721 722 742
f 722 743 742
f 722 723 743
f 723 744 743
f 723 724 744
f 724 745 744
f 724 725 745
f 725 746 745
f 725 726 746
f 726 747 746
f 726 727 747
f 727 748 747
f 727 728 748
f 728 749 748
f 728 729 749
f 729 750 749
f 729 730 750
f 730 751 750
f 731 732 752
f 732 753 752
f 732 733 753
f 733 754 753
f 733 734 754
f 734 755 754
f 734 735 755
f 735 756 755
f 735 736 756
f 736 757 756
f 736 737 757
f 737 758 757
f 737 738 758
f 738 759 758
f 738 739 759
f 739 760 759
f 739 740 760
f 740 761 760
f 740 741 761
f 741 762 761
f 741 742 762
f 742 763 762
f 742 743 763
f 743 764 763
f 743 744 764
f 744 765 764
f 744 745 765
f 745 766 765
f 745 746 766
f 746 767 766
f 746 747 767
f 747 768 767
f 747 748 768
f 748 769 768
f 748 749 769
f 749 770 769
f 749 750 770
f 750 771 770
f 750 751 771
f 751 772 771
f 752 753 773
f 753 774 773
f 753 754 774
f 754 775 774
f 754 755 775
f 755 776 775
f 755 756 776
f 756 777 776
f 756 757 777
f 757 778 777
f 757 758 778
f 758 779 778
f 758 759 779
f 759 780 779
f 759 760 780
f 760 781 780
f 760 761 781
f 761 782 781
f 761 762 782
f 762 783 782
f 762 763 783
f 763 784 783
f 763 764 784
f 764 785 784
f 764 765 785
f 765 786 785
f 765 766 786
f 766 787 786
f 766 767 787
f 767 788 787
f 767 768 788
f 768 789 788
f 768 769 789
f 769 790 789
f 769 770 790
f 770 791 790
f 770 771 791
f 771 792 791
f 771 772 792
f 772 793 792
f 773 774 794
f 774 795 794
f 774 775 795
f 775 796 795
f 775 776 796
f 776 797 796
f 776 777 797
f 777 798 797
f 777 778 798
f 778 799 798
f 778 779 799
f 779 800 799
f 779 780 800
f 780 801 800
f 780 781 801
f 781 802 801
f 781 782 802
f 782 803 802
f 782 783 803
f 783 804 803
f 783 784 804
f 784 805 804
f 784 785 805
f 785 806 805
f 785 786 806
f 786 807 806
f 786 787 807
f 787 808 807
f 787 788 808
f 788 809 808
f 788 789 809
f 789 810 809
f 789 790 810
f 790 811 810
f 790 791 811
f 791 812 811
f 791 792 812
f 792 813 812
f 792 793 813
f 793 814 813
f 815 816 836
f 816 837 836
f 816 817 837
f 817 838 837
f 817 818 838
f 818 839 838
f 818 819 839
f 819 840 839
f 819 820 840
f 820 841 840
f 820 821 841
f 821 842 841
f 821 822 842
f 822 843 842
f 822 823 843
f 823 844 843
f 823 824 844
f 824 845 844
f 824 825 845
f 825 846 845
f 825 826 846
f 826 847 846
f 826 827 847
f 827 848 847
f 827 828 848
f 828 849 848
f 828 829 849
f 829 850 849
f 829 830 850
f 830 851 850
f 830 831 851
f 831 852 851
f 831 832 852
f 832 853 852
f 832 833 853
f 833 854 853
f 833 834 854
f 834 855 854
f 834 835 855
f 835 856 855
f 836 837 857
f 837 858 857
f 837 838 858
f 838 859 858
f 838 839 859
f 839 860 859
f 839 840 860
f 840 861 860
f 840 841 861
f 841 862 861
f 841 842 862
f 842 863 862
f 842 843 863
f 843 864 863
f 843 844 864
f 844 865 864
f 844 845 865
f 845 866 865
f 845 846 866
f 846 867 866
f 846 847 867
f 847 868 867
f 847 848 868
f 848 869 868
f 848 849 869
f 849 870 869
f 849 850 870
f 850 871 870
f 850 851 871
f 851 872 871
f 851 852 872
f 852 873 872
f 852 853 873
f 853 874 873
f 853 854 874
f 854 875 874
f 854 855 875
f 855 876 875
f 855 856 876
f 856 877 876
f 857 858 878
f 858 879 878
f 858 859 879
f 859 880 879
f 859 860 880
f 860 881 880
f 860 861 881
f 861 882 881
f 861 862 882
f 862 883 882
f 862 863 883
f 863 884 883
f 863 864 884
f 864 885 884
f 864 865 885
f 865 886 885
f 865 866 886
f 866 887 886
f 866 867 887
f 867 888 887
f 867 868 888
f 868 889 888
f 868 869 889
f 869 890 889
f 869 870 890
f 870 891 890
f 870 871 891
f 871 892 891
f 871 872 892
f 872 893 892
f 872 873 893
f 873 894 893
f 873 874 894
f 874 895 894
f 874 875 895
f 875 896 895
f 875 876 896
f 876 897 896
f 876 877 897
f 877 898 897
f 878 879 899
f 879 900 899
f 879 880 900
f 880 901 900
f 880 881 901
f 881 902 901
f 881 882 902
f 882 903 902
f 882 883 903
f 883 904 903
f 883 884 904
f 884 905 904
f 884 885 905
f 885 906 905
f 885 886 906
f 886 907 906
f 886 887 907
f 887 908 907
f 887 888 908
f 888 909 908
f 888 889 909
f 889 910 909
f 889 890 910
f 890 911 910
f 890 891 911
f 891 912 911
f 891 892 912
f 892 913 912
f 892 893 913
f 893 914 913
f 893 894 914
f 894 915 914
f 894 895 915
f 895 916 915
f 895 896 916
f 896 917 916
f 896 897 917
f 897 918 917
f 897 898 918
f 898 919 918
f 899 900 920
f 900 921 920
f 900 901 921
f 901 922 921
f 901 902 922
f 902 923 922
f 902 903 923
f 903 924 923
f 903 904 924
f 904 925 924
f 904 905 925
f 905 926 925
f 905 906 926
f 906 927 926
f 906 907 927
f 907 928 927
f 907 908 928
f 908 929 928
f 908 909 929
f 909 930 929
f 909 910 930
f 910 931 930
f 910 911 931
f 911 932 931
f 911 912 932
f 912 933 932
f 912 913 933
f 913 934 933
f 913 914 934
f 914 935 934
f 914 915 935
f 915 936 935
f 915 916 936
f 916 937 936
f 916 917 937
f 917 938 937
f 917 918 938
f 918 939 938
f 918 919 939
f 919 940 939
f 920 921 941
f 921 942 941
f 921 922 942
f 922 943 942
f 922 923 943
f 923 944 943
f 923 924 944
f 924 945 944
f 924 925 945
f 925 946 945
f 925 926 946
f 926 947 946
f 926 927 947
f 927 948 947
f 927 928 948
f 928 949 948
f 928 929 949
f 929 950 949
f 929 930 950
f 930 951 950
f 930 931 951
f 931 952 951
f 931 932 952
f 932 953 952
f 932 933 953
f 933 954 953
f 933 934 954
f 934 955 954
f 934 935 955
f 935 956 955
f 935 936 956
f 936 957 956
f 936 937 957
f 937 958 957
f 937 938 958
f 938 959 958
f 938 939 959
f 939 960 959
f 939 940 960
f 940 961 960
f 941 942 962
f 942 963 962
f 942 943 963
f 943 964 963
f 943 944 964
f 944 965 964
f 944 945 965
f 945 966 965
f 945 946 966
f 946 967 966
f 946 947 967
f 947 968 967
f 947 948 968
f 948 969 968
f 948 949 969
f 949 970 969
f 949 950 970
f 950 971 970
f 950 951 971
f 951 972 971
f 951 952 972
f 952 973 972
f 952 953 973
f 953 974 973
f 953 954 974
f 954 975 974
f 954 955 975
f 955 976 975
f 955 956 976
f 956 977 976
f 956 957 977
f 957 978 977
f 957 958 978
f 958 979 978
f 958 959 979
f 959 980 979
f 959 960 980
f 960 981 980
f 960 961 981
f 961 982 981
f 962 963 983
f 963 984 983
f 963 964 984
f 964 985 984
f 964 965 985
f 965 986 985
f 965 966 986
f 966 987 986
f 966 967 987
f 967 988 987
f 967 968 988
f 968 989 988
f 968 969 989
f 969 990 989
f 969 970 990
f 970 991 990
f 970 971 991
f 971 992 991
f 971 972 992
f 972 993 992
f 972 973 993
f 973 994 993
f 973 974 994
f 974 995 994
f 974 975 995
f 975 996 995
f 975 976 996
f 976 997 996
f 976 977 997
f 977 998 997
f 977 978 998
f 978 999 998
f 978 979 999
f 979 1000 999
f 979 980 1000
f 980 1001 1000
f 980 981 1001
f 981 1002 1001
f 981 982 1002
f 982 1003 1002
f 983 984 1004
f 984 1005 1004
f 984 985 1005
f 985 1006 1005
f 985 986 1006
f 986 1007 1006
f 986 987 1007
f 987 1008 1007
f 987 988 1008
f 988 1009 1008
f 988 989 1009
f 989 1010 1009
f 989 990 1010
f 990 1011 1010
f 990 991 1011
f 991 1012 1011
f 991 992 1012
f 992 1013 1012
f 992 993 1013
f 993 1014 1013
f 993 994 1014
f 994 1015 1014
f 994 995 1015
f 995 1016 1015
f 995 996 1016
f 996 1017 1016
f 996 997 1017
f 997 1018 1017
f 997 998 1018
f 998 1019 1018
f 998 999 1019
f 999 1020 1019
f 999 1000 1020
f 1000 1021 1020
f 1000 1001 1021
f 1001 1022 1021
f 1001 1002 1022
f 1002 1023 1022
f 1002 1003 1023
f 1003 1024 1023
f 1004 1005 1025
f 1005 1026 1025
f 1005 1006 1026
f 1006 1027 1026
f 1006 1007 1027
f 1007 1028 1027
f 1007 1008 1028
f 1008 1029 1028
f 1008 1009 1029
f 1009 1030 1029
f 1009 1010 1030
f 1010 1031 1030
f 1010 1011 1031
f 1011 1032 1031
f 1011 1012 1032
f 1012 1033 1032
f 1012 1013 1033
f 1013 1034 1033
f 1013 1014 1034
f 1014 1035 1034
f 1014 1015 1035
f 1015 1036 1035
f 1015 1016 1036
f 1016 1037 1036
f 1016 1017 1037
f 1017 1038 1037
f 1017 1018 1038
f 1018 1039 1038
f 1018 1019 1039
f 1019 1040 1039
f 1019 1020 1040
f 1020 1041 1040
f 1020 1021 1041
f 1021 1042 1041
f 1021 1022 1042
f 1022 1043 1042
f 1022 1023 1043
f 1023 1044 1043
f 1023 1024 1044
f 1024 1045 1044
f 1025 1026 1046
f 1026 1047 1046
f 1026 1027 1047
f 1027 1048 1047
f 1027 1028 1048
f 1028 1049 1048
f 1028 1029 1049
f 1029 1050 1049
f 1029 1030 1050
f 1030 1051 1050
f 1030 1031 1051
f 1031 1052 1051
f 1031 1032 1052
f 1032 1053 1052
f 1032 1033 1053
f 1033 1054 1053
f 1033 1034 1054
f 1034 1055 1054
f 1034 1035 1055
f 1035 1056 1055
f 1035 1036 1056
f 1036 1057 1056
f 1036 1037 1057
f 1037 1058 1057
f 1037 1038 1058
f 1038 1059 1058
f 1038 1039 1059
f 1039 1060 1059
f 1039 1040 1060
f 1040 1061 1060
f 1040 1041 1061
f 1041 1062 1061
f 1041 1042 1062
f 1042 1063 1062
f 1042 1043 1063
f 1043 1064 1063
f 1043 1044 1064
f 1044 1065 1064
f 1044 1045 1065
f 1045 1066 1065
f 1046 1047 1067
f 1047 1068 1067
f 1047 1048 1068
f 1048 1069 1068
f 1048 1049 1069
f 1049 1070 1069
f 1049 1050 1070
f 1050 1071 1070
f 1050 1051 1071
f 1051 1072 1071
f 1051 1052 1072
f 1052 1073 1072
f 1052 1053 1073
f 1053 1074 1073
f 1053 1054 1074
f 1054 1075 1074
f 1054 1055 1075
f 1055 1076 1075
f 1055 1056 1076
f 1056 1077 1076
f 1056 1057 1077
f 1057 1078 1077
f 1057 1058 1078
f 1058 1079 1078
f 1058 1059 1079
f 1059 1080 1079
f 1059 1060 1080
f 1060 1081 1080
f 1060 1061 1081
f 1061 1082 1081
f 1061 1062 1082
f 1062 1083 1082
f 1062 1063 1083
f 1063 1084 1083
f 1063 1064 1084
f 1064 1085 1084
f 1064 1065 1085
f 1065 1086 1085
f 1065 1066 1086
f 1066 1087 1086
f 1067 1068 1088
f 1068 1089 1088
f 1068 1069 1089
f 1069 1090 1089
f 1069 1070 1090
f 1070 1091 1090
f 1070 1071 1091
f 1071 1092 1091
f 1071 1072 1092
f 1072 1093 1092
f 1072 1073 1093
f 1073 1094 1093
f 1073 1074 1094
f 1074 1095 1094
f 1074 1075 1095
f 1075 1096 1095
f 1075 1076 1096
f 1076 1097 1096
f 1076 1077 1097
f 1077 1098 1097
f 1077 1078 1098
f 1078 1099 1098
f 1078 1079 1099
f 1079 1100 1099
f 1079 1080 1100
f 1080 1101 1100
f 1080 1081 1101
f 1081 1102 1101
f 1081 1082 1102
f 1082 1103 1102
f 1082 1083 1103
f 1083 1104 1103
f 1083 1084 1104
f 1084 1105 1104
f 1084 1085 1105
f 1085 1106 1105
f 1085 1086 1106
f 1086 1107 1106
f 1086 1087 1107
f 1087 1108 1107
f 1088 1089 1109
f 1089 1110 1109
f 1089 1090 1110
f 1090 1111 1110
f 1090 1091 1111
f 1091 1112 1111
f 1091 1092 1112
f 1092 1113 1112
f 1092 1093 1113
f 1093 1114 1113
f 1093 1094 1114
f 1094 1115 1114
f 1094 1095 1115
f 1095 1116 1115
f 1095 1096 1116
f 1096 1117 1116
f 1096 1097 1117
f 1097 1118 1117
f 1097 1098 1118
f 1098 1119 1118
f 1098 1099 1119
f 1099 1120 1119
f 1099 1100 1120
f 1100 1121 1120
f 1100 1101 1121
f 1101 1122 1121
f 1101 1102 1122
f 1102 1123 1122
f 1102 1103 1123
f 1103 1124 1123
f 1103 1104 1124
f 1104 1125 1124
f 1104 1105 1125
f 1105 1126 1125
f 1105 1106 1126
f 1106 1127 1126
f 1106 1107 1127
f 1107 1128 1127
f 1107 1108 1128
f 1108 1129 1128
f 1109 1110 1130
f 1110 1131 1130
f 1110 1111 1131
f 1111 1132 1131
f 1111 1112 1132
f 1112 1133 1132
f 1112 1113 1133
f 1113 1134 1133
f 1113 1114 1134
f 1114 1135 1134
f 1114 1115 1135
f 1115 1136 1135
f 1115 1116 1136
f 1116 1137 1136
f 1116 1117 1137
f 1117 1138 1137
f 1117 1118 1138
f 1118 1139 1138
f 1118 1119 1139
f 1119 1140 1139
f 1119 1120 1140
f 1120 1141 1140
f 1120 1121 1141
f 1121 1142 1141
f 1121 1122 1142
f 1122 1143 1142
f 1122 1123 1143
f 1123 1144 1143
f 1123 1124 1144
f 1124 1145 1144
f 1124 1125 1145
f 1125 1146 1145
f 1125 1126 1146
f 1126 1147 1146
f 1126 1127 1147
f 1127 1148 1147
f 1127 1128 1148
f 1128 1149 1148
f 1128 1129 1149
f 1129 1150 1149
f 1151 1152 1172
f 1152 1173 1172
f 1152 1153 1173
f 1153 1174 1173
f 1153 1154 1174
f 1154 1175 1174
f 1154 1155 1175
f 1155 1176 1175
f 1155 1156 1176
f 1156 1177 1176
f 1156 1157 1177
f 1157 1178 1177
f 1157 1158 1178
f 1158 1179 1178
f 1158 1159 1179
f 1159 1180 1179
f 1159 1160 1180
f 1160 1181 1180
f 1160 1161 1181
f 1161 1182 1181
f 1161 1162 1182
f 1162 1183 1182
f 1162 1163 1183
f 1163 1184 1183
f 1163 1164 1184
f 1164 1185 1184
f 1164 1165 1185
f 1165 1186 1185
f 1165 1166 1186
f 1166 1187 1186
f 1166 1167 1187
f 1167 1188 1187
f 1167 1168 1188
f 1168 1189 1188
f 1168 1169 1189
f 1169 1190 1189
f 1169 1170 1190
f 1170 1191 1190
f 1170 1171 1191
f 1171 1192 1191
f 1172 1173 1193
f 1173 1194 1193
f 1173 1174 1194
f 1174 1195 1194
f 1174 1175 1195
f 1175 1196 1195
f 1175 1176 1196
f 1176 1197 1196
f 1176 1177 1197
f 1177 1198 1197
f 1177 1178 1198
f 1178 1199 1198
f 1178 1179 1199
f 1179 1200 1199
f 1179 1180 1200
f 1180 1201 1200
f 1180 1181 1201
f 1181 1202 1201
f 1181 1182 1202
f 1182 1203 1202
f 1182 1183 1203
f 1183 1204 1203
f 1183 1184 1204
f 1184 1205 1204
f 1184 1185 1205
f 1185 1206 1205
f 1185 1186 1206
f 1186 1207 1206
f 1186 1187 1207
f 1187 1208 1207
f 1187 1188 1208
f 1188 1209 1208
f 1188 1189 1209
f 1189 1210 1209
f 1189 1190 1210
f 1190 1211 1210
f 1190 1191 1211
f 1191 1212 1211
f 1191 1192 1212
f 1192 1213 1212
f 1193 1194 1214
f 1194 1215 1214
f 1194 1195 1215
f 1195 1216 1215
f 1195 1196 1216
f 1196 1217 1216
f 1196 1197 1217
f 1197 1218 1217
f 1197 1198 1218
f 1198 1219 1218
f 1198 1199 1219
f 1199 1220 1219
f 1199 1200 1220
f 1200 1221 1220
f 1200 1201 1221
f 1201 1222 1221
f 1201 1202 1222
f 1202 1223 1222
f 1202 1203 1223
f 1203 1224 1223
f 1203 1204 1224
f 1204 1225 1224
f 1204 1205 1225
f 1205 1226 1225
f 1205 1206 1226
f 1206 1227 1226
f 1206 1207 1227
f 1207 1228 1227
f 1207 1208 1228
f 1208 1229 1228
f 1208 1209 1229
f 1209 1230 1229
f 1209 1210 1230
f 1210 1231 1230
f 1210 1211 1231
f 1211 1232 1231
f 1211 1212 1232
f 1212 1233 1232
f 1212 1213 1233
f 1213 1234 1233
f 1214 1215 1235
f 1215 1236 1235
f 1215 1216 1236
f 1216 1237 1236
f 1216 1217 1237
f 1217 1238 1237
f 1217 1218 1238
f 1218 1239 1238
f 1218 1219 1239
f 1219 1240 1239
f 1219 1220 1240
f 1220 1241 1240
f 1220 1221 1241
f 1221 1242 1241
f 1221 1222 1242
f 1222 1243 1242
f 1222 1223 1243
f 1223 1244 1243
f 1223 1224 1244
f 1224 1245 1244
f 1224 1225 1245
f 1225 1246 1245
f 1225 1226 1246
f 1226 1247 1246
f 1226 1227 1247
f 1227 1248 1247
f 1227 1228 1248
f 1228 1249 1248
f 1228 1229 1249
f 1229 1250 1249
f 1229 1230 1250
f 1230 1251 1250
f 1230 1231 1251
f 1231 1252 1251
f 1231 1232 1252
f 1232 1253 1252
f 1232 1233 1253
f 1233 1254 1253
f 1233 1234 1254
f 1234 1255 1254
f 1235 1236 1256
f 1236 1257 1256
f 1236 1237 1257
f 1237 1258 1257
f 1237 1238 1258
f 1238 1259 1258
f 1238 1239 1259
f 1239 1260 1259
f 1239 1240 1260
f 1240 1261 1260
f 1240 1241 1261
f 1241 1262 1261
f 1241 1242 1262
f 1242 1263 1262
f 1242 1243 1263
f 1243 1264 1263
f 1243 1244 1264
f 1244 1265 1264
f 1244 1245 1265
f 1245 1266 1265
f 1245 1246 1266
f 1246 1267 1266
f 1246 1247 1267
f 1247 1268 1267
f 1247 1248 1268
f 1248 1269 1268
f 1248 1249 1269
f 1249 1270 1269
f 1249 1250 1270
f 1250 1271 1270
f 1250 1251 1271
f 1251 1272 1271
f 1251 1252 1272
f 1252 1273 1272
f 1252 1253 1273
f 1253 1274 1273
f 1253 1254 1274
f 1254 1275 1274
f 1254 1255 1275
f 1255 1276 1275
f 1256 1257 1277
f 1257 1278 1277
f 1257 1258 1278
f 1258 1279 1278
f 1258 1259 1279
f 1259 1280 1279
f 1259 1260 1280
f 1260 1281 1280
f 1260 1261 1281
f 1261 1282 1281
f 1261 1262 1282
f 1262 1283 1282
f 1262 1263 1283
f 1263 1284 1283
f 1263 1264 1284
f 1264 1285 1284
f 1264 1265 1285
f 1265 1286 1285
f 1265 1266 1286
f 1266 1287 1286
f 1266 1267 1287
f 1267 1288 1287
f 1267 1268 1288
f 1268 1289 1288
f 1268 1269 1289
f 1269 1290 1289
f 1269 1270 1290
f 1270 1291 1290
f 1270 1271 1291
f 1271 1292 1291
f 1271 1272 1292
f 1272 1293 1292
f 1272 1273 1293
f 1273 1294 1293
f 1273 1274 1294
f 1274 1295 1294
f 1274 1275 1295
f 1275 1296 1295
f 1275 1276 1296
f 1276 1297 1296
f 1277 1278 1298
f 1278 1299 1298
f 1278 1279 1299
f 1279 1300 1299
f 1279 1280 1300
f 1280 1301 1300
f 1280 1281 1301
f 1281 1302 1301
f 1281 1282 1302
f 1282 1303 1302
f 1282 1283 1303
f 1283 1304 1303
f 1283 1284 1304
f 1284 1305 1304
f 1284 1285 1305
f 1285 1306 1305
f 1285 1286 1306
f 1286 1307 1306
f 1286 1287 1307
f 1287 1308 1307
f 1287 1288 1308
f 1288 1309 1308
f 1288 1289 1309
f 1289 1310 1309
f 1289 1290 1310
f 1290 1311 1310
f 1290 1291 1311
f 1291 1312 1311
f 1291 1292 1312
f 1292 1313 1312
f 1292 1293 1313
f 1293 1314 1313
f 1293 1294 1314
f 1294 1315 1314
f 1294 1295 1315
f 1295 1316 1315
f 1295 1296 1316
f 1296 1317 1316
f 1296 1297 1317
f 1297 1318 1317
f 1298 1299 1319
f 1299 1320 1319
f 1299 1300 1320
f 1300 1321 1320
f 1300 1301 1321
f 1301 1322 1321
f 1301 1302 1322
f 1302 1323 1322
f 1302 1303 1323
f 1303 1324 1323
f 1303 1304 1324
f 1304 1325 1324
f 1304 1305 1325
f 1305 1326 1325
f 1305 1306 1326
f 1306 1327 1326
f 1306 1307 1327
f 1307 1328 1327
f 1307 1308 1328
f 1308 1329 1328
f 1308 1309 1329
f 1309 1330 1329
f 1309 1310 1330
f 1310 1331 1330
f 1310 1311 1331
f 1311 1332 1331
f 1311 1312 1332
f 1312 1333 1332
f 1312 1313 1333
f 1313 1334 1333
f 1313 1314 1334
f 1314 1335 1334
f 1314 1315 1335
f 1315 1336 1335
f 1315 1316 1336
f 1316 1337 1336
f 1316 1317 1337
f 1317 1338 1337
f 1317 1318 1338
f 1318 1339 1338
f 1319 1320 1340
f 1320 1341 1340
f 1320 1321 1341
f 1321 1342 1341
f 1321 1322 1342
f 1322 1343 1342
f 1322 1323 1343
f 1323 1344 1343
f 1323 1324 1344
f 1324 1345 1344
f 1324 1325 1345
f 1325 1346 1345
f 1325 1326 1346
f 1326 1347 1346
f 1326 1327 1347
f 1327 1348 1347
f 1327 1328 1348
f 1328 1349 1348
f 1328 1329 1349
f 1329 1350 1349
f 1329 1330 1350
f 1330 1351 1350
f 1330 1331 1351
f 1331 1352 1351
f 1331 1332 1352
f 1332 1353 1352
f 1332 1333 1353
f 1333 1354 1353
f 1333 1334 1354
f 1334 1355 1354
f 1334 1335 1355
f 1335 1356 1355
f 1335 1336 1356
f 1336 1357 1356
f 1336 1337 1357
f 1337 1358 1357
f 1337 1338 1358
f 1338 1359 1358
f 1338 1339 1359
f 1339 1360 1359
f 1340 1341 1361
f 1341 1362 1361
f 1341 1342 1362
f 1342 1363 1362
f 1342 1343 1363
f 1343 1364 1363
f 1343 1344 1364
f 1344 1365 1364
f 1344 1345 1365
f 1345 1366 1365
f 1345 1346 1366
f 1346 1367 1366
f 1346 1347 1367
f 1347 1368 1367
f 1347 1348 1368
f 1348 1369 1368
f 1348 1349 1369
f 1349 1370 1369
f 1349 1350 1370
f 1350 1371 1370
f 1350 1351 1371
f 1351 1372 1371
f 1351 1352 1372
f 1352 1373 1372
f 1352 1353 1373
f 1353 1374 1373
f 1353 1354 1374
f 1354 1375 1374
f 1354 1355 1375
f 1355 1376 1375
f 1355 1356 1376
f 1356 1377 1376
f 1356 1357 1377
f 1357 1378 1377
f 1357 1358 1378
f 1358 1379 1378
f 1358 1359 1379
f 1359 1380 1379
f 1359 1360 1380
f 1360 1381 1380
f 1361 1362 1382
f 1362 1383 1382
f 1362 1363 1383
f 1363 1384 1383
f 1363 1364 1384
f 1364 1385 1384
f 1364 1365 1385
f 1365 1386 1385
f 1365 1366 1386
f 1366 1387 1386
f 1366 1367 1387
f 1367 1388 1387
f 1367 1368 1388
f 1368 1389 1388
f 1368 1369 1389
f 1369 1390 1389
f 1369 1370 1390
f 1370 1391 1390
f 1370 1371 1391
f 1371 1392 1391
f 1371 1372 1392
f 1372 1393 1392
f 1372 1373 1393
f 1373 1394 1393
f 1373 1374 1394
f 1374 1395 1394
f 1374 1375 1395
f 1375 1396 1395
f 1375 1376 1396
f 1376 1397 1396
f 1376 1377 1397
f 1377 1398 1397
f 1377 1378 1398
f 1378 1399 1398
f 1378 1379 1399
f 1379 1400 1399
f 1379 1380 1400
f 1380 1401 1400
f 1380 1381 1401
f 1381 1402 1401
f 1382 1383 1403
f 1383 1404 1403
f 1383 1384 1404
f 1384 1405 1404
f 1384 1385 1405
f 1385 1406 1405
f 1385 1386 1406
f 1386 1407 1406
f 1386 1387 1407
f 1387 1408 1407
f 1387 1388 1408
f 1388 1409 1408
f 1388 1389 1409
f 1389 1410 1409
f 1389 1390 1410
f 1390 1411 1410
f 1390 1391 1411
f 1391 1412 1411
f 1391 1392 1412
f 1392 1413 1412
f 1392 1393 1413
f 1393 1414 1413
f 1393 1394 1414
f 1394 1415 1414
f 1394 1395 1415
f 1395 1416 1415
f 1395 1396 1416
f 1396 1417 1416
f 1396 1397 1417
f 1397 1418 1417
f 1397 1398 1418
f 1398 1419 1418
f 1398 1399 1419
f 1399 1420 1419
f 1399 1400 1420
f 1400 1421 1420
f 1400 1401 1421
f 1401 1422 1421
f 1401 1402 1422
f 1402 1423 1422
f 1403 1404 1424
f 1404 1425 1424
f 1404 1405 1425
f 1405 1426 1425
f 1405 1406 1426
f 1406 1427 1426
f 1406 1407 1427
f 1407 1428 1427
f 1407 1408 1428
f 1408 1429 1428
f 1408 1409 1429
f 1409 1430 1429
f 1409 1410 1430
f 1410 1431 1430
f 1410 1411 1431
f 1411 1432 1431
f 1411 1412 1432
f 1412 1433 1432
f 1412 1413 1433
f 1413 1434 1433
f 1413 1414 1434
f 1414 1435 1434
f 1414 1415 1435
f 1415 1436 1435
f 1415 1416 1436
f 1416 1437 1436
f 1416 1417 1437
f 1417 1438 1437
f 1417 1418 1438
f 1418 1439 1438
f 1418 1419 1439
f 1419 1440 1439
f 1419 1420 1440
f 1420 1441 1440
f 1420 1421 1441
f 1421 1442 1441
f 1421 1422 1442
f 1422 1443 1442
f 1422 1423 1443
f 1423 1444 1443
f 1424 1425 1445
f 1425 1446 1445
f 1425 1426 1446
f 1426 1447 1446
f 1426 1427 1447
f 1427 1448 1447
f 1427 1428 1448
f 1428 1449 1448
f 1428 1429 1449
f 1429 1450 1449
f 1429 1430 1450
f 1430 1451 1450
f 1430 1431 1451
f 1431 1452 1451
f 1431 1432 1452
f 1432 1453 1452
f 1432 1433 1453
f 1433 1454 1453
f 1433 1434 1454
f 1434 1455 1454
f 1434 1435 1455
f 1435 1456 1455
f 1435 1436 1456
f 1436 1457 1456
f 1436 1437 1457
f 1437 1458 1457
f 1437 1438 1458
f 1438 1459 1458
f 1438 1439 1459
f 1439 1460 1459
f 1439 1440 1460
f 1440 1461 1460
f 1440 1441 1461
f 1441 1462 1461
f 1441 1442 1462
f 1442 1463 1462
f 1442 1443 1463
f 1443 1464 1463
f 1443 1444 1464
f 1444 1465 1464
f 1445 1446 1466
f 1446 1467 1466
f 1446 1447 1467
f 1447 1468 1467
f 1447 1448 1468
f 1448 1469 1468
f 1448 1449 1469
f 1449 1470 1469
f 1449 1450 1470
f 1450 1471 1470
f 1450 1451 1471
f 1451 1472 1471
f 1451 1452 1472
f 1452 1473 1472
f 1452 1453 1473
f 1453 1474 1473
f 1453 1454 1474
f 1454 1475 1474
f 1454 1455 1475
f 1455 1476 1475
f 1455 1456 1476
f 1456 1477 1476
f 1456 1457 1477
f 1457 1478 1477
f 1457 1458 1478
f 1458 1479 1478
f 1458 1459 1479
f 1459 1480 1479
f 1459 1460 1480
f 1460 1481 1480
f 1460 1461 1481
f 1461 1482 1481
f 1461 1462 1482
f 1462 1483 1482
f 1462 1463 1483
f 1463 1484 1483
f 1463 1464 1484
f 1464 1485 1484
f 1464 1465 1485
f 1465 1486 1485
